M48
INCH
T01C0.1201
T02C0.126
T03C0.212
T04C0.2362
T05C0.2677
T06C0.3
%
T01
X+009878Y+049503
X+004878Y+049503
X+014940Y+049503
X+019940Y+049503
T02
X+021370Y+005117G85X+020386Y+005117
X+007370Y+005117G85X+006386Y+005117
X+007370Y+053315G85X+006386Y+053315
X+021370Y+053315G85X+020386Y+053315
T03
X+005781Y+009363
X+005781Y+011955
X+007065Y+049503
X+012065Y+049503
X+017065Y+049503
X+022065Y+049503
T04
X+009878Y+010378
X+013878Y+010378
X+017878Y+010378
X+021878Y+010378
X+021878Y+015065
X+017878Y+015065
X+013878Y+015065
X+009878Y+015065
X+005878Y+015565
X+005878Y+020315
X+009878Y+019753
X+013878Y+019753
X+017878Y+019753
X+021878Y+019753
X+021878Y+024503
X+017878Y+024503
X+013878Y+024503
X+009878Y+024503
X+005878Y+025065
T05
X+006378Y+034940
X+011378Y+034940
X+016378Y+034940
X+021378Y+034940
X+021440Y+045253
X+016440Y+045253
X+011440Y+045253
X+006440Y+045253
T06
X+021315Y+029628
X+016378Y+029628
X+011503Y+029628
T00
M30
