G04 DipTrace 3.3.0.0*
G04 threshold_panel_01.GTL*
%MOIN*%
G04 #@! TF.FileFunction,Copper,L1,Top*
G04 #@! TF.Part,Single*
G04 #@! TA.AperFunction,CopperBalancing*
%ADD15C,0.008*%
G04 #@! TA.AperFunction,ComponentPad*
%ADD18C,0.32*%
%ADD19O,0.299213X0.177165*%
%ADD20C,0.334646*%
%FSLAX26Y26*%
G04*
G70*
G90*
G75*
G01*
G04 Top*
%LPD*%
X413824Y5423147D2*
D15*
X583693D1*
X791839D2*
X1983693D1*
X2191839D2*
X2361723D1*
X413824Y5415278D2*
X569677D1*
X805854D2*
X1969677D1*
X2205854D2*
X2361723D1*
X413824Y5407409D2*
X559442D1*
X816089D2*
X1959442D1*
X2216089D2*
X2361723D1*
X413824Y5399541D2*
X551411D1*
X824121D2*
X1951411D1*
X2224121D2*
X2361723D1*
X413824Y5391672D2*
X544927D1*
X830605D2*
X1944927D1*
X2230605D2*
X2361723D1*
X413824Y5383803D2*
X539646D1*
X835886D2*
X1939646D1*
X2235886D2*
X2361723D1*
X413824Y5375934D2*
X535349D1*
X840182D2*
X1935349D1*
X2240182D2*
X2361723D1*
X413824Y5368066D2*
X531895D1*
X843636D2*
X1931895D1*
X2243636D2*
X2361723D1*
X413824Y5360197D2*
X529207D1*
X846324D2*
X1929207D1*
X2246324D2*
X2361723D1*
X413824Y5352328D2*
X527207D1*
X848324D2*
X1927207D1*
X2248324D2*
X2361723D1*
X413824Y5344459D2*
X525879D1*
X849652D2*
X1925879D1*
X2249652D2*
X2361723D1*
X413824Y5336591D2*
X525161D1*
X850370D2*
X1925161D1*
X2250370D2*
X2361723D1*
X413824Y5328722D2*
X525083D1*
X850449D2*
X1925083D1*
X2250449D2*
X2361723D1*
X413824Y5320853D2*
X525598D1*
X849933D2*
X1925598D1*
X2249933D2*
X2361723D1*
X413824Y5312984D2*
X526755D1*
X848777D2*
X1926755D1*
X2248777D2*
X2361723D1*
X413824Y5305115D2*
X528551D1*
X846980D2*
X1928551D1*
X2246980D2*
X2361723D1*
X413824Y5297247D2*
X531035D1*
X844496D2*
X1931035D1*
X2244496D2*
X2361723D1*
X413824Y5289378D2*
X534255D1*
X841277D2*
X1934255D1*
X2241277D2*
X2361723D1*
X413824Y5281509D2*
X538302D1*
X837230D2*
X1938302D1*
X2237230D2*
X2361723D1*
X413824Y5273640D2*
X543286D1*
X832245D2*
X1943286D1*
X2232245D2*
X2361723D1*
X413824Y5265772D2*
X549395D1*
X826136D2*
X1949395D1*
X2226136D2*
X2361723D1*
X413824Y5257903D2*
X556927D1*
X818605D2*
X1956927D1*
X2218605D2*
X2361723D1*
X413824Y5250034D2*
X566427D1*
X809105D2*
X1966427D1*
X2209105D2*
X2361723D1*
X413824Y5242165D2*
X579067D1*
X796465D2*
X1979067D1*
X2196465D2*
X2361723D1*
X413824Y5234297D2*
X598927D1*
X776605D2*
X1998927D1*
X2176605D2*
X2361723D1*
X413824Y5226428D2*
X2361723D1*
X413824Y5218559D2*
X2361723D1*
X413824Y5210690D2*
X2361723D1*
X413824Y5202822D2*
X2361723D1*
X413824Y5194953D2*
X2361723D1*
X413824Y5187084D2*
X2361723D1*
X413824Y5179215D2*
X2361723D1*
X413824Y5171346D2*
X2361723D1*
X413824Y5163478D2*
X2361723D1*
X413824Y5155609D2*
X2361723D1*
X413824Y5147740D2*
X2361723D1*
X413824Y5139871D2*
X2361723D1*
X413824Y5132003D2*
X2361723D1*
X413824Y5124134D2*
X2361723D1*
X413824Y5116265D2*
X2361723D1*
X413824Y5108396D2*
X2361723D1*
X413824Y5100528D2*
X2361723D1*
X413824Y5092659D2*
X2361723D1*
X413824Y5084790D2*
X2361723D1*
X413824Y5076921D2*
X2361723D1*
X413824Y5069052D2*
X2361723D1*
X413824Y5061184D2*
X664521D1*
X748510D2*
X1164521D1*
X1248510D2*
X1664521D1*
X1748510D2*
X2164521D1*
X2248510D2*
X2361723D1*
X413824Y5053315D2*
X647567D1*
X765465D2*
X1147583D1*
X1265465D2*
X1647583D1*
X1765465D2*
X2147583D1*
X2265465D2*
X2361723D1*
X413824Y5045446D2*
X635427D1*
X777605D2*
X1135427D1*
X1277605D2*
X1635427D1*
X1777605D2*
X2135427D1*
X2277605D2*
X2361723D1*
X413824Y5037577D2*
X625864D1*
X787167D2*
X1125864D1*
X1287167D2*
X1625864D1*
X1787167D2*
X2125864D1*
X2287167D2*
X2361723D1*
X413824Y5029709D2*
X618035D1*
X794996D2*
X1118035D1*
X1294996D2*
X1618035D1*
X1794996D2*
X2118035D1*
X2294996D2*
X2361723D1*
X413824Y5021840D2*
X476333D1*
X499198D2*
X611505D1*
X801526D2*
X976333D1*
X999198D2*
X1111505D1*
X1301526D2*
X1482583D1*
X1505449D2*
X1611505D1*
X1801526D2*
X1982583D1*
X2005449D2*
X2111505D1*
X2301526D2*
X2361723D1*
X413824Y5013971D2*
X452646D1*
X522886D2*
X606005D1*
X807026D2*
X952646D1*
X1022886D2*
X1106005D1*
X1307026D2*
X1458911D1*
X1529136D2*
X1606005D1*
X1807026D2*
X1958895D1*
X2029136D2*
X2106005D1*
X2307026D2*
X2361723D1*
X413824Y5006102D2*
X440942D1*
X534589D2*
X601395D1*
X811636D2*
X940942D1*
X1034589D2*
X1101395D1*
X1311636D2*
X1447193D1*
X1540839D2*
X1601395D1*
X1811636D2*
X1947193D1*
X2040839D2*
X2101395D1*
X2311636D2*
X2361723D1*
X413824Y4998234D2*
X432786D1*
X542745D2*
X597551D1*
X815480D2*
X932786D1*
X1042745D2*
X1097551D1*
X1315480D2*
X1439035D1*
X1548996D2*
X1597551D1*
X1815480D2*
X1939035D1*
X2048996D2*
X2097551D1*
X2315480D2*
X2361723D1*
X413824Y4990365D2*
X426739D1*
X548793D2*
X594395D1*
X818636D2*
X926739D1*
X1048793D2*
X1094395D1*
X1318636D2*
X1432990D1*
X1555042D2*
X1594395D1*
X1818636D2*
X1932990D1*
X2055042D2*
X2094395D1*
X2318636D2*
X2361723D1*
X413824Y4982496D2*
X422177D1*
X553354D2*
X591864D1*
X821167D2*
X922177D1*
X1053354D2*
X1091864D1*
X1321167D2*
X1428427D1*
X1559605D2*
X1591864D1*
X1821167D2*
X1928427D1*
X2059605D2*
X2091864D1*
X2321167D2*
X2361723D1*
X413824Y4974627D2*
X418827D1*
X556698D2*
X589927D1*
X823105D2*
X918833D1*
X1056698D2*
X1089927D1*
X1323105D2*
X1425083D1*
X1562949D2*
X1589927D1*
X1823105D2*
X1925083D1*
X2062949D2*
X2089927D1*
X2323105D2*
X2361723D1*
X413824Y4966759D2*
X416516D1*
X559026D2*
X588551D1*
X824480D2*
X916505D1*
X1059026D2*
X1088551D1*
X1324480D2*
X1422755D1*
X1565277D2*
X1588551D1*
X1824480D2*
X1922755D1*
X2065277D2*
X2088551D1*
X2324480D2*
X2361723D1*
X560417Y4958890D2*
X587707D1*
X825324D2*
X915130D1*
X1060417D2*
X1087707D1*
X1325324D2*
X1421379D1*
X1566667D2*
X1587707D1*
X1825324D2*
X1921379D1*
X2066652D2*
X2087707D1*
X2325324D2*
X2361723D1*
X560917Y4951021D2*
X587395D1*
X825636D2*
X914614D1*
X1060917D2*
X1087395D1*
X1325636D2*
X1420864D1*
X1567167D2*
X1587395D1*
X1825636D2*
X1920864D1*
X2067167D2*
X2087395D1*
X2325636D2*
X2361723D1*
X560573Y4943152D2*
X587614D1*
X825417D2*
X914958D1*
X1060573D2*
X1087614D1*
X1325417D2*
X1421207D1*
X1566824D2*
X1587614D1*
X1825417D2*
X1921207D1*
X2066824D2*
X2087614D1*
X2325417D2*
X2361723D1*
X559354Y4935283D2*
X588349D1*
X824682D2*
X916177D1*
X1059354D2*
X1088349D1*
X1324682D2*
X1422427D1*
X1565605D2*
X1588349D1*
X1824682D2*
X1922427D1*
X2065605D2*
X2088349D1*
X2324682D2*
X2361723D1*
X413824Y4927415D2*
X418295D1*
X557230D2*
X589630D1*
X823402D2*
X918318D1*
X1057230D2*
X1089630D1*
X1323417D2*
X1424567D1*
X1563480D2*
X1589630D1*
X1823417D2*
X1924551D1*
X2063480D2*
X2089630D1*
X2323417D2*
X2361723D1*
X413824Y4919546D2*
X421458D1*
X554089D2*
X591458D1*
X821573D2*
X921458D1*
X1054089D2*
X1091458D1*
X1321573D2*
X1427707D1*
X1560339D2*
X1591458D1*
X1821573D2*
X1927707D1*
X2060324D2*
X2091458D1*
X2321573D2*
X2361723D1*
X413824Y4911677D2*
X425755D1*
X549777D2*
X593864D1*
X819167D2*
X925755D1*
X1049777D2*
X1093864D1*
X1319167D2*
X1432005D1*
X1556026D2*
X1593864D1*
X1819167D2*
X1932005D1*
X2056026D2*
X2093864D1*
X2319167D2*
X2361723D1*
X413824Y4903808D2*
X431490D1*
X544042D2*
X596895D1*
X816136D2*
X931490D1*
X1044042D2*
X1096895D1*
X1316136D2*
X1437739D1*
X1550293D2*
X1596895D1*
X1816136D2*
X1937739D1*
X2050293D2*
X2096895D1*
X2316136D2*
X2361723D1*
X413824Y4895940D2*
X439161D1*
X536370D2*
X600614D1*
X812433D2*
X939161D1*
X1036370D2*
X1100598D1*
X1312433D2*
X1445427D1*
X1542621D2*
X1600598D1*
X1812433D2*
X1945411D1*
X2042621D2*
X2100598D1*
X2312433D2*
X2361723D1*
X413824Y4888071D2*
X449990D1*
X525542D2*
X605067D1*
X807965D2*
X949990D1*
X1025542D2*
X1105067D1*
X1307980D2*
X1456239D1*
X1531808D2*
X1605067D1*
X1807980D2*
X1956239D1*
X2031793D2*
X2105067D1*
X2307980D2*
X2361723D1*
X413824Y4880202D2*
X468879D1*
X506652D2*
X610379D1*
X802667D2*
X968879D1*
X1006652D2*
X1110364D1*
X1302667D2*
X1475130D1*
X1512902D2*
X1610364D1*
X1802667D2*
X1975130D1*
X2012902D2*
X2110364D1*
X2302667D2*
X2361723D1*
X413824Y4872333D2*
X616693D1*
X796339D2*
X1116693D1*
X1296339D2*
X1616693D1*
X1796339D2*
X2116693D1*
X2296339D2*
X2361723D1*
X413824Y4864465D2*
X624239D1*
X788793D2*
X1124239D1*
X1288793D2*
X1624239D1*
X1788793D2*
X2124239D1*
X2288793D2*
X2361723D1*
X413824Y4856596D2*
X633427D1*
X779605D2*
X1133427D1*
X1279605D2*
X1633427D1*
X1779605D2*
X2133427D1*
X2279605D2*
X2361723D1*
X413824Y4848727D2*
X644974D1*
X768058D2*
X1144974D1*
X1268058D2*
X1644974D1*
X1768058D2*
X2144974D1*
X2268058D2*
X2361723D1*
X413824Y4840858D2*
X660661D1*
X752370D2*
X1160661D1*
X1252370D2*
X1660661D1*
X1752370D2*
X2160661D1*
X2252370D2*
X2361723D1*
X413824Y4832990D2*
X690035D1*
X722996D2*
X1190035D1*
X1223010D2*
X1690035D1*
X1723010D2*
X2190035D1*
X2223010D2*
X2361723D1*
X413824Y4825121D2*
X2361723D1*
X413824Y4817252D2*
X2361723D1*
X413824Y4809383D2*
X2361723D1*
X413824Y4801514D2*
X2361723D1*
X413824Y4793646D2*
X2361723D1*
X413824Y4785777D2*
X2361723D1*
X413824Y4777908D2*
X2361723D1*
X413824Y4770039D2*
X2361723D1*
X413824Y4762171D2*
X2361723D1*
X413824Y4754302D2*
X2361723D1*
X413824Y4746433D2*
X2361723D1*
X413824Y4738564D2*
X2361723D1*
X413824Y4730696D2*
X2361723D1*
X413824Y4722827D2*
X2361723D1*
X413824Y4714958D2*
X2361723D1*
X413824Y4707089D2*
X2361723D1*
X413824Y4699220D2*
X2361723D1*
X413824Y4691352D2*
X597286D1*
X690745D2*
X1097286D1*
X1190745D2*
X1597286D1*
X1690745D2*
X2097286D1*
X2190745D2*
X2361723D1*
X413824Y4683483D2*
X574942D1*
X713089D2*
X1074942D1*
X1213089D2*
X1574942D1*
X1713089D2*
X2074942D1*
X2213089D2*
X2361723D1*
X413824Y4675614D2*
X559021D1*
X729010D2*
X1059021D1*
X1229010D2*
X1559021D1*
X1729010D2*
X2059021D1*
X2229010D2*
X2361723D1*
X413824Y4667745D2*
X546302D1*
X741730D2*
X1046302D1*
X1241730D2*
X1546302D1*
X1741730D2*
X2046302D1*
X2241730D2*
X2361723D1*
X413824Y4659877D2*
X535630D1*
X752402D2*
X1035630D1*
X1252402D2*
X1535630D1*
X1752402D2*
X2035630D1*
X2252402D2*
X2361723D1*
X413824Y4652008D2*
X526474D1*
X761558D2*
X1026474D1*
X1261558D2*
X1526474D1*
X1761558D2*
X2026474D1*
X2261558D2*
X2361723D1*
X413824Y4644139D2*
X518458D1*
X769573D2*
X1018458D1*
X1269573D2*
X1518458D1*
X1769573D2*
X2018458D1*
X2269573D2*
X2361723D1*
X413824Y4636270D2*
X511411D1*
X776621D2*
X1011411D1*
X1276621D2*
X1511411D1*
X1776621D2*
X2011411D1*
X2276621D2*
X2361723D1*
X413824Y4628402D2*
X505161D1*
X782870D2*
X1005161D1*
X1282870D2*
X1505161D1*
X1782870D2*
X2005161D1*
X2282870D2*
X2361723D1*
X413824Y4620533D2*
X499630D1*
X788402D2*
X999630D1*
X1288402D2*
X1499630D1*
X1788402D2*
X1999630D1*
X2288402D2*
X2361723D1*
X413824Y4612664D2*
X494707D1*
X793324D2*
X994707D1*
X1293324D2*
X1494707D1*
X1793324D2*
X1994707D1*
X2293324D2*
X2361723D1*
X413824Y4604795D2*
X490349D1*
X797682D2*
X990349D1*
X1297682D2*
X1490349D1*
X1797682D2*
X1990349D1*
X2297682D2*
X2361723D1*
X413824Y4596927D2*
X486505D1*
X801526D2*
X986505D1*
X1301526D2*
X1486505D1*
X1801526D2*
X1986505D1*
X2301526D2*
X2361723D1*
X413824Y4589058D2*
X483146D1*
X804886D2*
X983146D1*
X1304886D2*
X1483146D1*
X1804886D2*
X1983146D1*
X2304886D2*
X2361723D1*
X413824Y4581189D2*
X480223D1*
X807808D2*
X980223D1*
X1307808D2*
X1480223D1*
X1807808D2*
X1980223D1*
X2307808D2*
X2361723D1*
X413824Y4573320D2*
X477739D1*
X810293D2*
X977739D1*
X1310293D2*
X1477739D1*
X1810293D2*
X1977739D1*
X2310293D2*
X2361723D1*
X413824Y4565451D2*
X475646D1*
X812386D2*
X975646D1*
X1312386D2*
X1475646D1*
X1812386D2*
X1975646D1*
X2312386D2*
X2361723D1*
X413824Y4557583D2*
X473958D1*
X814073D2*
X973958D1*
X1314073D2*
X1473958D1*
X1814073D2*
X1973958D1*
X2314073D2*
X2361723D1*
X413824Y4549714D2*
X472646D1*
X815386D2*
X972646D1*
X1315386D2*
X1472646D1*
X1815386D2*
X1972646D1*
X2315386D2*
X2361723D1*
X413824Y4541845D2*
X471693D1*
X816339D2*
X971693D1*
X1316339D2*
X1471693D1*
X1816339D2*
X1971693D1*
X2316339D2*
X2361723D1*
X413824Y4533976D2*
X471114D1*
X816917D2*
X971114D1*
X1316917D2*
X1471114D1*
X1816917D2*
X1971114D1*
X2316917D2*
X2361723D1*
X413824Y4526108D2*
X470895D1*
X817136D2*
X970895D1*
X1317136D2*
X1470895D1*
X1817136D2*
X1970895D1*
X2317136D2*
X2361723D1*
X413824Y4518239D2*
X471035D1*
X816996D2*
X971035D1*
X1316996D2*
X1471035D1*
X1816996D2*
X1971035D1*
X2316996D2*
X2361723D1*
X413824Y4510370D2*
X471535D1*
X816496D2*
X971535D1*
X1316496D2*
X1471535D1*
X1816496D2*
X1971535D1*
X2316496D2*
X2361723D1*
X413824Y4502501D2*
X472411D1*
X815621D2*
X972411D1*
X1315621D2*
X1472411D1*
X1815621D2*
X1972411D1*
X2315621D2*
X2361723D1*
X413824Y4494633D2*
X473646D1*
X814386D2*
X973646D1*
X1314386D2*
X1473646D1*
X1814386D2*
X1973646D1*
X2314386D2*
X2361723D1*
X413824Y4486764D2*
X475255D1*
X812777D2*
X975255D1*
X1312777D2*
X1475255D1*
X1812777D2*
X1975255D1*
X2312777D2*
X2361723D1*
X413824Y4478895D2*
X477255D1*
X810777D2*
X977255D1*
X1310777D2*
X1477255D1*
X1810777D2*
X1977255D1*
X2310777D2*
X2361723D1*
X413824Y4471026D2*
X479661D1*
X808370D2*
X979661D1*
X1308370D2*
X1479661D1*
X1808370D2*
X1979661D1*
X2308370D2*
X2361723D1*
X413824Y4463157D2*
X482474D1*
X805558D2*
X982474D1*
X1305558D2*
X1482474D1*
X1805558D2*
X1982474D1*
X2305558D2*
X2361723D1*
X413824Y4455289D2*
X485739D1*
X802293D2*
X985739D1*
X1302293D2*
X1485739D1*
X1802293D2*
X1985739D1*
X2302293D2*
X2361723D1*
X413824Y4447420D2*
X489474D1*
X798558D2*
X989474D1*
X1298558D2*
X1489474D1*
X1798558D2*
X1989474D1*
X2298558D2*
X2361723D1*
X413824Y4439551D2*
X493723D1*
X794308D2*
X993723D1*
X1294308D2*
X1493723D1*
X1794308D2*
X1993723D1*
X2294308D2*
X2361723D1*
X413824Y4431682D2*
X498521D1*
X789510D2*
X998521D1*
X1289510D2*
X1498521D1*
X1789510D2*
X1998521D1*
X2289510D2*
X2361723D1*
X413824Y4423814D2*
X503927D1*
X784105D2*
X1003927D1*
X1284105D2*
X1503927D1*
X1784105D2*
X2003927D1*
X2284105D2*
X2361723D1*
X413824Y4415945D2*
X510005D1*
X778026D2*
X1010005D1*
X1278026D2*
X1510005D1*
X1778026D2*
X2010005D1*
X2278026D2*
X2361723D1*
X413824Y4408076D2*
X516879D1*
X771152D2*
X1016879D1*
X1271152D2*
X1516879D1*
X1771152D2*
X2016879D1*
X2271152D2*
X2361723D1*
X413824Y4400207D2*
X524661D1*
X763370D2*
X1024661D1*
X1263370D2*
X1524661D1*
X1763370D2*
X2024661D1*
X2263370D2*
X2361723D1*
X413824Y4392339D2*
X533551D1*
X754480D2*
X1033551D1*
X1254480D2*
X1533551D1*
X1754480D2*
X2033551D1*
X2254480D2*
X2361723D1*
X413824Y4384470D2*
X543864D1*
X744167D2*
X1043864D1*
X1244167D2*
X1543864D1*
X1744167D2*
X2043864D1*
X2244167D2*
X2361723D1*
X413824Y4376601D2*
X556083D1*
X731949D2*
X1056083D1*
X1231949D2*
X1556083D1*
X1731949D2*
X2056083D1*
X2231949D2*
X2361723D1*
X413824Y4368732D2*
X571161D1*
X716870D2*
X1071161D1*
X1216870D2*
X1571161D1*
X1716870D2*
X2071161D1*
X2216870D2*
X2361723D1*
X413824Y4360864D2*
X591583D1*
X696449D2*
X1091583D1*
X1196449D2*
X1591583D1*
X1696449D2*
X2091583D1*
X2196449D2*
X2361723D1*
X413824Y4352995D2*
X639083D1*
X648949D2*
X1139083D1*
X1148949D2*
X1639083D1*
X1648949D2*
X2139083D1*
X2148949D2*
X2361723D1*
X413824Y4345126D2*
X2361723D1*
X413824Y4337257D2*
X2361723D1*
X413824Y4329388D2*
X2361723D1*
X413824Y4321520D2*
X2361723D1*
X413824Y4313651D2*
X2361723D1*
X413824Y4305782D2*
X2361723D1*
X413824Y4297913D2*
X2361723D1*
X413824Y4290045D2*
X2361723D1*
X413824Y4282176D2*
X2361723D1*
X413824Y4274307D2*
X2361723D1*
X413824Y4266438D2*
X2361723D1*
X413824Y4258570D2*
X2361723D1*
X413824Y4250701D2*
X2361723D1*
X413824Y4242832D2*
X2361723D1*
X413824Y4234963D2*
X2361723D1*
X413824Y4227094D2*
X2361723D1*
X413824Y4219226D2*
X2361723D1*
X413824Y4211357D2*
X2361723D1*
X413824Y4203488D2*
X2361723D1*
X413824Y4195619D2*
X2361723D1*
X413824Y4187751D2*
X2361723D1*
X413824Y4179882D2*
X2361723D1*
X413824Y4172013D2*
X2361723D1*
X413824Y4164144D2*
X2361723D1*
X413824Y4156276D2*
X2361723D1*
X413824Y4148407D2*
X2361723D1*
X413824Y4140538D2*
X2361723D1*
X413824Y4132669D2*
X2361723D1*
X413824Y4124801D2*
X2361723D1*
X413824Y4116932D2*
X2361723D1*
X413824Y4109063D2*
X2361723D1*
X413824Y4101194D2*
X2361723D1*
X413824Y4093325D2*
X2361723D1*
X413824Y4085457D2*
X2361723D1*
X413824Y4077588D2*
X2361723D1*
X413824Y4069719D2*
X2361723D1*
X413824Y4061850D2*
X2361723D1*
X413824Y4053982D2*
X2361723D1*
X413824Y4046113D2*
X2361723D1*
X413824Y4038244D2*
X2361723D1*
X413824Y4030375D2*
X2361723D1*
X413824Y4022507D2*
X2361723D1*
X413824Y4014638D2*
X2361723D1*
X413824Y4006769D2*
X2361723D1*
X413824Y3998900D2*
X2361723D1*
X413824Y3991031D2*
X2361723D1*
X413824Y3983163D2*
X2361723D1*
X413824Y3975294D2*
X2361723D1*
X413824Y3967425D2*
X2361723D1*
X413824Y3959556D2*
X2361723D1*
X413824Y3951688D2*
X2361723D1*
X413824Y3943819D2*
X2361723D1*
X413824Y3935950D2*
X2361723D1*
X413824Y3928081D2*
X2361723D1*
X413824Y3920213D2*
X2361723D1*
X413824Y3912344D2*
X2361723D1*
X413824Y3904475D2*
X2361723D1*
X413824Y3896606D2*
X2361723D1*
X413824Y3888738D2*
X2361723D1*
X413824Y3880869D2*
X2361723D1*
X413824Y3873000D2*
X2361723D1*
X413824Y3865131D2*
X2361723D1*
X413824Y3857262D2*
X2361723D1*
X413824Y3849394D2*
X2361723D1*
X413824Y3841525D2*
X2361723D1*
X413824Y3833656D2*
X2361723D1*
X413824Y3825787D2*
X2361723D1*
X413824Y3817919D2*
X2361723D1*
X413824Y3810050D2*
X2361723D1*
X413824Y3802181D2*
X2361723D1*
X413824Y3794312D2*
X2361723D1*
X413824Y3786444D2*
X2361723D1*
X413824Y3778575D2*
X2361723D1*
X413824Y3770706D2*
X2361723D1*
X413824Y3762837D2*
X2361723D1*
X413824Y3754969D2*
X2361723D1*
X413824Y3747100D2*
X2361723D1*
X413824Y3739231D2*
X2361723D1*
X413824Y3731362D2*
X2361723D1*
X413824Y3723493D2*
X2361723D1*
X413824Y3715625D2*
X2361723D1*
X413824Y3707756D2*
X2361723D1*
X413824Y3699887D2*
X2361723D1*
X413824Y3692018D2*
X2361723D1*
X413824Y3684150D2*
X2361723D1*
X413824Y3676281D2*
X2361723D1*
X413824Y3668412D2*
X2361723D1*
X413824Y3660543D2*
X592661D1*
X682870D2*
X1092661D1*
X1182870D2*
X1592661D1*
X1682870D2*
X2092661D1*
X2182870D2*
X2361723D1*
X413824Y3652675D2*
X569723D1*
X705808D2*
X1069723D1*
X1205808D2*
X1569723D1*
X1705808D2*
X2069723D1*
X2205808D2*
X2361723D1*
X413824Y3644806D2*
X553567D1*
X721980D2*
X1053567D1*
X1221980D2*
X1553567D1*
X1721980D2*
X2053567D1*
X2221980D2*
X2361723D1*
X413824Y3636937D2*
X540693D1*
X734839D2*
X1040693D1*
X1234839D2*
X1540693D1*
X1734839D2*
X2040693D1*
X2234839D2*
X2361723D1*
X413824Y3629068D2*
X529942D1*
X745589D2*
X1029942D1*
X1245589D2*
X1529942D1*
X1745589D2*
X2029942D1*
X2245589D2*
X2361723D1*
X413824Y3621199D2*
X520693D1*
X754839D2*
X1020693D1*
X1254839D2*
X1520693D1*
X1754839D2*
X2020693D1*
X2254839D2*
X2361723D1*
X413824Y3613331D2*
X512630D1*
X762902D2*
X1012630D1*
X1262902D2*
X1512630D1*
X1762902D2*
X2012630D1*
X2262902D2*
X2361723D1*
X413824Y3605462D2*
X505535D1*
X769996D2*
X1005535D1*
X1269996D2*
X1505535D1*
X1769996D2*
X2005535D1*
X2269996D2*
X2361723D1*
X413824Y3597593D2*
X499255D1*
X776277D2*
X999255D1*
X1276277D2*
X1499255D1*
X1776277D2*
X1999255D1*
X2276277D2*
X2361723D1*
X413824Y3589724D2*
X493677D1*
X781870D2*
X993677D1*
X1281870D2*
X1493677D1*
X1781870D2*
X1993677D1*
X2281870D2*
X2361723D1*
X413824Y3581856D2*
X488707D1*
X786824D2*
X988707D1*
X1286824D2*
X1488707D1*
X1786824D2*
X1988707D1*
X2286824D2*
X2361723D1*
X413824Y3573987D2*
X484333D1*
X791198D2*
X984333D1*
X1291198D2*
X1484333D1*
X1791198D2*
X1984333D1*
X2291198D2*
X2361723D1*
X413824Y3566118D2*
X480458D1*
X795073D2*
X980458D1*
X1295073D2*
X1480458D1*
X1795073D2*
X1980458D1*
X2295073D2*
X2361723D1*
X413824Y3558249D2*
X477067D1*
X798465D2*
X977067D1*
X1298465D2*
X1477067D1*
X1798465D2*
X1977067D1*
X2298465D2*
X2361723D1*
X413824Y3550381D2*
X474130D1*
X801402D2*
X974130D1*
X1301402D2*
X1474130D1*
X1801402D2*
X1974130D1*
X2301402D2*
X2361723D1*
X413824Y3542512D2*
X471614D1*
X803917D2*
X971614D1*
X1303917D2*
X1471614D1*
X1803917D2*
X1971614D1*
X2303917D2*
X2361723D1*
X413824Y3534643D2*
X469505D1*
X806026D2*
X969505D1*
X1306026D2*
X1469505D1*
X1806026D2*
X1969505D1*
X2306026D2*
X2361723D1*
X413824Y3526774D2*
X467786D1*
X807745D2*
X967786D1*
X1307745D2*
X1467786D1*
X1807745D2*
X1967786D1*
X2307745D2*
X2361723D1*
X413824Y3518906D2*
X466458D1*
X809073D2*
X966458D1*
X1309073D2*
X1466458D1*
X1809073D2*
X1966458D1*
X2309073D2*
X2361723D1*
X413824Y3511037D2*
X465490D1*
X810042D2*
X965490D1*
X1310042D2*
X1465490D1*
X1810042D2*
X1965490D1*
X2310042D2*
X2361723D1*
X413824Y3503168D2*
X464895D1*
X810636D2*
X964895D1*
X1310636D2*
X1464895D1*
X1810636D2*
X1964895D1*
X2310636D2*
X2361723D1*
X413824Y3495299D2*
X464646D1*
X810886D2*
X964646D1*
X1310886D2*
X1464646D1*
X1810886D2*
X1964646D1*
X2310886D2*
X2361723D1*
X413824Y3487430D2*
X464770D1*
X810761D2*
X964770D1*
X1310761D2*
X1464770D1*
X1810761D2*
X1964770D1*
X2310761D2*
X2361723D1*
X413824Y3479562D2*
X465255D1*
X810277D2*
X965255D1*
X1310277D2*
X1465255D1*
X1810277D2*
X1965255D1*
X2310277D2*
X2361723D1*
X413824Y3471693D2*
X466098D1*
X809433D2*
X966098D1*
X1309433D2*
X1466098D1*
X1809433D2*
X1966098D1*
X2309433D2*
X2361723D1*
X413824Y3463824D2*
X467318D1*
X808214D2*
X967318D1*
X1308214D2*
X1467318D1*
X1808214D2*
X1967318D1*
X2308214D2*
X2361723D1*
X413824Y3455955D2*
X468895D1*
X806636D2*
X968895D1*
X1306636D2*
X1468895D1*
X1806636D2*
X1968895D1*
X2306636D2*
X2361723D1*
X413824Y3448087D2*
X470879D1*
X804652D2*
X970879D1*
X1304652D2*
X1470879D1*
X1804652D2*
X1970879D1*
X2304652D2*
X2361723D1*
X413824Y3440218D2*
X473255D1*
X802277D2*
X973255D1*
X1302277D2*
X1473255D1*
X1802277D2*
X1973255D1*
X2302277D2*
X2361723D1*
X413824Y3432349D2*
X476051D1*
X799480D2*
X976051D1*
X1299480D2*
X1476051D1*
X1799480D2*
X1976051D1*
X2299480D2*
X2361723D1*
X413824Y3424480D2*
X479302D1*
X796230D2*
X979302D1*
X1296230D2*
X1479302D1*
X1796230D2*
X1979302D1*
X2296230D2*
X2361723D1*
X413824Y3416612D2*
X483005D1*
X792526D2*
X983005D1*
X1292526D2*
X1483005D1*
X1792526D2*
X1983005D1*
X2292526D2*
X2361723D1*
X413824Y3408743D2*
X487223D1*
X788308D2*
X987223D1*
X1288308D2*
X1487223D1*
X1788308D2*
X1987223D1*
X2288308D2*
X2361723D1*
X413824Y3400874D2*
X491990D1*
X783542D2*
X991990D1*
X1283542D2*
X1491990D1*
X1783542D2*
X1991990D1*
X2283542D2*
X2361723D1*
X413824Y3393005D2*
X497349D1*
X778182D2*
X997349D1*
X1278182D2*
X1497349D1*
X1778182D2*
X1997349D1*
X2278182D2*
X2361723D1*
X413824Y3385136D2*
X503395D1*
X772136D2*
X1003395D1*
X1272136D2*
X1503395D1*
X1772136D2*
X2003395D1*
X2272136D2*
X2361723D1*
X413824Y3377268D2*
X510223D1*
X765308D2*
X1010223D1*
X1265308D2*
X1510223D1*
X1765308D2*
X2010223D1*
X2265308D2*
X2361723D1*
X413824Y3369399D2*
X517958D1*
X757589D2*
X1017958D1*
X1257589D2*
X1517958D1*
X1757589D2*
X2017958D1*
X2257589D2*
X2361723D1*
X413824Y3361530D2*
X526770D1*
X748761D2*
X1026770D1*
X1248761D2*
X1526770D1*
X1748761D2*
X2026770D1*
X2248761D2*
X2361723D1*
X413824Y3353661D2*
X536990D1*
X738542D2*
X1036990D1*
X1238542D2*
X1536990D1*
X1738542D2*
X2036990D1*
X2238542D2*
X2361723D1*
X413824Y3345793D2*
X549083D1*
X726449D2*
X1049083D1*
X1226449D2*
X1549083D1*
X1726449D2*
X2049083D1*
X2226449D2*
X2361723D1*
X413824Y3337924D2*
X563958D1*
X711573D2*
X1063958D1*
X1211573D2*
X1563958D1*
X1711573D2*
X2063958D1*
X2211573D2*
X2361723D1*
X413824Y3330055D2*
X583942D1*
X691589D2*
X1083942D1*
X1191589D2*
X1583942D1*
X1691589D2*
X2083942D1*
X2191589D2*
X2361723D1*
X413824Y3322186D2*
X623974D1*
X651558D2*
X1123974D1*
X1151558D2*
X1623974D1*
X1651558D2*
X2123974D1*
X2151558D2*
X2361723D1*
X413824Y3314318D2*
X2361723D1*
X413824Y3306449D2*
X2361723D1*
X413824Y3298580D2*
X2361723D1*
X413824Y3290711D2*
X2361723D1*
X413824Y3282843D2*
X2361723D1*
X413824Y3274974D2*
X2361723D1*
X413824Y3267105D2*
X2361723D1*
X413824Y3259236D2*
X2361723D1*
X413824Y3251367D2*
X2361723D1*
X413824Y3243499D2*
X2361723D1*
X413824Y3235630D2*
X2361723D1*
X413824Y3227761D2*
X2361723D1*
X413824Y3219892D2*
X2361723D1*
X413824Y3212024D2*
X2361723D1*
X413824Y3204155D2*
X2361723D1*
X413824Y3196286D2*
X2361723D1*
X413824Y3188417D2*
X2361723D1*
X413824Y3180549D2*
X2361723D1*
X413824Y3172680D2*
X2361723D1*
X413824Y3164811D2*
X2361723D1*
X413824Y3156942D2*
X2361723D1*
X413824Y3149073D2*
X2361723D1*
X413824Y3141205D2*
X1128693D1*
X1171839D2*
X1616193D1*
X1659339D2*
X2109942D1*
X2153089D2*
X2361723D1*
X413824Y3133336D2*
X1093098D1*
X1207433D2*
X1580598D1*
X1694933D2*
X2074349D1*
X2188682D2*
X2361723D1*
X413824Y3125467D2*
X1073302D1*
X1227230D2*
X1560802D1*
X1714730D2*
X2054551D1*
X2208480D2*
X2361723D1*
X413824Y3117598D2*
X1058364D1*
X1242167D2*
X1545864D1*
X1729667D2*
X2039614D1*
X2223417D2*
X2361723D1*
X413824Y3109730D2*
X1046161D1*
X1254386D2*
X1533661D1*
X1741886D2*
X2027411D1*
X2235621D2*
X2361723D1*
X413824Y3101861D2*
X1035786D1*
X1264745D2*
X1523286D1*
X1752245D2*
X2017035D1*
X2245996D2*
X2361723D1*
X413824Y3093992D2*
X1026786D1*
X1273745D2*
X1514286D1*
X1761245D2*
X2008035D1*
X2254996D2*
X2361723D1*
X413824Y3086123D2*
X1018879D1*
X1281667D2*
X1506379D1*
X1769167D2*
X2000130D1*
X2262902D2*
X2361723D1*
X413824Y3078255D2*
X1011864D1*
X1288667D2*
X1499364D1*
X1776167D2*
X1993114D1*
X2269917D2*
X2361723D1*
X413824Y3070386D2*
X1005630D1*
X1294902D2*
X1493130D1*
X1782402D2*
X1986879D1*
X2276152D2*
X2361723D1*
X413824Y3062517D2*
X1000067D1*
X1300465D2*
X1487567D1*
X1787965D2*
X1981318D1*
X2281714D2*
X2361723D1*
X413824Y3054648D2*
X995098D1*
X1305433D2*
X1482598D1*
X1792933D2*
X1976349D1*
X2286682D2*
X2361723D1*
X413824Y3046780D2*
X990677D1*
X1309854D2*
X1478177D1*
X1797354D2*
X1971927D1*
X2291105D2*
X2361723D1*
X413824Y3038911D2*
X986755D1*
X1313777D2*
X1474255D1*
X1801277D2*
X1968005D1*
X2295026D2*
X2361723D1*
X413824Y3031042D2*
X983302D1*
X1317230D2*
X1470802D1*
X1804730D2*
X1964551D1*
X2298480D2*
X2361723D1*
X413824Y3023173D2*
X980286D1*
X1320245D2*
X1467786D1*
X1807745D2*
X1961535D1*
X2301496D2*
X2361723D1*
X413824Y3015304D2*
X977677D1*
X1322854D2*
X1465177D1*
X1810354D2*
X1958927D1*
X2304105D2*
X2361723D1*
X413824Y3007436D2*
X975474D1*
X1325073D2*
X1462974D1*
X1812573D2*
X1956707D1*
X2306324D2*
X2361723D1*
X413824Y2999567D2*
X973630D1*
X1326902D2*
X1461130D1*
X1814402D2*
X1954879D1*
X2308152D2*
X2361723D1*
X413824Y2991698D2*
X972161D1*
X1328370D2*
X1459661D1*
X1815870D2*
X1953411D1*
X2309621D2*
X2361723D1*
X413824Y2983829D2*
X971067D1*
X1329465D2*
X1458567D1*
X1816965D2*
X1952318D1*
X2310714D2*
X2361723D1*
X413824Y2975961D2*
X970302D1*
X1330230D2*
X1457802D1*
X1817730D2*
X1951551D1*
X2311480D2*
X2361723D1*
X413824Y2968092D2*
X969895D1*
X1330636D2*
X1457395D1*
X1818136D2*
X1951146D1*
X2311886D2*
X2361723D1*
X413824Y2960223D2*
X969849D1*
X1330698D2*
X1457349D1*
X1818198D2*
X1951098D1*
X2311933D2*
X2361723D1*
X413824Y2952354D2*
X970130D1*
X1330402D2*
X1457630D1*
X1817902D2*
X1951379D1*
X2311652D2*
X2361723D1*
X413824Y2944486D2*
X970755D1*
X1329777D2*
X1458255D1*
X1817277D2*
X1952005D1*
X2311026D2*
X2361723D1*
X413824Y2936617D2*
X971739D1*
X1328793D2*
X1459239D1*
X1816293D2*
X1952990D1*
X2310042D2*
X2361723D1*
X413824Y2928748D2*
X973067D1*
X1327465D2*
X1460567D1*
X1814965D2*
X1954318D1*
X2308714D2*
X2361723D1*
X413824Y2920879D2*
X974770D1*
X1325761D2*
X1462270D1*
X1813261D2*
X1956021D1*
X2307010D2*
X2361723D1*
X413824Y2913010D2*
X976849D1*
X1323682D2*
X1464349D1*
X1811182D2*
X1958098D1*
X2304933D2*
X2361723D1*
X413824Y2905142D2*
X979318D1*
X1321214D2*
X1466818D1*
X1808714D2*
X1960567D1*
X2302465D2*
X2361723D1*
X413824Y2897273D2*
X982193D1*
X1318339D2*
X1469693D1*
X1805839D2*
X1963442D1*
X2299589D2*
X2361723D1*
X413824Y2889404D2*
X985490D1*
X1315042D2*
X1472990D1*
X1802542D2*
X1966739D1*
X2296293D2*
X2361723D1*
X413824Y2881535D2*
X989239D1*
X1311293D2*
X1476739D1*
X1798793D2*
X1970490D1*
X2292542D2*
X2361723D1*
X413824Y2873667D2*
X993474D1*
X1307058D2*
X1480974D1*
X1794558D2*
X1974723D1*
X2288308D2*
X2361723D1*
X413824Y2865798D2*
X998239D1*
X1302293D2*
X1485739D1*
X1789793D2*
X1979490D1*
X2283542D2*
X2361723D1*
X413824Y2857929D2*
X1003583D1*
X1296949D2*
X1491083D1*
X1784449D2*
X1984833D1*
X2278198D2*
X2361723D1*
X413824Y2850060D2*
X1009583D1*
X1290949D2*
X1497083D1*
X1778449D2*
X1990833D1*
X2272198D2*
X2361723D1*
X413824Y2842192D2*
X1016302D1*
X1284230D2*
X1503802D1*
X1771730D2*
X1997551D1*
X2265480D2*
X2361723D1*
X413824Y2834323D2*
X1023879D1*
X1276667D2*
X1511379D1*
X1764167D2*
X2005114D1*
X2257917D2*
X2361723D1*
X413824Y2826454D2*
X1032458D1*
X1268073D2*
X1519958D1*
X1755573D2*
X2013707D1*
X2249324D2*
X2361723D1*
X413824Y2818585D2*
X1042302D1*
X1258230D2*
X1529802D1*
X1745730D2*
X2023551D1*
X2239480D2*
X2361723D1*
X413824Y2810717D2*
X1053802D1*
X1246730D2*
X1541302D1*
X1734230D2*
X2035051D1*
X2227980D2*
X2361723D1*
X413824Y2802848D2*
X1067630D1*
X1232902D2*
X1555130D1*
X1720402D2*
X2048879D1*
X2214152D2*
X2361723D1*
X413824Y2794979D2*
X1085286D1*
X1215245D2*
X1572786D1*
X1702745D2*
X2066535D1*
X2196496D2*
X2361723D1*
X413824Y2787110D2*
X1111833D1*
X1188698D2*
X1599333D1*
X1676198D2*
X2093083D1*
X2169949D2*
X2361723D1*
X413824Y2779241D2*
X2361723D1*
X413824Y2771373D2*
X2361723D1*
X413824Y2763504D2*
X2361723D1*
X413824Y2755635D2*
X2361723D1*
X413824Y2747766D2*
X2361723D1*
X413824Y2739898D2*
X2361723D1*
X413824Y2732029D2*
X2361723D1*
X413824Y2724160D2*
X2361723D1*
X413824Y2716291D2*
X2361723D1*
X413824Y2708423D2*
X2361723D1*
X413824Y2700554D2*
X2361723D1*
X413824Y2692685D2*
X2361723D1*
X413824Y2684816D2*
X2361723D1*
X413824Y2676948D2*
X561521D1*
X614010D2*
X2361723D1*
X413824Y2669079D2*
X529802D1*
X645730D2*
X2361723D1*
X413824Y2661210D2*
X511051D1*
X664480D2*
X2361723D1*
X413824Y2653341D2*
X496770D1*
X678761D2*
X2361723D1*
X413824Y2645472D2*
X485051D1*
X690480D2*
X2361723D1*
X413824Y2637604D2*
X475114D1*
X700417D2*
X2361723D1*
X413824Y2629735D2*
X466505D1*
X709026D2*
X2361723D1*
X413824Y2621866D2*
X458942D1*
X716589D2*
X971239D1*
X1004293D2*
X1371239D1*
X1404293D2*
X1771239D1*
X1804293D2*
X2171239D1*
X2204293D2*
X2361723D1*
X413824Y2613997D2*
X452270D1*
X723261D2*
X933239D1*
X1042293D2*
X1333239D1*
X1442293D2*
X1733239D1*
X1842293D2*
X2133239D1*
X2242293D2*
X2361723D1*
X413824Y2606129D2*
X446349D1*
X729182D2*
X913474D1*
X1062058D2*
X1313474D1*
X1462058D2*
X1713474D1*
X1862058D2*
X2113474D1*
X2262058D2*
X2361723D1*
X413824Y2598260D2*
X441098D1*
X734433D2*
X898693D1*
X1076839D2*
X1298693D1*
X1476839D2*
X1698693D1*
X1876839D2*
X2098693D1*
X2276839D2*
X2361723D1*
X413824Y2590391D2*
X436442D1*
X739089D2*
X886677D1*
X1088854D2*
X1286677D1*
X1488854D2*
X1686677D1*
X1888854D2*
X2086677D1*
X2288854D2*
X2361723D1*
X413824Y2582522D2*
X432318D1*
X743214D2*
X876505D1*
X1099026D2*
X1276505D1*
X1499026D2*
X1676505D1*
X1899026D2*
X2076505D1*
X2299026D2*
X2361723D1*
X413824Y2574654D2*
X428693D1*
X746839D2*
X867707D1*
X1107824D2*
X1267707D1*
X1507824D2*
X1667707D1*
X1907824D2*
X2067707D1*
X2307824D2*
X2361723D1*
X413824Y2566785D2*
X425535D1*
X749996D2*
X860005D1*
X1115526D2*
X1260005D1*
X1515526D2*
X1660005D1*
X1915526D2*
X2060005D1*
X2315526D2*
X2361723D1*
X413824Y2558916D2*
X422802D1*
X752730D2*
X853223D1*
X1122324D2*
X1253223D1*
X1522324D2*
X1653223D1*
X1922324D2*
X2053223D1*
X2322324D2*
X2361723D1*
X413824Y2551047D2*
X420505D1*
X755026D2*
X847193D1*
X1128339D2*
X1247193D1*
X1528339D2*
X1647193D1*
X1928339D2*
X2047193D1*
X2328339D2*
X2361723D1*
X413824Y2543178D2*
X418576D1*
X756949D2*
X841849D1*
X1133698D2*
X1241849D1*
X1533698D2*
X1641849D1*
X1933698D2*
X2041849D1*
X2333698D2*
X2361723D1*
X413824Y2535310D2*
X417079D1*
X758465D2*
X837098D1*
X1138433D2*
X1237098D1*
X1538433D2*
X1637098D1*
X1938433D2*
X2037098D1*
X2338433D2*
X2361723D1*
X759605Y2527441D2*
X832895D1*
X1142636D2*
X1232895D1*
X1542636D2*
X1632895D1*
X1942636D2*
X2032895D1*
X2342636D2*
X2361723D1*
X760386Y2519572D2*
X829193D1*
X1146339D2*
X1229193D1*
X1546339D2*
X1629193D1*
X1946339D2*
X2029193D1*
X2346339D2*
X2361723D1*
X760808Y2511703D2*
X825974D1*
X1149558D2*
X1225974D1*
X1549558D2*
X1625974D1*
X1949558D2*
X2025974D1*
X2349558D2*
X2361723D1*
X760870Y2503835D2*
X823193D1*
X1152354D2*
X1223193D1*
X1552354D2*
X1623193D1*
X1952354D2*
X2023193D1*
X2352354D2*
X2361723D1*
X760558Y2495966D2*
X820818D1*
X1154714D2*
X1220818D1*
X1554714D2*
X1620818D1*
X1954714D2*
X2020818D1*
X2354714D2*
X2361723D1*
X759902Y2488097D2*
X818849D1*
X1156682D2*
X1218849D1*
X1556682D2*
X1618849D1*
X1956682D2*
X2018849D1*
X2356682D2*
X2361723D1*
X413824Y2480228D2*
X416672D1*
X758870D2*
X817270D1*
X1158261D2*
X1217270D1*
X1558261D2*
X1617270D1*
X1958261D2*
X2017270D1*
X2358261D2*
X2361722D1*
X413824Y2472360D2*
X418077D1*
X757465D2*
X816067D1*
X1159465D2*
X1216067D1*
X1559465D2*
X1616067D1*
X1959465D2*
X2016067D1*
X413824Y2464491D2*
X419857D1*
X755682D2*
X815239D1*
X1160293D2*
X1215239D1*
X1560293D2*
X1615239D1*
X1960293D2*
X2015239D1*
X413824Y2456622D2*
X422021D1*
X753510D2*
X814770D1*
X1160777D2*
X1214770D1*
X1560777D2*
X1614770D1*
X1960777D2*
X2014770D1*
X413824Y2448753D2*
X424614D1*
X750917D2*
X814646D1*
X1160886D2*
X1214646D1*
X1560886D2*
X1614646D1*
X1960886D2*
X2014646D1*
X413824Y2440885D2*
X427630D1*
X747902D2*
X814895D1*
X1160636D2*
X1214895D1*
X1560636D2*
X1614895D1*
X1960636D2*
X2014895D1*
X413824Y2433016D2*
X431114D1*
X744417D2*
X815505D1*
X1160026D2*
X1215505D1*
X1560026D2*
X1615505D1*
X1960026D2*
X2015505D1*
X413824Y2425147D2*
X435067D1*
X740465D2*
X816490D1*
X1159042D2*
X1216490D1*
X1559042D2*
X1616490D1*
X1959042D2*
X2016490D1*
X2359042D2*
X2361715D1*
X413824Y2417278D2*
X439551D1*
X735980D2*
X817833D1*
X1157698D2*
X1217833D1*
X1557698D2*
X1617833D1*
X1957698D2*
X2017833D1*
X2357698D2*
X2361723D1*
X413824Y2409409D2*
X444614D1*
X730917D2*
X819567D1*
X1155980D2*
X1219567D1*
X1555980D2*
X1619567D1*
X1955980D2*
X2019567D1*
X2355980D2*
X2361723D1*
X413824Y2401541D2*
X450318D1*
X725214D2*
X821677D1*
X1153854D2*
X1221677D1*
X1553854D2*
X1621677D1*
X1953854D2*
X2021677D1*
X2353854D2*
X2361723D1*
X413824Y2393672D2*
X456739D1*
X718793D2*
X824207D1*
X1151324D2*
X1224207D1*
X1551324D2*
X1624207D1*
X1951324D2*
X2024207D1*
X2351324D2*
X2361723D1*
X413824Y2385803D2*
X463990D1*
X711542D2*
X827161D1*
X1148370D2*
X1227161D1*
X1548370D2*
X1627161D1*
X1948370D2*
X2027161D1*
X2348370D2*
X2361723D1*
X413824Y2377934D2*
X472239D1*
X703293D2*
X830567D1*
X1144965D2*
X1230567D1*
X1544965D2*
X1630567D1*
X1944965D2*
X2030567D1*
X2344965D2*
X2361723D1*
X413824Y2370066D2*
X481723D1*
X693808D2*
X834442D1*
X1141089D2*
X1234442D1*
X1541089D2*
X1634442D1*
X1941089D2*
X2034442D1*
X2341089D2*
X2361723D1*
X413824Y2362197D2*
X492802D1*
X682730D2*
X838849D1*
X1136682D2*
X1238849D1*
X1536682D2*
X1638849D1*
X1936682D2*
X2038849D1*
X2336682D2*
X2361723D1*
X413824Y2354328D2*
X506146D1*
X669402D2*
X843818D1*
X1131714D2*
X1243818D1*
X1531714D2*
X1643818D1*
X1931714D2*
X2043818D1*
X2331714D2*
X2361723D1*
X413824Y2346459D2*
X523114D1*
X652417D2*
X849427D1*
X1126105D2*
X1249427D1*
X1526105D2*
X1649427D1*
X1926105D2*
X2049427D1*
X2326105D2*
X2361723D1*
X413824Y2338591D2*
X548302D1*
X627230D2*
X855723D1*
X1119808D2*
X1255723D1*
X1519808D2*
X1655723D1*
X1919808D2*
X2055723D1*
X2319808D2*
X2361723D1*
X413824Y2330722D2*
X862849D1*
X1112682D2*
X1262849D1*
X1512682D2*
X1662849D1*
X1912682D2*
X2062849D1*
X2312682D2*
X2361723D1*
X413824Y2322853D2*
X870942D1*
X1104589D2*
X1270942D1*
X1504589D2*
X1670942D1*
X1904589D2*
X2070942D1*
X2304589D2*
X2361723D1*
X413824Y2314984D2*
X880223D1*
X1095308D2*
X1280223D1*
X1495308D2*
X1680223D1*
X1895308D2*
X2080223D1*
X2295308D2*
X2361723D1*
X413824Y2307115D2*
X891035D1*
X1084496D2*
X1291035D1*
X1484496D2*
X1691035D1*
X1884496D2*
X2091035D1*
X2284496D2*
X2361723D1*
X413824Y2299247D2*
X903974D1*
X1071558D2*
X1303974D1*
X1471558D2*
X1703974D1*
X1871558D2*
X2103974D1*
X2271558D2*
X2361723D1*
X413824Y2291378D2*
X920270D1*
X1055261D2*
X1320270D1*
X1455261D2*
X1720270D1*
X1855261D2*
X2120270D1*
X2255261D2*
X2361723D1*
X413824Y2283509D2*
X943535D1*
X1031996D2*
X1343535D1*
X1431996D2*
X1743535D1*
X1831996D2*
X2143535D1*
X2231996D2*
X2361723D1*
X413824Y2275640D2*
X2361723D1*
X413824Y2267772D2*
X2361723D1*
X413824Y2259903D2*
X2361723D1*
X413824Y2252034D2*
X2361723D1*
X413824Y2244165D2*
X2361723D1*
X413824Y2236297D2*
X2361723D1*
X413824Y2228428D2*
X2361723D1*
X413824Y2220559D2*
X2361723D1*
X413824Y2212690D2*
X2361723D1*
X413824Y2204822D2*
X2361723D1*
X413824Y2196953D2*
X538755D1*
X636777D2*
X2361723D1*
X413824Y2189084D2*
X517207D1*
X658324D2*
X2361723D1*
X413824Y2181215D2*
X501614D1*
X673917D2*
X2361723D1*
X413824Y2173346D2*
X489098D1*
X686433D2*
X2361723D1*
X413824Y2165478D2*
X478583D1*
X696949D2*
X2361723D1*
X413824Y2157609D2*
X469521D1*
X706010D2*
X2361723D1*
X413824Y2149740D2*
X461598D1*
X713933D2*
X2361723D1*
X413824Y2141871D2*
X454614D1*
X720917D2*
X942958D1*
X1032573D2*
X1342958D1*
X1432573D2*
X1742958D1*
X1832573D2*
X2142958D1*
X2232573D2*
X2361723D1*
X413824Y2134003D2*
X448442D1*
X727089D2*
X919911D1*
X1055621D2*
X1319911D1*
X1455621D2*
X1719911D1*
X1855621D2*
X2119911D1*
X2255621D2*
X2361723D1*
X413824Y2126134D2*
X442942D1*
X732589D2*
X903707D1*
X1071824D2*
X1303707D1*
X1471824D2*
X1703707D1*
X1871824D2*
X2103707D1*
X2271824D2*
X2361723D1*
X413824Y2118265D2*
X438067D1*
X737465D2*
X890818D1*
X1084714D2*
X1290818D1*
X1484714D2*
X1690818D1*
X1884714D2*
X2090818D1*
X2284714D2*
X2361723D1*
X413824Y2110396D2*
X433755D1*
X741777D2*
X880035D1*
X1095496D2*
X1280035D1*
X1495496D2*
X1680035D1*
X1895496D2*
X2080035D1*
X2295496D2*
X2361723D1*
X413824Y2102528D2*
X429958D1*
X745573D2*
X870786D1*
X1104745D2*
X1270786D1*
X1504745D2*
X1670786D1*
X1904745D2*
X2070786D1*
X2304745D2*
X2361723D1*
X413824Y2094659D2*
X426630D1*
X748902D2*
X862707D1*
X1112824D2*
X1262707D1*
X1512824D2*
X1662707D1*
X1912824D2*
X2062707D1*
X2312824D2*
X2361723D1*
X413824Y2086790D2*
X423755D1*
X751777D2*
X855598D1*
X1119933D2*
X1255598D1*
X1519933D2*
X1655598D1*
X1919933D2*
X2055598D1*
X2319933D2*
X2361723D1*
X413824Y2078921D2*
X421302D1*
X754230D2*
X849302D1*
X1126230D2*
X1249302D1*
X1526230D2*
X1649302D1*
X1926230D2*
X2049302D1*
X2326230D2*
X2361723D1*
X413824Y2071052D2*
X419232D1*
X756293D2*
X843723D1*
X1131808D2*
X1243723D1*
X1531808D2*
X1643723D1*
X1931808D2*
X2043723D1*
X2331808D2*
X2361723D1*
X413824Y2063184D2*
X417577D1*
X757949D2*
X838755D1*
X1136777D2*
X1238755D1*
X1536777D2*
X1638755D1*
X1936777D2*
X2038755D1*
X2336777D2*
X2361723D1*
X413824Y2055315D2*
X416298D1*
X759230D2*
X834364D1*
X1141167D2*
X1234364D1*
X1541167D2*
X1634364D1*
X1941167D2*
X2034364D1*
X2341167D2*
X2361723D1*
X760152Y2047446D2*
X830490D1*
X1145042D2*
X1230490D1*
X1545042D2*
X1630490D1*
X1945042D2*
X2030490D1*
X2345042D2*
X2361723D1*
X760698Y2039577D2*
X827098D1*
X1148433D2*
X1227098D1*
X1548433D2*
X1627098D1*
X1948433D2*
X2027098D1*
X2348433D2*
X2361723D1*
X760886Y2031709D2*
X824146D1*
X1151386D2*
X1224146D1*
X1551386D2*
X1624146D1*
X1951386D2*
X2024146D1*
X2351386D2*
X2361723D1*
X760714Y2023840D2*
X821630D1*
X1153902D2*
X1221630D1*
X1553902D2*
X1621630D1*
X1953902D2*
X2021630D1*
X2353902D2*
X2361723D1*
X760182Y2015971D2*
X819521D1*
X1156010D2*
X1219521D1*
X1556010D2*
X1619521D1*
X1956010D2*
X2019521D1*
X2356010D2*
X2361723D1*
X413824Y2008102D2*
X416235D1*
X759293D2*
X817802D1*
X1157730D2*
X1217802D1*
X1557730D2*
X1617802D1*
X1957730D2*
X2017802D1*
X2357730D2*
X2361723D1*
X413824Y2000234D2*
X417516D1*
X758026D2*
X816458D1*
X1159073D2*
X1216458D1*
X1559073D2*
X1616458D1*
X1959073D2*
X2016458D1*
X2359073D2*
X2361727D1*
X413824Y1992365D2*
X419139D1*
X756386D2*
X815490D1*
X1160042D2*
X1215490D1*
X1560042D2*
X1615490D1*
X1960042D2*
X2015490D1*
X413824Y1984496D2*
X421193D1*
X754354D2*
X814895D1*
X1160636D2*
X1214895D1*
X1560636D2*
X1614895D1*
X1960636D2*
X2014895D1*
X413824Y1976627D2*
X423614D1*
X751917D2*
X814646D1*
X1160886D2*
X1214646D1*
X1560886D2*
X1614646D1*
X1960886D2*
X2014646D1*
X413824Y1968759D2*
X426474D1*
X749058D2*
X814770D1*
X1160761D2*
X1214770D1*
X1560761D2*
X1614770D1*
X1960761D2*
X2014770D1*
X413824Y1960890D2*
X429786D1*
X745745D2*
X815255D1*
X1160293D2*
X1215255D1*
X1560293D2*
X1615255D1*
X1960293D2*
X2015255D1*
X413824Y1953021D2*
X433567D1*
X741965D2*
X816083D1*
X1159449D2*
X1216083D1*
X1559449D2*
X1616083D1*
X1959449D2*
X2016083D1*
X413824Y1945152D2*
X437849D1*
X737682D2*
X817302D1*
X1158230D2*
X1217302D1*
X1558230D2*
X1617302D1*
X1958230D2*
X2017302D1*
X2358230D2*
X2361711D1*
X413824Y1937283D2*
X442693D1*
X732839D2*
X818879D1*
X1156652D2*
X1218879D1*
X1556652D2*
X1618879D1*
X1956652D2*
X2018879D1*
X2356652D2*
X2361723D1*
X413824Y1929415D2*
X448146D1*
X727386D2*
X820864D1*
X1154667D2*
X1220864D1*
X1554667D2*
X1620864D1*
X1954667D2*
X2020864D1*
X2354667D2*
X2361723D1*
X413824Y1921546D2*
X454302D1*
X721230D2*
X823239D1*
X1152293D2*
X1223239D1*
X1552293D2*
X1623239D1*
X1952293D2*
X2023239D1*
X2352293D2*
X2361723D1*
X413824Y1913677D2*
X461239D1*
X714293D2*
X826021D1*
X1149510D2*
X1226021D1*
X1549510D2*
X1626021D1*
X1949510D2*
X2026021D1*
X2349510D2*
X2361723D1*
X413824Y1905808D2*
X469098D1*
X706433D2*
X829270D1*
X1146261D2*
X1229270D1*
X1546261D2*
X1629270D1*
X1946261D2*
X2029270D1*
X2346261D2*
X2361723D1*
X413824Y1897940D2*
X478098D1*
X697433D2*
X832974D1*
X1142558D2*
X1232974D1*
X1542558D2*
X1632974D1*
X1942558D2*
X2032974D1*
X2342558D2*
X2361723D1*
X413824Y1890071D2*
X488535D1*
X686996D2*
X837177D1*
X1138354D2*
X1237177D1*
X1538354D2*
X1637177D1*
X1938354D2*
X2037177D1*
X2338354D2*
X2361723D1*
X413824Y1882202D2*
X500942D1*
X674589D2*
X841942D1*
X1133589D2*
X1241942D1*
X1533589D2*
X1641942D1*
X1933589D2*
X2041942D1*
X2333589D2*
X2361723D1*
X413824Y1874333D2*
X516349D1*
X659198D2*
X847302D1*
X1128230D2*
X1247302D1*
X1528230D2*
X1647302D1*
X1928230D2*
X2047302D1*
X2328230D2*
X2361723D1*
X413824Y1866465D2*
X537442D1*
X638089D2*
X853333D1*
X1122198D2*
X1253333D1*
X1522198D2*
X1653333D1*
X1922198D2*
X2053333D1*
X2322198D2*
X2361723D1*
X413824Y1858596D2*
X860146D1*
X1115386D2*
X1260146D1*
X1515386D2*
X1660146D1*
X1915386D2*
X2060146D1*
X2315386D2*
X2361723D1*
X413824Y1850727D2*
X867864D1*
X1107667D2*
X1267864D1*
X1507667D2*
X1667864D1*
X1907667D2*
X2067864D1*
X2307667D2*
X2361723D1*
X413824Y1842858D2*
X876677D1*
X1098854D2*
X1276677D1*
X1498854D2*
X1676677D1*
X1898854D2*
X2076677D1*
X2298854D2*
X2361723D1*
X413824Y1834990D2*
X886879D1*
X1088652D2*
X1286879D1*
X1488652D2*
X1686879D1*
X1888652D2*
X2086879D1*
X2288652D2*
X2361723D1*
X413824Y1827121D2*
X898942D1*
X1076589D2*
X1298942D1*
X1476589D2*
X1698942D1*
X1876589D2*
X2098942D1*
X2276589D2*
X2361723D1*
X413824Y1819252D2*
X913802D1*
X1061745D2*
X1313802D1*
X1461745D2*
X1713802D1*
X1861745D2*
X2113802D1*
X2261745D2*
X2361723D1*
X413824Y1811383D2*
X933707D1*
X1041824D2*
X1333707D1*
X1441824D2*
X1733707D1*
X1841824D2*
X2133707D1*
X2241824D2*
X2361723D1*
X413824Y1803514D2*
X972974D1*
X1002558D2*
X1372974D1*
X1402558D2*
X1772974D1*
X1802558D2*
X2172974D1*
X2202558D2*
X2361723D1*
X413824Y1795646D2*
X2361723D1*
X413824Y1787777D2*
X2361723D1*
X413824Y1779908D2*
X2361723D1*
X413824Y1772039D2*
X2361723D1*
X413824Y1764171D2*
X2361723D1*
X413824Y1756302D2*
X2361723D1*
X413824Y1748433D2*
X2361723D1*
X413824Y1740564D2*
X2361723D1*
X413824Y1732696D2*
X2361723D1*
X413824Y1724827D2*
X550021D1*
X625526D2*
X2361723D1*
X413824Y1716958D2*
X524098D1*
X651433D2*
X2361723D1*
X413824Y1709089D2*
X506864D1*
X668667D2*
X2361723D1*
X413824Y1701220D2*
X493395D1*
X682136D2*
X2361723D1*
X413824Y1693352D2*
X482223D1*
X693308D2*
X2361723D1*
X413824Y1685483D2*
X472677D1*
X702854D2*
X2361723D1*
X413824Y1677614D2*
X464379D1*
X711167D2*
X966490D1*
X1009042D2*
X1366490D1*
X1409042D2*
X1766490D1*
X1809042D2*
X2166490D1*
X2209042D2*
X2361723D1*
X413824Y1669745D2*
X457067D1*
X718465D2*
X931739D1*
X1043793D2*
X1331739D1*
X1443793D2*
X1731739D1*
X1843793D2*
X2131739D1*
X2243793D2*
X2361723D1*
X413824Y1661877D2*
X450614D1*
X724917D2*
X912427D1*
X1063121D2*
X1312427D1*
X1463121D2*
X1712427D1*
X1863121D2*
X2112427D1*
X2263121D2*
X2361723D1*
X413824Y1654008D2*
X444879D1*
X730652D2*
X897864D1*
X1077667D2*
X1297864D1*
X1477667D2*
X1697864D1*
X1877667D2*
X2097864D1*
X2277667D2*
X2361723D1*
X413824Y1646139D2*
X439786D1*
X735745D2*
X885974D1*
X1089558D2*
X1285974D1*
X1489558D2*
X1685974D1*
X1889558D2*
X2085974D1*
X2289558D2*
X2361723D1*
X413824Y1638270D2*
X435270D1*
X740261D2*
X875911D1*
X1099636D2*
X1275911D1*
X1499636D2*
X1675911D1*
X1899636D2*
X2075911D1*
X2299636D2*
X2361723D1*
X413824Y1630402D2*
X431286D1*
X744245D2*
X867193D1*
X1108339D2*
X1267193D1*
X1508339D2*
X1667193D1*
X1908339D2*
X2067193D1*
X2308339D2*
X2361723D1*
X413824Y1622533D2*
X427786D1*
X747745D2*
X859551D1*
X1115980D2*
X1259551D1*
X1515980D2*
X1659551D1*
X1915980D2*
X2059551D1*
X2315980D2*
X2361723D1*
X413824Y1614664D2*
X424755D1*
X750777D2*
X852802D1*
X1122730D2*
X1252802D1*
X1522730D2*
X1652802D1*
X1922730D2*
X2052802D1*
X2322730D2*
X2361723D1*
X413824Y1606795D2*
X422146D1*
X753386D2*
X846833D1*
X1128698D2*
X1246833D1*
X1528698D2*
X1646833D1*
X1928698D2*
X2046833D1*
X2328698D2*
X2361723D1*
X413824Y1598927D2*
X419950D1*
X755589D2*
X841521D1*
X1134010D2*
X1241521D1*
X1534010D2*
X1641521D1*
X1934010D2*
X2041521D1*
X2334010D2*
X2361723D1*
X413824Y1591058D2*
X418139D1*
X757386D2*
X836818D1*
X1138730D2*
X1236818D1*
X1538730D2*
X1636818D1*
X1938730D2*
X2036818D1*
X2338730D2*
X2361723D1*
X413824Y1583189D2*
X416735D1*
X758808D2*
X832646D1*
X1142886D2*
X1232646D1*
X1542886D2*
X1632646D1*
X1942886D2*
X2032646D1*
X2342886D2*
X2361723D1*
X759854Y1575320D2*
X828974D1*
X1146558D2*
X1228974D1*
X1546558D2*
X1628974D1*
X1946558D2*
X2028974D1*
X2346558D2*
X2361723D1*
X760542Y1567451D2*
X825786D1*
X1149745D2*
X1225786D1*
X1549745D2*
X1625786D1*
X1949745D2*
X2025786D1*
X2349745D2*
X2361723D1*
X760854Y1559583D2*
X823021D1*
X1152510D2*
X1223021D1*
X1552510D2*
X1623021D1*
X1952510D2*
X2023021D1*
X2352510D2*
X2361723D1*
X760824Y1551714D2*
X820677D1*
X1154854D2*
X1220677D1*
X1554854D2*
X1620677D1*
X1954854D2*
X2020677D1*
X2354854D2*
X2361723D1*
X760417Y1543845D2*
X818739D1*
X1156793D2*
X1218739D1*
X1556793D2*
X1618739D1*
X1956793D2*
X2018739D1*
X2356793D2*
X2361723D1*
X759652Y1535976D2*
X817177D1*
X1158354D2*
X1217177D1*
X1558354D2*
X1617177D1*
X1958354D2*
X2017177D1*
X2358354D2*
X2361724D1*
X413824Y1528108D2*
X417016D1*
X758526D2*
X816005D1*
X1159526D2*
X1216005D1*
X1559526D2*
X1616005D1*
X1959526D2*
X2016005D1*
X413824Y1520239D2*
X418514D1*
X757026D2*
X815193D1*
X1160339D2*
X1215193D1*
X1560339D2*
X1615193D1*
X1960339D2*
X2015193D1*
X413824Y1512370D2*
X420395D1*
X755136D2*
X814739D1*
X1160793D2*
X1214739D1*
X1560793D2*
X1614739D1*
X1960793D2*
X2014739D1*
X413824Y1504501D2*
X422677D1*
X752854D2*
X814661D1*
X1160870D2*
X1214661D1*
X1560870D2*
X1614661D1*
X1960870D2*
X2014661D1*
X413824Y1496633D2*
X425379D1*
X750152D2*
X814927D1*
X1160605D2*
X1214927D1*
X1560605D2*
X1614927D1*
X1960605D2*
X2014927D1*
X413824Y1488764D2*
X428521D1*
X747010D2*
X815567D1*
X1159965D2*
X1215567D1*
X1559965D2*
X1615567D1*
X1959965D2*
X2015567D1*
X413824Y1480895D2*
X432130D1*
X743402D2*
X816567D1*
X1158965D2*
X1216567D1*
X1558965D2*
X1616567D1*
X1958965D2*
X2016567D1*
X2358965D2*
X2361714D1*
X413824Y1473026D2*
X436223D1*
X739308D2*
X817927D1*
X1157605D2*
X1217927D1*
X1557605D2*
X1617927D1*
X1957605D2*
X2017927D1*
X2357605D2*
X2361723D1*
X413824Y1465157D2*
X440864D1*
X734682D2*
X819677D1*
X1155854D2*
X1219677D1*
X1555854D2*
X1619677D1*
X1955854D2*
X2019677D1*
X2355854D2*
X2361723D1*
X413824Y1457289D2*
X446083D1*
X729449D2*
X821833D1*
X1153698D2*
X1221833D1*
X1553698D2*
X1621833D1*
X1953698D2*
X2021833D1*
X2353698D2*
X2361723D1*
X413824Y1449420D2*
X451974D1*
X723558D2*
X824379D1*
X1151152D2*
X1224379D1*
X1551152D2*
X1624379D1*
X1951152D2*
X2024379D1*
X2351152D2*
X2361723D1*
X413824Y1441551D2*
X458598D1*
X716933D2*
X827364D1*
X1148167D2*
X1227364D1*
X1548167D2*
X1627364D1*
X1948167D2*
X2027364D1*
X2348167D2*
X2361723D1*
X413824Y1433682D2*
X466114D1*
X709417D2*
X830802D1*
X1144745D2*
X1230802D1*
X1544745D2*
X1630802D1*
X1944745D2*
X2030802D1*
X2344745D2*
X2361723D1*
X413824Y1425814D2*
X474661D1*
X700870D2*
X834707D1*
X1140824D2*
X1234707D1*
X1540824D2*
X1634707D1*
X1940824D2*
X2034707D1*
X2340824D2*
X2361723D1*
X413824Y1417945D2*
X484535D1*
X690996D2*
X839146D1*
X1136386D2*
X1239146D1*
X1536386D2*
X1639146D1*
X1936386D2*
X2039146D1*
X2336386D2*
X2361723D1*
X413824Y1410076D2*
X496146D1*
X679386D2*
X844161D1*
X1131370D2*
X1244161D1*
X1531370D2*
X1644161D1*
X1931370D2*
X2044161D1*
X2331370D2*
X2361723D1*
X413824Y1402207D2*
X510270D1*
X665261D2*
X849802D1*
X1125730D2*
X1249802D1*
X1525730D2*
X1649802D1*
X1925730D2*
X2049802D1*
X2325730D2*
X2361723D1*
X413824Y1394339D2*
X528723D1*
X646808D2*
X856161D1*
X1119370D2*
X1256161D1*
X1519370D2*
X1656161D1*
X1919370D2*
X2056161D1*
X2319370D2*
X2361723D1*
X413824Y1386470D2*
X559067D1*
X616465D2*
X863349D1*
X1112198D2*
X1263349D1*
X1512198D2*
X1663349D1*
X1912198D2*
X2063349D1*
X2312198D2*
X2361723D1*
X413824Y1378601D2*
X871505D1*
X1104026D2*
X1271505D1*
X1504026D2*
X1671505D1*
X1904026D2*
X2071505D1*
X2304026D2*
X2361723D1*
X413824Y1370732D2*
X880864D1*
X1094667D2*
X1280864D1*
X1494667D2*
X1680864D1*
X1894667D2*
X2080864D1*
X2294667D2*
X2361723D1*
X413824Y1362864D2*
X891786D1*
X1083745D2*
X1291786D1*
X1483745D2*
X1691786D1*
X1883745D2*
X2091786D1*
X2283745D2*
X2361723D1*
X413824Y1354995D2*
X904895D1*
X1070636D2*
X1304895D1*
X1470636D2*
X1704895D1*
X1870636D2*
X2104895D1*
X2270636D2*
X2361723D1*
X413824Y1347126D2*
X921474D1*
X1054058D2*
X1321474D1*
X1454058D2*
X1721474D1*
X1854058D2*
X2121474D1*
X2254058D2*
X2361723D1*
X413824Y1339257D2*
X945505D1*
X1030026D2*
X1345505D1*
X1430026D2*
X1745505D1*
X1830026D2*
X2145505D1*
X2230026D2*
X2361723D1*
X413824Y1331388D2*
X2361723D1*
X413824Y1323520D2*
X2361723D1*
X413824Y1315651D2*
X2361723D1*
X413824Y1307782D2*
X539911D1*
X616230D2*
X2361723D1*
X413824Y1299913D2*
X521583D1*
X634558D2*
X2361723D1*
X413824Y1292045D2*
X508849D1*
X647293D2*
X2361723D1*
X413824Y1284176D2*
X498911D1*
X657214D2*
X2361723D1*
X413824Y1276307D2*
X490818D1*
X665308D2*
X2361723D1*
X413824Y1268438D2*
X484083D1*
X672042D2*
X2361723D1*
X413824Y1260570D2*
X478442D1*
X677698D2*
X2361723D1*
X413824Y1252701D2*
X473677D1*
X682449D2*
X2361723D1*
X413824Y1244832D2*
X469707D1*
X686417D2*
X2361723D1*
X413824Y1236963D2*
X466442D1*
X689682D2*
X2361723D1*
X413824Y1229094D2*
X463818D1*
X692324D2*
X2361723D1*
X413824Y1221226D2*
X461770D1*
X694354D2*
X2361723D1*
X413824Y1213357D2*
X460302D1*
X695839D2*
X2361723D1*
X413824Y1205488D2*
X459364D1*
X696761D2*
X947427D1*
X1028105D2*
X1347427D1*
X1428105D2*
X1747427D1*
X1828105D2*
X2147427D1*
X2228105D2*
X2361723D1*
X413824Y1197619D2*
X458958D1*
X697167D2*
X922614D1*
X1052917D2*
X1322614D1*
X1452917D2*
X1722614D1*
X1852917D2*
X2122614D1*
X2252917D2*
X2361723D1*
X413824Y1189751D2*
X459083D1*
X697042D2*
X905755D1*
X1069777D2*
X1305755D1*
X1469777D2*
X1705755D1*
X1869777D2*
X2105755D1*
X2269777D2*
X2361723D1*
X413824Y1181882D2*
X459739D1*
X696402D2*
X892490D1*
X1083042D2*
X1292490D1*
X1483042D2*
X1692490D1*
X1883042D2*
X2092490D1*
X2283042D2*
X2361723D1*
X413824Y1174013D2*
X460911D1*
X695214D2*
X881458D1*
X1094073D2*
X1281458D1*
X1494073D2*
X1681458D1*
X1894073D2*
X2081458D1*
X2294073D2*
X2361723D1*
X413824Y1166144D2*
X462646D1*
X693480D2*
X872021D1*
X1103510D2*
X1272021D1*
X1503510D2*
X1672021D1*
X1903510D2*
X2072021D1*
X2303510D2*
X2361723D1*
X413824Y1158276D2*
X464958D1*
X691167D2*
X863786D1*
X1111745D2*
X1263786D1*
X1511745D2*
X1663786D1*
X1911745D2*
X2063786D1*
X2311745D2*
X2361723D1*
X413824Y1150407D2*
X467879D1*
X688245D2*
X856551D1*
X1118980D2*
X1256551D1*
X1518980D2*
X1656551D1*
X1918980D2*
X2056551D1*
X2318980D2*
X2361723D1*
X413824Y1142538D2*
X471474D1*
X684667D2*
X850161D1*
X1125370D2*
X1250161D1*
X1525370D2*
X1650161D1*
X1925370D2*
X2050161D1*
X2325370D2*
X2361723D1*
X413824Y1134669D2*
X475786D1*
X680339D2*
X844474D1*
X1131058D2*
X1244474D1*
X1531058D2*
X1644474D1*
X1931058D2*
X2044474D1*
X2331058D2*
X2361723D1*
X413824Y1126801D2*
X480942D1*
X675182D2*
X839427D1*
X1136105D2*
X1239427D1*
X1536105D2*
X1639427D1*
X1936105D2*
X2039427D1*
X2336105D2*
X2361723D1*
X413824Y1118932D2*
X487083D1*
X669058D2*
X834958D1*
X1140573D2*
X1234958D1*
X1540573D2*
X1634958D1*
X1940573D2*
X2034958D1*
X2340573D2*
X2361723D1*
X413824Y1111063D2*
X494395D1*
X661730D2*
X831005D1*
X1144526D2*
X1231005D1*
X1544526D2*
X1631005D1*
X1944526D2*
X2031005D1*
X2344526D2*
X2361723D1*
X413824Y1103194D2*
X503270D1*
X652870D2*
X827551D1*
X1147980D2*
X1227551D1*
X1547980D2*
X1627551D1*
X1947980D2*
X2027551D1*
X2347980D2*
X2361723D1*
X413824Y1095325D2*
X514333D1*
X641808D2*
X824535D1*
X1150996D2*
X1224535D1*
X1550996D2*
X1624535D1*
X1950996D2*
X2024535D1*
X2350996D2*
X2361723D1*
X413824Y1087457D2*
X529067D1*
X627058D2*
X821974D1*
X1153573D2*
X1221974D1*
X1553573D2*
X1621974D1*
X1953573D2*
X2021974D1*
X2353573D2*
X2361723D1*
X413824Y1079588D2*
X553598D1*
X602542D2*
X819802D1*
X1155730D2*
X1219802D1*
X1555730D2*
X1619802D1*
X1955730D2*
X2019802D1*
X2355730D2*
X2361723D1*
X413824Y1071719D2*
X818021D1*
X1157510D2*
X1218021D1*
X1557510D2*
X1618021D1*
X1957510D2*
X2018021D1*
X2357510D2*
X2361723D1*
X413824Y1063850D2*
X816630D1*
X1158902D2*
X1216630D1*
X1558902D2*
X1616630D1*
X1958902D2*
X2016630D1*
X2358902D2*
X2361718D1*
X413824Y1055982D2*
X815614D1*
X1159917D2*
X1215614D1*
X1559917D2*
X1615614D1*
X1959917D2*
X2015614D1*
X413824Y1048113D2*
X538521D1*
X617605D2*
X814958D1*
X1160573D2*
X1214958D1*
X1560573D2*
X1614958D1*
X1960573D2*
X2014958D1*
X413824Y1040244D2*
X520707D1*
X635417D2*
X814661D1*
X1160870D2*
X1214661D1*
X1560870D2*
X1614661D1*
X1960870D2*
X2014661D1*
X413824Y1032375D2*
X508193D1*
X647949D2*
X814723D1*
X1160808D2*
X1214723D1*
X1560808D2*
X1614723D1*
X1960808D2*
X2014723D1*
X413824Y1024507D2*
X498379D1*
X657745D2*
X815161D1*
X1160370D2*
X1215161D1*
X1560370D2*
X1615161D1*
X1960370D2*
X2015161D1*
X413824Y1016638D2*
X490379D1*
X665745D2*
X815942D1*
X1159589D2*
X1215942D1*
X1559589D2*
X1615942D1*
X1959589D2*
X2015942D1*
X413824Y1008769D2*
X483723D1*
X672417D2*
X817098D1*
X1158433D2*
X1217098D1*
X1558433D2*
X1617098D1*
X1958433D2*
X2017098D1*
X2358433D2*
X2361722D1*
X413824Y1000900D2*
X478130D1*
X678010D2*
X818630D1*
X1156902D2*
X1218630D1*
X1556902D2*
X1618630D1*
X1956902D2*
X2018630D1*
X2356902D2*
X2361723D1*
X413824Y993031D2*
X473427D1*
X682714D2*
X820551D1*
X1154980D2*
X1220551D1*
X1554980D2*
X1620551D1*
X1954980D2*
X2020551D1*
X2354980D2*
X2361723D1*
X413824Y985163D2*
X469505D1*
X686636D2*
X822864D1*
X1152667D2*
X1222864D1*
X1552667D2*
X1622864D1*
X1952667D2*
X2022864D1*
X2352667D2*
X2361723D1*
X413824Y977294D2*
X466270D1*
X689870D2*
X825598D1*
X1149933D2*
X1225598D1*
X1549933D2*
X1625598D1*
X1949933D2*
X2025598D1*
X2349933D2*
X2361723D1*
X413824Y969425D2*
X463677D1*
X692465D2*
X828770D1*
X1146761D2*
X1228770D1*
X1546761D2*
X1628770D1*
X1946761D2*
X2028770D1*
X2346761D2*
X2361723D1*
X413824Y961556D2*
X461677D1*
X694465D2*
X832411D1*
X1143121D2*
X1232411D1*
X1543121D2*
X1632411D1*
X1943121D2*
X2032411D1*
X2343121D2*
X2361723D1*
X413824Y953688D2*
X460223D1*
X695902D2*
X836551D1*
X1138980D2*
X1236551D1*
X1538980D2*
X1636551D1*
X1938980D2*
X2036551D1*
X2338980D2*
X2361723D1*
X413824Y945819D2*
X459333D1*
X696808D2*
X841223D1*
X1134308D2*
X1241223D1*
X1534308D2*
X1641223D1*
X1934308D2*
X2041223D1*
X2334308D2*
X2361723D1*
X413824Y937950D2*
X458958D1*
X697182D2*
X846505D1*
X1129026D2*
X1246505D1*
X1529026D2*
X1646505D1*
X1929026D2*
X2046505D1*
X2329026D2*
X2361723D1*
X413824Y930081D2*
X459114D1*
X697026D2*
X852442D1*
X1123089D2*
X1252442D1*
X1523089D2*
X1652442D1*
X1923089D2*
X2052442D1*
X2323089D2*
X2361723D1*
X413824Y922213D2*
X459786D1*
X696339D2*
X859130D1*
X1116402D2*
X1259130D1*
X1516402D2*
X1659130D1*
X1916402D2*
X2059130D1*
X2316402D2*
X2361723D1*
X413824Y914344D2*
X461005D1*
X695136D2*
X866707D1*
X1108824D2*
X1266707D1*
X1508824D2*
X1666707D1*
X1908824D2*
X2066707D1*
X2308824D2*
X2361723D1*
X413824Y906475D2*
X462770D1*
X693354D2*
X875364D1*
X1100182D2*
X1275364D1*
X1500182D2*
X1675364D1*
X1900182D2*
X2075364D1*
X2300182D2*
X2361723D1*
X413824Y898606D2*
X465114D1*
X691010D2*
X885333D1*
X1090198D2*
X1285333D1*
X1490198D2*
X1685333D1*
X1890198D2*
X2085333D1*
X2290198D2*
X2361723D1*
X413824Y890738D2*
X468083D1*
X688058D2*
X897098D1*
X1078433D2*
X1297098D1*
X1478433D2*
X1697098D1*
X1878433D2*
X2097098D1*
X2278433D2*
X2361723D1*
X413824Y882869D2*
X471707D1*
X684433D2*
X911458D1*
X1064073D2*
X1311458D1*
X1464073D2*
X1711458D1*
X1864073D2*
X2111458D1*
X2264073D2*
X2361723D1*
X413824Y875000D2*
X476067D1*
X680058D2*
X930379D1*
X1045152D2*
X1330379D1*
X1445152D2*
X1730379D1*
X1845152D2*
X2130379D1*
X2245152D2*
X2361723D1*
X413824Y867131D2*
X481286D1*
X674854D2*
X962927D1*
X1012605D2*
X1362927D1*
X1412605D2*
X1762927D1*
X1812605D2*
X2162927D1*
X2212605D2*
X2361723D1*
X413824Y859262D2*
X487474D1*
X668652D2*
X2361723D1*
X413824Y851394D2*
X494879D1*
X661261D2*
X2361723D1*
X413824Y843525D2*
X503849D1*
X652277D2*
X2361723D1*
X413824Y835656D2*
X515083D1*
X641058D2*
X2361723D1*
X413824Y827787D2*
X530146D1*
X625996D2*
X2361723D1*
X413824Y819919D2*
X556021D1*
X600105D2*
X2361723D1*
X413824Y812050D2*
X2361723D1*
X413824Y804181D2*
X2361723D1*
X413824Y796312D2*
X2361723D1*
X413824Y788444D2*
X2361723D1*
X413824Y780575D2*
X2361723D1*
X413824Y772706D2*
X2361723D1*
X413824Y764837D2*
X2361723D1*
X413824Y756969D2*
X2361723D1*
X413824Y749100D2*
X2361723D1*
X413824Y741231D2*
X2361723D1*
X413824Y733362D2*
X2361723D1*
X413824Y725493D2*
X2361723D1*
X413824Y717625D2*
X2361723D1*
X413824Y709756D2*
X2361723D1*
X413824Y701887D2*
X2361723D1*
X413824Y694018D2*
X2361723D1*
X413824Y686150D2*
X2361723D1*
X413824Y678281D2*
X2361723D1*
X413824Y670412D2*
X2361723D1*
X413824Y662543D2*
X2361723D1*
X413824Y654675D2*
X2361723D1*
X413824Y646806D2*
X2361723D1*
X413824Y638937D2*
X2361723D1*
X413824Y631068D2*
X2361723D1*
X413824Y623199D2*
X2361723D1*
X413824Y615331D2*
X2361723D1*
X413824Y607462D2*
X594255D1*
X781277D2*
X1994255D1*
X2181277D2*
X2361723D1*
X413824Y599593D2*
X576442D1*
X799089D2*
X1976442D1*
X2199089D2*
X2361723D1*
X413824Y591724D2*
X564521D1*
X811010D2*
X1964521D1*
X2211010D2*
X2361723D1*
X413824Y583856D2*
X555442D1*
X820089D2*
X1955442D1*
X2220089D2*
X2361723D1*
X413824Y575987D2*
X548193D1*
X827339D2*
X1948193D1*
X2227339D2*
X2361723D1*
X413824Y568118D2*
X542318D1*
X833230D2*
X1942318D1*
X2233230D2*
X2361723D1*
X413824Y560249D2*
X537505D1*
X838026D2*
X1937505D1*
X2238026D2*
X2361723D1*
X413824Y552381D2*
X533614D1*
X841917D2*
X1933614D1*
X2241917D2*
X2361723D1*
X413824Y544512D2*
X530535D1*
X844996D2*
X1930535D1*
X2244996D2*
X2361723D1*
X413824Y536643D2*
X528177D1*
X847354D2*
X1928177D1*
X2247354D2*
X2361723D1*
X413824Y528774D2*
X526505D1*
X849026D2*
X1926505D1*
X2249026D2*
X2361723D1*
X413824Y520906D2*
X525458D1*
X850073D2*
X1925458D1*
X2250073D2*
X2361723D1*
X413824Y513037D2*
X525051D1*
X850480D2*
X1925051D1*
X2250480D2*
X2361723D1*
X413824Y505168D2*
X525255D1*
X850277D2*
X1925255D1*
X2250277D2*
X2361723D1*
X413824Y497299D2*
X526067D1*
X849465D2*
X1926067D1*
X2249465D2*
X2361723D1*
X413824Y489430D2*
X527521D1*
X848010D2*
X1927521D1*
X2248010D2*
X2361723D1*
X413824Y481562D2*
X529630D1*
X845902D2*
X1929630D1*
X2245902D2*
X2361723D1*
X413824Y473693D2*
X532458D1*
X843073D2*
X1932458D1*
X2243073D2*
X2361723D1*
X413824Y465824D2*
X536051D1*
X839480D2*
X1936051D1*
X2239480D2*
X2361723D1*
X413824Y457955D2*
X540521D1*
X835010D2*
X1940521D1*
X2235010D2*
X2361723D1*
X413824Y450087D2*
X546005D1*
X829526D2*
X1946005D1*
X2229526D2*
X2361723D1*
X413824Y442218D2*
X552739D1*
X822793D2*
X1952739D1*
X2222793D2*
X2361723D1*
X413824Y434349D2*
X561114D1*
X814417D2*
X1961114D1*
X2214417D2*
X2361723D1*
X413824Y426480D2*
X571864D1*
X803667D2*
X1971864D1*
X2203667D2*
X2361723D1*
X413824Y418612D2*
X586927D1*
X788605D2*
X1986927D1*
X2188605D2*
X2361723D1*
X696319Y932318D2*
X695780Y924337D1*
X694701Y916411D1*
X693089Y908577D1*
X690953Y900869D1*
X688299Y893323D1*
X685143Y885974D1*
X681497Y878854D1*
X677379Y871999D1*
X672806Y865436D1*
X667801Y859197D1*
X662386Y853311D1*
X656585Y847803D1*
X650425Y842701D1*
X643936Y838026D1*
X637144Y833801D1*
X630083Y830043D1*
X622785Y826772D1*
X615281Y824001D1*
X607608Y821743D1*
X599799Y820009D1*
X591892Y818807D1*
X583921Y818142D1*
X575924Y818016D1*
X567936Y818430D1*
X559995Y819385D1*
X552135Y820873D1*
X544395Y822888D1*
X536808Y825423D1*
X529411Y828463D1*
X522235Y831997D1*
X515315Y836008D1*
X508681Y840476D1*
X502365Y845383D1*
X496394Y850706D1*
X490797Y856419D1*
X485598Y862497D1*
X480823Y868913D1*
X476491Y875638D1*
X472623Y882639D1*
X469238Y889886D1*
X466349Y897345D1*
X463971Y904982D1*
X462115Y912761D1*
X460789Y920650D1*
X459999Y928609D1*
X459747Y936604D1*
X460037Y944596D1*
X460866Y952551D1*
X462231Y960433D1*
X464125Y968203D1*
X466539Y975829D1*
X469465Y983274D1*
X472885Y990504D1*
X476786Y997487D1*
X481150Y1004189D1*
X485957Y1010583D1*
X491185Y1016635D1*
X496810Y1022322D1*
X502807Y1027615D1*
X509147Y1032491D1*
X515802Y1036928D1*
X522741Y1040904D1*
X529934Y1044404D1*
X537346Y1047408D1*
X544946Y1049906D1*
X552696Y1051885D1*
X560562Y1053335D1*
X568508Y1054249D1*
X576497Y1054626D1*
X584493Y1054462D1*
X592462Y1053757D1*
X600364Y1052517D1*
X608163Y1050744D1*
X615825Y1048450D1*
X623315Y1045643D1*
X630597Y1042336D1*
X637640Y1038545D1*
X644411Y1034286D1*
X650878Y1029580D1*
X657013Y1024448D1*
X662787Y1018912D1*
X668173Y1013000D1*
X673148Y1006738D1*
X677689Y1000152D1*
X681774Y993276D1*
X685386Y986139D1*
X688507Y978774D1*
X691123Y971215D1*
X693222Y963497D1*
X694795Y955656D1*
X695836Y947724D1*
X696337Y939743D1*
X696319Y932318D1*
X1060016Y4946268D2*
X1059684Y4942281D1*
X1059133Y4938320D1*
X1058364Y4934395D1*
X1057379Y4930518D1*
X1056182Y4926702D1*
X1054776Y4922958D1*
X1053164Y4919298D1*
X1051354Y4915732D1*
X1049349Y4912272D1*
X1047155Y4908927D1*
X1044781Y4905709D1*
X1042232Y4902627D1*
X1039516Y4899690D1*
X1036643Y4896908D1*
X1033621Y4894289D1*
X1030458Y4891841D1*
X1027164Y4889572D1*
X1023751Y4887488D1*
X1020227Y4885596D1*
X1016605Y4883900D1*
X1012894Y4882408D1*
X1009106Y4881123D1*
X1005253Y4880051D1*
X1001348Y4879192D1*
X997399Y4878550D1*
X993423Y4878127D1*
X989428Y4877925D1*
X985429Y4877944D1*
X981436Y4878184D1*
X977463Y4878643D1*
X973522Y4879322D1*
X969623Y4880217D1*
X965781Y4881327D1*
X962007Y4882647D1*
X958310Y4884173D1*
X954702Y4885902D1*
X951197Y4887827D1*
X947803Y4889942D1*
X944531Y4892243D1*
X941391Y4894720D1*
X938394Y4897367D1*
X935546Y4900176D1*
X932858Y4903138D1*
X930339Y4906244D1*
X927993Y4909484D1*
X925832Y4912849D1*
X923860Y4916328D1*
X922081Y4919911D1*
X920505Y4923587D1*
X919134Y4927344D1*
X917972Y4931171D1*
X917024Y4935055D1*
X916291Y4938988D1*
X915777Y4942954D1*
X915483Y4946942D1*
X915411Y4950941D1*
X915558Y4954938D1*
X915927Y4958921D1*
X916514Y4962877D1*
X917320Y4966794D1*
X918341Y4970661D1*
X919573Y4974466D1*
X921016Y4978197D1*
X922660Y4981843D1*
X924505Y4985391D1*
X926542Y4988833D1*
X928766Y4992156D1*
X931171Y4995353D1*
X933749Y4998411D1*
X936491Y5001322D1*
X939391Y5004076D1*
X942438Y5006667D1*
X945623Y5009085D1*
X948937Y5011324D1*
X952370Y5013377D1*
X955912Y5015235D1*
X959550Y5016896D1*
X963274Y5018353D1*
X967073Y5019602D1*
X970937Y5020640D1*
X974850Y5021462D1*
X978804Y5022067D1*
X982785Y5022453D1*
X986781Y5022618D1*
X990780Y5022562D1*
X994770Y5022285D1*
X998739Y5021787D1*
X1002673Y5021072D1*
X1006563Y5020140D1*
X1010395Y5018995D1*
X1014157Y5017640D1*
X1017840Y5016079D1*
X1021430Y5014316D1*
X1024917Y5012360D1*
X1028291Y5010211D1*
X1031542Y5007881D1*
X1034659Y5005374D1*
X1037631Y5002699D1*
X1040453Y4999864D1*
X1043113Y4996877D1*
X1045604Y4993748D1*
X1047917Y4990486D1*
X1050049Y4987101D1*
X1051988Y4983604D1*
X1053732Y4980004D1*
X1055274Y4976314D1*
X1056610Y4972545D1*
X1057736Y4968707D1*
X1058648Y4964812D1*
X1059344Y4960874D1*
X1059820Y4956903D1*
X1060126Y4950265D1*
X1060016Y4946268D1*
X560016D2*
X559684Y4942281D1*
X559133Y4938320D1*
X558364Y4934395D1*
X557379Y4930518D1*
X556182Y4926702D1*
X554776Y4922958D1*
X553164Y4919298D1*
X551354Y4915732D1*
X549349Y4912272D1*
X547155Y4908927D1*
X544781Y4905709D1*
X542232Y4902627D1*
X539516Y4899690D1*
X536643Y4896908D1*
X533621Y4894289D1*
X530458Y4891841D1*
X527164Y4889572D1*
X523751Y4887488D1*
X520227Y4885596D1*
X516605Y4883900D1*
X512894Y4882408D1*
X509106Y4881123D1*
X505253Y4880051D1*
X501348Y4879192D1*
X497399Y4878550D1*
X493423Y4878127D1*
X489428Y4877925D1*
X485429Y4877944D1*
X481436Y4878184D1*
X477463Y4878643D1*
X473522Y4879322D1*
X469623Y4880217D1*
X465781Y4881327D1*
X462007Y4882647D1*
X458310Y4884173D1*
X454702Y4885902D1*
X451197Y4887827D1*
X447803Y4889942D1*
X444531Y4892243D1*
X441391Y4894720D1*
X438394Y4897367D1*
X435546Y4900176D1*
X432858Y4903138D1*
X430339Y4906244D1*
X427993Y4909484D1*
X425832Y4912849D1*
X423860Y4916328D1*
X422081Y4919911D1*
X420505Y4923587D1*
X419134Y4927344D1*
X417972Y4931171D1*
X417024Y4935055D1*
X416291Y4938988D1*
X415777Y4942954D1*
X415483Y4946942D1*
X415411Y4950941D1*
X415558Y4954938D1*
X415927Y4958921D1*
X416514Y4962877D1*
X417320Y4966794D1*
X418341Y4970661D1*
X419573Y4974466D1*
X421016Y4978197D1*
X422660Y4981843D1*
X424505Y4985391D1*
X426542Y4988833D1*
X428766Y4992156D1*
X431171Y4995353D1*
X433749Y4998411D1*
X436491Y5001322D1*
X439391Y5004076D1*
X442438Y5006667D1*
X445623Y5009085D1*
X448937Y5011324D1*
X452370Y5013377D1*
X455912Y5015235D1*
X459550Y5016896D1*
X463274Y5018353D1*
X467073Y5019602D1*
X470937Y5020640D1*
X474850Y5021462D1*
X478804Y5022067D1*
X482785Y5022453D1*
X486781Y5022618D1*
X490780Y5022562D1*
X494770Y5022285D1*
X498739Y5021787D1*
X502673Y5021072D1*
X506563Y5020140D1*
X510395Y5018995D1*
X514157Y5017640D1*
X517840Y5016079D1*
X521430Y5014316D1*
X524917Y5012360D1*
X528291Y5010211D1*
X531542Y5007881D1*
X534659Y5005374D1*
X537631Y5002699D1*
X540453Y4999864D1*
X543113Y4996877D1*
X545604Y4993748D1*
X547917Y4990486D1*
X550049Y4987101D1*
X551988Y4983604D1*
X553732Y4980004D1*
X555274Y4976314D1*
X556610Y4972545D1*
X557736Y4968707D1*
X558648Y4964812D1*
X559344Y4960874D1*
X559820Y4956903D1*
X560126Y4950265D1*
X560016Y4946268D1*
X824769D2*
X824230Y4938287D1*
X823151Y4930361D1*
X821539Y4922528D1*
X819403Y4914819D1*
X816749Y4907273D1*
X813593Y4899924D1*
X809948Y4892804D1*
X805829Y4885949D1*
X801256Y4879386D1*
X796251Y4873147D1*
X790836Y4867261D1*
X785035Y4861753D1*
X778875Y4856651D1*
X772386Y4851976D1*
X765594Y4847751D1*
X758533Y4843993D1*
X751235Y4840722D1*
X743731Y4837951D1*
X736058Y4835693D1*
X728249Y4833959D1*
X720343Y4832757D1*
X712371Y4832092D1*
X704374Y4831966D1*
X696386Y4832381D1*
X688445Y4833335D1*
X680585Y4834823D1*
X672845Y4836839D1*
X665259Y4839373D1*
X657861Y4842413D1*
X650685Y4845948D1*
X643765Y4849958D1*
X637131Y4854427D1*
X630815Y4859333D1*
X624844Y4864656D1*
X619247Y4870369D1*
X614049Y4876448D1*
X609273Y4882864D1*
X604941Y4889588D1*
X601073Y4896589D1*
X597688Y4903836D1*
X594799Y4911295D1*
X592421Y4918932D1*
X590566Y4926711D1*
X589239Y4934600D1*
X588449Y4942559D1*
X588197Y4950554D1*
X588487Y4958546D1*
X589316Y4966501D1*
X590681Y4974383D1*
X592575Y4982154D1*
X594990Y4989780D1*
X597915Y4997224D1*
X601335Y5004454D1*
X605236Y5011437D1*
X609600Y5018139D1*
X614407Y5024533D1*
X619635Y5030585D1*
X625260Y5036272D1*
X631257Y5041566D1*
X637597Y5046441D1*
X644252Y5050878D1*
X651192Y5054854D1*
X658385Y5058354D1*
X665797Y5061358D1*
X673396Y5063856D1*
X681146Y5065835D1*
X689012Y5067285D1*
X696958Y5068199D1*
X704948Y5068576D1*
X712944Y5068412D1*
X720912Y5067707D1*
X728814Y5066467D1*
X736613Y5064694D1*
X744276Y5062400D1*
X751765Y5059593D1*
X759047Y5056286D1*
X766091Y5052495D1*
X772861Y5048236D1*
X779328Y5043530D1*
X785463Y5038398D1*
X791238Y5032862D1*
X796623Y5026950D1*
X801598Y5020688D1*
X806139Y5014102D1*
X810224Y5007226D1*
X813836Y5000089D1*
X816957Y4992724D1*
X819573Y4985165D1*
X821672Y4977448D1*
X823245Y4969606D1*
X824286Y4961675D1*
X824787Y4953693D1*
X824769Y4946268D1*
X1566266D2*
X1565934Y4942281D1*
X1565383Y4938320D1*
X1564614Y4934395D1*
X1563630Y4930518D1*
X1562433Y4926702D1*
X1561026Y4922958D1*
X1559415Y4919298D1*
X1557605Y4915732D1*
X1555600Y4912272D1*
X1553406Y4908927D1*
X1551031Y4905709D1*
X1548483Y4902627D1*
X1545766Y4899690D1*
X1542894Y4896908D1*
X1539871Y4894289D1*
X1536709Y4891841D1*
X1533415Y4889572D1*
X1530001Y4887488D1*
X1526478Y4885596D1*
X1522856Y4883900D1*
X1519144Y4882408D1*
X1515357Y4881123D1*
X1511504Y4880051D1*
X1507598Y4879192D1*
X1503650Y4878550D1*
X1499673Y4878127D1*
X1495678Y4877925D1*
X1491680Y4877944D1*
X1487686Y4878184D1*
X1483714Y4878643D1*
X1479773Y4879322D1*
X1475874Y4880217D1*
X1472031Y4881327D1*
X1468257Y4882647D1*
X1464560Y4884173D1*
X1460953Y4885902D1*
X1457448Y4887827D1*
X1454054Y4889942D1*
X1450782Y4892243D1*
X1447642Y4894720D1*
X1444644Y4897367D1*
X1441797Y4900176D1*
X1439109Y4903138D1*
X1436589Y4906244D1*
X1434244Y4909484D1*
X1432083Y4912849D1*
X1430110Y4916328D1*
X1428332Y4919911D1*
X1426756Y4923587D1*
X1425385Y4927344D1*
X1424223Y4931171D1*
X1423274Y4935055D1*
X1422542Y4938988D1*
X1422028Y4942954D1*
X1421734Y4946942D1*
X1421661Y4950941D1*
X1421808Y4954938D1*
X1422177Y4958921D1*
X1422765Y4962877D1*
X1423571Y4966794D1*
X1424592Y4970661D1*
X1425824Y4974466D1*
X1427266Y4978197D1*
X1428911Y4981843D1*
X1430756Y4985391D1*
X1432793Y4988833D1*
X1435017Y4992156D1*
X1437421Y4995353D1*
X1440000Y4998411D1*
X1442741Y5001322D1*
X1445642Y5004076D1*
X1448689Y5006667D1*
X1451874Y5009085D1*
X1455188Y5011324D1*
X1458621Y5013377D1*
X1462163Y5015235D1*
X1465801Y5016896D1*
X1469525Y5018353D1*
X1473324Y5019602D1*
X1477188Y5020640D1*
X1481101Y5021462D1*
X1485055Y5022067D1*
X1489035Y5022453D1*
X1493031Y5022618D1*
X1497030Y5022562D1*
X1501021Y5022285D1*
X1504990Y5021787D1*
X1508924Y5021072D1*
X1512814Y5020140D1*
X1516646Y5018995D1*
X1520408Y5017640D1*
X1524091Y5016079D1*
X1527681Y5014316D1*
X1531168Y5012360D1*
X1534542Y5010211D1*
X1537793Y5007881D1*
X1540909Y5005374D1*
X1543882Y5002699D1*
X1546703Y4999864D1*
X1549364Y4996877D1*
X1551854Y4993748D1*
X1554168Y4990486D1*
X1556299Y4987101D1*
X1558239Y4983604D1*
X1559983Y4980004D1*
X1561525Y4976314D1*
X1562861Y4972545D1*
X1563987Y4968707D1*
X1564899Y4964812D1*
X1565594Y4960874D1*
X1566071Y4956903D1*
X1566377Y4950265D1*
X1566266Y4946268D1*
X2066265D2*
X2065933Y4942281D1*
X2065382Y4938320D1*
X2064613Y4934395D1*
X2063629Y4930518D1*
X2062432Y4926702D1*
X2061025Y4922958D1*
X2059413Y4919298D1*
X2057604Y4915732D1*
X2055598Y4912272D1*
X2053404Y4908927D1*
X2051030Y4905709D1*
X2048482Y4902627D1*
X2045765Y4899690D1*
X2042892Y4896908D1*
X2039870Y4894289D1*
X2036707Y4891841D1*
X2033413Y4889572D1*
X2030000Y4887488D1*
X2026476Y4885596D1*
X2022854Y4883900D1*
X2019143Y4882408D1*
X2015356Y4881123D1*
X2011503Y4880051D1*
X2007597Y4879192D1*
X2003648Y4878550D1*
X1999672Y4878127D1*
X1995677Y4877925D1*
X1991678Y4877944D1*
X1987685Y4878184D1*
X1983713Y4878643D1*
X1979772Y4879322D1*
X1975873Y4880217D1*
X1972030Y4881327D1*
X1968256Y4882647D1*
X1964559Y4884173D1*
X1960951Y4885902D1*
X1957446Y4887827D1*
X1954052Y4889942D1*
X1950781Y4892243D1*
X1947640Y4894720D1*
X1944643Y4897367D1*
X1941795Y4900176D1*
X1939108Y4903138D1*
X1936588Y4906244D1*
X1934243Y4909484D1*
X1932081Y4912849D1*
X1930109Y4916328D1*
X1928331Y4919911D1*
X1926755Y4923587D1*
X1925383Y4927344D1*
X1924222Y4931171D1*
X1923273Y4935055D1*
X1922541Y4938988D1*
X1922026Y4942954D1*
X1921732Y4946942D1*
X1921660Y4950941D1*
X1921807Y4954938D1*
X1922176Y4958921D1*
X1922764Y4962877D1*
X1923570Y4966794D1*
X1924591Y4970661D1*
X1925823Y4974466D1*
X1927265Y4978197D1*
X1928909Y4981843D1*
X1930755Y4985391D1*
X1932791Y4988833D1*
X1935016Y4992156D1*
X1937420Y4995353D1*
X1939999Y4998411D1*
X1942740Y5001322D1*
X1945640Y5004076D1*
X1948688Y5006667D1*
X1951873Y5009085D1*
X1955186Y5011324D1*
X1958619Y5013377D1*
X1962161Y5015235D1*
X1965799Y5016896D1*
X1969524Y5018353D1*
X1973323Y5019602D1*
X1977186Y5020640D1*
X1981100Y5021462D1*
X1985054Y5022067D1*
X1989034Y5022453D1*
X1993030Y5022618D1*
X1997029Y5022562D1*
X2001020Y5022285D1*
X2004988Y5021787D1*
X2008923Y5021072D1*
X2012812Y5020140D1*
X2016644Y5018995D1*
X2020407Y5017640D1*
X2024089Y5016079D1*
X2027680Y5014316D1*
X2031167Y5012360D1*
X2034541Y5010211D1*
X2037791Y5007881D1*
X2040908Y5005374D1*
X2043881Y5002699D1*
X2046702Y4999864D1*
X2049362Y4996877D1*
X2051853Y4993748D1*
X2054167Y4990486D1*
X2056298Y4987101D1*
X2058238Y4983604D1*
X2059982Y4980004D1*
X2061524Y4976314D1*
X2062860Y4972545D1*
X2063986Y4968707D1*
X2064898Y4964812D1*
X2065593Y4960874D1*
X2066070Y4956903D1*
X2066375Y4950265D1*
X2066265Y4946268D1*
X1324769Y4946266D2*
X1324230Y4938286D1*
X1323151Y4930360D1*
X1321539Y4922526D1*
X1319403Y4914818D1*
X1316749Y4907272D1*
X1313593Y4899923D1*
X1309948Y4892803D1*
X1305829Y4885948D1*
X1301256Y4879385D1*
X1296251Y4873146D1*
X1290836Y4867260D1*
X1285035Y4861752D1*
X1278875Y4856650D1*
X1272386Y4851975D1*
X1265594Y4847749D1*
X1258533Y4843992D1*
X1251235Y4840720D1*
X1243731Y4837950D1*
X1236058Y4835692D1*
X1228249Y4833958D1*
X1220343Y4832756D1*
X1212371Y4832091D1*
X1204374Y4831965D1*
X1196386Y4832379D1*
X1188445Y4833333D1*
X1180585Y4834822D1*
X1172845Y4836837D1*
X1165259Y4839371D1*
X1157861Y4842412D1*
X1150685Y4845946D1*
X1143765Y4849957D1*
X1137131Y4854425D1*
X1130815Y4859332D1*
X1124844Y4864655D1*
X1119247Y4870367D1*
X1114049Y4876446D1*
X1109273Y4882862D1*
X1104941Y4889587D1*
X1101073Y4896588D1*
X1097688Y4903835D1*
X1094799Y4911294D1*
X1092421Y4918930D1*
X1090566Y4926710D1*
X1089239Y4934598D1*
X1088449Y4942558D1*
X1088197Y4950552D1*
X1088487Y4958545D1*
X1089316Y4966500D1*
X1090681Y4974382D1*
X1092575Y4982152D1*
X1094990Y4989778D1*
X1097915Y4997223D1*
X1101335Y5004453D1*
X1105236Y5011436D1*
X1109600Y5018138D1*
X1114407Y5024531D1*
X1119635Y5030584D1*
X1125260Y5036270D1*
X1131257Y5041564D1*
X1137597Y5046440D1*
X1144252Y5050877D1*
X1151192Y5054853D1*
X1158385Y5058353D1*
X1165797Y5061357D1*
X1173396Y5063854D1*
X1181146Y5065833D1*
X1189012Y5067283D1*
X1196958Y5068198D1*
X1204948Y5068575D1*
X1212944Y5068411D1*
X1220912Y5067706D1*
X1228814Y5066466D1*
X1236613Y5064693D1*
X1244276Y5062399D1*
X1251765Y5059592D1*
X1259047Y5056285D1*
X1266091Y5052493D1*
X1272861Y5048235D1*
X1279328Y5043529D1*
X1285463Y5038396D1*
X1291238Y5032861D1*
X1296623Y5026949D1*
X1301598Y5020686D1*
X1306139Y5014101D1*
X1310224Y5007224D1*
X1313836Y5000088D1*
X1316957Y4992723D1*
X1319573Y4985164D1*
X1321672Y4977446D1*
X1323245Y4969605D1*
X1324286Y4961673D1*
X1324787Y4953692D1*
X1324769Y4946266D1*
X1824769D2*
X1824230Y4938286D1*
X1823151Y4930360D1*
X1821539Y4922526D1*
X1819403Y4914818D1*
X1816749Y4907272D1*
X1813593Y4899923D1*
X1809948Y4892803D1*
X1805829Y4885948D1*
X1801256Y4879385D1*
X1796251Y4873146D1*
X1790836Y4867260D1*
X1785035Y4861752D1*
X1778875Y4856650D1*
X1772386Y4851975D1*
X1765594Y4847749D1*
X1758533Y4843992D1*
X1751235Y4840720D1*
X1743731Y4837950D1*
X1736058Y4835692D1*
X1728249Y4833958D1*
X1720343Y4832756D1*
X1712371Y4832091D1*
X1704374Y4831965D1*
X1696386Y4832379D1*
X1688445Y4833333D1*
X1680585Y4834822D1*
X1672845Y4836837D1*
X1665259Y4839371D1*
X1657861Y4842412D1*
X1650685Y4845946D1*
X1643765Y4849957D1*
X1637131Y4854425D1*
X1630815Y4859332D1*
X1624844Y4864655D1*
X1619247Y4870367D1*
X1614049Y4876446D1*
X1609273Y4882862D1*
X1604941Y4889587D1*
X1601073Y4896588D1*
X1597688Y4903835D1*
X1594799Y4911294D1*
X1592421Y4918930D1*
X1590566Y4926710D1*
X1589239Y4934598D1*
X1588449Y4942558D1*
X1588197Y4950552D1*
X1588487Y4958545D1*
X1589316Y4966500D1*
X1590681Y4974382D1*
X1592575Y4982152D1*
X1594990Y4989778D1*
X1597915Y4997223D1*
X1601335Y5004453D1*
X1605236Y5011436D1*
X1609600Y5018138D1*
X1614407Y5024531D1*
X1619635Y5030584D1*
X1625260Y5036270D1*
X1631257Y5041564D1*
X1637597Y5046440D1*
X1644252Y5050877D1*
X1651192Y5054853D1*
X1658385Y5058353D1*
X1665797Y5061357D1*
X1673396Y5063854D1*
X1681146Y5065833D1*
X1689012Y5067283D1*
X1696958Y5068198D1*
X1704948Y5068575D1*
X1712944Y5068411D1*
X1720912Y5067706D1*
X1728814Y5066466D1*
X1736613Y5064693D1*
X1744276Y5062399D1*
X1751765Y5059592D1*
X1759047Y5056285D1*
X1766091Y5052493D1*
X1772861Y5048235D1*
X1779328Y5043529D1*
X1785463Y5038396D1*
X1791238Y5032861D1*
X1796623Y5026949D1*
X1801598Y5020686D1*
X1806139Y5014101D1*
X1810224Y5007224D1*
X1813836Y5000088D1*
X1816957Y4992723D1*
X1819573Y4985164D1*
X1821672Y4977446D1*
X1823245Y4969605D1*
X1824286Y4961673D1*
X1824787Y4953692D1*
X1824769Y4946266D1*
X2324769D2*
X2324230Y4938286D1*
X2323151Y4930360D1*
X2321539Y4922526D1*
X2319403Y4914818D1*
X2316749Y4907272D1*
X2313593Y4899923D1*
X2309948Y4892803D1*
X2305829Y4885948D1*
X2301256Y4879385D1*
X2296251Y4873146D1*
X2290836Y4867260D1*
X2285035Y4861752D1*
X2278875Y4856650D1*
X2272386Y4851975D1*
X2265594Y4847749D1*
X2258533Y4843992D1*
X2251235Y4840720D1*
X2243731Y4837950D1*
X2236058Y4835692D1*
X2228249Y4833958D1*
X2220343Y4832756D1*
X2212371Y4832091D1*
X2204374Y4831965D1*
X2196386Y4832379D1*
X2188445Y4833333D1*
X2180585Y4834822D1*
X2172845Y4836837D1*
X2165259Y4839371D1*
X2157861Y4842412D1*
X2150685Y4845946D1*
X2143765Y4849957D1*
X2137131Y4854425D1*
X2130815Y4859332D1*
X2124844Y4864655D1*
X2119247Y4870367D1*
X2114049Y4876446D1*
X2109273Y4882862D1*
X2104941Y4889587D1*
X2101073Y4896588D1*
X2097688Y4903835D1*
X2094799Y4911294D1*
X2092421Y4918930D1*
X2090566Y4926710D1*
X2089239Y4934598D1*
X2088449Y4942558D1*
X2088197Y4950552D1*
X2088487Y4958545D1*
X2089316Y4966500D1*
X2090681Y4974382D1*
X2092575Y4982152D1*
X2094990Y4989778D1*
X2097915Y4997223D1*
X2101335Y5004453D1*
X2105236Y5011436D1*
X2109600Y5018138D1*
X2114407Y5024531D1*
X2119635Y5030584D1*
X2125260Y5036270D1*
X2131257Y5041564D1*
X2137597Y5046440D1*
X2144252Y5050877D1*
X2151192Y5054853D1*
X2158385Y5058353D1*
X2165797Y5061357D1*
X2173396Y5063854D1*
X2181146Y5065833D1*
X2189012Y5067283D1*
X2196958Y5068198D1*
X2204948Y5068575D1*
X2212944Y5068411D1*
X2220912Y5067706D1*
X2228814Y5066466D1*
X2236613Y5064693D1*
X2244276Y5062399D1*
X2251765Y5059592D1*
X2259047Y5056285D1*
X2266091Y5052493D1*
X2272861Y5048235D1*
X2279328Y5043529D1*
X2285463Y5038396D1*
X2291238Y5032861D1*
X2296623Y5026949D1*
X2301598Y5020686D1*
X2306139Y5014101D1*
X2310224Y5007224D1*
X2313836Y5000088D1*
X2316957Y4992723D1*
X2319573Y4985164D1*
X2321672Y4977446D1*
X2323245Y4969605D1*
X2324286Y4961673D1*
X2324787Y4953692D1*
X2324769Y4946266D1*
X696319Y1191517D2*
X695780Y1183537D1*
X694701Y1175610D1*
X693089Y1167777D1*
X690953Y1160068D1*
X688299Y1152522D1*
X685143Y1145173D1*
X681497Y1138054D1*
X677379Y1131198D1*
X672806Y1124635D1*
X667801Y1118396D1*
X662386Y1112510D1*
X656585Y1107003D1*
X650425Y1101900D1*
X643936Y1097226D1*
X637144Y1093000D1*
X630083Y1089243D1*
X622785Y1085971D1*
X615281Y1083201D1*
X607608Y1080942D1*
X599799Y1079209D1*
X591892Y1078007D1*
X583921Y1077341D1*
X575924Y1077215D1*
X567936Y1077630D1*
X559995Y1078584D1*
X552135Y1080072D1*
X544395Y1082088D1*
X536808Y1084622D1*
X529411Y1087663D1*
X522235Y1091197D1*
X515315Y1095207D1*
X508681Y1099676D1*
X502365Y1104583D1*
X496394Y1109906D1*
X490797Y1115618D1*
X485598Y1121697D1*
X480823Y1128113D1*
X476491Y1134837D1*
X472623Y1141839D1*
X469238Y1149085D1*
X466349Y1156545D1*
X463971Y1164181D1*
X462115Y1171961D1*
X460789Y1179849D1*
X459999Y1187808D1*
X459747Y1195803D1*
X460037Y1203795D1*
X460866Y1211751D1*
X462231Y1219633D1*
X464125Y1227403D1*
X466539Y1235029D1*
X469465Y1242474D1*
X472885Y1249703D1*
X476786Y1256686D1*
X481150Y1263388D1*
X485957Y1269782D1*
X491185Y1275835D1*
X496810Y1281521D1*
X502807Y1286815D1*
X509147Y1291690D1*
X515802Y1296127D1*
X522741Y1300104D1*
X529934Y1303604D1*
X537346Y1306608D1*
X544946Y1309105D1*
X552696Y1311084D1*
X560562Y1312534D1*
X568508Y1313449D1*
X576497Y1313825D1*
X584493Y1313661D1*
X592462Y1312957D1*
X600364Y1311717D1*
X608163Y1309944D1*
X615825Y1307650D1*
X623315Y1304843D1*
X630597Y1301535D1*
X637640Y1297744D1*
X644411Y1293486D1*
X650878Y1288780D1*
X657013Y1283647D1*
X662787Y1278112D1*
X668173Y1272199D1*
X673148Y1265937D1*
X677689Y1259352D1*
X681774Y1252475D1*
X685386Y1245339D1*
X688507Y1237974D1*
X691123Y1230415D1*
X693222Y1222697D1*
X694795Y1214856D1*
X695836Y1206924D1*
X696337Y1198942D1*
X696319Y1191517D1*
X1160039Y1033766D2*
X1159669Y1025776D1*
X1158927Y1017811D1*
X1157816Y1009890D1*
X1156340Y1002028D1*
X1154500Y994243D1*
X1152301Y986552D1*
X1149745Y978971D1*
X1146843Y971517D1*
X1143597Y964206D1*
X1140014Y957054D1*
X1136105Y950075D1*
X1131875Y943285D1*
X1127336Y936699D1*
X1122495Y930331D1*
X1117364Y924194D1*
X1111954Y918302D1*
X1106276Y912668D1*
X1100343Y907302D1*
X1094167Y902218D1*
X1087761Y897427D1*
X1081140Y892937D1*
X1074319Y888760D1*
X1067310Y884904D1*
X1060130Y881377D1*
X1052794Y878188D1*
X1045319Y875341D1*
X1037719Y872845D1*
X1030010Y870705D1*
X1022213Y868924D1*
X1014340Y867508D1*
X1006409Y866458D1*
X998440Y865777D1*
X990446Y865467D1*
X982448Y865529D1*
X974459Y865961D1*
X966500Y866764D1*
X958588Y867934D1*
X950738Y869472D1*
X942967Y871371D1*
X935293Y873630D1*
X927732Y876243D1*
X920301Y879202D1*
X913014Y882504D1*
X905890Y886140D1*
X898941Y890104D1*
X892184Y894385D1*
X885633Y898975D1*
X879302Y903865D1*
X873205Y909043D1*
X867354Y914499D1*
X861762Y920219D1*
X856444Y926193D1*
X851407Y932408D1*
X846664Y938850D1*
X842226Y945505D1*
X838101Y952358D1*
X834299Y959396D1*
X830827Y966604D1*
X827694Y973963D1*
X824906Y981461D1*
X822467Y989079D1*
X820386Y996803D1*
X818665Y1004615D1*
X817308Y1012499D1*
X816320Y1020437D1*
X815701Y1028412D1*
X815451Y1036407D1*
X815575Y1044406D1*
X816068Y1052390D1*
X816932Y1060343D1*
X818164Y1068245D1*
X819761Y1076084D1*
X821720Y1083840D1*
X824037Y1091496D1*
X826707Y1099037D1*
X829724Y1106445D1*
X833081Y1113706D1*
X836773Y1120803D1*
X840789Y1127720D1*
X845122Y1134445D1*
X849762Y1140961D1*
X854699Y1147253D1*
X859924Y1153311D1*
X865424Y1159119D1*
X871188Y1164667D1*
X877203Y1169940D1*
X883457Y1174929D1*
X889934Y1179622D1*
X896623Y1184009D1*
X903508Y1188081D1*
X910575Y1191829D1*
X917807Y1195247D1*
X925192Y1198323D1*
X932710Y1201054D1*
X940348Y1203433D1*
X948087Y1205455D1*
X955912Y1207117D1*
X963806Y1208412D1*
X971751Y1209340D1*
X979731Y1209899D1*
X987727Y1210087D1*
X995724Y1209903D1*
X1003705Y1209348D1*
X1011651Y1208423D1*
X1019545Y1207131D1*
X1027370Y1205474D1*
X1035110Y1203455D1*
X1042749Y1201079D1*
X1050269Y1198352D1*
X1057654Y1195278D1*
X1064888Y1191865D1*
X1071957Y1188119D1*
X1078844Y1184050D1*
X1085535Y1179667D1*
X1092014Y1174976D1*
X1098270Y1169990D1*
X1104287Y1164719D1*
X1110054Y1159175D1*
X1115556Y1153369D1*
X1120783Y1147314D1*
X1125724Y1141022D1*
X1130367Y1134509D1*
X1134703Y1127787D1*
X1138723Y1120870D1*
X1142417Y1113776D1*
X1145778Y1106517D1*
X1148798Y1099109D1*
X1151471Y1091570D1*
X1153793Y1083915D1*
X1155755Y1076160D1*
X1157356Y1068323D1*
X1158591Y1060419D1*
X1159458Y1052467D1*
X1159955Y1044483D1*
X1160087Y1037766D1*
X1160039Y1033766D1*
X1560039D2*
X1559669Y1025776D1*
X1558927Y1017811D1*
X1557816Y1009890D1*
X1556340Y1002028D1*
X1554500Y994243D1*
X1552301Y986552D1*
X1549745Y978971D1*
X1546843Y971517D1*
X1543597Y964206D1*
X1540014Y957054D1*
X1536105Y950075D1*
X1531875Y943285D1*
X1527336Y936699D1*
X1522495Y930331D1*
X1517364Y924194D1*
X1511954Y918302D1*
X1506276Y912668D1*
X1500343Y907302D1*
X1494167Y902218D1*
X1487761Y897427D1*
X1481140Y892937D1*
X1474319Y888760D1*
X1467310Y884904D1*
X1460130Y881377D1*
X1452794Y878188D1*
X1445319Y875341D1*
X1437719Y872845D1*
X1430010Y870705D1*
X1422213Y868924D1*
X1414340Y867508D1*
X1406409Y866458D1*
X1398440Y865777D1*
X1390446Y865467D1*
X1382448Y865529D1*
X1374459Y865961D1*
X1366500Y866764D1*
X1358588Y867934D1*
X1350738Y869472D1*
X1342967Y871371D1*
X1335293Y873630D1*
X1327732Y876243D1*
X1320301Y879202D1*
X1313014Y882504D1*
X1305890Y886140D1*
X1298941Y890104D1*
X1292184Y894385D1*
X1285633Y898975D1*
X1279302Y903865D1*
X1273205Y909043D1*
X1267354Y914499D1*
X1261762Y920219D1*
X1256444Y926193D1*
X1251407Y932408D1*
X1246664Y938850D1*
X1242226Y945505D1*
X1238101Y952358D1*
X1234299Y959396D1*
X1230827Y966604D1*
X1227694Y973963D1*
X1224906Y981461D1*
X1222467Y989079D1*
X1220386Y996803D1*
X1218665Y1004615D1*
X1217308Y1012499D1*
X1216320Y1020437D1*
X1215701Y1028412D1*
X1215451Y1036407D1*
X1215575Y1044406D1*
X1216068Y1052390D1*
X1216932Y1060343D1*
X1218164Y1068245D1*
X1219761Y1076084D1*
X1221720Y1083840D1*
X1224037Y1091496D1*
X1226707Y1099037D1*
X1229724Y1106445D1*
X1233081Y1113706D1*
X1236773Y1120803D1*
X1240789Y1127720D1*
X1245122Y1134445D1*
X1249762Y1140961D1*
X1254699Y1147253D1*
X1259924Y1153311D1*
X1265424Y1159119D1*
X1271188Y1164667D1*
X1277203Y1169940D1*
X1283457Y1174929D1*
X1289934Y1179622D1*
X1296623Y1184009D1*
X1303508Y1188081D1*
X1310575Y1191829D1*
X1317807Y1195247D1*
X1325192Y1198323D1*
X1332710Y1201054D1*
X1340348Y1203433D1*
X1348087Y1205455D1*
X1355912Y1207117D1*
X1363806Y1208412D1*
X1371751Y1209340D1*
X1379731Y1209899D1*
X1387727Y1210087D1*
X1395724Y1209903D1*
X1403705Y1209348D1*
X1411651Y1208423D1*
X1419545Y1207131D1*
X1427370Y1205474D1*
X1435110Y1203455D1*
X1442749Y1201079D1*
X1450269Y1198352D1*
X1457654Y1195278D1*
X1464888Y1191865D1*
X1471957Y1188119D1*
X1478844Y1184050D1*
X1485535Y1179667D1*
X1492014Y1174976D1*
X1498270Y1169990D1*
X1504287Y1164719D1*
X1510054Y1159175D1*
X1515556Y1153369D1*
X1520783Y1147314D1*
X1525724Y1141022D1*
X1530367Y1134509D1*
X1534703Y1127787D1*
X1538723Y1120870D1*
X1542417Y1113776D1*
X1545778Y1106517D1*
X1548798Y1099109D1*
X1551471Y1091570D1*
X1553793Y1083915D1*
X1555755Y1076160D1*
X1557356Y1068323D1*
X1558591Y1060419D1*
X1559458Y1052467D1*
X1559955Y1044483D1*
X1560087Y1037766D1*
X1560039Y1033766D1*
X1960039D2*
X1959669Y1025776D1*
X1958927Y1017811D1*
X1957816Y1009890D1*
X1956340Y1002028D1*
X1954500Y994243D1*
X1952301Y986552D1*
X1949745Y978971D1*
X1946843Y971517D1*
X1943597Y964206D1*
X1940014Y957054D1*
X1936105Y950075D1*
X1931875Y943285D1*
X1927336Y936699D1*
X1922495Y930331D1*
X1917364Y924194D1*
X1911954Y918302D1*
X1906276Y912668D1*
X1900343Y907302D1*
X1894167Y902218D1*
X1887761Y897427D1*
X1881140Y892937D1*
X1874319Y888760D1*
X1867310Y884904D1*
X1860130Y881377D1*
X1852794Y878188D1*
X1845319Y875341D1*
X1837719Y872845D1*
X1830010Y870705D1*
X1822213Y868924D1*
X1814340Y867508D1*
X1806409Y866458D1*
X1798440Y865777D1*
X1790446Y865467D1*
X1782448Y865529D1*
X1774459Y865961D1*
X1766500Y866764D1*
X1758588Y867934D1*
X1750738Y869472D1*
X1742967Y871371D1*
X1735293Y873630D1*
X1727732Y876243D1*
X1720301Y879202D1*
X1713014Y882504D1*
X1705890Y886140D1*
X1698941Y890104D1*
X1692184Y894385D1*
X1685633Y898975D1*
X1679302Y903865D1*
X1673205Y909043D1*
X1667354Y914499D1*
X1661762Y920219D1*
X1656444Y926193D1*
X1651407Y932408D1*
X1646664Y938850D1*
X1642226Y945505D1*
X1638101Y952358D1*
X1634299Y959396D1*
X1630827Y966604D1*
X1627694Y973963D1*
X1624906Y981461D1*
X1622467Y989079D1*
X1620386Y996803D1*
X1618665Y1004615D1*
X1617308Y1012499D1*
X1616320Y1020437D1*
X1615701Y1028412D1*
X1615451Y1036407D1*
X1615575Y1044406D1*
X1616068Y1052390D1*
X1616932Y1060343D1*
X1618164Y1068245D1*
X1619761Y1076084D1*
X1621720Y1083840D1*
X1624037Y1091496D1*
X1626707Y1099037D1*
X1629724Y1106445D1*
X1633081Y1113706D1*
X1636773Y1120803D1*
X1640789Y1127720D1*
X1645122Y1134445D1*
X1649762Y1140961D1*
X1654699Y1147253D1*
X1659924Y1153311D1*
X1665424Y1159119D1*
X1671188Y1164667D1*
X1677203Y1169940D1*
X1683457Y1174929D1*
X1689934Y1179622D1*
X1696623Y1184009D1*
X1703508Y1188081D1*
X1710575Y1191829D1*
X1717807Y1195247D1*
X1725192Y1198323D1*
X1732710Y1201054D1*
X1740348Y1203433D1*
X1748087Y1205455D1*
X1755912Y1207117D1*
X1763806Y1208412D1*
X1771751Y1209340D1*
X1779731Y1209899D1*
X1787727Y1210087D1*
X1795724Y1209903D1*
X1803705Y1209348D1*
X1811651Y1208423D1*
X1819545Y1207131D1*
X1827370Y1205474D1*
X1835110Y1203455D1*
X1842749Y1201079D1*
X1850269Y1198352D1*
X1857654Y1195278D1*
X1864888Y1191865D1*
X1871957Y1188119D1*
X1878844Y1184050D1*
X1885535Y1179667D1*
X1892014Y1174976D1*
X1898270Y1169990D1*
X1904287Y1164719D1*
X1910054Y1159175D1*
X1915556Y1153369D1*
X1920783Y1147314D1*
X1925724Y1141022D1*
X1930367Y1134509D1*
X1934703Y1127787D1*
X1938723Y1120870D1*
X1942417Y1113776D1*
X1945778Y1106517D1*
X1948798Y1099109D1*
X1951471Y1091570D1*
X1953793Y1083915D1*
X1955755Y1076160D1*
X1957356Y1068323D1*
X1958591Y1060419D1*
X1959458Y1052467D1*
X1959955Y1044483D1*
X1960087Y1037766D1*
X1960039Y1033766D1*
X760039Y1552516D2*
X759669Y1544525D1*
X758927Y1536560D1*
X757816Y1528639D1*
X756340Y1520777D1*
X754500Y1512992D1*
X752301Y1505302D1*
X749745Y1497720D1*
X746843Y1490266D1*
X743597Y1482955D1*
X740014Y1475803D1*
X736105Y1468824D1*
X731875Y1462034D1*
X727336Y1455449D1*
X722495Y1449080D1*
X717364Y1442944D1*
X711954Y1437051D1*
X706276Y1431417D1*
X700343Y1426051D1*
X694167Y1420967D1*
X687761Y1416176D1*
X681140Y1411686D1*
X674319Y1407509D1*
X667310Y1403654D1*
X660130Y1400126D1*
X652794Y1396937D1*
X645319Y1394091D1*
X637719Y1391594D1*
X630010Y1389454D1*
X622213Y1387673D1*
X614340Y1386257D1*
X606409Y1385207D1*
X598440Y1384526D1*
X590446Y1384217D1*
X582448Y1384278D1*
X574459Y1384710D1*
X566500Y1385513D1*
X558588Y1386684D1*
X550738Y1388222D1*
X542967Y1390121D1*
X535293Y1392379D1*
X527732Y1394992D1*
X520301Y1397951D1*
X513014Y1401253D1*
X505890Y1404890D1*
X498941Y1408853D1*
X492184Y1413134D1*
X485633Y1417724D1*
X479302Y1422614D1*
X473205Y1427793D1*
X467354Y1433248D1*
X461762Y1438969D1*
X456444Y1444942D1*
X451407Y1451157D1*
X446664Y1457600D1*
X442226Y1464255D1*
X438101Y1471108D1*
X434299Y1478146D1*
X430827Y1485353D1*
X427694Y1492713D1*
X424906Y1500210D1*
X422467Y1507828D1*
X420386Y1515552D1*
X418665Y1523365D1*
X417308Y1531248D1*
X416320Y1539186D1*
X415701Y1547161D1*
X415451Y1555156D1*
X415575Y1563155D1*
X416068Y1571139D1*
X416932Y1579092D1*
X418164Y1586995D1*
X419761Y1594833D1*
X421720Y1602589D1*
X424037Y1610245D1*
X426707Y1617786D1*
X429724Y1625194D1*
X433081Y1632455D1*
X436773Y1639552D1*
X440789Y1646470D1*
X445122Y1653194D1*
X449762Y1659710D1*
X454699Y1666003D1*
X459924Y1672060D1*
X465424Y1677869D1*
X471188Y1683416D1*
X477203Y1688689D1*
X483457Y1693678D1*
X489934Y1698371D1*
X496623Y1702759D1*
X503508Y1706831D1*
X510575Y1710579D1*
X517807Y1713996D1*
X525192Y1717072D1*
X532710Y1719803D1*
X540348Y1722182D1*
X548087Y1724205D1*
X555912Y1725866D1*
X563806Y1727161D1*
X571751Y1728089D1*
X579731Y1728648D1*
X587727Y1728836D1*
X595724Y1728652D1*
X603705Y1728097D1*
X611651Y1727172D1*
X619545Y1725881D1*
X627370Y1724223D1*
X635110Y1722205D1*
X642749Y1719828D1*
X650269Y1717101D1*
X657654Y1714028D1*
X664888Y1710614D1*
X671957Y1706869D1*
X678844Y1702799D1*
X685535Y1698416D1*
X692014Y1693726D1*
X698270Y1688739D1*
X704287Y1683469D1*
X710054Y1677924D1*
X715556Y1672118D1*
X720783Y1666063D1*
X725724Y1659772D1*
X730367Y1653259D1*
X734703Y1646537D1*
X738723Y1639619D1*
X742417Y1632525D1*
X745778Y1625266D1*
X748798Y1617858D1*
X751471Y1610319D1*
X753793Y1602664D1*
X755755Y1594909D1*
X757356Y1587072D1*
X758591Y1579168D1*
X759458Y1571217D1*
X759955Y1563232D1*
X760087Y1556516D1*
X760039Y1552516D1*
X2360039Y1033766D2*
X2359669Y1025776D1*
X2358927Y1017811D1*
X2357816Y1009890D1*
X2356340Y1002028D1*
X2354500Y994243D1*
X2352301Y986552D1*
X2349745Y978971D1*
X2346843Y971517D1*
X2343597Y964206D1*
X2340014Y957054D1*
X2336105Y950075D1*
X2331875Y943285D1*
X2327336Y936699D1*
X2322495Y930331D1*
X2317364Y924194D1*
X2311954Y918302D1*
X2306276Y912668D1*
X2300343Y907302D1*
X2294167Y902218D1*
X2287761Y897427D1*
X2281140Y892937D1*
X2274319Y888760D1*
X2267310Y884904D1*
X2260130Y881377D1*
X2252794Y878188D1*
X2245319Y875341D1*
X2237719Y872845D1*
X2230010Y870705D1*
X2222213Y868924D1*
X2214340Y867508D1*
X2206409Y866458D1*
X2198440Y865777D1*
X2190446Y865467D1*
X2182448Y865529D1*
X2174459Y865961D1*
X2166500Y866764D1*
X2158588Y867934D1*
X2150738Y869472D1*
X2142967Y871371D1*
X2135293Y873630D1*
X2127732Y876243D1*
X2120301Y879202D1*
X2113014Y882504D1*
X2105890Y886140D1*
X2098941Y890104D1*
X2092184Y894385D1*
X2085633Y898975D1*
X2079302Y903865D1*
X2073205Y909043D1*
X2067354Y914499D1*
X2061762Y920219D1*
X2056444Y926193D1*
X2051407Y932408D1*
X2046664Y938850D1*
X2042226Y945505D1*
X2038101Y952358D1*
X2034299Y959396D1*
X2030827Y966604D1*
X2027694Y973963D1*
X2024906Y981461D1*
X2022467Y989079D1*
X2020386Y996803D1*
X2018665Y1004615D1*
X2017308Y1012499D1*
X2016320Y1020437D1*
X2015701Y1028412D1*
X2015451Y1036407D1*
X2015575Y1044406D1*
X2016068Y1052390D1*
X2016932Y1060343D1*
X2018164Y1068245D1*
X2019761Y1076084D1*
X2021720Y1083840D1*
X2024037Y1091496D1*
X2026707Y1099037D1*
X2029724Y1106445D1*
X2033081Y1113706D1*
X2036773Y1120803D1*
X2040789Y1127720D1*
X2045122Y1134445D1*
X2049762Y1140961D1*
X2054699Y1147253D1*
X2059924Y1153311D1*
X2065424Y1159119D1*
X2071188Y1164667D1*
X2077203Y1169940D1*
X2083457Y1174929D1*
X2089934Y1179622D1*
X2096623Y1184009D1*
X2103508Y1188081D1*
X2110575Y1191829D1*
X2117807Y1195247D1*
X2125192Y1198323D1*
X2132710Y1201054D1*
X2140348Y1203433D1*
X2148087Y1205455D1*
X2155912Y1207117D1*
X2163806Y1208412D1*
X2171751Y1209340D1*
X2179731Y1209899D1*
X2187727Y1210087D1*
X2195724Y1209903D1*
X2203705Y1209348D1*
X2211651Y1208423D1*
X2219545Y1207131D1*
X2227370Y1205474D1*
X2235110Y1203455D1*
X2242749Y1201079D1*
X2250269Y1198352D1*
X2257654Y1195278D1*
X2264888Y1191865D1*
X2271957Y1188119D1*
X2278844Y1184050D1*
X2285535Y1179667D1*
X2292014Y1174976D1*
X2298270Y1169990D1*
X2304287Y1164719D1*
X2310054Y1159175D1*
X2315556Y1153369D1*
X2320783Y1147314D1*
X2325724Y1141022D1*
X2330367Y1134509D1*
X2334703Y1127787D1*
X2338723Y1120870D1*
X2342417Y1113776D1*
X2345778Y1106517D1*
X2348798Y1099109D1*
X2351471Y1091570D1*
X2353793Y1083915D1*
X2355755Y1076160D1*
X2357356Y1068323D1*
X2358591Y1060419D1*
X2359458Y1052467D1*
X2359955Y1044483D1*
X2360087Y1037766D1*
X2360039Y1033766D1*
X1160039Y1502516D2*
X1159669Y1494525D1*
X1158927Y1486560D1*
X1157816Y1478639D1*
X1156340Y1470777D1*
X1154500Y1462992D1*
X1152301Y1455302D1*
X1149745Y1447720D1*
X1146843Y1440266D1*
X1143597Y1432955D1*
X1140014Y1425803D1*
X1136105Y1418824D1*
X1131875Y1412034D1*
X1127336Y1405449D1*
X1122495Y1399080D1*
X1117364Y1392944D1*
X1111954Y1387051D1*
X1106276Y1381417D1*
X1100343Y1376051D1*
X1094167Y1370967D1*
X1087761Y1366176D1*
X1081140Y1361686D1*
X1074319Y1357509D1*
X1067310Y1353654D1*
X1060130Y1350126D1*
X1052794Y1346937D1*
X1045319Y1344091D1*
X1037719Y1341594D1*
X1030010Y1339454D1*
X1022213Y1337673D1*
X1014340Y1336257D1*
X1006409Y1335207D1*
X998440Y1334526D1*
X990446Y1334217D1*
X982448Y1334278D1*
X974459Y1334710D1*
X966500Y1335513D1*
X958588Y1336684D1*
X950738Y1338222D1*
X942967Y1340121D1*
X935293Y1342379D1*
X927732Y1344992D1*
X920301Y1347951D1*
X913014Y1351253D1*
X905890Y1354890D1*
X898941Y1358853D1*
X892184Y1363134D1*
X885633Y1367724D1*
X879302Y1372614D1*
X873205Y1377793D1*
X867354Y1383248D1*
X861762Y1388969D1*
X856444Y1394942D1*
X851407Y1401157D1*
X846664Y1407600D1*
X842226Y1414255D1*
X838101Y1421108D1*
X834299Y1428146D1*
X830827Y1435353D1*
X827694Y1442713D1*
X824906Y1450210D1*
X822467Y1457828D1*
X820386Y1465552D1*
X818665Y1473365D1*
X817308Y1481248D1*
X816320Y1489186D1*
X815701Y1497161D1*
X815451Y1505156D1*
X815575Y1513155D1*
X816068Y1521139D1*
X816932Y1529092D1*
X818164Y1536995D1*
X819761Y1544833D1*
X821720Y1552589D1*
X824037Y1560245D1*
X826707Y1567786D1*
X829724Y1575194D1*
X833081Y1582455D1*
X836773Y1589552D1*
X840789Y1596470D1*
X845122Y1603194D1*
X849762Y1609710D1*
X854699Y1616003D1*
X859924Y1622060D1*
X865424Y1627869D1*
X871188Y1633416D1*
X877203Y1638689D1*
X883457Y1643678D1*
X889934Y1648371D1*
X896623Y1652759D1*
X903508Y1656831D1*
X910575Y1660579D1*
X917807Y1663996D1*
X925192Y1667072D1*
X932710Y1669803D1*
X940348Y1672182D1*
X948087Y1674205D1*
X955912Y1675866D1*
X963806Y1677161D1*
X971751Y1678089D1*
X979731Y1678648D1*
X987727Y1678836D1*
X995724Y1678652D1*
X1003705Y1678097D1*
X1011651Y1677172D1*
X1019545Y1675881D1*
X1027370Y1674223D1*
X1035110Y1672205D1*
X1042749Y1669828D1*
X1050269Y1667101D1*
X1057654Y1664028D1*
X1064888Y1660614D1*
X1071957Y1656869D1*
X1078844Y1652799D1*
X1085535Y1648416D1*
X1092014Y1643726D1*
X1098270Y1638739D1*
X1104287Y1633469D1*
X1110054Y1627924D1*
X1115556Y1622118D1*
X1120783Y1616063D1*
X1125724Y1609772D1*
X1130367Y1603259D1*
X1134703Y1596537D1*
X1138723Y1589619D1*
X1142417Y1582525D1*
X1145778Y1575266D1*
X1148798Y1567858D1*
X1151471Y1560319D1*
X1153793Y1552664D1*
X1155755Y1544909D1*
X1157356Y1537072D1*
X1158591Y1529168D1*
X1159458Y1521217D1*
X1159955Y1513232D1*
X1160087Y1506516D1*
X1160039Y1502516D1*
X1560039D2*
X1559669Y1494525D1*
X1558927Y1486560D1*
X1557816Y1478639D1*
X1556340Y1470777D1*
X1554500Y1462992D1*
X1552301Y1455302D1*
X1549745Y1447720D1*
X1546843Y1440266D1*
X1543597Y1432955D1*
X1540014Y1425803D1*
X1536105Y1418824D1*
X1531875Y1412034D1*
X1527336Y1405449D1*
X1522495Y1399080D1*
X1517364Y1392944D1*
X1511954Y1387051D1*
X1506276Y1381417D1*
X1500343Y1376051D1*
X1494167Y1370967D1*
X1487761Y1366176D1*
X1481140Y1361686D1*
X1474319Y1357509D1*
X1467310Y1353654D1*
X1460130Y1350126D1*
X1452794Y1346937D1*
X1445319Y1344091D1*
X1437719Y1341594D1*
X1430010Y1339454D1*
X1422213Y1337673D1*
X1414340Y1336257D1*
X1406409Y1335207D1*
X1398440Y1334526D1*
X1390446Y1334217D1*
X1382448Y1334278D1*
X1374459Y1334710D1*
X1366500Y1335513D1*
X1358588Y1336684D1*
X1350738Y1338222D1*
X1342967Y1340121D1*
X1335293Y1342379D1*
X1327732Y1344992D1*
X1320301Y1347951D1*
X1313014Y1351253D1*
X1305890Y1354890D1*
X1298941Y1358853D1*
X1292184Y1363134D1*
X1285633Y1367724D1*
X1279302Y1372614D1*
X1273205Y1377793D1*
X1267354Y1383248D1*
X1261762Y1388969D1*
X1256444Y1394942D1*
X1251407Y1401157D1*
X1246664Y1407600D1*
X1242226Y1414255D1*
X1238101Y1421108D1*
X1234299Y1428146D1*
X1230827Y1435353D1*
X1227694Y1442713D1*
X1224906Y1450210D1*
X1222467Y1457828D1*
X1220386Y1465552D1*
X1218665Y1473365D1*
X1217308Y1481248D1*
X1216320Y1489186D1*
X1215701Y1497161D1*
X1215451Y1505156D1*
X1215575Y1513155D1*
X1216068Y1521139D1*
X1216932Y1529092D1*
X1218164Y1536995D1*
X1219761Y1544833D1*
X1221720Y1552589D1*
X1224037Y1560245D1*
X1226707Y1567786D1*
X1229724Y1575194D1*
X1233081Y1582455D1*
X1236773Y1589552D1*
X1240789Y1596470D1*
X1245122Y1603194D1*
X1249762Y1609710D1*
X1254699Y1616003D1*
X1259924Y1622060D1*
X1265424Y1627869D1*
X1271188Y1633416D1*
X1277203Y1638689D1*
X1283457Y1643678D1*
X1289934Y1648371D1*
X1296623Y1652759D1*
X1303508Y1656831D1*
X1310575Y1660579D1*
X1317807Y1663996D1*
X1325192Y1667072D1*
X1332710Y1669803D1*
X1340348Y1672182D1*
X1348087Y1674205D1*
X1355912Y1675866D1*
X1363806Y1677161D1*
X1371751Y1678089D1*
X1379731Y1678648D1*
X1387727Y1678836D1*
X1395724Y1678652D1*
X1403705Y1678097D1*
X1411651Y1677172D1*
X1419545Y1675881D1*
X1427370Y1674223D1*
X1435110Y1672205D1*
X1442749Y1669828D1*
X1450269Y1667101D1*
X1457654Y1664028D1*
X1464888Y1660614D1*
X1471957Y1656869D1*
X1478844Y1652799D1*
X1485535Y1648416D1*
X1492014Y1643726D1*
X1498270Y1638739D1*
X1504287Y1633469D1*
X1510054Y1627924D1*
X1515556Y1622118D1*
X1520783Y1616063D1*
X1525724Y1609772D1*
X1530367Y1603259D1*
X1534703Y1596537D1*
X1538723Y1589619D1*
X1542417Y1582525D1*
X1545778Y1575266D1*
X1548798Y1567858D1*
X1551471Y1560319D1*
X1553793Y1552664D1*
X1555755Y1544909D1*
X1557356Y1537072D1*
X1558591Y1529168D1*
X1559458Y1521217D1*
X1559955Y1513232D1*
X1560087Y1506516D1*
X1560039Y1502516D1*
X1960039D2*
X1959669Y1494525D1*
X1958927Y1486560D1*
X1957816Y1478639D1*
X1956340Y1470777D1*
X1954500Y1462992D1*
X1952301Y1455302D1*
X1949745Y1447720D1*
X1946843Y1440266D1*
X1943597Y1432955D1*
X1940014Y1425803D1*
X1936105Y1418824D1*
X1931875Y1412034D1*
X1927336Y1405449D1*
X1922495Y1399080D1*
X1917364Y1392944D1*
X1911954Y1387051D1*
X1906276Y1381417D1*
X1900343Y1376051D1*
X1894167Y1370967D1*
X1887761Y1366176D1*
X1881140Y1361686D1*
X1874319Y1357509D1*
X1867310Y1353654D1*
X1860130Y1350126D1*
X1852794Y1346937D1*
X1845319Y1344091D1*
X1837719Y1341594D1*
X1830010Y1339454D1*
X1822213Y1337673D1*
X1814340Y1336257D1*
X1806409Y1335207D1*
X1798440Y1334526D1*
X1790446Y1334217D1*
X1782448Y1334278D1*
X1774459Y1334710D1*
X1766500Y1335513D1*
X1758588Y1336684D1*
X1750738Y1338222D1*
X1742967Y1340121D1*
X1735293Y1342379D1*
X1727732Y1344992D1*
X1720301Y1347951D1*
X1713014Y1351253D1*
X1705890Y1354890D1*
X1698941Y1358853D1*
X1692184Y1363134D1*
X1685633Y1367724D1*
X1679302Y1372614D1*
X1673205Y1377793D1*
X1667354Y1383248D1*
X1661762Y1388969D1*
X1656444Y1394942D1*
X1651407Y1401157D1*
X1646664Y1407600D1*
X1642226Y1414255D1*
X1638101Y1421108D1*
X1634299Y1428146D1*
X1630827Y1435353D1*
X1627694Y1442713D1*
X1624906Y1450210D1*
X1622467Y1457828D1*
X1620386Y1465552D1*
X1618665Y1473365D1*
X1617308Y1481248D1*
X1616320Y1489186D1*
X1615701Y1497161D1*
X1615451Y1505156D1*
X1615575Y1513155D1*
X1616068Y1521139D1*
X1616932Y1529092D1*
X1618164Y1536995D1*
X1619761Y1544833D1*
X1621720Y1552589D1*
X1624037Y1560245D1*
X1626707Y1567786D1*
X1629724Y1575194D1*
X1633081Y1582455D1*
X1636773Y1589552D1*
X1640789Y1596470D1*
X1645122Y1603194D1*
X1649762Y1609710D1*
X1654699Y1616003D1*
X1659924Y1622060D1*
X1665424Y1627869D1*
X1671188Y1633416D1*
X1677203Y1638689D1*
X1683457Y1643678D1*
X1689934Y1648371D1*
X1696623Y1652759D1*
X1703508Y1656831D1*
X1710575Y1660579D1*
X1717807Y1663996D1*
X1725192Y1667072D1*
X1732710Y1669803D1*
X1740348Y1672182D1*
X1748087Y1674205D1*
X1755912Y1675866D1*
X1763806Y1677161D1*
X1771751Y1678089D1*
X1779731Y1678648D1*
X1787727Y1678836D1*
X1795724Y1678652D1*
X1803705Y1678097D1*
X1811651Y1677172D1*
X1819545Y1675881D1*
X1827370Y1674223D1*
X1835110Y1672205D1*
X1842749Y1669828D1*
X1850269Y1667101D1*
X1857654Y1664028D1*
X1864888Y1660614D1*
X1871957Y1656869D1*
X1878844Y1652799D1*
X1885535Y1648416D1*
X1892014Y1643726D1*
X1898270Y1638739D1*
X1904287Y1633469D1*
X1910054Y1627924D1*
X1915556Y1622118D1*
X1920783Y1616063D1*
X1925724Y1609772D1*
X1930367Y1603259D1*
X1934703Y1596537D1*
X1938723Y1589619D1*
X1942417Y1582525D1*
X1945778Y1575266D1*
X1948798Y1567858D1*
X1951471Y1560319D1*
X1953793Y1552664D1*
X1955755Y1544909D1*
X1957356Y1537072D1*
X1958591Y1529168D1*
X1959458Y1521217D1*
X1959955Y1513232D1*
X1960087Y1506516D1*
X1960039Y1502516D1*
X2360039D2*
X2359669Y1494525D1*
X2358927Y1486560D1*
X2357816Y1478639D1*
X2356340Y1470777D1*
X2354500Y1462992D1*
X2352301Y1455302D1*
X2349745Y1447720D1*
X2346843Y1440266D1*
X2343597Y1432955D1*
X2340014Y1425803D1*
X2336105Y1418824D1*
X2331875Y1412034D1*
X2327336Y1405449D1*
X2322495Y1399080D1*
X2317364Y1392944D1*
X2311954Y1387051D1*
X2306276Y1381417D1*
X2300343Y1376051D1*
X2294167Y1370967D1*
X2287761Y1366176D1*
X2281140Y1361686D1*
X2274319Y1357509D1*
X2267310Y1353654D1*
X2260130Y1350126D1*
X2252794Y1346937D1*
X2245319Y1344091D1*
X2237719Y1341594D1*
X2230010Y1339454D1*
X2222213Y1337673D1*
X2214340Y1336257D1*
X2206409Y1335207D1*
X2198440Y1334526D1*
X2190446Y1334217D1*
X2182448Y1334278D1*
X2174459Y1334710D1*
X2166500Y1335513D1*
X2158588Y1336684D1*
X2150738Y1338222D1*
X2142967Y1340121D1*
X2135293Y1342379D1*
X2127732Y1344992D1*
X2120301Y1347951D1*
X2113014Y1351253D1*
X2105890Y1354890D1*
X2098941Y1358853D1*
X2092184Y1363134D1*
X2085633Y1367724D1*
X2079302Y1372614D1*
X2073205Y1377793D1*
X2067354Y1383248D1*
X2061762Y1388969D1*
X2056444Y1394942D1*
X2051407Y1401157D1*
X2046664Y1407600D1*
X2042226Y1414255D1*
X2038101Y1421108D1*
X2034299Y1428146D1*
X2030827Y1435353D1*
X2027694Y1442713D1*
X2024906Y1450210D1*
X2022467Y1457828D1*
X2020386Y1465552D1*
X2018665Y1473365D1*
X2017308Y1481248D1*
X2016320Y1489186D1*
X2015701Y1497161D1*
X2015451Y1505156D1*
X2015575Y1513155D1*
X2016068Y1521139D1*
X2016932Y1529092D1*
X2018164Y1536995D1*
X2019761Y1544833D1*
X2021720Y1552589D1*
X2024037Y1560245D1*
X2026707Y1567786D1*
X2029724Y1575194D1*
X2033081Y1582455D1*
X2036773Y1589552D1*
X2040789Y1596470D1*
X2045122Y1603194D1*
X2049762Y1609710D1*
X2054699Y1616003D1*
X2059924Y1622060D1*
X2065424Y1627869D1*
X2071188Y1633416D1*
X2077203Y1638689D1*
X2083457Y1643678D1*
X2089934Y1648371D1*
X2096623Y1652759D1*
X2103508Y1656831D1*
X2110575Y1660579D1*
X2117807Y1663996D1*
X2125192Y1667072D1*
X2132710Y1669803D1*
X2140348Y1672182D1*
X2148087Y1674205D1*
X2155912Y1675866D1*
X2163806Y1677161D1*
X2171751Y1678089D1*
X2179731Y1678648D1*
X2187727Y1678836D1*
X2195724Y1678652D1*
X2203705Y1678097D1*
X2211651Y1677172D1*
X2219545Y1675881D1*
X2227370Y1674223D1*
X2235110Y1672205D1*
X2242749Y1669828D1*
X2250269Y1667101D1*
X2257654Y1664028D1*
X2264888Y1660614D1*
X2271957Y1656869D1*
X2278844Y1652799D1*
X2285535Y1648416D1*
X2292014Y1643726D1*
X2298270Y1638739D1*
X2304287Y1633469D1*
X2310054Y1627924D1*
X2315556Y1622118D1*
X2320783Y1616063D1*
X2325724Y1609772D1*
X2330367Y1603259D1*
X2334703Y1596537D1*
X2338723Y1589619D1*
X2342417Y1582525D1*
X2345778Y1575266D1*
X2348798Y1567858D1*
X2351471Y1560319D1*
X2353793Y1552664D1*
X2355755Y1544909D1*
X2357356Y1537072D1*
X2358591Y1529168D1*
X2359458Y1521217D1*
X2359955Y1513232D1*
X2360087Y1506516D1*
X2360039Y1502516D1*
X2005541Y413018D2*
X1997659Y415045D1*
X1990098Y417652D1*
X1982766Y420849D1*
X1975713Y424618D1*
X1968979Y428933D1*
X1962608Y433768D1*
X1956639Y439092D1*
X1951112Y444873D1*
X1946059Y451072D1*
X1941513Y457654D1*
X1937504Y464573D1*
X1934054Y471789D1*
X1931186Y479255D1*
X1928920Y486925D1*
X1927268Y494751D1*
X1926240Y502682D1*
X1925845Y510671D1*
X1926083Y518664D1*
X1926954Y526615D1*
X1928451Y534471D1*
X1930566Y542185D1*
X1933286Y549706D1*
X1936592Y556988D1*
X1940465Y563986D1*
X1944879Y570655D1*
X1949808Y576954D1*
X1955222Y582841D1*
X1961084Y588282D1*
X1967358Y593243D1*
X1974005Y597689D1*
X1980984Y601596D1*
X1988251Y604937D1*
X1995759Y607693D1*
X2003462Y609845D1*
X2011311Y611381D1*
X2019257Y612290D1*
X2026735Y612559D1*
X2149298Y612567D1*
X2157287Y612210D1*
X2165224Y611220D1*
X2173058Y609606D1*
X2180738Y607377D1*
X2188218Y604546D1*
X2195450Y601131D1*
X2202390Y597155D1*
X2208992Y592640D1*
X2215217Y587618D1*
X2221024Y582119D1*
X2226377Y576177D1*
X2231241Y569829D1*
X2235589Y563115D1*
X2239392Y556080D1*
X2242625Y548764D1*
X2245269Y541217D1*
X2247306Y533482D1*
X2248724Y525610D1*
X2249514Y517652D1*
X2249693Y511665D1*
X2249375Y503673D1*
X2248427Y495732D1*
X2246852Y487891D1*
X2244661Y480199D1*
X2241867Y472705D1*
X2238490Y465455D1*
X2234547Y458496D1*
X2230067Y451871D1*
X2225076Y445622D1*
X2219606Y439787D1*
X2213690Y434404D1*
X2207367Y429507D1*
X2200676Y425126D1*
X2193659Y421287D1*
X2186361Y418018D1*
X2178825Y415336D1*
X2171101Y413260D1*
X2169924Y413017D1*
X2362531Y413016D1*
X2362517Y5431000D1*
X2165564Y5431016D1*
X2173058Y5429457D1*
X2180738Y5427227D1*
X2188218Y5424396D1*
X2195450Y5420982D1*
X2202390Y5417005D1*
X2208992Y5412491D1*
X2215217Y5407469D1*
X2221024Y5401970D1*
X2226377Y5396028D1*
X2231241Y5389680D1*
X2235589Y5382966D1*
X2239392Y5375930D1*
X2242625Y5368614D1*
X2245269Y5361067D1*
X2247306Y5353332D1*
X2248724Y5345461D1*
X2249514Y5337503D1*
X2249693Y5331516D1*
X2249375Y5323524D1*
X2248427Y5315583D1*
X2246852Y5307741D1*
X2244661Y5300050D1*
X2241867Y5292555D1*
X2238490Y5285306D1*
X2234547Y5278346D1*
X2230067Y5271722D1*
X2225076Y5265472D1*
X2219606Y5259638D1*
X2213690Y5254255D1*
X2207367Y5249357D1*
X2200676Y5244976D1*
X2193659Y5241138D1*
X2186361Y5237869D1*
X2178825Y5235186D1*
X2171101Y5233110D1*
X2163238Y5231652D1*
X2155283Y5230823D1*
X2148790Y5230613D1*
X2025240Y5230625D1*
X2017255Y5231060D1*
X2009328Y5232127D1*
X2001510Y5233819D1*
X1993853Y5236125D1*
X1986400Y5239029D1*
X1979202Y5242514D1*
X1972303Y5246559D1*
X1965745Y5251138D1*
X1959571Y5256222D1*
X1953818Y5261778D1*
X1948524Y5267773D1*
X1943720Y5274168D1*
X1939440Y5280924D1*
X1935707Y5287997D1*
X1932546Y5295344D1*
X1929978Y5302919D1*
X1928017Y5310672D1*
X1926676Y5318556D1*
X1925963Y5326522D1*
X1925885Y5334520D1*
X1926440Y5342499D1*
X1927625Y5350408D1*
X1929432Y5358199D1*
X1931852Y5365823D1*
X1934866Y5373231D1*
X1938459Y5380377D1*
X1942606Y5387215D1*
X1947282Y5393703D1*
X1952457Y5399802D1*
X1958098Y5405471D1*
X1964172Y5410675D1*
X1970638Y5415382D1*
X1977457Y5419562D1*
X1984584Y5423189D1*
X1991978Y5426240D1*
X1999589Y5428696D1*
X2007371Y5430542D1*
X2010064Y5431013D1*
X765564Y5431016D1*
X773058Y5429457D1*
X780738Y5427227D1*
X788218Y5424396D1*
X795450Y5420982D1*
X802390Y5417005D1*
X808992Y5412491D1*
X815217Y5407469D1*
X821024Y5401970D1*
X826377Y5396028D1*
X831241Y5389680D1*
X835589Y5382966D1*
X839392Y5375930D1*
X842625Y5368614D1*
X845269Y5361067D1*
X847306Y5353332D1*
X848724Y5345461D1*
X849514Y5337503D1*
X849693Y5331516D1*
X849375Y5323524D1*
X848427Y5315583D1*
X846852Y5307741D1*
X844661Y5300050D1*
X841867Y5292555D1*
X838490Y5285306D1*
X834547Y5278346D1*
X830067Y5271722D1*
X825076Y5265472D1*
X819606Y5259638D1*
X813690Y5254255D1*
X807367Y5249357D1*
X800676Y5244976D1*
X793659Y5241138D1*
X786361Y5237869D1*
X778825Y5235186D1*
X771101Y5233110D1*
X763238Y5231652D1*
X755283Y5230823D1*
X748790Y5230613D1*
X625240Y5230625D1*
X617255Y5231060D1*
X609328Y5232127D1*
X601510Y5233819D1*
X593853Y5236125D1*
X586400Y5239029D1*
X579202Y5242514D1*
X572303Y5246559D1*
X565745Y5251138D1*
X559571Y5256222D1*
X553818Y5261778D1*
X548524Y5267773D1*
X543720Y5274168D1*
X539440Y5280924D1*
X535707Y5287997D1*
X532546Y5295344D1*
X529978Y5302919D1*
X528017Y5310672D1*
X526676Y5318556D1*
X525963Y5326522D1*
X525885Y5334520D1*
X526440Y5342499D1*
X527625Y5350408D1*
X529432Y5358199D1*
X531852Y5365823D1*
X534866Y5373231D1*
X538459Y5380377D1*
X542606Y5387215D1*
X547282Y5393703D1*
X552457Y5399802D1*
X558098Y5405471D1*
X564172Y5410675D1*
X570638Y5415382D1*
X577457Y5419562D1*
X584584Y5423189D1*
X591978Y5426240D1*
X599589Y5428696D1*
X607371Y5430542D1*
X610064Y5431013D1*
X413001Y5431016D1*
X413016Y413031D1*
X605403Y413045D1*
X597659Y415045D1*
X590098Y417652D1*
X582766Y420849D1*
X575713Y424618D1*
X568979Y428933D1*
X562608Y433768D1*
X556639Y439092D1*
X551112Y444873D1*
X546059Y451072D1*
X541513Y457654D1*
X537504Y464573D1*
X534054Y471789D1*
X531186Y479255D1*
X528920Y486925D1*
X527268Y494751D1*
X526240Y502682D1*
X525845Y510671D1*
X526083Y518664D1*
X526954Y526615D1*
X528451Y534471D1*
X530566Y542185D1*
X533286Y549706D1*
X536592Y556988D1*
X540465Y563986D1*
X544879Y570655D1*
X549808Y576954D1*
X555222Y582841D1*
X561084Y588282D1*
X567358Y593243D1*
X574005Y597689D1*
X580984Y601596D1*
X588251Y604937D1*
X595759Y607693D1*
X603462Y609845D1*
X611311Y611381D1*
X619257Y612290D1*
X626735Y612559D1*
X749298Y612567D1*
X757287Y612210D1*
X765224Y611220D1*
X773058Y609606D1*
X780738Y607377D1*
X788218Y604546D1*
X795450Y601131D1*
X802390Y597155D1*
X808992Y592640D1*
X815217Y587618D1*
X821024Y582119D1*
X826377Y576177D1*
X831241Y569829D1*
X835589Y563115D1*
X839392Y556080D1*
X842625Y548764D1*
X845269Y541217D1*
X847306Y533482D1*
X848724Y525610D1*
X849514Y517652D1*
X849693Y511665D1*
X849375Y503673D1*
X848427Y495732D1*
X846852Y487891D1*
X844661Y480199D1*
X841867Y472705D1*
X838490Y465455D1*
X834547Y458496D1*
X830067Y451871D1*
X825076Y445622D1*
X819606Y439787D1*
X813690Y434404D1*
X807367Y429507D1*
X800676Y425126D1*
X793659Y421287D1*
X786361Y418018D1*
X778825Y415336D1*
X771101Y413260D1*
X769924Y413017D1*
X2005531Y413016D1*
X1160039Y1971265D2*
X1159669Y1963274D1*
X1158927Y1955310D1*
X1157816Y1947388D1*
X1156340Y1939526D1*
X1154500Y1931741D1*
X1152301Y1924051D1*
X1149745Y1916470D1*
X1146843Y1909016D1*
X1143597Y1901705D1*
X1140014Y1894552D1*
X1136105Y1887573D1*
X1131875Y1880783D1*
X1127336Y1874198D1*
X1122495Y1867829D1*
X1117364Y1861693D1*
X1111954Y1855801D1*
X1106276Y1850167D1*
X1100343Y1844801D1*
X1094167Y1839717D1*
X1087761Y1834925D1*
X1081140Y1830436D1*
X1074319Y1826259D1*
X1067310Y1822403D1*
X1060130Y1818875D1*
X1052794Y1815686D1*
X1045319Y1812840D1*
X1037719Y1810344D1*
X1030010Y1808203D1*
X1022213Y1806423D1*
X1014340Y1805007D1*
X1006409Y1803957D1*
X998440Y1803276D1*
X990446Y1802966D1*
X982448Y1803028D1*
X974459Y1803459D1*
X966500Y1804262D1*
X958588Y1805433D1*
X950738Y1806971D1*
X942967Y1808870D1*
X935293Y1811129D1*
X927732Y1813741D1*
X920301Y1816701D1*
X913014Y1820003D1*
X905890Y1823639D1*
X898941Y1827602D1*
X892184Y1831883D1*
X885633Y1836474D1*
X879302Y1841364D1*
X873205Y1846542D1*
X867354Y1851997D1*
X861762Y1857718D1*
X856444Y1863692D1*
X851407Y1869907D1*
X846664Y1876349D1*
X842226Y1883004D1*
X838101Y1889857D1*
X834299Y1896895D1*
X830827Y1904102D1*
X827694Y1911462D1*
X824906Y1918959D1*
X822467Y1926577D1*
X820386Y1934302D1*
X818665Y1942114D1*
X817308Y1949997D1*
X816320Y1957936D1*
X815701Y1965911D1*
X815451Y1973906D1*
X815575Y1981904D1*
X816068Y1989888D1*
X816932Y1997841D1*
X818164Y2005744D1*
X819761Y2013583D1*
X821720Y2021339D1*
X824037Y2028995D1*
X826707Y2036535D1*
X829724Y2043944D1*
X833081Y2051205D1*
X836773Y2058302D1*
X840789Y2065219D1*
X845122Y2071944D1*
X849762Y2078459D1*
X854699Y2084752D1*
X859924Y2090810D1*
X865424Y2096618D1*
X871188Y2102165D1*
X877203Y2107438D1*
X883457Y2112428D1*
X889934Y2117121D1*
X896623Y2121508D1*
X903508Y2125580D1*
X910575Y2129328D1*
X917807Y2132745D1*
X925192Y2135822D1*
X932710Y2138552D1*
X940348Y2140932D1*
X948087Y2142954D1*
X955912Y2144615D1*
X963806Y2145911D1*
X971751Y2146839D1*
X979731Y2147398D1*
X987727Y2147585D1*
X995724Y2147402D1*
X1003705Y2146846D1*
X1011651Y2145921D1*
X1019545Y2144630D1*
X1027370Y2142972D1*
X1035110Y2140954D1*
X1042749Y2138577D1*
X1050269Y2135850D1*
X1057654Y2132777D1*
X1064888Y2129364D1*
X1071957Y2125618D1*
X1078844Y2121549D1*
X1085535Y2117165D1*
X1092014Y2112475D1*
X1098270Y2107488D1*
X1104287Y2102218D1*
X1110054Y2096673D1*
X1115556Y2090867D1*
X1120783Y2084812D1*
X1125724Y2078521D1*
X1130367Y2072008D1*
X1134703Y2065286D1*
X1138723Y2058369D1*
X1142417Y2051274D1*
X1145778Y2044016D1*
X1148798Y2036608D1*
X1151471Y2029068D1*
X1153793Y2021413D1*
X1155755Y2013659D1*
X1157356Y2005822D1*
X1158591Y1997917D1*
X1159458Y1989966D1*
X1159955Y1981982D1*
X1160087Y1975265D1*
X1160039Y1971265D1*
X1560039D2*
X1559669Y1963274D1*
X1558927Y1955310D1*
X1557816Y1947388D1*
X1556340Y1939526D1*
X1554500Y1931741D1*
X1552301Y1924051D1*
X1549745Y1916470D1*
X1546843Y1909016D1*
X1543597Y1901705D1*
X1540014Y1894552D1*
X1536105Y1887573D1*
X1531875Y1880783D1*
X1527336Y1874198D1*
X1522495Y1867829D1*
X1517364Y1861693D1*
X1511954Y1855801D1*
X1506276Y1850167D1*
X1500343Y1844801D1*
X1494167Y1839717D1*
X1487761Y1834925D1*
X1481140Y1830436D1*
X1474319Y1826259D1*
X1467310Y1822403D1*
X1460130Y1818875D1*
X1452794Y1815686D1*
X1445319Y1812840D1*
X1437719Y1810344D1*
X1430010Y1808203D1*
X1422213Y1806423D1*
X1414340Y1805007D1*
X1406409Y1803957D1*
X1398440Y1803276D1*
X1390446Y1802966D1*
X1382448Y1803028D1*
X1374459Y1803459D1*
X1366500Y1804262D1*
X1358588Y1805433D1*
X1350738Y1806971D1*
X1342967Y1808870D1*
X1335293Y1811129D1*
X1327732Y1813741D1*
X1320301Y1816701D1*
X1313014Y1820003D1*
X1305890Y1823639D1*
X1298941Y1827602D1*
X1292184Y1831883D1*
X1285633Y1836474D1*
X1279302Y1841364D1*
X1273205Y1846542D1*
X1267354Y1851997D1*
X1261762Y1857718D1*
X1256444Y1863692D1*
X1251407Y1869907D1*
X1246664Y1876349D1*
X1242226Y1883004D1*
X1238101Y1889857D1*
X1234299Y1896895D1*
X1230827Y1904102D1*
X1227694Y1911462D1*
X1224906Y1918959D1*
X1222467Y1926577D1*
X1220386Y1934302D1*
X1218665Y1942114D1*
X1217308Y1949997D1*
X1216320Y1957936D1*
X1215701Y1965911D1*
X1215451Y1973906D1*
X1215575Y1981904D1*
X1216068Y1989888D1*
X1216932Y1997841D1*
X1218164Y2005744D1*
X1219761Y2013583D1*
X1221720Y2021339D1*
X1224037Y2028995D1*
X1226707Y2036535D1*
X1229724Y2043944D1*
X1233081Y2051205D1*
X1236773Y2058302D1*
X1240789Y2065219D1*
X1245122Y2071944D1*
X1249762Y2078459D1*
X1254699Y2084752D1*
X1259924Y2090810D1*
X1265424Y2096618D1*
X1271188Y2102165D1*
X1277203Y2107438D1*
X1283457Y2112428D1*
X1289934Y2117121D1*
X1296623Y2121508D1*
X1303508Y2125580D1*
X1310575Y2129328D1*
X1317807Y2132745D1*
X1325192Y2135822D1*
X1332710Y2138552D1*
X1340348Y2140932D1*
X1348087Y2142954D1*
X1355912Y2144615D1*
X1363806Y2145911D1*
X1371751Y2146839D1*
X1379731Y2147398D1*
X1387727Y2147585D1*
X1395724Y2147402D1*
X1403705Y2146846D1*
X1411651Y2145921D1*
X1419545Y2144630D1*
X1427370Y2142972D1*
X1435110Y2140954D1*
X1442749Y2138577D1*
X1450269Y2135850D1*
X1457654Y2132777D1*
X1464888Y2129364D1*
X1471957Y2125618D1*
X1478844Y2121549D1*
X1485535Y2117165D1*
X1492014Y2112475D1*
X1498270Y2107488D1*
X1504287Y2102218D1*
X1510054Y2096673D1*
X1515556Y2090867D1*
X1520783Y2084812D1*
X1525724Y2078521D1*
X1530367Y2072008D1*
X1534703Y2065286D1*
X1538723Y2058369D1*
X1542417Y2051274D1*
X1545778Y2044016D1*
X1548798Y2036608D1*
X1551471Y2029068D1*
X1553793Y2021413D1*
X1555755Y2013659D1*
X1557356Y2005822D1*
X1558591Y1997917D1*
X1559458Y1989966D1*
X1559955Y1981982D1*
X1560087Y1975265D1*
X1560039Y1971265D1*
X1960039D2*
X1959669Y1963274D1*
X1958927Y1955310D1*
X1957816Y1947388D1*
X1956340Y1939526D1*
X1954500Y1931741D1*
X1952301Y1924051D1*
X1949745Y1916470D1*
X1946843Y1909016D1*
X1943597Y1901705D1*
X1940014Y1894552D1*
X1936105Y1887573D1*
X1931875Y1880783D1*
X1927336Y1874198D1*
X1922495Y1867829D1*
X1917364Y1861693D1*
X1911954Y1855801D1*
X1906276Y1850167D1*
X1900343Y1844801D1*
X1894167Y1839717D1*
X1887761Y1834925D1*
X1881140Y1830436D1*
X1874319Y1826259D1*
X1867310Y1822403D1*
X1860130Y1818875D1*
X1852794Y1815686D1*
X1845319Y1812840D1*
X1837719Y1810344D1*
X1830010Y1808203D1*
X1822213Y1806423D1*
X1814340Y1805007D1*
X1806409Y1803957D1*
X1798440Y1803276D1*
X1790446Y1802966D1*
X1782448Y1803028D1*
X1774459Y1803459D1*
X1766500Y1804262D1*
X1758588Y1805433D1*
X1750738Y1806971D1*
X1742967Y1808870D1*
X1735293Y1811129D1*
X1727732Y1813741D1*
X1720301Y1816701D1*
X1713014Y1820003D1*
X1705890Y1823639D1*
X1698941Y1827602D1*
X1692184Y1831883D1*
X1685633Y1836474D1*
X1679302Y1841364D1*
X1673205Y1846542D1*
X1667354Y1851997D1*
X1661762Y1857718D1*
X1656444Y1863692D1*
X1651407Y1869907D1*
X1646664Y1876349D1*
X1642226Y1883004D1*
X1638101Y1889857D1*
X1634299Y1896895D1*
X1630827Y1904102D1*
X1627694Y1911462D1*
X1624906Y1918959D1*
X1622467Y1926577D1*
X1620386Y1934302D1*
X1618665Y1942114D1*
X1617308Y1949997D1*
X1616320Y1957936D1*
X1615701Y1965911D1*
X1615451Y1973906D1*
X1615575Y1981904D1*
X1616068Y1989888D1*
X1616932Y1997841D1*
X1618164Y2005744D1*
X1619761Y2013583D1*
X1621720Y2021339D1*
X1624037Y2028995D1*
X1626707Y2036535D1*
X1629724Y2043944D1*
X1633081Y2051205D1*
X1636773Y2058302D1*
X1640789Y2065219D1*
X1645122Y2071944D1*
X1649762Y2078459D1*
X1654699Y2084752D1*
X1659924Y2090810D1*
X1665424Y2096618D1*
X1671188Y2102165D1*
X1677203Y2107438D1*
X1683457Y2112428D1*
X1689934Y2117121D1*
X1696623Y2121508D1*
X1703508Y2125580D1*
X1710575Y2129328D1*
X1717807Y2132745D1*
X1725192Y2135822D1*
X1732710Y2138552D1*
X1740348Y2140932D1*
X1748087Y2142954D1*
X1755912Y2144615D1*
X1763806Y2145911D1*
X1771751Y2146839D1*
X1779731Y2147398D1*
X1787727Y2147585D1*
X1795724Y2147402D1*
X1803705Y2146846D1*
X1811651Y2145921D1*
X1819545Y2144630D1*
X1827370Y2142972D1*
X1835110Y2140954D1*
X1842749Y2138577D1*
X1850269Y2135850D1*
X1857654Y2132777D1*
X1864888Y2129364D1*
X1871957Y2125618D1*
X1878844Y2121549D1*
X1885535Y2117165D1*
X1892014Y2112475D1*
X1898270Y2107488D1*
X1904287Y2102218D1*
X1910054Y2096673D1*
X1915556Y2090867D1*
X1920783Y2084812D1*
X1925724Y2078521D1*
X1930367Y2072008D1*
X1934703Y2065286D1*
X1938723Y2058369D1*
X1942417Y2051274D1*
X1945778Y2044016D1*
X1948798Y2036608D1*
X1951471Y2029068D1*
X1953793Y2021413D1*
X1955755Y2013659D1*
X1957356Y2005822D1*
X1958591Y1997917D1*
X1959458Y1989966D1*
X1959955Y1981982D1*
X1960087Y1975265D1*
X1960039Y1971265D1*
X2360039D2*
X2359669Y1963274D1*
X2358927Y1955310D1*
X2357816Y1947388D1*
X2356340Y1939526D1*
X2354500Y1931741D1*
X2352301Y1924051D1*
X2349745Y1916470D1*
X2346843Y1909016D1*
X2343597Y1901705D1*
X2340014Y1894552D1*
X2336105Y1887573D1*
X2331875Y1880783D1*
X2327336Y1874198D1*
X2322495Y1867829D1*
X2317364Y1861693D1*
X2311954Y1855801D1*
X2306276Y1850167D1*
X2300343Y1844801D1*
X2294167Y1839717D1*
X2287761Y1834925D1*
X2281140Y1830436D1*
X2274319Y1826259D1*
X2267310Y1822403D1*
X2260130Y1818875D1*
X2252794Y1815686D1*
X2245319Y1812840D1*
X2237719Y1810344D1*
X2230010Y1808203D1*
X2222213Y1806423D1*
X2214340Y1805007D1*
X2206409Y1803957D1*
X2198440Y1803276D1*
X2190446Y1802966D1*
X2182448Y1803028D1*
X2174459Y1803459D1*
X2166500Y1804262D1*
X2158588Y1805433D1*
X2150738Y1806971D1*
X2142967Y1808870D1*
X2135293Y1811129D1*
X2127732Y1813741D1*
X2120301Y1816701D1*
X2113014Y1820003D1*
X2105890Y1823639D1*
X2098941Y1827602D1*
X2092184Y1831883D1*
X2085633Y1836474D1*
X2079302Y1841364D1*
X2073205Y1846542D1*
X2067354Y1851997D1*
X2061762Y1857718D1*
X2056444Y1863692D1*
X2051407Y1869907D1*
X2046664Y1876349D1*
X2042226Y1883004D1*
X2038101Y1889857D1*
X2034299Y1896895D1*
X2030827Y1904102D1*
X2027694Y1911462D1*
X2024906Y1918959D1*
X2022467Y1926577D1*
X2020386Y1934302D1*
X2018665Y1942114D1*
X2017308Y1949997D1*
X2016320Y1957936D1*
X2015701Y1965911D1*
X2015451Y1973906D1*
X2015575Y1981904D1*
X2016068Y1989888D1*
X2016932Y1997841D1*
X2018164Y2005744D1*
X2019761Y2013583D1*
X2021720Y2021339D1*
X2024037Y2028995D1*
X2026707Y2036535D1*
X2029724Y2043944D1*
X2033081Y2051205D1*
X2036773Y2058302D1*
X2040789Y2065219D1*
X2045122Y2071944D1*
X2049762Y2078459D1*
X2054699Y2084752D1*
X2059924Y2090810D1*
X2065424Y2096618D1*
X2071188Y2102165D1*
X2077203Y2107438D1*
X2083457Y2112428D1*
X2089934Y2117121D1*
X2096623Y2121508D1*
X2103508Y2125580D1*
X2110575Y2129328D1*
X2117807Y2132745D1*
X2125192Y2135822D1*
X2132710Y2138552D1*
X2140348Y2140932D1*
X2148087Y2142954D1*
X2155912Y2144615D1*
X2163806Y2145911D1*
X2171751Y2146839D1*
X2179731Y2147398D1*
X2187727Y2147585D1*
X2195724Y2147402D1*
X2203705Y2146846D1*
X2211651Y2145921D1*
X2219545Y2144630D1*
X2227370Y2142972D1*
X2235110Y2140954D1*
X2242749Y2138577D1*
X2250269Y2135850D1*
X2257654Y2132777D1*
X2264888Y2129364D1*
X2271957Y2125618D1*
X2278844Y2121549D1*
X2285535Y2117165D1*
X2292014Y2112475D1*
X2298270Y2107488D1*
X2304287Y2102218D1*
X2310054Y2096673D1*
X2315556Y2090867D1*
X2320783Y2084812D1*
X2325724Y2078521D1*
X2330367Y2072008D1*
X2334703Y2065286D1*
X2338723Y2058369D1*
X2342417Y2051274D1*
X2345778Y2044016D1*
X2348798Y2036608D1*
X2351471Y2029068D1*
X2353793Y2021413D1*
X2355755Y2013659D1*
X2357356Y2005822D1*
X2358591Y1997917D1*
X2359458Y1989966D1*
X2359955Y1981982D1*
X2360087Y1975265D1*
X2360039Y1971265D1*
X1160039Y2446265D2*
X1159669Y2438274D1*
X1158927Y2430310D1*
X1157816Y2422388D1*
X1156340Y2414526D1*
X1154500Y2406741D1*
X1152301Y2399051D1*
X1149745Y2391470D1*
X1146843Y2384016D1*
X1143597Y2376705D1*
X1140014Y2369552D1*
X1136105Y2362573D1*
X1131875Y2355783D1*
X1127336Y2349198D1*
X1122495Y2342829D1*
X1117364Y2336693D1*
X1111954Y2330801D1*
X1106276Y2325167D1*
X1100343Y2319801D1*
X1094167Y2314717D1*
X1087761Y2309925D1*
X1081140Y2305436D1*
X1074319Y2301259D1*
X1067310Y2297403D1*
X1060130Y2293875D1*
X1052794Y2290686D1*
X1045319Y2287840D1*
X1037719Y2285344D1*
X1030010Y2283203D1*
X1022213Y2281423D1*
X1014340Y2280007D1*
X1006409Y2278957D1*
X998440Y2278276D1*
X990446Y2277966D1*
X982448Y2278028D1*
X974459Y2278459D1*
X966500Y2279262D1*
X958588Y2280433D1*
X950738Y2281971D1*
X942967Y2283870D1*
X935293Y2286129D1*
X927732Y2288741D1*
X920301Y2291701D1*
X913014Y2295003D1*
X905890Y2298639D1*
X898941Y2302602D1*
X892184Y2306883D1*
X885633Y2311474D1*
X879302Y2316364D1*
X873205Y2321542D1*
X867354Y2326997D1*
X861762Y2332718D1*
X856444Y2338692D1*
X851407Y2344907D1*
X846664Y2351349D1*
X842226Y2358004D1*
X838101Y2364857D1*
X834299Y2371895D1*
X830827Y2379102D1*
X827694Y2386462D1*
X824906Y2393959D1*
X822467Y2401577D1*
X820386Y2409302D1*
X818665Y2417114D1*
X817308Y2424997D1*
X816320Y2432936D1*
X815701Y2440911D1*
X815451Y2448906D1*
X815575Y2456904D1*
X816068Y2464888D1*
X816932Y2472841D1*
X818164Y2480744D1*
X819761Y2488583D1*
X821720Y2496339D1*
X824037Y2503995D1*
X826707Y2511535D1*
X829724Y2518944D1*
X833081Y2526205D1*
X836773Y2533302D1*
X840789Y2540219D1*
X845122Y2546944D1*
X849762Y2553459D1*
X854699Y2559752D1*
X859924Y2565810D1*
X865424Y2571618D1*
X871188Y2577165D1*
X877203Y2582438D1*
X883457Y2587428D1*
X889934Y2592121D1*
X896623Y2596508D1*
X903508Y2600580D1*
X910575Y2604328D1*
X917807Y2607745D1*
X925192Y2610822D1*
X932710Y2613552D1*
X940348Y2615932D1*
X948087Y2617954D1*
X955912Y2619615D1*
X963806Y2620911D1*
X971751Y2621839D1*
X979731Y2622398D1*
X987727Y2622585D1*
X995724Y2622402D1*
X1003705Y2621846D1*
X1011651Y2620921D1*
X1019545Y2619630D1*
X1027370Y2617972D1*
X1035110Y2615954D1*
X1042749Y2613577D1*
X1050269Y2610850D1*
X1057654Y2607777D1*
X1064888Y2604364D1*
X1071957Y2600618D1*
X1078844Y2596549D1*
X1085535Y2592165D1*
X1092014Y2587475D1*
X1098270Y2582488D1*
X1104287Y2577218D1*
X1110054Y2571673D1*
X1115556Y2565867D1*
X1120783Y2559812D1*
X1125724Y2553521D1*
X1130367Y2547008D1*
X1134703Y2540286D1*
X1138723Y2533369D1*
X1142417Y2526274D1*
X1145778Y2519016D1*
X1148798Y2511608D1*
X1151471Y2504068D1*
X1153793Y2496413D1*
X1155755Y2488659D1*
X1157356Y2480822D1*
X1158591Y2472917D1*
X1159458Y2464966D1*
X1159955Y2456982D1*
X1160087Y2450265D1*
X1160039Y2446265D1*
X1560039D2*
X1559669Y2438274D1*
X1558927Y2430310D1*
X1557816Y2422388D1*
X1556340Y2414526D1*
X1554500Y2406741D1*
X1552301Y2399051D1*
X1549745Y2391470D1*
X1546843Y2384016D1*
X1543597Y2376705D1*
X1540014Y2369552D1*
X1536105Y2362573D1*
X1531875Y2355783D1*
X1527336Y2349198D1*
X1522495Y2342829D1*
X1517364Y2336693D1*
X1511954Y2330801D1*
X1506276Y2325167D1*
X1500343Y2319801D1*
X1494167Y2314717D1*
X1487761Y2309925D1*
X1481140Y2305436D1*
X1474319Y2301259D1*
X1467310Y2297403D1*
X1460130Y2293875D1*
X1452794Y2290686D1*
X1445319Y2287840D1*
X1437719Y2285344D1*
X1430010Y2283203D1*
X1422213Y2281423D1*
X1414340Y2280007D1*
X1406409Y2278957D1*
X1398440Y2278276D1*
X1390446Y2277966D1*
X1382448Y2278028D1*
X1374459Y2278459D1*
X1366500Y2279262D1*
X1358588Y2280433D1*
X1350738Y2281971D1*
X1342967Y2283870D1*
X1335293Y2286129D1*
X1327732Y2288741D1*
X1320301Y2291701D1*
X1313014Y2295003D1*
X1305890Y2298639D1*
X1298941Y2302602D1*
X1292184Y2306883D1*
X1285633Y2311474D1*
X1279302Y2316364D1*
X1273205Y2321542D1*
X1267354Y2326997D1*
X1261762Y2332718D1*
X1256444Y2338692D1*
X1251407Y2344907D1*
X1246664Y2351349D1*
X1242226Y2358004D1*
X1238101Y2364857D1*
X1234299Y2371895D1*
X1230827Y2379102D1*
X1227694Y2386462D1*
X1224906Y2393959D1*
X1222467Y2401577D1*
X1220386Y2409302D1*
X1218665Y2417114D1*
X1217308Y2424997D1*
X1216320Y2432936D1*
X1215701Y2440911D1*
X1215451Y2448906D1*
X1215575Y2456904D1*
X1216068Y2464888D1*
X1216932Y2472841D1*
X1218164Y2480744D1*
X1219761Y2488583D1*
X1221720Y2496339D1*
X1224037Y2503995D1*
X1226707Y2511535D1*
X1229724Y2518944D1*
X1233081Y2526205D1*
X1236773Y2533302D1*
X1240789Y2540219D1*
X1245122Y2546944D1*
X1249762Y2553459D1*
X1254699Y2559752D1*
X1259924Y2565810D1*
X1265424Y2571618D1*
X1271188Y2577165D1*
X1277203Y2582438D1*
X1283457Y2587428D1*
X1289934Y2592121D1*
X1296623Y2596508D1*
X1303508Y2600580D1*
X1310575Y2604328D1*
X1317807Y2607745D1*
X1325192Y2610822D1*
X1332710Y2613552D1*
X1340348Y2615932D1*
X1348087Y2617954D1*
X1355912Y2619615D1*
X1363806Y2620911D1*
X1371751Y2621839D1*
X1379731Y2622398D1*
X1387727Y2622585D1*
X1395724Y2622402D1*
X1403705Y2621846D1*
X1411651Y2620921D1*
X1419545Y2619630D1*
X1427370Y2617972D1*
X1435110Y2615954D1*
X1442749Y2613577D1*
X1450269Y2610850D1*
X1457654Y2607777D1*
X1464888Y2604364D1*
X1471957Y2600618D1*
X1478844Y2596549D1*
X1485535Y2592165D1*
X1492014Y2587475D1*
X1498270Y2582488D1*
X1504287Y2577218D1*
X1510054Y2571673D1*
X1515556Y2565867D1*
X1520783Y2559812D1*
X1525724Y2553521D1*
X1530367Y2547008D1*
X1534703Y2540286D1*
X1538723Y2533369D1*
X1542417Y2526274D1*
X1545778Y2519016D1*
X1548798Y2511608D1*
X1551471Y2504068D1*
X1553793Y2496413D1*
X1555755Y2488659D1*
X1557356Y2480822D1*
X1558591Y2472917D1*
X1559458Y2464966D1*
X1559955Y2456982D1*
X1560087Y2450265D1*
X1560039Y2446265D1*
X1960039D2*
X1959669Y2438274D1*
X1958927Y2430310D1*
X1957816Y2422388D1*
X1956340Y2414526D1*
X1954500Y2406741D1*
X1952301Y2399051D1*
X1949745Y2391470D1*
X1946843Y2384016D1*
X1943597Y2376705D1*
X1940014Y2369552D1*
X1936105Y2362573D1*
X1931875Y2355783D1*
X1927336Y2349198D1*
X1922495Y2342829D1*
X1917364Y2336693D1*
X1911954Y2330801D1*
X1906276Y2325167D1*
X1900343Y2319801D1*
X1894167Y2314717D1*
X1887761Y2309925D1*
X1881140Y2305436D1*
X1874319Y2301259D1*
X1867310Y2297403D1*
X1860130Y2293875D1*
X1852794Y2290686D1*
X1845319Y2287840D1*
X1837719Y2285344D1*
X1830010Y2283203D1*
X1822213Y2281423D1*
X1814340Y2280007D1*
X1806409Y2278957D1*
X1798440Y2278276D1*
X1790446Y2277966D1*
X1782448Y2278028D1*
X1774459Y2278459D1*
X1766500Y2279262D1*
X1758588Y2280433D1*
X1750738Y2281971D1*
X1742967Y2283870D1*
X1735293Y2286129D1*
X1727732Y2288741D1*
X1720301Y2291701D1*
X1713014Y2295003D1*
X1705890Y2298639D1*
X1698941Y2302602D1*
X1692184Y2306883D1*
X1685633Y2311474D1*
X1679302Y2316364D1*
X1673205Y2321542D1*
X1667354Y2326997D1*
X1661762Y2332718D1*
X1656444Y2338692D1*
X1651407Y2344907D1*
X1646664Y2351349D1*
X1642226Y2358004D1*
X1638101Y2364857D1*
X1634299Y2371895D1*
X1630827Y2379102D1*
X1627694Y2386462D1*
X1624906Y2393959D1*
X1622467Y2401577D1*
X1620386Y2409302D1*
X1618665Y2417114D1*
X1617308Y2424997D1*
X1616320Y2432936D1*
X1615701Y2440911D1*
X1615451Y2448906D1*
X1615575Y2456904D1*
X1616068Y2464888D1*
X1616932Y2472841D1*
X1618164Y2480744D1*
X1619761Y2488583D1*
X1621720Y2496339D1*
X1624037Y2503995D1*
X1626707Y2511535D1*
X1629724Y2518944D1*
X1633081Y2526205D1*
X1636773Y2533302D1*
X1640789Y2540219D1*
X1645122Y2546944D1*
X1649762Y2553459D1*
X1654699Y2559752D1*
X1659924Y2565810D1*
X1665424Y2571618D1*
X1671188Y2577165D1*
X1677203Y2582438D1*
X1683457Y2587428D1*
X1689934Y2592121D1*
X1696623Y2596508D1*
X1703508Y2600580D1*
X1710575Y2604328D1*
X1717807Y2607745D1*
X1725192Y2610822D1*
X1732710Y2613552D1*
X1740348Y2615932D1*
X1748087Y2617954D1*
X1755912Y2619615D1*
X1763806Y2620911D1*
X1771751Y2621839D1*
X1779731Y2622398D1*
X1787727Y2622585D1*
X1795724Y2622402D1*
X1803705Y2621846D1*
X1811651Y2620921D1*
X1819545Y2619630D1*
X1827370Y2617972D1*
X1835110Y2615954D1*
X1842749Y2613577D1*
X1850269Y2610850D1*
X1857654Y2607777D1*
X1864888Y2604364D1*
X1871957Y2600618D1*
X1878844Y2596549D1*
X1885535Y2592165D1*
X1892014Y2587475D1*
X1898270Y2582488D1*
X1904287Y2577218D1*
X1910054Y2571673D1*
X1915556Y2565867D1*
X1920783Y2559812D1*
X1925724Y2553521D1*
X1930367Y2547008D1*
X1934703Y2540286D1*
X1938723Y2533369D1*
X1942417Y2526274D1*
X1945778Y2519016D1*
X1948798Y2511608D1*
X1951471Y2504068D1*
X1953793Y2496413D1*
X1955755Y2488659D1*
X1957356Y2480822D1*
X1958591Y2472917D1*
X1959458Y2464966D1*
X1959955Y2456982D1*
X1960087Y2450265D1*
X1960039Y2446265D1*
X810039Y3490016D2*
X809669Y3482025D1*
X808927Y3474060D1*
X807816Y3466139D1*
X806340Y3458277D1*
X804500Y3450492D1*
X802301Y3442802D1*
X799745Y3435220D1*
X796843Y3427766D1*
X793597Y3420455D1*
X790014Y3413303D1*
X786105Y3406324D1*
X781875Y3399534D1*
X777336Y3392949D1*
X772495Y3386580D1*
X767364Y3380444D1*
X761954Y3374551D1*
X756276Y3368917D1*
X750343Y3363551D1*
X744167Y3358467D1*
X737761Y3353676D1*
X731140Y3349186D1*
X724319Y3345009D1*
X717310Y3341154D1*
X710130Y3337626D1*
X702794Y3334437D1*
X695319Y3331591D1*
X687719Y3329094D1*
X680010Y3326954D1*
X672213Y3325173D1*
X664340Y3323757D1*
X656409Y3322707D1*
X648440Y3322026D1*
X640446Y3321717D1*
X632448Y3321778D1*
X624459Y3322210D1*
X616500Y3323013D1*
X608588Y3324184D1*
X600738Y3325722D1*
X592967Y3327621D1*
X585293Y3329879D1*
X577732Y3332492D1*
X570301Y3335451D1*
X563014Y3338753D1*
X555890Y3342390D1*
X548941Y3346353D1*
X542184Y3350634D1*
X535633Y3355224D1*
X529302Y3360114D1*
X523205Y3365293D1*
X517354Y3370748D1*
X511762Y3376469D1*
X506444Y3382442D1*
X501407Y3388657D1*
X496664Y3395100D1*
X492226Y3401755D1*
X488101Y3408608D1*
X484299Y3415646D1*
X480827Y3422853D1*
X477694Y3430213D1*
X474906Y3437710D1*
X472467Y3445328D1*
X470386Y3453052D1*
X468665Y3460865D1*
X467308Y3468748D1*
X466320Y3476686D1*
X465701Y3484661D1*
X465451Y3492656D1*
X465575Y3500655D1*
X466068Y3508639D1*
X466932Y3516592D1*
X468164Y3524495D1*
X469761Y3532333D1*
X471720Y3540089D1*
X474037Y3547745D1*
X476707Y3555286D1*
X479724Y3562694D1*
X483081Y3569955D1*
X486773Y3577052D1*
X490789Y3583970D1*
X495122Y3590694D1*
X499762Y3597210D1*
X504699Y3603503D1*
X509924Y3609560D1*
X515424Y3615369D1*
X521188Y3620916D1*
X527203Y3626189D1*
X533457Y3631178D1*
X539934Y3635871D1*
X546623Y3640259D1*
X553508Y3644331D1*
X560575Y3648079D1*
X567807Y3651496D1*
X575192Y3654572D1*
X582710Y3657303D1*
X590348Y3659682D1*
X598087Y3661705D1*
X605912Y3663366D1*
X613806Y3664661D1*
X621751Y3665589D1*
X629731Y3666148D1*
X637727Y3666336D1*
X645724Y3666152D1*
X653705Y3665597D1*
X661651Y3664672D1*
X669545Y3663381D1*
X677370Y3661723D1*
X685110Y3659705D1*
X692749Y3657328D1*
X700269Y3654601D1*
X707654Y3651528D1*
X714888Y3648114D1*
X721957Y3644369D1*
X728844Y3640299D1*
X735535Y3635916D1*
X742014Y3631226D1*
X748270Y3626239D1*
X754287Y3620969D1*
X760054Y3615424D1*
X765556Y3609618D1*
X770783Y3603563D1*
X775724Y3597272D1*
X780367Y3590759D1*
X784703Y3584037D1*
X788723Y3577119D1*
X792417Y3570025D1*
X795778Y3562766D1*
X798798Y3555358D1*
X801471Y3547819D1*
X803793Y3540164D1*
X805755Y3532409D1*
X807356Y3524572D1*
X808591Y3516668D1*
X809458Y3508717D1*
X809955Y3500732D1*
X810087Y3494016D1*
X810039Y3490016D1*
X2360039Y2446265D2*
X2359669Y2438274D1*
X2358927Y2430310D1*
X2357816Y2422388D1*
X2356340Y2414526D1*
X2354500Y2406741D1*
X2352301Y2399051D1*
X2349745Y2391470D1*
X2346843Y2384016D1*
X2343597Y2376705D1*
X2340014Y2369552D1*
X2336105Y2362573D1*
X2331875Y2355783D1*
X2327336Y2349198D1*
X2322495Y2342829D1*
X2317364Y2336693D1*
X2311954Y2330801D1*
X2306276Y2325167D1*
X2300343Y2319801D1*
X2294167Y2314717D1*
X2287761Y2309925D1*
X2281140Y2305436D1*
X2274319Y2301259D1*
X2267310Y2297403D1*
X2260130Y2293875D1*
X2252794Y2290686D1*
X2245319Y2287840D1*
X2237719Y2285344D1*
X2230010Y2283203D1*
X2222213Y2281423D1*
X2214340Y2280007D1*
X2206409Y2278957D1*
X2198440Y2278276D1*
X2190446Y2277966D1*
X2182448Y2278028D1*
X2174459Y2278459D1*
X2166500Y2279262D1*
X2158588Y2280433D1*
X2150738Y2281971D1*
X2142967Y2283870D1*
X2135293Y2286129D1*
X2127732Y2288741D1*
X2120301Y2291701D1*
X2113014Y2295003D1*
X2105890Y2298639D1*
X2098941Y2302602D1*
X2092184Y2306883D1*
X2085633Y2311474D1*
X2079302Y2316364D1*
X2073205Y2321542D1*
X2067354Y2326997D1*
X2061762Y2332718D1*
X2056444Y2338692D1*
X2051407Y2344907D1*
X2046664Y2351349D1*
X2042226Y2358004D1*
X2038101Y2364857D1*
X2034299Y2371895D1*
X2030827Y2379102D1*
X2027694Y2386462D1*
X2024906Y2393959D1*
X2022467Y2401577D1*
X2020386Y2409302D1*
X2018665Y2417114D1*
X2017308Y2424997D1*
X2016320Y2432936D1*
X2015701Y2440911D1*
X2015451Y2448906D1*
X2015575Y2456904D1*
X2016068Y2464888D1*
X2016932Y2472841D1*
X2018164Y2480744D1*
X2019761Y2488583D1*
X2021720Y2496339D1*
X2024037Y2503995D1*
X2026707Y2511535D1*
X2029724Y2518944D1*
X2033081Y2526205D1*
X2036773Y2533302D1*
X2040789Y2540219D1*
X2045122Y2546944D1*
X2049762Y2553459D1*
X2054699Y2559752D1*
X2059924Y2565810D1*
X2065424Y2571618D1*
X2071188Y2577165D1*
X2077203Y2582438D1*
X2083457Y2587428D1*
X2089934Y2592121D1*
X2096623Y2596508D1*
X2103508Y2600580D1*
X2110575Y2604328D1*
X2117807Y2607745D1*
X2125192Y2610822D1*
X2132710Y2613552D1*
X2140348Y2615932D1*
X2148087Y2617954D1*
X2155912Y2619615D1*
X2163806Y2620911D1*
X2171751Y2621839D1*
X2179731Y2622398D1*
X2187727Y2622585D1*
X2195724Y2622402D1*
X2203705Y2621846D1*
X2211651Y2620921D1*
X2219545Y2619630D1*
X2227370Y2617972D1*
X2235110Y2615954D1*
X2242749Y2613577D1*
X2250269Y2610850D1*
X2257654Y2607777D1*
X2264888Y2604364D1*
X2271957Y2600618D1*
X2278844Y2596549D1*
X2285535Y2592165D1*
X2292014Y2587475D1*
X2298270Y2582488D1*
X2304287Y2577218D1*
X2310054Y2571673D1*
X2315556Y2565867D1*
X2320783Y2559812D1*
X2325724Y2553521D1*
X2330367Y2547008D1*
X2334703Y2540286D1*
X2338723Y2533369D1*
X2342417Y2526274D1*
X2345778Y2519016D1*
X2348798Y2511608D1*
X2351471Y2504068D1*
X2353793Y2496413D1*
X2355755Y2488659D1*
X2357356Y2480822D1*
X2358591Y2472917D1*
X2359458Y2464966D1*
X2359955Y2456982D1*
X2360087Y2450265D1*
X2360039Y2446265D1*
X760039Y2027516D2*
X759669Y2019525D1*
X758927Y2011560D1*
X757816Y2003639D1*
X756340Y1995777D1*
X754500Y1987992D1*
X752301Y1980302D1*
X749745Y1972720D1*
X746843Y1965266D1*
X743597Y1957955D1*
X740014Y1950803D1*
X736105Y1943824D1*
X731875Y1937034D1*
X727336Y1930449D1*
X722495Y1924080D1*
X717364Y1917944D1*
X711954Y1912051D1*
X706276Y1906417D1*
X700343Y1901051D1*
X694167Y1895967D1*
X687761Y1891176D1*
X681140Y1886686D1*
X674319Y1882509D1*
X667310Y1878654D1*
X660130Y1875126D1*
X652794Y1871937D1*
X645319Y1869091D1*
X637719Y1866594D1*
X630010Y1864454D1*
X622213Y1862673D1*
X614340Y1861257D1*
X606409Y1860207D1*
X598440Y1859526D1*
X590446Y1859217D1*
X582448Y1859278D1*
X574459Y1859710D1*
X566500Y1860513D1*
X558588Y1861684D1*
X550738Y1863222D1*
X542967Y1865121D1*
X535293Y1867379D1*
X527732Y1869992D1*
X520301Y1872951D1*
X513014Y1876253D1*
X505890Y1879890D1*
X498941Y1883853D1*
X492184Y1888134D1*
X485633Y1892724D1*
X479302Y1897614D1*
X473205Y1902793D1*
X467354Y1908248D1*
X461762Y1913969D1*
X456444Y1919942D1*
X451407Y1926157D1*
X446664Y1932600D1*
X442226Y1939255D1*
X438101Y1946108D1*
X434299Y1953146D1*
X430827Y1960353D1*
X427694Y1967713D1*
X424906Y1975210D1*
X422467Y1982828D1*
X420386Y1990552D1*
X418665Y1998365D1*
X417308Y2006248D1*
X416320Y2014186D1*
X415701Y2022161D1*
X415451Y2030156D1*
X415575Y2038155D1*
X416068Y2046139D1*
X416932Y2054092D1*
X418164Y2061995D1*
X419761Y2069833D1*
X421720Y2077589D1*
X424037Y2085245D1*
X426707Y2092786D1*
X429724Y2100194D1*
X433081Y2107455D1*
X436773Y2114552D1*
X440789Y2121470D1*
X445122Y2128194D1*
X449762Y2134710D1*
X454699Y2141003D1*
X459924Y2147060D1*
X465424Y2152869D1*
X471188Y2158416D1*
X477203Y2163689D1*
X483457Y2168678D1*
X489934Y2173371D1*
X496623Y2177759D1*
X503508Y2181831D1*
X510575Y2185579D1*
X517807Y2188996D1*
X525192Y2192072D1*
X532710Y2194803D1*
X540348Y2197182D1*
X548087Y2199205D1*
X555912Y2200866D1*
X563806Y2202161D1*
X571751Y2203089D1*
X579731Y2203648D1*
X587727Y2203836D1*
X595724Y2203652D1*
X603705Y2203097D1*
X611651Y2202172D1*
X619545Y2200881D1*
X627370Y2199223D1*
X635110Y2197205D1*
X642749Y2194828D1*
X650269Y2192101D1*
X657654Y2189028D1*
X664888Y2185614D1*
X671957Y2181869D1*
X678844Y2177799D1*
X685535Y2173416D1*
X692014Y2168726D1*
X698270Y2163739D1*
X704287Y2158469D1*
X710054Y2152924D1*
X715556Y2147118D1*
X720783Y2141063D1*
X725724Y2134772D1*
X730367Y2128259D1*
X734703Y2121537D1*
X738723Y2114619D1*
X742417Y2107525D1*
X745778Y2100266D1*
X748798Y2092858D1*
X751471Y2085319D1*
X753793Y2077664D1*
X755755Y2069909D1*
X757356Y2062072D1*
X758591Y2054168D1*
X759458Y2046217D1*
X759955Y2038232D1*
X760087Y2031516D1*
X760039Y2027516D1*
Y2502516D2*
X759669Y2494525D1*
X758927Y2486560D1*
X757816Y2478639D1*
X756340Y2470777D1*
X754500Y2462992D1*
X752301Y2455302D1*
X749745Y2447720D1*
X746843Y2440266D1*
X743597Y2432955D1*
X740014Y2425803D1*
X736105Y2418824D1*
X731875Y2412034D1*
X727336Y2405449D1*
X722495Y2399080D1*
X717364Y2392944D1*
X711954Y2387051D1*
X706276Y2381417D1*
X700343Y2376051D1*
X694167Y2370967D1*
X687761Y2366176D1*
X681140Y2361686D1*
X674319Y2357509D1*
X667310Y2353654D1*
X660130Y2350126D1*
X652794Y2346937D1*
X645319Y2344091D1*
X637719Y2341594D1*
X630010Y2339454D1*
X622213Y2337673D1*
X614340Y2336257D1*
X606409Y2335207D1*
X598440Y2334526D1*
X590446Y2334217D1*
X582448Y2334278D1*
X574459Y2334710D1*
X566500Y2335513D1*
X558588Y2336684D1*
X550738Y2338222D1*
X542967Y2340121D1*
X535293Y2342379D1*
X527732Y2344992D1*
X520301Y2347951D1*
X513014Y2351253D1*
X505890Y2354890D1*
X498941Y2358853D1*
X492184Y2363134D1*
X485633Y2367724D1*
X479302Y2372614D1*
X473205Y2377793D1*
X467354Y2383248D1*
X461762Y2388969D1*
X456444Y2394942D1*
X451407Y2401157D1*
X446664Y2407600D1*
X442226Y2414255D1*
X438101Y2421108D1*
X434299Y2428146D1*
X430827Y2435353D1*
X427694Y2442713D1*
X424906Y2450210D1*
X422467Y2457828D1*
X420386Y2465552D1*
X418665Y2473365D1*
X417308Y2481248D1*
X416320Y2489186D1*
X415701Y2497161D1*
X415451Y2505156D1*
X415575Y2513155D1*
X416068Y2521139D1*
X416932Y2529092D1*
X418164Y2536995D1*
X419761Y2544833D1*
X421720Y2552589D1*
X424037Y2560245D1*
X426707Y2567786D1*
X429724Y2575194D1*
X433081Y2582455D1*
X436773Y2589552D1*
X440789Y2596470D1*
X445122Y2603194D1*
X449762Y2609710D1*
X454699Y2616003D1*
X459924Y2622060D1*
X465424Y2627869D1*
X471188Y2633416D1*
X477203Y2638689D1*
X483457Y2643678D1*
X489934Y2648371D1*
X496623Y2652759D1*
X503508Y2656831D1*
X510575Y2660579D1*
X517807Y2663996D1*
X525192Y2667072D1*
X532710Y2669803D1*
X540348Y2672182D1*
X548087Y2674205D1*
X555912Y2675866D1*
X563806Y2677161D1*
X571751Y2678089D1*
X579731Y2678648D1*
X587727Y2678836D1*
X595724Y2678652D1*
X603705Y2678097D1*
X611651Y2677172D1*
X619545Y2675881D1*
X627370Y2674223D1*
X635110Y2672205D1*
X642749Y2669828D1*
X650269Y2667101D1*
X657654Y2664028D1*
X664888Y2660614D1*
X671957Y2656869D1*
X678844Y2652799D1*
X685535Y2648416D1*
X692014Y2643726D1*
X698270Y2638739D1*
X704287Y2633469D1*
X710054Y2627924D1*
X715556Y2622118D1*
X720783Y2616063D1*
X725724Y2609772D1*
X730367Y2603259D1*
X734703Y2596537D1*
X738723Y2589619D1*
X742417Y2582525D1*
X745778Y2575266D1*
X748798Y2567858D1*
X751471Y2560319D1*
X753793Y2552664D1*
X755755Y2544909D1*
X757356Y2537072D1*
X758591Y2529168D1*
X759458Y2521217D1*
X759955Y2513232D1*
X760087Y2506516D1*
X760039Y2502516D1*
X1810039Y3490016D2*
X1809669Y3482025D1*
X1808927Y3474060D1*
X1807816Y3466139D1*
X1806340Y3458277D1*
X1804500Y3450492D1*
X1802301Y3442802D1*
X1799745Y3435220D1*
X1796843Y3427766D1*
X1793597Y3420455D1*
X1790014Y3413303D1*
X1786105Y3406324D1*
X1781875Y3399534D1*
X1777336Y3392949D1*
X1772495Y3386580D1*
X1767364Y3380444D1*
X1761954Y3374551D1*
X1756276Y3368917D1*
X1750343Y3363551D1*
X1744167Y3358467D1*
X1737761Y3353676D1*
X1731140Y3349186D1*
X1724319Y3345009D1*
X1717310Y3341154D1*
X1710130Y3337626D1*
X1702794Y3334437D1*
X1695319Y3331591D1*
X1687719Y3329094D1*
X1680010Y3326954D1*
X1672213Y3325173D1*
X1664340Y3323757D1*
X1656409Y3322707D1*
X1648440Y3322026D1*
X1640446Y3321717D1*
X1632448Y3321778D1*
X1624459Y3322210D1*
X1616500Y3323013D1*
X1608588Y3324184D1*
X1600738Y3325722D1*
X1592967Y3327621D1*
X1585293Y3329879D1*
X1577732Y3332492D1*
X1570301Y3335451D1*
X1563014Y3338753D1*
X1555890Y3342390D1*
X1548941Y3346353D1*
X1542184Y3350634D1*
X1535633Y3355224D1*
X1529302Y3360114D1*
X1523205Y3365293D1*
X1517354Y3370748D1*
X1511762Y3376469D1*
X1506444Y3382442D1*
X1501407Y3388657D1*
X1496664Y3395100D1*
X1492226Y3401755D1*
X1488101Y3408608D1*
X1484299Y3415646D1*
X1480827Y3422853D1*
X1477694Y3430213D1*
X1474906Y3437710D1*
X1472467Y3445328D1*
X1470386Y3453052D1*
X1468665Y3460865D1*
X1467308Y3468748D1*
X1466320Y3476686D1*
X1465701Y3484661D1*
X1465451Y3492656D1*
X1465575Y3500655D1*
X1466068Y3508639D1*
X1466932Y3516592D1*
X1468164Y3524495D1*
X1469761Y3532333D1*
X1471720Y3540089D1*
X1474037Y3547745D1*
X1476707Y3555286D1*
X1479724Y3562694D1*
X1483081Y3569955D1*
X1486773Y3577052D1*
X1490789Y3583970D1*
X1495122Y3590694D1*
X1499762Y3597210D1*
X1504699Y3603503D1*
X1509924Y3609560D1*
X1515424Y3615369D1*
X1521188Y3620916D1*
X1527203Y3626189D1*
X1533457Y3631178D1*
X1539934Y3635871D1*
X1546623Y3640259D1*
X1553508Y3644331D1*
X1560575Y3648079D1*
X1567807Y3651496D1*
X1575192Y3654572D1*
X1582710Y3657303D1*
X1590348Y3659682D1*
X1598087Y3661705D1*
X1605912Y3663366D1*
X1613806Y3664661D1*
X1621751Y3665589D1*
X1629731Y3666148D1*
X1637727Y3666336D1*
X1645724Y3666152D1*
X1653705Y3665597D1*
X1661651Y3664672D1*
X1669545Y3663381D1*
X1677370Y3661723D1*
X1685110Y3659705D1*
X1692749Y3657328D1*
X1700269Y3654601D1*
X1707654Y3651528D1*
X1714888Y3648114D1*
X1721957Y3644369D1*
X1728844Y3640299D1*
X1735535Y3635916D1*
X1742014Y3631226D1*
X1748270Y3626239D1*
X1754287Y3620969D1*
X1760054Y3615424D1*
X1765556Y3609618D1*
X1770783Y3603563D1*
X1775724Y3597272D1*
X1780367Y3590759D1*
X1784703Y3584037D1*
X1788723Y3577119D1*
X1792417Y3570025D1*
X1795778Y3562766D1*
X1798798Y3555358D1*
X1801471Y3547819D1*
X1803793Y3540164D1*
X1805755Y3532409D1*
X1807356Y3524572D1*
X1808591Y3516668D1*
X1809458Y3508717D1*
X1809955Y3500732D1*
X1810087Y3494016D1*
X1810039Y3490016D1*
X2310039D2*
X2309669Y3482025D1*
X2308927Y3474060D1*
X2307816Y3466139D1*
X2306340Y3458277D1*
X2304500Y3450492D1*
X2302301Y3442802D1*
X2299745Y3435220D1*
X2296843Y3427766D1*
X2293597Y3420455D1*
X2290014Y3413303D1*
X2286105Y3406324D1*
X2281875Y3399534D1*
X2277336Y3392949D1*
X2272495Y3386580D1*
X2267364Y3380444D1*
X2261954Y3374551D1*
X2256276Y3368917D1*
X2250343Y3363551D1*
X2244167Y3358467D1*
X2237761Y3353676D1*
X2231140Y3349186D1*
X2224319Y3345009D1*
X2217310Y3341154D1*
X2210130Y3337626D1*
X2202794Y3334437D1*
X2195319Y3331591D1*
X2187719Y3329094D1*
X2180010Y3326954D1*
X2172213Y3325173D1*
X2164340Y3323757D1*
X2156409Y3322707D1*
X2148440Y3322026D1*
X2140446Y3321717D1*
X2132448Y3321778D1*
X2124459Y3322210D1*
X2116500Y3323013D1*
X2108588Y3324184D1*
X2100738Y3325722D1*
X2092967Y3327621D1*
X2085293Y3329879D1*
X2077732Y3332492D1*
X2070301Y3335451D1*
X2063014Y3338753D1*
X2055890Y3342390D1*
X2048941Y3346353D1*
X2042184Y3350634D1*
X2035633Y3355224D1*
X2029302Y3360114D1*
X2023205Y3365293D1*
X2017354Y3370748D1*
X2011762Y3376469D1*
X2006444Y3382442D1*
X2001407Y3388657D1*
X1996664Y3395100D1*
X1992226Y3401755D1*
X1988101Y3408608D1*
X1984299Y3415646D1*
X1980827Y3422853D1*
X1977694Y3430213D1*
X1974906Y3437710D1*
X1972467Y3445328D1*
X1970386Y3453052D1*
X1968665Y3460865D1*
X1967308Y3468748D1*
X1966320Y3476686D1*
X1965701Y3484661D1*
X1965451Y3492656D1*
X1965575Y3500655D1*
X1966068Y3508639D1*
X1966932Y3516592D1*
X1968164Y3524495D1*
X1969761Y3532333D1*
X1971720Y3540089D1*
X1974037Y3547745D1*
X1976707Y3555286D1*
X1979724Y3562694D1*
X1983081Y3569955D1*
X1986773Y3577052D1*
X1990789Y3583970D1*
X1995122Y3590694D1*
X1999762Y3597210D1*
X2004699Y3603503D1*
X2009924Y3609560D1*
X2015424Y3615369D1*
X2021188Y3620916D1*
X2027203Y3626189D1*
X2033457Y3631178D1*
X2039934Y3635871D1*
X2046623Y3640259D1*
X2053508Y3644331D1*
X2060575Y3648079D1*
X2067807Y3651496D1*
X2075192Y3654572D1*
X2082710Y3657303D1*
X2090348Y3659682D1*
X2098087Y3661705D1*
X2105912Y3663366D1*
X2113806Y3664661D1*
X2121751Y3665589D1*
X2129731Y3666148D1*
X2137727Y3666336D1*
X2145724Y3666152D1*
X2153705Y3665597D1*
X2161651Y3664672D1*
X2169545Y3663381D1*
X2177370Y3661723D1*
X2185110Y3659705D1*
X2192749Y3657328D1*
X2200269Y3654601D1*
X2207654Y3651528D1*
X2214888Y3648114D1*
X2221957Y3644369D1*
X2228844Y3640299D1*
X2235535Y3635916D1*
X2242014Y3631226D1*
X2248270Y3626239D1*
X2254287Y3620969D1*
X2260054Y3615424D1*
X2265556Y3609618D1*
X2270783Y3603563D1*
X2275724Y3597272D1*
X2280367Y3590759D1*
X2284703Y3584037D1*
X2288723Y3577119D1*
X2292417Y3570025D1*
X2295778Y3562766D1*
X2298798Y3555358D1*
X2301471Y3547819D1*
X2303793Y3540164D1*
X2305755Y3532409D1*
X2307356Y3524572D1*
X2308591Y3516668D1*
X2309458Y3508717D1*
X2309955Y3500732D1*
X2310087Y3494016D1*
X2310039Y3490016D1*
X1310039D2*
X1309669Y3482025D1*
X1308927Y3474060D1*
X1307816Y3466139D1*
X1306340Y3458277D1*
X1304500Y3450492D1*
X1302301Y3442802D1*
X1299745Y3435220D1*
X1296843Y3427766D1*
X1293597Y3420455D1*
X1290014Y3413303D1*
X1286105Y3406324D1*
X1281875Y3399534D1*
X1277336Y3392949D1*
X1272495Y3386580D1*
X1267364Y3380444D1*
X1261954Y3374551D1*
X1256276Y3368917D1*
X1250343Y3363551D1*
X1244167Y3358467D1*
X1237761Y3353676D1*
X1231140Y3349186D1*
X1224319Y3345009D1*
X1217310Y3341154D1*
X1210130Y3337626D1*
X1202794Y3334437D1*
X1195319Y3331591D1*
X1187719Y3329094D1*
X1180010Y3326954D1*
X1172213Y3325173D1*
X1164340Y3323757D1*
X1156409Y3322707D1*
X1148440Y3322026D1*
X1140446Y3321717D1*
X1132448Y3321778D1*
X1124459Y3322210D1*
X1116500Y3323013D1*
X1108588Y3324184D1*
X1100738Y3325722D1*
X1092967Y3327621D1*
X1085293Y3329879D1*
X1077732Y3332492D1*
X1070301Y3335451D1*
X1063014Y3338753D1*
X1055890Y3342390D1*
X1048941Y3346353D1*
X1042184Y3350634D1*
X1035633Y3355224D1*
X1029302Y3360114D1*
X1023205Y3365293D1*
X1017354Y3370748D1*
X1011762Y3376469D1*
X1006444Y3382442D1*
X1001407Y3388657D1*
X996664Y3395100D1*
X992226Y3401755D1*
X988101Y3408608D1*
X984299Y3415646D1*
X980827Y3422853D1*
X977694Y3430213D1*
X974906Y3437710D1*
X972467Y3445328D1*
X970386Y3453052D1*
X968665Y3460865D1*
X967308Y3468748D1*
X966320Y3476686D1*
X965701Y3484661D1*
X965451Y3492656D1*
X965575Y3500655D1*
X966068Y3508639D1*
X966932Y3516592D1*
X968164Y3524495D1*
X969761Y3532333D1*
X971720Y3540089D1*
X974037Y3547745D1*
X976707Y3555286D1*
X979724Y3562694D1*
X983081Y3569955D1*
X986773Y3577052D1*
X990789Y3583970D1*
X995122Y3590694D1*
X999762Y3597210D1*
X1004699Y3603503D1*
X1009924Y3609560D1*
X1015424Y3615369D1*
X1021188Y3620916D1*
X1027203Y3626189D1*
X1033457Y3631178D1*
X1039934Y3635871D1*
X1046623Y3640259D1*
X1053508Y3644331D1*
X1060575Y3648079D1*
X1067807Y3651496D1*
X1075192Y3654572D1*
X1082710Y3657303D1*
X1090348Y3659682D1*
X1098087Y3661705D1*
X1105912Y3663366D1*
X1113806Y3664661D1*
X1121751Y3665589D1*
X1129731Y3666148D1*
X1137727Y3666336D1*
X1145724Y3666152D1*
X1153705Y3665597D1*
X1161651Y3664672D1*
X1169545Y3663381D1*
X1177370Y3661723D1*
X1185110Y3659705D1*
X1192749Y3657328D1*
X1200269Y3654601D1*
X1207654Y3651528D1*
X1214888Y3648114D1*
X1221957Y3644369D1*
X1228844Y3640299D1*
X1235535Y3635916D1*
X1242014Y3631226D1*
X1248270Y3626239D1*
X1254287Y3620969D1*
X1260054Y3615424D1*
X1265556Y3609618D1*
X1270783Y3603563D1*
X1275724Y3597272D1*
X1280367Y3590759D1*
X1284703Y3584037D1*
X1288723Y3577119D1*
X1292417Y3570025D1*
X1295778Y3562766D1*
X1298798Y3555358D1*
X1301471Y3547819D1*
X1303793Y3540164D1*
X1305755Y3532409D1*
X1307356Y3524572D1*
X1308591Y3516668D1*
X1309458Y3508717D1*
X1309955Y3500732D1*
X1310087Y3494016D1*
X1310039Y3490016D1*
X816289Y4521265D2*
X815919Y4513274D1*
X815176Y4505310D1*
X814066Y4497388D1*
X812589Y4489526D1*
X810749Y4481741D1*
X808550Y4474051D1*
X805995Y4466470D1*
X803092Y4459016D1*
X799846Y4451705D1*
X796264Y4444552D1*
X792354Y4437573D1*
X788125Y4430783D1*
X783585Y4424198D1*
X778744Y4417829D1*
X773613Y4411693D1*
X768203Y4405801D1*
X762525Y4400167D1*
X756592Y4394801D1*
X750416Y4389717D1*
X744010Y4384925D1*
X737390Y4380436D1*
X730568Y4376259D1*
X723559Y4372403D1*
X716379Y4368875D1*
X709043Y4365686D1*
X701568Y4362840D1*
X693969Y4360344D1*
X686260Y4358203D1*
X678462Y4356423D1*
X670589Y4355007D1*
X662659Y4353957D1*
X654689Y4353276D1*
X646696Y4352966D1*
X638697Y4353028D1*
X630709Y4353459D1*
X622749Y4354262D1*
X614837Y4355433D1*
X606987Y4356971D1*
X599217Y4358870D1*
X591542Y4361129D1*
X583982Y4363741D1*
X576550Y4366701D1*
X569264Y4370003D1*
X562139Y4373639D1*
X555190Y4377602D1*
X548433Y4381883D1*
X541882Y4386474D1*
X535551Y4391364D1*
X529454Y4396542D1*
X523604Y4401997D1*
X518012Y4407718D1*
X512693Y4413692D1*
X507656Y4419907D1*
X502913Y4426349D1*
X498475Y4433004D1*
X494350Y4439857D1*
X490549Y4446895D1*
X487076Y4454102D1*
X483944Y4461462D1*
X481155Y4468959D1*
X478717Y4476577D1*
X476635Y4484302D1*
X474915Y4492114D1*
X473558Y4499997D1*
X472570Y4507936D1*
X471950Y4515911D1*
X471701Y4523906D1*
X471824Y4531904D1*
X472318Y4539888D1*
X473181Y4547841D1*
X474413Y4555744D1*
X476010Y4563583D1*
X477970Y4571339D1*
X480286Y4578995D1*
X482957Y4586535D1*
X485974Y4593944D1*
X489331Y4601205D1*
X493022Y4608302D1*
X497038Y4615219D1*
X501371Y4621944D1*
X506012Y4628459D1*
X510949Y4634752D1*
X516173Y4640810D1*
X521673Y4646618D1*
X527437Y4652165D1*
X533453Y4657438D1*
X539706Y4662428D1*
X546184Y4667121D1*
X552873Y4671508D1*
X559757Y4675580D1*
X566824Y4679328D1*
X574056Y4682745D1*
X581441Y4685822D1*
X588959Y4688552D1*
X596597Y4690932D1*
X604336Y4692954D1*
X612161Y4694615D1*
X620055Y4695911D1*
X628000Y4696839D1*
X635980Y4697398D1*
X643976Y4697585D1*
X651974Y4697402D1*
X659954Y4696846D1*
X667900Y4695921D1*
X675794Y4694630D1*
X683619Y4692972D1*
X691360Y4690954D1*
X698999Y4688577D1*
X706518Y4685850D1*
X713903Y4682777D1*
X721138Y4679364D1*
X728206Y4675618D1*
X735093Y4671549D1*
X741785Y4667165D1*
X748264Y4662475D1*
X754520Y4657488D1*
X760537Y4652218D1*
X766303Y4646673D1*
X771806Y4640867D1*
X777033Y4634812D1*
X781974Y4628521D1*
X786617Y4622008D1*
X790953Y4615286D1*
X794972Y4608369D1*
X798667Y4601274D1*
X802028Y4594016D1*
X805047Y4586608D1*
X807720Y4579068D1*
X810042Y4571413D1*
X812004Y4563659D1*
X813605Y4555822D1*
X814840Y4547917D1*
X815707Y4539966D1*
X816205Y4531982D1*
X816336Y4525265D1*
X816289Y4521265D1*
X1816289D2*
X1815919Y4513274D1*
X1815176Y4505310D1*
X1814066Y4497388D1*
X1812589Y4489526D1*
X1810749Y4481741D1*
X1808550Y4474051D1*
X1805995Y4466470D1*
X1803092Y4459016D1*
X1799846Y4451705D1*
X1796264Y4444552D1*
X1792354Y4437573D1*
X1788125Y4430783D1*
X1783585Y4424198D1*
X1778744Y4417829D1*
X1773613Y4411693D1*
X1768203Y4405801D1*
X1762525Y4400167D1*
X1756592Y4394801D1*
X1750416Y4389717D1*
X1744010Y4384925D1*
X1737390Y4380436D1*
X1730568Y4376259D1*
X1723559Y4372403D1*
X1716379Y4368875D1*
X1709043Y4365686D1*
X1701568Y4362840D1*
X1693969Y4360344D1*
X1686260Y4358203D1*
X1678462Y4356423D1*
X1670589Y4355007D1*
X1662659Y4353957D1*
X1654689Y4353276D1*
X1646696Y4352966D1*
X1638697Y4353028D1*
X1630709Y4353459D1*
X1622749Y4354262D1*
X1614837Y4355433D1*
X1606987Y4356971D1*
X1599217Y4358870D1*
X1591542Y4361129D1*
X1583982Y4363741D1*
X1576550Y4366701D1*
X1569264Y4370003D1*
X1562139Y4373639D1*
X1555190Y4377602D1*
X1548433Y4381883D1*
X1541882Y4386474D1*
X1535551Y4391364D1*
X1529454Y4396542D1*
X1523604Y4401997D1*
X1518012Y4407718D1*
X1512693Y4413692D1*
X1507656Y4419907D1*
X1502913Y4426349D1*
X1498475Y4433004D1*
X1494350Y4439857D1*
X1490549Y4446895D1*
X1487076Y4454102D1*
X1483944Y4461462D1*
X1481155Y4468959D1*
X1478717Y4476577D1*
X1476635Y4484302D1*
X1474915Y4492114D1*
X1473558Y4499997D1*
X1472570Y4507936D1*
X1471950Y4515911D1*
X1471701Y4523906D1*
X1471824Y4531904D1*
X1472318Y4539888D1*
X1473181Y4547841D1*
X1474413Y4555744D1*
X1476010Y4563583D1*
X1477970Y4571339D1*
X1480286Y4578995D1*
X1482957Y4586535D1*
X1485974Y4593944D1*
X1489331Y4601205D1*
X1493022Y4608302D1*
X1497038Y4615219D1*
X1501371Y4621944D1*
X1506012Y4628459D1*
X1510949Y4634752D1*
X1516173Y4640810D1*
X1521673Y4646618D1*
X1527437Y4652165D1*
X1533453Y4657438D1*
X1539706Y4662428D1*
X1546184Y4667121D1*
X1552873Y4671508D1*
X1559757Y4675580D1*
X1566824Y4679328D1*
X1574056Y4682745D1*
X1581441Y4685822D1*
X1588959Y4688552D1*
X1596597Y4690932D1*
X1604336Y4692954D1*
X1612161Y4694615D1*
X1620055Y4695911D1*
X1628000Y4696839D1*
X1635980Y4697398D1*
X1643976Y4697585D1*
X1651974Y4697402D1*
X1659954Y4696846D1*
X1667900Y4695921D1*
X1675794Y4694630D1*
X1683619Y4692972D1*
X1691360Y4690954D1*
X1698999Y4688577D1*
X1706518Y4685850D1*
X1713903Y4682777D1*
X1721138Y4679364D1*
X1728206Y4675618D1*
X1735093Y4671549D1*
X1741785Y4667165D1*
X1748264Y4662475D1*
X1754520Y4657488D1*
X1760537Y4652218D1*
X1766303Y4646673D1*
X1771806Y4640867D1*
X1777033Y4634812D1*
X1781974Y4628521D1*
X1786617Y4622008D1*
X1790953Y4615286D1*
X1794972Y4608369D1*
X1798667Y4601274D1*
X1802028Y4594016D1*
X1805047Y4586608D1*
X1807720Y4579068D1*
X1810042Y4571413D1*
X1812004Y4563659D1*
X1813605Y4555822D1*
X1814840Y4547917D1*
X1815707Y4539966D1*
X1816205Y4531982D1*
X1816336Y4525265D1*
X1816289Y4521265D1*
X2316289D2*
X2315919Y4513274D1*
X2315176Y4505310D1*
X2314066Y4497388D1*
X2312589Y4489526D1*
X2310749Y4481741D1*
X2308550Y4474051D1*
X2305995Y4466470D1*
X2303092Y4459016D1*
X2299846Y4451705D1*
X2296264Y4444552D1*
X2292354Y4437573D1*
X2288125Y4430783D1*
X2283585Y4424198D1*
X2278744Y4417829D1*
X2273613Y4411693D1*
X2268203Y4405801D1*
X2262525Y4400167D1*
X2256592Y4394801D1*
X2250416Y4389717D1*
X2244010Y4384925D1*
X2237390Y4380436D1*
X2230568Y4376259D1*
X2223559Y4372403D1*
X2216379Y4368875D1*
X2209043Y4365686D1*
X2201568Y4362840D1*
X2193969Y4360344D1*
X2186260Y4358203D1*
X2178462Y4356423D1*
X2170589Y4355007D1*
X2162659Y4353957D1*
X2154689Y4353276D1*
X2146696Y4352966D1*
X2138697Y4353028D1*
X2130709Y4353459D1*
X2122749Y4354262D1*
X2114837Y4355433D1*
X2106987Y4356971D1*
X2099217Y4358870D1*
X2091542Y4361129D1*
X2083982Y4363741D1*
X2076550Y4366701D1*
X2069264Y4370003D1*
X2062139Y4373639D1*
X2055190Y4377602D1*
X2048433Y4381883D1*
X2041882Y4386474D1*
X2035551Y4391364D1*
X2029454Y4396542D1*
X2023604Y4401997D1*
X2018012Y4407718D1*
X2012693Y4413692D1*
X2007656Y4419907D1*
X2002913Y4426349D1*
X1998475Y4433004D1*
X1994350Y4439857D1*
X1990549Y4446895D1*
X1987076Y4454102D1*
X1983944Y4461462D1*
X1981155Y4468959D1*
X1978717Y4476577D1*
X1976635Y4484302D1*
X1974915Y4492114D1*
X1973558Y4499997D1*
X1972570Y4507936D1*
X1971950Y4515911D1*
X1971701Y4523906D1*
X1971824Y4531904D1*
X1972318Y4539888D1*
X1973181Y4547841D1*
X1974413Y4555744D1*
X1976010Y4563583D1*
X1977970Y4571339D1*
X1980286Y4578995D1*
X1982957Y4586535D1*
X1985974Y4593944D1*
X1989331Y4601205D1*
X1993022Y4608302D1*
X1997038Y4615219D1*
X2001371Y4621944D1*
X2006012Y4628459D1*
X2010949Y4634752D1*
X2016173Y4640810D1*
X2021673Y4646618D1*
X2027437Y4652165D1*
X2033453Y4657438D1*
X2039706Y4662428D1*
X2046184Y4667121D1*
X2052873Y4671508D1*
X2059757Y4675580D1*
X2066824Y4679328D1*
X2074056Y4682745D1*
X2081441Y4685822D1*
X2088959Y4688552D1*
X2096597Y4690932D1*
X2104336Y4692954D1*
X2112161Y4694615D1*
X2120055Y4695911D1*
X2128000Y4696839D1*
X2135980Y4697398D1*
X2143976Y4697585D1*
X2151974Y4697402D1*
X2159954Y4696846D1*
X2167900Y4695921D1*
X2175794Y4694630D1*
X2183619Y4692972D1*
X2191360Y4690954D1*
X2198999Y4688577D1*
X2206518Y4685850D1*
X2213903Y4682777D1*
X2221138Y4679364D1*
X2228206Y4675618D1*
X2235093Y4671549D1*
X2241785Y4667165D1*
X2248264Y4662475D1*
X2254520Y4657488D1*
X2260537Y4652218D1*
X2266303Y4646673D1*
X2271806Y4640867D1*
X2277033Y4634812D1*
X2281974Y4628521D1*
X2286617Y4622008D1*
X2290953Y4615286D1*
X2294972Y4608369D1*
X2298667Y4601274D1*
X2302028Y4594016D1*
X2305047Y4586608D1*
X2307720Y4579068D1*
X2310042Y4571413D1*
X2312004Y4563659D1*
X2313605Y4555822D1*
X2314840Y4547917D1*
X2315707Y4539966D1*
X2316205Y4531982D1*
X2316336Y4525265D1*
X2316289Y4521265D1*
X1316289D2*
X1315919Y4513274D1*
X1315176Y4505310D1*
X1314066Y4497388D1*
X1312589Y4489526D1*
X1310749Y4481741D1*
X1308550Y4474051D1*
X1305995Y4466470D1*
X1303092Y4459016D1*
X1299846Y4451705D1*
X1296264Y4444552D1*
X1292354Y4437573D1*
X1288125Y4430783D1*
X1283585Y4424198D1*
X1278744Y4417829D1*
X1273613Y4411693D1*
X1268203Y4405801D1*
X1262525Y4400167D1*
X1256592Y4394801D1*
X1250416Y4389717D1*
X1244010Y4384925D1*
X1237390Y4380436D1*
X1230568Y4376259D1*
X1223559Y4372403D1*
X1216379Y4368875D1*
X1209043Y4365686D1*
X1201568Y4362840D1*
X1193969Y4360344D1*
X1186260Y4358203D1*
X1178462Y4356423D1*
X1170589Y4355007D1*
X1162659Y4353957D1*
X1154689Y4353276D1*
X1146696Y4352966D1*
X1138697Y4353028D1*
X1130709Y4353459D1*
X1122749Y4354262D1*
X1114837Y4355433D1*
X1106987Y4356971D1*
X1099217Y4358870D1*
X1091542Y4361129D1*
X1083982Y4363741D1*
X1076550Y4366701D1*
X1069264Y4370003D1*
X1062139Y4373639D1*
X1055190Y4377602D1*
X1048433Y4381883D1*
X1041882Y4386474D1*
X1035551Y4391364D1*
X1029454Y4396542D1*
X1023604Y4401997D1*
X1018012Y4407718D1*
X1012693Y4413692D1*
X1007656Y4419907D1*
X1002913Y4426349D1*
X998475Y4433004D1*
X994350Y4439857D1*
X990549Y4446895D1*
X987076Y4454102D1*
X983944Y4461462D1*
X981155Y4468959D1*
X978717Y4476577D1*
X976635Y4484302D1*
X974915Y4492114D1*
X973558Y4499997D1*
X972570Y4507936D1*
X971950Y4515911D1*
X971701Y4523906D1*
X971824Y4531904D1*
X972318Y4539888D1*
X973181Y4547841D1*
X974413Y4555744D1*
X976010Y4563583D1*
X977970Y4571339D1*
X980286Y4578995D1*
X982957Y4586535D1*
X985974Y4593944D1*
X989331Y4601205D1*
X993022Y4608302D1*
X997038Y4615219D1*
X1001371Y4621944D1*
X1006012Y4628459D1*
X1010949Y4634752D1*
X1016173Y4640810D1*
X1021673Y4646618D1*
X1027437Y4652165D1*
X1033453Y4657438D1*
X1039706Y4662428D1*
X1046184Y4667121D1*
X1052873Y4671508D1*
X1059757Y4675580D1*
X1066824Y4679328D1*
X1074056Y4682745D1*
X1081441Y4685822D1*
X1088959Y4688552D1*
X1096597Y4690932D1*
X1104336Y4692954D1*
X1112161Y4694615D1*
X1120055Y4695911D1*
X1128000Y4696839D1*
X1135980Y4697398D1*
X1143976Y4697585D1*
X1151974Y4697402D1*
X1159954Y4696846D1*
X1167900Y4695921D1*
X1175794Y4694630D1*
X1183619Y4692972D1*
X1191360Y4690954D1*
X1198999Y4688577D1*
X1206518Y4685850D1*
X1213903Y4682777D1*
X1221138Y4679364D1*
X1228206Y4675618D1*
X1235093Y4671549D1*
X1241785Y4667165D1*
X1248264Y4662475D1*
X1254520Y4657488D1*
X1260537Y4652218D1*
X1266303Y4646673D1*
X1271806Y4640867D1*
X1277033Y4634812D1*
X1281974Y4628521D1*
X1286617Y4622008D1*
X1290953Y4615286D1*
X1294972Y4608369D1*
X1298667Y4601274D1*
X1302028Y4594016D1*
X1305047Y4586608D1*
X1307720Y4579068D1*
X1310042Y4571413D1*
X1312004Y4563659D1*
X1313605Y4555822D1*
X1314840Y4547917D1*
X1315707Y4539966D1*
X1316205Y4531982D1*
X1316336Y4525265D1*
X1316289Y4521265D1*
X2311114Y2958766D2*
X2310759Y2950776D1*
X2310046Y2942807D1*
X2308980Y2934879D1*
X2307563Y2927007D1*
X2305797Y2919205D1*
X2303685Y2911490D1*
X2301231Y2903875D1*
X2298441Y2896379D1*
X2295320Y2889013D1*
X2291875Y2881794D1*
X2288112Y2874735D1*
X2284037Y2867852D1*
X2279660Y2861156D1*
X2274990Y2854661D1*
X2270035Y2848382D1*
X2264806Y2842328D1*
X2259311Y2836513D1*
X2253564Y2830950D1*
X2247575Y2825647D1*
X2241356Y2820615D1*
X2234919Y2815867D1*
X2228277Y2811409D1*
X2221442Y2807252D1*
X2214430Y2803403D1*
X2207253Y2799870D1*
X2199927Y2796659D1*
X2192463Y2793778D1*
X2184881Y2791232D1*
X2177192Y2789028D1*
X2169411Y2787167D1*
X2161556Y2785654D1*
X2153642Y2784491D1*
X2145684Y2783684D1*
X2137697Y2783230D1*
X2129698Y2783133D1*
X2121703Y2783392D1*
X2113727Y2784007D1*
X2105787Y2784975D1*
X2097898Y2786298D1*
X2090075Y2787969D1*
X2082335Y2789987D1*
X2074692Y2792348D1*
X2067160Y2795046D1*
X2059759Y2798077D1*
X2052497Y2801436D1*
X2045394Y2805113D1*
X2038461Y2809104D1*
X2031713Y2813399D1*
X2025161Y2817990D1*
X2018822Y2822867D1*
X2012706Y2828024D1*
X2006824Y2833446D1*
X2001192Y2839126D1*
X1995816Y2845050D1*
X1990710Y2851207D1*
X1985883Y2857587D1*
X1981345Y2864175D1*
X1977105Y2870957D1*
X1973171Y2877923D1*
X1969551Y2885055D1*
X1966252Y2892343D1*
X1963281Y2899770D1*
X1960643Y2907322D1*
X1958344Y2914984D1*
X1956388Y2922740D1*
X1954781Y2930576D1*
X1953522Y2938476D1*
X1952618Y2946424D1*
X1952068Y2954404D1*
X1951873Y2962402D1*
X1952035Y2970399D1*
X1952552Y2978382D1*
X1953425Y2986333D1*
X1954651Y2994239D1*
X1956227Y3002081D1*
X1958152Y3009845D1*
X1960420Y3017517D1*
X1963026Y3025079D1*
X1965967Y3032518D1*
X1969236Y3039819D1*
X1972828Y3046967D1*
X1976734Y3053948D1*
X1980946Y3060748D1*
X1985458Y3067354D1*
X1990259Y3073753D1*
X1995340Y3079932D1*
X2000690Y3085877D1*
X2006301Y3091579D1*
X2012160Y3097026D1*
X2018255Y3102206D1*
X2024575Y3107110D1*
X2031106Y3111728D1*
X2037837Y3116050D1*
X2044755Y3120068D1*
X2051844Y3123776D1*
X2059091Y3127163D1*
X2066480Y3130223D1*
X2074000Y3132953D1*
X2081633Y3135345D1*
X2089366Y3137394D1*
X2097181Y3139097D1*
X2105066Y3140451D1*
X2113001Y3141453D1*
X2120975Y3142100D1*
X2128969Y3142391D1*
X2136969Y3142327D1*
X2144957Y3141906D1*
X2152917Y3141130D1*
X2160837Y3140000D1*
X2168698Y3138520D1*
X2176486Y3136689D1*
X2184184Y3134516D1*
X2191777Y3132000D1*
X2199252Y3129150D1*
X2206592Y3125970D1*
X2213782Y3122466D1*
X2220811Y3118644D1*
X2227661Y3114514D1*
X2234322Y3110084D1*
X2240778Y3105361D1*
X2247017Y3100356D1*
X2253029Y3095077D1*
X2258798Y3089537D1*
X2264315Y3083745D1*
X2269570Y3077713D1*
X2274550Y3071453D1*
X2279247Y3064978D1*
X2283651Y3058299D1*
X2287752Y3051432D1*
X2291545Y3044388D1*
X2295020Y3037184D1*
X2298171Y3029831D1*
X2300991Y3022345D1*
X2303475Y3014741D1*
X2305618Y3007035D1*
X2307417Y2999240D1*
X2308866Y2991373D1*
X2309965Y2983450D1*
X2310707Y2975486D1*
X2311096Y2967495D1*
X2311114Y2958766D1*
X1817365D2*
X1817009Y2950776D1*
X1816297Y2942807D1*
X1815231Y2934879D1*
X1813814Y2927007D1*
X1812047Y2919205D1*
X1809936Y2911490D1*
X1807482Y2903875D1*
X1804692Y2896379D1*
X1801571Y2889013D1*
X1798126Y2881794D1*
X1794362Y2874735D1*
X1790287Y2867852D1*
X1785911Y2861156D1*
X1781240Y2854661D1*
X1776286Y2848382D1*
X1771056Y2842328D1*
X1765562Y2836513D1*
X1759815Y2830950D1*
X1753825Y2825647D1*
X1747606Y2820615D1*
X1741169Y2815867D1*
X1734528Y2811409D1*
X1727693Y2807252D1*
X1720681Y2803403D1*
X1713504Y2799870D1*
X1706177Y2796659D1*
X1698714Y2793778D1*
X1691131Y2791232D1*
X1683442Y2789028D1*
X1675661Y2787167D1*
X1667807Y2785654D1*
X1659892Y2784491D1*
X1651934Y2783684D1*
X1643948Y2783230D1*
X1635949Y2783133D1*
X1627954Y2783392D1*
X1619978Y2784007D1*
X1612038Y2784975D1*
X1604148Y2786298D1*
X1596325Y2787969D1*
X1588585Y2789987D1*
X1580942Y2792348D1*
X1573411Y2795046D1*
X1566009Y2798077D1*
X1558748Y2801436D1*
X1551644Y2805113D1*
X1544711Y2809104D1*
X1537963Y2813399D1*
X1531412Y2817990D1*
X1525072Y2822867D1*
X1518957Y2828024D1*
X1513075Y2833446D1*
X1507442Y2839126D1*
X1502067Y2845050D1*
X1496961Y2851207D1*
X1492134Y2857587D1*
X1487596Y2864175D1*
X1483356Y2870957D1*
X1479421Y2877923D1*
X1475802Y2885055D1*
X1472503Y2892343D1*
X1469531Y2899770D1*
X1466894Y2907322D1*
X1464594Y2914984D1*
X1462639Y2922740D1*
X1461031Y2930576D1*
X1459773Y2938476D1*
X1458869Y2946424D1*
X1458319Y2954404D1*
X1458123Y2962402D1*
X1458286Y2970399D1*
X1458803Y2978382D1*
X1459676Y2986333D1*
X1460902Y2994239D1*
X1462478Y3002081D1*
X1464403Y3009845D1*
X1466671Y3017517D1*
X1469277Y3025079D1*
X1472218Y3032518D1*
X1475487Y3039819D1*
X1479079Y3046967D1*
X1482984Y3053948D1*
X1487197Y3060748D1*
X1491709Y3067354D1*
X1496509Y3073753D1*
X1501591Y3079932D1*
X1506941Y3085877D1*
X1512551Y3091579D1*
X1518411Y3097026D1*
X1524505Y3102206D1*
X1530825Y3107110D1*
X1537357Y3111728D1*
X1544088Y3116050D1*
X1551005Y3120068D1*
X1558094Y3123776D1*
X1565341Y3127163D1*
X1572731Y3130223D1*
X1580251Y3132953D1*
X1587883Y3135345D1*
X1595617Y3137394D1*
X1603432Y3139097D1*
X1611316Y3140451D1*
X1619252Y3141453D1*
X1627226Y3142100D1*
X1635219Y3142391D1*
X1643219Y3142327D1*
X1651207Y3141906D1*
X1659168Y3141130D1*
X1667088Y3140000D1*
X1674949Y3138520D1*
X1682736Y3136689D1*
X1690434Y3134516D1*
X1698028Y3132000D1*
X1705503Y3129150D1*
X1712843Y3125970D1*
X1720033Y3122466D1*
X1727062Y3118644D1*
X1733912Y3114514D1*
X1740572Y3110084D1*
X1747029Y3105361D1*
X1753268Y3100356D1*
X1759280Y3095077D1*
X1765049Y3089537D1*
X1770566Y3083745D1*
X1775820Y3077713D1*
X1780801Y3071453D1*
X1785497Y3064978D1*
X1789902Y3058299D1*
X1794003Y3051432D1*
X1797795Y3044388D1*
X1801270Y3037184D1*
X1804421Y3029831D1*
X1807241Y3022345D1*
X1809726Y3014741D1*
X1811869Y3007035D1*
X1813668Y2999240D1*
X1815117Y2991373D1*
X1816215Y2983450D1*
X1816958Y2975486D1*
X1817346Y2967495D1*
X1817365Y2958766D1*
X1329865D2*
X1329509Y2950776D1*
X1328797Y2942807D1*
X1327731Y2934879D1*
X1326314Y2927007D1*
X1324547Y2919205D1*
X1322436Y2911490D1*
X1319982Y2903875D1*
X1317192Y2896379D1*
X1314071Y2889013D1*
X1310626Y2881794D1*
X1306862Y2874735D1*
X1302787Y2867852D1*
X1298411Y2861156D1*
X1293740Y2854661D1*
X1288786Y2848382D1*
X1283556Y2842328D1*
X1278062Y2836513D1*
X1272315Y2830950D1*
X1266325Y2825647D1*
X1260106Y2820615D1*
X1253669Y2815867D1*
X1247028Y2811409D1*
X1240193Y2807252D1*
X1233181Y2803403D1*
X1226004Y2799870D1*
X1218677Y2796659D1*
X1211214Y2793778D1*
X1203631Y2791232D1*
X1195942Y2789028D1*
X1188161Y2787167D1*
X1180307Y2785654D1*
X1172392Y2784491D1*
X1164434Y2783684D1*
X1156448Y2783230D1*
X1148449Y2783133D1*
X1140454Y2783392D1*
X1132478Y2784007D1*
X1124538Y2784975D1*
X1116648Y2786298D1*
X1108825Y2787969D1*
X1101085Y2789987D1*
X1093442Y2792348D1*
X1085911Y2795046D1*
X1078509Y2798077D1*
X1071248Y2801436D1*
X1064144Y2805113D1*
X1057211Y2809104D1*
X1050463Y2813399D1*
X1043912Y2817990D1*
X1037572Y2822867D1*
X1031457Y2828024D1*
X1025575Y2833446D1*
X1019942Y2839126D1*
X1014567Y2845050D1*
X1009461Y2851207D1*
X1004634Y2857587D1*
X1000096Y2864175D1*
X995856Y2870957D1*
X991921Y2877923D1*
X988302Y2885055D1*
X985003Y2892343D1*
X982031Y2899770D1*
X979394Y2907322D1*
X977094Y2914984D1*
X975139Y2922740D1*
X973531Y2930576D1*
X972273Y2938476D1*
X971369Y2946424D1*
X970819Y2954404D1*
X970623Y2962402D1*
X970786Y2970399D1*
X971303Y2978382D1*
X972176Y2986333D1*
X973402Y2994239D1*
X974978Y3002081D1*
X976903Y3009845D1*
X979171Y3017517D1*
X981777Y3025079D1*
X984718Y3032518D1*
X987987Y3039819D1*
X991579Y3046967D1*
X995484Y3053948D1*
X999697Y3060748D1*
X1004209Y3067354D1*
X1009009Y3073753D1*
X1014091Y3079932D1*
X1019441Y3085877D1*
X1025051Y3091579D1*
X1030911Y3097026D1*
X1037005Y3102206D1*
X1043325Y3107110D1*
X1049857Y3111728D1*
X1056588Y3116050D1*
X1063505Y3120068D1*
X1070594Y3123776D1*
X1077841Y3127163D1*
X1085231Y3130223D1*
X1092751Y3132953D1*
X1100383Y3135345D1*
X1108117Y3137394D1*
X1115932Y3139097D1*
X1123816Y3140451D1*
X1131752Y3141453D1*
X1139726Y3142100D1*
X1147719Y3142391D1*
X1155719Y3142327D1*
X1163707Y3141906D1*
X1171668Y3141130D1*
X1179588Y3140000D1*
X1187449Y3138520D1*
X1195236Y3136689D1*
X1202934Y3134516D1*
X1210528Y3132000D1*
X1218003Y3129150D1*
X1225343Y3125970D1*
X1232533Y3122466D1*
X1239562Y3118644D1*
X1246412Y3114514D1*
X1253072Y3110084D1*
X1259529Y3105361D1*
X1265768Y3100356D1*
X1271780Y3095077D1*
X1277549Y3089537D1*
X1283066Y3083745D1*
X1288320Y3077713D1*
X1293301Y3071453D1*
X1297997Y3064978D1*
X1302402Y3058299D1*
X1306503Y3051432D1*
X1310295Y3044388D1*
X1313770Y3037184D1*
X1316921Y3029831D1*
X1319741Y3022345D1*
X1322226Y3014741D1*
X1324369Y3007035D1*
X1326168Y2999240D1*
X1327617Y2991373D1*
X1328715Y2983450D1*
X1329458Y2975486D1*
X1329846Y2967495D1*
X1329865Y2958766D1*
D18*
X987766Y1037766D3*
X1387766D3*
X1787766D3*
X587766Y1556516D3*
X2187766Y1037766D3*
X987766Y1506516D3*
X1387766D3*
X1787766D3*
X2187766D3*
D19*
X2087766Y511665D3*
X687766D3*
D18*
X987766Y1975265D3*
D19*
X687766Y5331516D3*
X2087766D3*
D18*
X1387766Y1975265D3*
X1787766D3*
X2187766D3*
X987766Y2450265D3*
X1387766D3*
X1787766D3*
X637766Y3494016D3*
X2187766Y2450265D3*
X587766Y2031516D3*
Y2506516D3*
X1637766Y3494016D3*
X2137766D3*
X1137766D3*
X644016Y4525265D3*
X1644016D3*
X2144016D3*
X1144016D3*
D20*
X2131516Y2962766D3*
X1637766D3*
X1150266D3*
M02*
