G04 DipTrace 3.3.0.0*
G04 threshold_panel_01.GBL*
%MOIN*%
G04 #@! TF.FileFunction,Copper,L2,Bot*
G04 #@! TF.Part,Single*
G04 #@! TA.AperFunction,CopperBalancing*
%ADD14C,0.007992*%
%ADD16C,0.01*%
G04 #@! TA.AperFunction,ComponentPad*
%ADD18C,0.32*%
%ADD19O,0.299213X0.177165*%
%ADD20C,0.334646*%
%FSLAX26Y26*%
G04*
G70*
G90*
G75*
G01*
G04 Bottom*
%LPD*%
X413811Y5170823D2*
D14*
X2361722D1*
X413811Y4737161D2*
X2361722D1*
X413811Y4650429D2*
X524797D1*
X763240D2*
X1024789D1*
X1263232D2*
X1524797D1*
X1763239D2*
X2024787D1*
X2263231D2*
X2361722D1*
X413811Y4563697D2*
X475252D1*
X2312776D2*
X2361722D1*
X413811Y4476965D2*
X477812D1*
X810210D2*
X977819D1*
X1810209D2*
X1977819D1*
X2310217D2*
X2361722D1*
X413811Y4390232D2*
X536176D1*
X751845D2*
X1036184D1*
X1751844D2*
X2036182D1*
X2251852D2*
X2361722D1*
X413811Y4303500D2*
X1225029D1*
X1563374D2*
X2361722D1*
X413811Y4216768D2*
X418402D1*
X2357123D2*
X2361723D1*
X413811Y4130035D2*
X418402D1*
X2357123D2*
X2361723D1*
X413811Y4043303D2*
X418402D1*
X2357123D2*
X2361723D1*
X413811Y3956571D2*
X418402D1*
X2357123D2*
X2361723D1*
X413811Y3869839D2*
X418402D1*
X2357123D2*
X2361723D1*
X413811Y3783106D2*
X418402D1*
X2357123D2*
X2361723D1*
X413811Y3696374D2*
X1217365D1*
X1556084D2*
X2361722D1*
X413811Y3609642D2*
X509219D1*
X766315D2*
X1009210D1*
X1766315D2*
X2009210D1*
X2266322D2*
X2361722D1*
X413811Y3522909D2*
X467104D1*
X2308437D2*
X2361722D1*
X413811Y3436177D2*
X474659D1*
X800875D2*
X974651D1*
X1300882D2*
X1474657D1*
X1800874D2*
X1974650D1*
X2300882D2*
X2361722D1*
X413811Y3349445D2*
X543217D1*
X732318D2*
X1043223D1*
X1232310D2*
X1543215D1*
X1732316D2*
X2043223D1*
X2232324D2*
X2361722D1*
X413811Y3262713D2*
X1513667D1*
X1749362D2*
X2361722D1*
X413811Y3175980D2*
X1487161D1*
X1775867D2*
X2361722D1*
X413811Y3089248D2*
X1021916D1*
X2259875D2*
X2361722D1*
X413811Y3002516D2*
X974291D1*
X1326248D2*
X1461795D1*
X1813736D2*
X1955543D1*
X2307500D2*
X2361722D1*
X413811Y2915783D2*
X976087D1*
X1324437D2*
X1463591D1*
X1811941D2*
X1957339D1*
X2305689D2*
X2361722D1*
X413811Y2829051D2*
X442097D1*
X753251D2*
X1029518D1*
X1271005D2*
X1517022D1*
X1758509D2*
X2010770D1*
X2252257D2*
X2361722D1*
X788371Y2742319D2*
X2361722D1*
X788371Y2655587D2*
X2361722D1*
X788371Y2568854D2*
X861965D1*
X1113567D2*
X1261962D1*
X1513579D2*
X1661958D1*
X1913576D2*
X2061954D1*
X2313572D2*
X2361722D1*
X788371Y2482122D2*
X817634D1*
X2357903D2*
X2361718D1*
X788371Y2395390D2*
X823627D1*
X1151904D2*
X1223625D1*
X1951898D2*
X2023633D1*
X2351909D2*
X2361722D1*
X788371Y2308657D2*
X888798D1*
X1086734D2*
X1288794D1*
X1886743D2*
X2088803D1*
X2286739D2*
X2361722D1*
X788371Y2221925D2*
X1427626D1*
X1752625D2*
X2361722D1*
X788371Y2135193D2*
X922827D1*
X1052705D2*
X1322839D1*
X1452702D2*
X1722836D1*
X1852698D2*
X2122832D1*
X2252694D2*
X2361722D1*
X788371Y2048461D2*
X830980D1*
X1144552D2*
X1230976D1*
X1544549D2*
X1630972D1*
X1944560D2*
X2030986D1*
X2344558D2*
X2361722D1*
X788371Y1961728D2*
X815198D1*
X413811Y1874996D2*
X426081D1*
X761945D2*
X846839D1*
X1128693D2*
X1246836D1*
X1928701D2*
X2046844D1*
X2328698D2*
X2361722D1*
X413811Y1788264D2*
X426316D1*
X761726D2*
X1418416D1*
X1757121D2*
X2361722D1*
X788371Y1701531D2*
X2361722D1*
X788371Y1614799D2*
X852942D1*
X1122605D2*
X1252938D1*
X1522601D2*
X1652936D1*
X1922598D2*
X2052932D1*
X2322594D2*
X2361722D1*
X788371Y1528067D2*
X816010D1*
X788371Y1441335D2*
X827467D1*
X1148064D2*
X1227465D1*
X1948073D2*
X2027457D1*
X2348070D2*
X2361722D1*
X788231Y1354602D2*
X905656D1*
X1069875D2*
X1305652D1*
X1869885D2*
X2105646D1*
X2269881D2*
X2361722D1*
X738374Y1267870D2*
X1435869D1*
X1742323D2*
X2361722D1*
X738374Y1181138D2*
X891388D1*
X1084143D2*
X1291386D1*
X1484139D2*
X1691398D1*
X1884136D2*
X2091394D1*
X2284148D2*
X2361722D1*
X738374Y1094406D2*
X824236D1*
X1151295D2*
X1224232D1*
X1551291D2*
X1624230D1*
X1951304D2*
X2024241D1*
X2351301D2*
X2361722D1*
X738374Y1007673D2*
X817306D1*
X2358231D2*
X2361727D1*
X738374Y920941D2*
X860310D1*
X1115222D2*
X1260307D1*
X1915215D2*
X2060315D1*
X2315227D2*
X2361722D1*
X738374Y834209D2*
X1418416D1*
X1757121D2*
X2361722D1*
X721937Y747476D2*
X2361722D1*
X413811Y660744D2*
X2361722D1*
X499744Y5211991D2*
Y5132122D1*
Y4805906D2*
Y4620282D1*
Y4430260D2*
Y4244621D1*
Y3780916D2*
Y3597962D1*
Y3390067D2*
Y2869617D1*
Y718402D2*
Y656969D1*
X586476Y5212005D2*
Y5132122D1*
Y4805906D2*
Y4688480D1*
Y4362046D2*
Y4244621D1*
Y3780916D2*
Y3659307D1*
Y3328720D2*
Y2869617D1*
Y718402D2*
Y656969D1*
X673209Y5212005D2*
Y5132122D1*
Y4805906D2*
Y4695879D1*
Y4354647D2*
Y4244621D1*
Y3780916D2*
Y3663444D1*
Y3324600D2*
Y2869617D1*
Y718402D2*
Y656969D1*
X759941Y5212021D2*
Y5132122D1*
Y4805906D2*
Y4653547D1*
Y4396980D2*
Y4244621D1*
Y3780916D2*
Y3616319D1*
Y3371710D2*
Y2823615D1*
Y1872983D2*
Y1790039D1*
Y1322978D2*
Y656984D1*
X846673Y5212021D2*
Y5132122D1*
Y4805906D2*
Y4575873D1*
Y4487157D2*
Y4244621D1*
Y3780916D2*
Y3537333D1*
Y3448618D2*
Y2549979D1*
Y2350559D2*
Y2074978D1*
Y1875559D2*
Y1606220D1*
Y1406802D2*
Y1137479D1*
Y938060D2*
Y656984D1*
X933406Y5212037D2*
Y5132122D1*
Y4805906D2*
Y4575873D1*
Y4487157D2*
Y4244621D1*
Y3780916D2*
Y3537333D1*
Y3448618D2*
Y2614571D1*
Y2285951D2*
Y2139571D1*
Y1810950D2*
Y1670829D1*
Y1342209D2*
Y1202072D1*
Y873453D2*
Y657000D1*
X1020138Y5212037D2*
Y5132122D1*
Y4805906D2*
Y4645836D1*
Y4404692D2*
Y4244621D1*
Y3780916D2*
Y3620720D1*
Y3367307D2*
Y3087402D1*
Y2838142D2*
Y2620299D1*
Y2280222D2*
Y2145299D1*
Y1805222D2*
Y1676558D1*
Y1336480D2*
Y1207801D1*
Y867723D2*
Y657000D1*
X1106870Y5212052D2*
Y5132122D1*
Y4805906D2*
Y4694319D1*
Y4356209D2*
Y4244621D1*
Y3780916D2*
Y3664333D1*
Y3323694D2*
Y3137867D1*
Y2787660D2*
Y2575579D1*
Y2324944D2*
Y2100577D1*
Y1849944D2*
Y1631836D1*
Y1381202D2*
Y1163079D1*
Y912445D2*
Y657016D1*
X1193602Y5212052D2*
Y5132122D1*
Y4805906D2*
Y4691088D1*
Y4359440D2*
Y4244621D1*
Y3780916D2*
Y3657824D1*
Y3330203D2*
Y3175878D1*
Y2787644D2*
Y2507130D1*
Y2411781D2*
Y2032130D1*
Y1936780D2*
Y1563373D1*
Y1468038D2*
Y1088371D1*
Y993038D2*
Y657016D1*
X1280335Y5212068D2*
Y5132122D1*
Y4805906D2*
Y4631459D1*
Y4262160D2*
Y4244621D1*
Y3780916D2*
Y3762331D1*
Y3396450D2*
Y3175878D1*
Y2838079D2*
Y2585787D1*
Y2314751D2*
Y2110786D1*
Y1839751D2*
Y1642029D1*
Y1370993D2*
Y1173287D1*
Y902252D2*
Y657031D1*
X1367067Y5212068D2*
Y5132122D1*
Y4805906D2*
Y4575873D1*
Y4262160D2*
Y4244621D1*
Y3780916D2*
Y3762331D1*
Y3448618D2*
Y3175878D1*
Y3055911D2*
Y2622126D1*
Y2278412D2*
Y2147126D1*
Y1803411D2*
Y1678369D1*
Y1334654D2*
Y1209627D1*
Y865912D2*
Y657031D1*
X1453799Y5212084D2*
Y5132122D1*
Y4805906D2*
Y4575873D1*
Y4262160D2*
Y4244621D1*
Y3780916D2*
Y3762331D1*
Y3448618D2*
Y3175878D1*
Y3055911D2*
Y2610217D1*
Y2193714D2*
Y2135215D1*
Y1718713D2*
Y1666474D1*
Y1249957D2*
Y1197717D1*
Y774955D2*
Y657046D1*
X1540531Y5212084D2*
Y5132122D1*
Y4805906D2*
Y4663833D1*
Y4272323D2*
Y4244621D1*
Y3780916D2*
Y3741524D1*
Y3350965D2*
Y3269629D1*
Y2810934D2*
Y2530762D1*
Y2193402D2*
Y2055762D1*
Y1718400D2*
Y1587021D1*
Y1249660D2*
Y1118264D1*
Y774659D2*
Y657046D1*
X1627264Y5212100D2*
Y5132122D1*
Y4805906D2*
Y4697550D1*
Y4352978D2*
Y4244621D1*
Y3780916D2*
Y3666801D1*
Y3321228D2*
Y3269629D1*
Y2782650D2*
Y2513748D1*
Y2193402D2*
Y2038748D1*
Y1718400D2*
Y1569991D1*
Y1249660D2*
Y1101249D1*
Y774659D2*
Y657062D1*
X1713996Y5212100D2*
Y5132122D1*
Y4805906D2*
Y4683517D1*
Y4367010D2*
Y4244621D1*
Y3780916D2*
Y3649349D1*
Y3338696D2*
Y3269629D1*
Y2799320D2*
Y2606782D1*
Y2193402D2*
Y2131781D1*
Y1718400D2*
Y1663039D1*
Y1249660D2*
Y1194283D1*
Y774659D2*
Y657062D1*
X1800728Y5212115D2*
Y5132122D1*
Y4805906D2*
Y4597696D1*
Y4452832D2*
Y4244621D1*
Y3780916D2*
Y3550789D1*
Y3437239D2*
Y3169618D1*
Y3055911D2*
Y3039138D1*
Y2886407D2*
Y2622891D1*
Y2277647D2*
Y2147890D1*
Y1802646D2*
Y1679134D1*
Y1333888D2*
Y1210392D1*
Y865148D2*
Y657077D1*
X1887461Y5212115D2*
Y5132122D1*
Y4805906D2*
Y4575873D1*
Y4487157D2*
Y4244621D1*
Y3780916D2*
Y3537333D1*
Y3448618D2*
Y3169618D1*
Y3055911D2*
Y2591609D1*
Y2308928D2*
Y2116609D1*
Y1833928D2*
Y1647852D1*
Y1365171D2*
Y1179110D1*
Y896429D2*
Y657077D1*
X1974193Y5212131D2*
Y5132122D1*
Y4805906D2*
Y4575873D1*
Y4487157D2*
Y4244621D1*
Y3780916D2*
Y3548979D1*
Y3439050D2*
Y3169618D1*
Y3055911D2*
Y3050266D1*
Y2875261D2*
Y2507130D1*
Y2410891D2*
Y2032130D1*
Y1935890D2*
Y1563373D1*
Y1467148D2*
Y1088371D1*
Y992148D2*
Y657093D1*
X2060925Y5212131D2*
Y5132122D1*
Y4805906D2*
Y4677008D1*
Y4373520D2*
Y4244621D1*
Y3780916D2*
Y3649037D1*
Y3338992D2*
Y3169618D1*
Y2796791D2*
Y2567696D1*
Y2332843D2*
Y2092694D1*
Y1857841D2*
Y1623938D1*
Y1389085D2*
Y1155197D1*
Y920344D2*
Y657093D1*
X2147657Y5212146D2*
Y5132122D1*
Y4805906D2*
Y4698331D1*
Y4352197D2*
Y4244621D1*
Y3780916D2*
Y3666831D1*
Y3321197D2*
Y3142472D1*
Y2783071D2*
Y2618646D1*
Y2281892D2*
Y2143644D1*
Y1806892D2*
Y1674887D1*
Y1338135D2*
Y1206146D1*
Y869394D2*
Y657109D1*
X2234390Y5212146D2*
Y5132122D1*
Y4805906D2*
Y4672778D1*
Y4377765D2*
Y4244621D1*
Y3780916D2*
Y3637486D1*
Y3350543D2*
Y3110816D1*
Y2814711D2*
Y2616944D1*
Y2283579D2*
Y2141944D1*
Y1808593D2*
Y1673202D1*
Y1339836D2*
Y1204445D1*
Y871080D2*
Y657109D1*
X2321122Y5212146D2*
Y5132122D1*
Y4805906D2*
Y4244621D1*
Y3780916D2*
Y2560188D1*
Y2340350D2*
Y2085186D1*
Y1865350D2*
Y1616429D1*
Y1396593D2*
Y1147688D1*
Y927852D2*
Y657125D1*
X1155976Y1000463D2*
X1154497Y994285D1*
X1152302Y986601D1*
X1149753Y979028D1*
X1146856Y971580D1*
X1143615Y964274D1*
X1140041Y957127D1*
X1136138Y950154D1*
X1131916Y943369D1*
X1127385Y936786D1*
X1122551Y930421D1*
X1117429Y924287D1*
X1112029Y918398D1*
X1106360Y912764D1*
X1100437Y907400D1*
X1094270Y902316D1*
X1087877Y897524D1*
X1081266Y893033D1*
X1074454Y888853D1*
X1067457Y884993D1*
X1060287Y881463D1*
X1052962Y878269D1*
X1045497Y875417D1*
X1037907Y872915D1*
X1030210Y870768D1*
X1022421Y868979D1*
X1014558Y867554D1*
X1006636Y866495D1*
X998676Y865804D1*
X990690Y865483D1*
X982699Y865533D1*
X974719Y865953D1*
X966766Y866743D1*
X958860Y867900D1*
X951014Y869424D1*
X943249Y871308D1*
X935579Y873551D1*
X928021Y876148D1*
X920592Y879092D1*
X913307Y882378D1*
X906182Y885997D1*
X899232Y889944D1*
X892474Y894207D1*
X885920Y898780D1*
X879585Y903651D1*
X873483Y908811D1*
X867627Y914249D1*
X862029Y919953D1*
X856702Y925909D1*
X851656Y932106D1*
X846904Y938531D1*
X842454Y945169D1*
X838316Y952007D1*
X834501Y959028D1*
X831016Y966219D1*
X827866Y973563D1*
X825062Y981047D1*
X822606Y988652D1*
X820507Y996362D1*
X818768Y1004161D1*
X817391Y1012034D1*
X816381Y1019962D1*
X815740Y1027927D1*
X815469Y1035913D1*
X815568Y1043904D1*
X816038Y1051882D1*
X816877Y1059829D1*
X818084Y1067730D1*
X819655Y1075564D1*
X821589Y1083319D1*
X823879Y1090975D1*
X826522Y1098516D1*
X829513Y1105927D1*
X832844Y1113192D1*
X836508Y1120294D1*
X840496Y1127218D1*
X844802Y1133950D1*
X849416Y1140475D1*
X854327Y1146780D1*
X859525Y1152849D1*
X864999Y1158672D1*
X870736Y1164234D1*
X876727Y1169524D1*
X882955Y1174531D1*
X889409Y1179244D1*
X896075Y1183652D1*
X902937Y1187747D1*
X909983Y1191518D1*
X917196Y1194959D1*
X924559Y1198063D1*
X932059Y1200822D1*
X939680Y1203228D1*
X947403Y1205280D1*
X955214Y1206971D1*
X963094Y1208299D1*
X971028Y1209260D1*
X978997Y1209850D1*
X986986Y1210072D1*
X994975Y1209924D1*
X1002950Y1209404D1*
X1010892Y1208516D1*
X1018783Y1207260D1*
X1026609Y1205639D1*
X1034352Y1203657D1*
X1041993Y1201319D1*
X1049518Y1198629D1*
X1056909Y1195593D1*
X1064154Y1192217D1*
X1071232Y1188509D1*
X1078133Y1184478D1*
X1084837Y1180130D1*
X1091333Y1175475D1*
X1097608Y1170525D1*
X1103644Y1165290D1*
X1109433Y1159780D1*
X1114959Y1154007D1*
X1120213Y1147984D1*
X1125180Y1141726D1*
X1129853Y1135241D1*
X1134219Y1128549D1*
X1138272Y1121661D1*
X1141999Y1114592D1*
X1145395Y1107358D1*
X1148453Y1099975D1*
X1151164Y1092458D1*
X1152713Y1087562D1*
X1222825Y1087573D1*
X1225157Y1094761D1*
X1227975Y1102239D1*
X1231136Y1109579D1*
X1234634Y1116764D1*
X1238462Y1123778D1*
X1242610Y1130609D1*
X1247071Y1137239D1*
X1251835Y1143656D1*
X1256891Y1149845D1*
X1262228Y1155793D1*
X1267836Y1161486D1*
X1273701Y1166913D1*
X1279811Y1172064D1*
X1286155Y1176925D1*
X1292717Y1181487D1*
X1299482Y1185739D1*
X1306438Y1189673D1*
X1313568Y1193281D1*
X1320860Y1196554D1*
X1328294Y1199486D1*
X1335856Y1202068D1*
X1343530Y1204299D1*
X1351299Y1206171D1*
X1359146Y1207681D1*
X1367055Y1208825D1*
X1375009Y1209601D1*
X1382990Y1210008D1*
X1390982Y1210045D1*
X1398966Y1209710D1*
X1406927Y1209005D1*
X1414845Y1207933D1*
X1422706Y1206495D1*
X1430492Y1204693D1*
X1438185Y1202533D1*
X1445770Y1200017D1*
X1453231Y1197154D1*
X1460551Y1193948D1*
X1467714Y1190404D1*
X1474706Y1186533D1*
X1481510Y1182343D1*
X1488113Y1177840D1*
X1494500Y1173037D1*
X1500656Y1167942D1*
X1506571Y1162568D1*
X1512230Y1156925D1*
X1517621Y1151026D1*
X1522732Y1144883D1*
X1527554Y1138510D1*
X1532075Y1131921D1*
X1536285Y1125129D1*
X1540176Y1118148D1*
X1543739Y1110995D1*
X1546967Y1103685D1*
X1549852Y1096232D1*
X1552713Y1087562D1*
X1622807Y1087573D1*
X1625157Y1094761D1*
X1627975Y1102239D1*
X1631136Y1109579D1*
X1634634Y1116764D1*
X1638462Y1123778D1*
X1642610Y1130609D1*
X1647071Y1137239D1*
X1651835Y1143656D1*
X1656891Y1149845D1*
X1662228Y1155793D1*
X1667836Y1161486D1*
X1673701Y1166913D1*
X1679811Y1172064D1*
X1686155Y1176925D1*
X1692717Y1181487D1*
X1699482Y1185739D1*
X1706438Y1189673D1*
X1713568Y1193281D1*
X1720860Y1196554D1*
X1728294Y1199486D1*
X1735856Y1202068D1*
X1743530Y1204299D1*
X1751299Y1206171D1*
X1759146Y1207681D1*
X1767055Y1208825D1*
X1775009Y1209601D1*
X1782990Y1210008D1*
X1790982Y1210045D1*
X1798966Y1209710D1*
X1806927Y1209005D1*
X1814845Y1207933D1*
X1822706Y1206495D1*
X1830492Y1204693D1*
X1838185Y1202533D1*
X1845770Y1200017D1*
X1853231Y1197154D1*
X1860551Y1193948D1*
X1867714Y1190404D1*
X1874706Y1186533D1*
X1881510Y1182343D1*
X1888113Y1177840D1*
X1894500Y1173037D1*
X1900656Y1167942D1*
X1906571Y1162568D1*
X1912230Y1156925D1*
X1917621Y1151026D1*
X1922732Y1144883D1*
X1927554Y1138510D1*
X1932075Y1131921D1*
X1936285Y1125129D1*
X1940176Y1118148D1*
X1943739Y1110995D1*
X1946967Y1103685D1*
X1949852Y1096232D1*
X1952713Y1087562D1*
X2022819Y1087573D1*
X2025157Y1094761D1*
X2027975Y1102239D1*
X2031136Y1109579D1*
X2034634Y1116764D1*
X2038462Y1123778D1*
X2042610Y1130609D1*
X2047071Y1137239D1*
X2051835Y1143656D1*
X2056891Y1149845D1*
X2062228Y1155793D1*
X2067836Y1161486D1*
X2073701Y1166913D1*
X2079811Y1172064D1*
X2086155Y1176925D1*
X2092717Y1181487D1*
X2099482Y1185739D1*
X2106438Y1189673D1*
X2113568Y1193281D1*
X2120860Y1196554D1*
X2128294Y1199486D1*
X2135856Y1202068D1*
X2143530Y1204299D1*
X2151299Y1206171D1*
X2159146Y1207681D1*
X2167055Y1208825D1*
X2175009Y1209601D1*
X2182990Y1210008D1*
X2190982Y1210045D1*
X2198966Y1209710D1*
X2206927Y1209005D1*
X2214845Y1207933D1*
X2222706Y1206495D1*
X2230492Y1204693D1*
X2238185Y1202533D1*
X2245770Y1200017D1*
X2253231Y1197154D1*
X2260551Y1193948D1*
X2267714Y1190404D1*
X2274706Y1186533D1*
X2281510Y1182343D1*
X2288113Y1177840D1*
X2294500Y1173037D1*
X2300656Y1167942D1*
X2306571Y1162568D1*
X2312230Y1156925D1*
X2317621Y1151026D1*
X2322732Y1144883D1*
X2327554Y1138510D1*
X2332075Y1131921D1*
X2336285Y1125129D1*
X2340176Y1118148D1*
X2343739Y1110995D1*
X2346967Y1103685D1*
X2349852Y1096232D1*
X2352388Y1088654D1*
X2354571Y1080966D1*
X2356395Y1073186D1*
X2357856Y1065329D1*
X2358950Y1057413D1*
X2359677Y1049455D1*
X2360034Y1041471D1*
X2360028Y1033770D1*
X2359657Y1025787D1*
X2358917Y1017831D1*
X2357808Y1009917D1*
X2356335Y1002063D1*
X2354497Y994285D1*
X2352302Y986601D1*
X2349753Y979028D1*
X2346856Y971580D1*
X2343615Y964274D1*
X2340041Y957127D1*
X2336138Y950154D1*
X2331916Y943369D1*
X2327385Y936786D1*
X2322551Y930421D1*
X2317429Y924287D1*
X2312029Y918398D1*
X2306360Y912764D1*
X2300437Y907400D1*
X2294270Y902316D1*
X2287877Y897524D1*
X2281266Y893033D1*
X2274454Y888853D1*
X2267457Y884993D1*
X2260287Y881463D1*
X2252962Y878269D1*
X2245497Y875417D1*
X2237907Y872915D1*
X2230210Y870768D1*
X2222421Y868979D1*
X2214558Y867554D1*
X2206636Y866495D1*
X2198676Y865804D1*
X2190690Y865483D1*
X2182699Y865533D1*
X2174719Y865953D1*
X2166766Y866743D1*
X2158860Y867900D1*
X2151014Y869424D1*
X2143249Y871308D1*
X2135579Y873551D1*
X2128021Y876148D1*
X2120592Y879092D1*
X2113307Y882378D1*
X2106182Y885997D1*
X2099232Y889944D1*
X2092474Y894207D1*
X2085920Y898780D1*
X2079585Y903651D1*
X2073483Y908811D1*
X2067627Y914249D1*
X2062029Y919953D1*
X2056702Y925909D1*
X2051656Y932106D1*
X2046904Y938531D1*
X2042454Y945169D1*
X2038316Y952007D1*
X2034501Y959028D1*
X2031016Y966219D1*
X2027866Y973563D1*
X2025062Y981047D1*
X2022606Y988652D1*
X2020507Y996362D1*
X2019550Y1000450D1*
X1990469Y1000457D1*
X1950873Y982182D1*
X1948348Y975286D1*
X1945278Y967908D1*
X1941869Y960680D1*
X1938130Y953618D1*
X1934066Y946736D1*
X1929688Y940051D1*
X1925005Y933576D1*
X1920026Y927324D1*
X1914764Y921311D1*
X1909227Y915549D1*
X1903429Y910047D1*
X1897383Y904823D1*
X1891101Y899883D1*
X1884597Y895240D1*
X1877885Y890903D1*
X1870978Y886883D1*
X1863892Y883186D1*
X1856643Y879824D1*
X1849247Y876799D1*
X1841717Y874122D1*
X1834071Y871797D1*
X1826325Y869828D1*
X1818497Y868222D1*
X1810604Y866979D1*
X1802660Y866104D1*
X1794685Y865597D1*
X1786694Y865462D1*
X1778707Y865697D1*
X1770739Y866302D1*
X1762807Y867276D1*
X1756325Y868362D1*
X1756286Y811799D1*
X1755984Y809892D1*
X1755387Y808055D1*
X1754510Y806335D1*
X1753375Y804772D1*
X1727719Y779062D1*
X1726251Y777807D1*
X1724604Y776799D1*
X1722820Y776059D1*
X1720942Y775609D1*
X1719016Y775457D1*
X1455157Y775533D1*
X1453260Y775895D1*
X1451444Y776551D1*
X1449752Y777483D1*
X1448227Y778668D1*
X1446906Y780076D1*
X1421332Y812105D1*
X1420377Y813783D1*
X1419694Y815591D1*
X1419304Y817482D1*
X1419209Y823012D1*
Y868358D1*
X1410604Y866979D1*
X1402660Y866104D1*
X1394685Y865597D1*
X1386694Y865462D1*
X1378707Y865697D1*
X1370739Y866302D1*
X1362807Y867276D1*
X1354928Y868617D1*
X1347121Y870322D1*
X1339400Y872386D1*
X1331785Y874806D1*
X1324289Y877577D1*
X1316930Y880693D1*
X1309723Y884146D1*
X1302684Y887929D1*
X1295828Y892035D1*
X1289171Y896455D1*
X1282724Y901178D1*
X1276504Y906196D1*
X1270524Y911496D1*
X1264795Y917068D1*
X1259331Y922900D1*
X1254143Y928979D1*
X1249243Y935291D1*
X1244640Y941824D1*
X1240345Y948563D1*
X1236369Y955495D1*
X1232717Y962602D1*
X1229398Y969873D1*
X1226420Y977289D1*
X1225651Y979417D1*
X1178881Y1000455D1*
X1155995Y1000457D1*
X1157244Y1475453D2*
X1155462Y1466912D1*
X1153445Y1459180D1*
X1151072Y1451549D1*
X1148348Y1444035D1*
X1145278Y1436657D1*
X1141869Y1429429D1*
X1138130Y1422367D1*
X1134066Y1415486D1*
X1129688Y1408801D1*
X1125005Y1402325D1*
X1120026Y1396073D1*
X1114764Y1390060D1*
X1109227Y1384298D1*
X1103429Y1378797D1*
X1097383Y1373572D1*
X1091101Y1368633D1*
X1084597Y1363990D1*
X1077885Y1359652D1*
X1070978Y1355633D1*
X1063892Y1351936D1*
X1056643Y1348573D1*
X1049247Y1345549D1*
X1041717Y1342871D1*
X1034071Y1340546D1*
X1026325Y1338577D1*
X1018497Y1336971D1*
X1010604Y1335728D1*
X1002660Y1334853D1*
X994685Y1334346D1*
X986694Y1334211D1*
X978707Y1334446D1*
X970739Y1335051D1*
X962807Y1336025D1*
X954928Y1337366D1*
X947121Y1339071D1*
X939400Y1341135D1*
X931785Y1343555D1*
X924289Y1346327D1*
X916930Y1349442D1*
X909723Y1352895D1*
X902684Y1356678D1*
X895828Y1360785D1*
X889171Y1365205D1*
X882724Y1369928D1*
X876504Y1374945D1*
X870524Y1380245D1*
X864795Y1385818D1*
X859331Y1391650D1*
X854143Y1397728D1*
X849243Y1404041D1*
X844640Y1410573D1*
X840345Y1417312D1*
X836369Y1424244D1*
X832717Y1431352D1*
X829398Y1438622D1*
X826420Y1446038D1*
X823790Y1453584D1*
X821512Y1461244D1*
X819592Y1469001D1*
X818033Y1476840D1*
X816840Y1484741D1*
X816014Y1492690D1*
X815558Y1500668D1*
X815472Y1508659D1*
X815756Y1516646D1*
X816411Y1524610D1*
X817434Y1532535D1*
X818824Y1540406D1*
X820577Y1548202D1*
X822690Y1555909D1*
X825157Y1563510D1*
X827975Y1570988D1*
X831136Y1578328D1*
X834634Y1585513D1*
X838462Y1592528D1*
X842610Y1599358D1*
X847071Y1605988D1*
X851835Y1612406D1*
X856891Y1618594D1*
X862228Y1624542D1*
X867836Y1630235D1*
X873701Y1635663D1*
X879811Y1640814D1*
X886155Y1645675D1*
X892717Y1650236D1*
X899482Y1654488D1*
X906438Y1658423D1*
X913568Y1662030D1*
X920860Y1665303D1*
X928294Y1668235D1*
X935856Y1670818D1*
X943530Y1673049D1*
X951299Y1674920D1*
X959146Y1676430D1*
X967055Y1677575D1*
X975009Y1678350D1*
X982990Y1678757D1*
X990982Y1678794D1*
X998966Y1678459D1*
X1006927Y1677755D1*
X1014845Y1676682D1*
X1022706Y1675244D1*
X1030492Y1673442D1*
X1038185Y1671282D1*
X1045770Y1668766D1*
X1053231Y1665903D1*
X1060551Y1662697D1*
X1067714Y1659154D1*
X1074706Y1655282D1*
X1081510Y1651092D1*
X1088113Y1646589D1*
X1094500Y1641786D1*
X1100656Y1636692D1*
X1106571Y1631318D1*
X1112230Y1625675D1*
X1117621Y1619776D1*
X1122732Y1613633D1*
X1127554Y1607260D1*
X1132075Y1600671D1*
X1136285Y1593878D1*
X1140176Y1586898D1*
X1143739Y1579744D1*
X1146967Y1572434D1*
X1149852Y1564982D1*
X1150688Y1562579D1*
X1224824Y1562573D1*
X1227975Y1570988D1*
X1231136Y1578328D1*
X1234634Y1585513D1*
X1238462Y1592528D1*
X1242610Y1599358D1*
X1247071Y1605988D1*
X1251835Y1612406D1*
X1256891Y1618594D1*
X1262228Y1624542D1*
X1267836Y1630235D1*
X1273701Y1635663D1*
X1279811Y1640814D1*
X1286155Y1645675D1*
X1292717Y1650236D1*
X1299482Y1654488D1*
X1306438Y1658423D1*
X1313568Y1662030D1*
X1320860Y1665303D1*
X1328294Y1668235D1*
X1335856Y1670818D1*
X1343530Y1673049D1*
X1351299Y1674920D1*
X1359146Y1676430D1*
X1367055Y1677575D1*
X1375009Y1678350D1*
X1382990Y1678757D1*
X1390982Y1678794D1*
X1398966Y1678459D1*
X1406927Y1677755D1*
X1414845Y1676682D1*
X1422706Y1675244D1*
X1430492Y1673442D1*
X1438185Y1671282D1*
X1445770Y1668766D1*
X1453231Y1665903D1*
X1460551Y1662697D1*
X1467714Y1659154D1*
X1474706Y1655282D1*
X1481510Y1651092D1*
X1488113Y1646589D1*
X1494500Y1641786D1*
X1500656Y1636692D1*
X1506571Y1631318D1*
X1512230Y1625675D1*
X1517621Y1619776D1*
X1522732Y1613633D1*
X1527554Y1607260D1*
X1532075Y1600671D1*
X1536285Y1593878D1*
X1540176Y1586898D1*
X1543739Y1579744D1*
X1546967Y1572434D1*
X1549852Y1564982D1*
X1550688Y1562579D1*
X1624836Y1562573D1*
X1627975Y1570988D1*
X1631136Y1578328D1*
X1634634Y1585513D1*
X1638462Y1592528D1*
X1642610Y1599358D1*
X1647071Y1605988D1*
X1651835Y1612406D1*
X1656891Y1618594D1*
X1662228Y1624542D1*
X1667836Y1630235D1*
X1673701Y1635663D1*
X1679811Y1640814D1*
X1686155Y1645675D1*
X1692717Y1650236D1*
X1699482Y1654488D1*
X1706438Y1658423D1*
X1713568Y1662030D1*
X1720860Y1665303D1*
X1728294Y1668235D1*
X1735856Y1670818D1*
X1743530Y1673049D1*
X1751299Y1674920D1*
X1759146Y1676430D1*
X1767055Y1677575D1*
X1775009Y1678350D1*
X1782990Y1678757D1*
X1790982Y1678794D1*
X1798966Y1678459D1*
X1806927Y1677755D1*
X1814845Y1676682D1*
X1822706Y1675244D1*
X1830492Y1673442D1*
X1838185Y1671282D1*
X1845770Y1668766D1*
X1853231Y1665903D1*
X1860551Y1662697D1*
X1867714Y1659154D1*
X1874706Y1655282D1*
X1881510Y1651092D1*
X1888113Y1646589D1*
X1894500Y1641786D1*
X1900656Y1636692D1*
X1906571Y1631318D1*
X1912230Y1625675D1*
X1917621Y1619776D1*
X1922732Y1613633D1*
X1927554Y1607260D1*
X1932075Y1600671D1*
X1936285Y1593878D1*
X1940176Y1586898D1*
X1943739Y1579744D1*
X1946967Y1572434D1*
X1949852Y1564982D1*
X1950688Y1562579D1*
X2024816Y1562573D1*
X2027975Y1570988D1*
X2031136Y1578328D1*
X2034634Y1585513D1*
X2038462Y1592528D1*
X2042610Y1599358D1*
X2047071Y1605988D1*
X2051835Y1612406D1*
X2056891Y1618594D1*
X2062228Y1624542D1*
X2067836Y1630235D1*
X2073701Y1635663D1*
X2079811Y1640814D1*
X2086155Y1645675D1*
X2092717Y1650236D1*
X2099482Y1654488D1*
X2106438Y1658423D1*
X2113568Y1662030D1*
X2120860Y1665303D1*
X2128294Y1668235D1*
X2135856Y1670818D1*
X2143530Y1673049D1*
X2151299Y1674920D1*
X2159146Y1676430D1*
X2167055Y1677575D1*
X2175009Y1678350D1*
X2182990Y1678757D1*
X2190982Y1678794D1*
X2198966Y1678459D1*
X2206927Y1677755D1*
X2214845Y1676682D1*
X2222706Y1675244D1*
X2230492Y1673442D1*
X2238185Y1671282D1*
X2245770Y1668766D1*
X2253231Y1665903D1*
X2260551Y1662697D1*
X2267714Y1659154D1*
X2274706Y1655282D1*
X2281510Y1651092D1*
X2288113Y1646589D1*
X2294500Y1641786D1*
X2300656Y1636692D1*
X2306571Y1631318D1*
X2312230Y1625675D1*
X2317621Y1619776D1*
X2322732Y1613633D1*
X2327554Y1607260D1*
X2332075Y1600671D1*
X2336285Y1593878D1*
X2340176Y1586898D1*
X2343739Y1579744D1*
X2346967Y1572434D1*
X2349852Y1564982D1*
X2352388Y1557403D1*
X2354571Y1549715D1*
X2356395Y1541936D1*
X2357856Y1534079D1*
X2358950Y1526163D1*
X2359677Y1518205D1*
X2360034Y1510220D1*
X2360028Y1502520D1*
X2359657Y1494537D1*
X2358917Y1486580D1*
X2357808Y1478667D1*
X2356335Y1470812D1*
X2354497Y1463034D1*
X2352302Y1455350D1*
X2349753Y1447777D1*
X2346856Y1440329D1*
X2343615Y1433024D1*
X2340041Y1425877D1*
X2336138Y1418903D1*
X2331916Y1412118D1*
X2327385Y1405535D1*
X2322551Y1399171D1*
X2317429Y1393037D1*
X2312029Y1387147D1*
X2306360Y1381513D1*
X2300437Y1376150D1*
X2294270Y1371066D1*
X2287877Y1366273D1*
X2281266Y1361782D1*
X2274454Y1357602D1*
X2267457Y1353743D1*
X2260287Y1350213D1*
X2252962Y1347018D1*
X2245497Y1344167D1*
X2237907Y1341664D1*
X2230210Y1339517D1*
X2222421Y1337728D1*
X2214558Y1336303D1*
X2206636Y1335244D1*
X2198676Y1334554D1*
X2190690Y1334232D1*
X2182699Y1334282D1*
X2174719Y1334702D1*
X2166766Y1335492D1*
X2158860Y1336650D1*
X2151014Y1338173D1*
X2143249Y1340058D1*
X2135579Y1342301D1*
X2128021Y1344898D1*
X2120592Y1347841D1*
X2113307Y1351127D1*
X2106182Y1354747D1*
X2099232Y1358693D1*
X2092474Y1362957D1*
X2085920Y1367529D1*
X2079585Y1372400D1*
X2073483Y1377560D1*
X2067627Y1382999D1*
X2062029Y1388702D1*
X2056702Y1394659D1*
X2051656Y1400856D1*
X2046904Y1407281D1*
X2042454Y1413919D1*
X2038316Y1420756D1*
X2034501Y1427777D1*
X2031016Y1434969D1*
X2027866Y1442312D1*
X2025062Y1449797D1*
X2022606Y1457402D1*
X2020507Y1465112D1*
X2018768Y1472911D1*
X2018294Y1475444D1*
X1990469Y1475457D1*
X1953168Y1458241D1*
X1951072Y1451549D1*
X1948348Y1444035D1*
X1945278Y1436657D1*
X1941869Y1429429D1*
X1938130Y1422367D1*
X1934066Y1415486D1*
X1929688Y1408801D1*
X1925005Y1402325D1*
X1920026Y1396073D1*
X1914764Y1390060D1*
X1909227Y1384298D1*
X1903429Y1378797D1*
X1897383Y1373572D1*
X1891101Y1368633D1*
X1884597Y1363990D1*
X1877885Y1359652D1*
X1870978Y1355633D1*
X1863892Y1351936D1*
X1856643Y1348573D1*
X1849247Y1345549D1*
X1841717Y1342871D1*
X1834071Y1340546D1*
X1826325Y1338577D1*
X1818497Y1336971D1*
X1810604Y1335728D1*
X1802660Y1334853D1*
X1794685Y1334346D1*
X1786694Y1334211D1*
X1778707Y1334446D1*
X1770739Y1335051D1*
X1762807Y1336025D1*
X1756325Y1337112D1*
X1756286Y1286799D1*
X1755984Y1284892D1*
X1755387Y1283055D1*
X1754510Y1281335D1*
X1753375Y1279772D1*
X1727719Y1254062D1*
X1726251Y1252808D1*
X1724604Y1251799D1*
X1722820Y1251059D1*
X1720942Y1250609D1*
X1719016Y1250457D1*
X1455157Y1250533D1*
X1453260Y1250896D1*
X1451444Y1251551D1*
X1449752Y1252483D1*
X1448227Y1253668D1*
X1446906Y1255076D1*
X1421022Y1287585D1*
X1420146Y1289306D1*
X1419549Y1291143D1*
X1419247Y1293050D1*
X1419209Y1333976D1*
Y1337114D1*
X1410604Y1335728D1*
X1402660Y1334853D1*
X1394685Y1334346D1*
X1386694Y1334211D1*
X1378707Y1334446D1*
X1370739Y1335051D1*
X1362807Y1336025D1*
X1354928Y1337366D1*
X1347121Y1339071D1*
X1339400Y1341135D1*
X1331785Y1343555D1*
X1324289Y1346327D1*
X1316930Y1349442D1*
X1309723Y1352895D1*
X1302684Y1356678D1*
X1295828Y1360785D1*
X1289171Y1365205D1*
X1282724Y1369928D1*
X1276504Y1374945D1*
X1270524Y1380245D1*
X1264795Y1385818D1*
X1259331Y1391650D1*
X1254143Y1397728D1*
X1249243Y1404041D1*
X1244640Y1410573D1*
X1240345Y1417312D1*
X1236369Y1424244D1*
X1232717Y1431352D1*
X1229398Y1438622D1*
X1226420Y1446038D1*
X1223790Y1453584D1*
X1223194Y1455508D1*
X1178881Y1475454D1*
X1157244Y1475457D1*
Y1944202D2*
X1155462Y1935661D1*
X1153445Y1927929D1*
X1151072Y1920298D1*
X1148348Y1912785D1*
X1145278Y1905407D1*
X1141869Y1898178D1*
X1138130Y1891117D1*
X1134066Y1884235D1*
X1129688Y1877550D1*
X1125005Y1871075D1*
X1120026Y1864823D1*
X1114764Y1858810D1*
X1109227Y1853047D1*
X1103429Y1847546D1*
X1097383Y1842322D1*
X1091101Y1837382D1*
X1084597Y1832739D1*
X1077885Y1828402D1*
X1070978Y1824382D1*
X1063892Y1820685D1*
X1056643Y1817323D1*
X1049247Y1814298D1*
X1041717Y1811621D1*
X1034071Y1809295D1*
X1026325Y1807327D1*
X1018497Y1805720D1*
X1010604Y1804478D1*
X1002660Y1803602D1*
X994685Y1803096D1*
X986694Y1802961D1*
X978707Y1803196D1*
X970739Y1803801D1*
X962807Y1804774D1*
X954928Y1806115D1*
X947121Y1807820D1*
X939400Y1809885D1*
X931785Y1812304D1*
X924289Y1815076D1*
X916930Y1818192D1*
X909723Y1821644D1*
X902684Y1825428D1*
X895828Y1829534D1*
X889171Y1833954D1*
X882724Y1838677D1*
X876504Y1843694D1*
X870524Y1848995D1*
X864795Y1854567D1*
X859331Y1860399D1*
X854143Y1866478D1*
X849243Y1872790D1*
X844640Y1879323D1*
X840345Y1886062D1*
X836369Y1892993D1*
X832717Y1900101D1*
X829398Y1907371D1*
X826420Y1914787D1*
X823790Y1922333D1*
X821512Y1929993D1*
X819592Y1937751D1*
X818033Y1945589D1*
X816840Y1953491D1*
X816014Y1961440D1*
X815558Y1969417D1*
X815472Y1977408D1*
X815756Y1985395D1*
X816411Y1993360D1*
X817434Y2001285D1*
X818824Y2009155D1*
X820577Y2016951D1*
X822690Y2024659D1*
X825157Y2032260D1*
X827975Y2039738D1*
X831136Y2047077D1*
X834634Y2054262D1*
X838462Y2061277D1*
X842610Y2068108D1*
X847071Y2074738D1*
X851835Y2081155D1*
X856891Y2087344D1*
X862228Y2093291D1*
X867836Y2098984D1*
X873701Y2104412D1*
X879811Y2109563D1*
X886155Y2114424D1*
X892717Y2118986D1*
X899482Y2123238D1*
X906438Y2127172D1*
X913568Y2130780D1*
X920860Y2134052D1*
X928294Y2136984D1*
X935856Y2139567D1*
X943530Y2141798D1*
X951299Y2143669D1*
X959146Y2145180D1*
X967055Y2146324D1*
X975009Y2147100D1*
X982990Y2147507D1*
X990982Y2147543D1*
X998966Y2147209D1*
X1006927Y2146504D1*
X1014845Y2145432D1*
X1022706Y2143993D1*
X1030492Y2142192D1*
X1038185Y2140031D1*
X1045770Y2137516D1*
X1053231Y2134652D1*
X1060551Y2131446D1*
X1067714Y2127903D1*
X1074706Y2124031D1*
X1081510Y2119841D1*
X1088113Y2115339D1*
X1094500Y2110535D1*
X1100656Y2105441D1*
X1106571Y2100067D1*
X1112230Y2094424D1*
X1117621Y2088525D1*
X1122732Y2082382D1*
X1127554Y2076009D1*
X1132075Y2069420D1*
X1136285Y2062627D1*
X1140176Y2055647D1*
X1143739Y2048493D1*
X1146967Y2041184D1*
X1149852Y2033731D1*
X1150688Y2031328D1*
X1224823Y2031323D1*
X1227975Y2039738D1*
X1231136Y2047077D1*
X1234634Y2054262D1*
X1238462Y2061277D1*
X1242610Y2068108D1*
X1247071Y2074738D1*
X1251835Y2081155D1*
X1256891Y2087344D1*
X1262228Y2093291D1*
X1267836Y2098984D1*
X1273701Y2104412D1*
X1279811Y2109563D1*
X1286155Y2114424D1*
X1292717Y2118986D1*
X1299482Y2123238D1*
X1306438Y2127172D1*
X1313568Y2130780D1*
X1320860Y2134052D1*
X1328294Y2136984D1*
X1335856Y2139567D1*
X1343530Y2141798D1*
X1351299Y2143669D1*
X1359146Y2145180D1*
X1367055Y2146324D1*
X1375009Y2147100D1*
X1382990Y2147507D1*
X1390982Y2147543D1*
X1398966Y2147209D1*
X1406927Y2146504D1*
X1414845Y2145432D1*
X1422706Y2143993D1*
X1430492Y2142192D1*
X1438185Y2140031D1*
X1445770Y2137516D1*
X1453231Y2134652D1*
X1460551Y2131446D1*
X1467714Y2127903D1*
X1474706Y2124031D1*
X1481510Y2119841D1*
X1488113Y2115339D1*
X1494500Y2110535D1*
X1500656Y2105441D1*
X1506571Y2100067D1*
X1512230Y2094424D1*
X1517621Y2088525D1*
X1522732Y2082382D1*
X1527554Y2076009D1*
X1532075Y2069420D1*
X1536285Y2062627D1*
X1540176Y2055647D1*
X1543739Y2048493D1*
X1546967Y2041184D1*
X1549852Y2033731D1*
X1550688Y2031328D1*
X1624835Y2031323D1*
X1627975Y2039738D1*
X1631136Y2047077D1*
X1634634Y2054262D1*
X1638462Y2061277D1*
X1642610Y2068108D1*
X1647071Y2074738D1*
X1651835Y2081155D1*
X1656891Y2087344D1*
X1662228Y2093291D1*
X1667836Y2098984D1*
X1673701Y2104412D1*
X1679811Y2109563D1*
X1686155Y2114424D1*
X1692717Y2118986D1*
X1699482Y2123238D1*
X1706438Y2127172D1*
X1713568Y2130780D1*
X1720860Y2134052D1*
X1728294Y2136984D1*
X1735856Y2139567D1*
X1743530Y2141798D1*
X1751299Y2143669D1*
X1759146Y2145180D1*
X1767055Y2146324D1*
X1775009Y2147100D1*
X1782990Y2147507D1*
X1790982Y2147543D1*
X1798966Y2147209D1*
X1806927Y2146504D1*
X1814845Y2145432D1*
X1822706Y2143993D1*
X1830492Y2142192D1*
X1838185Y2140031D1*
X1845770Y2137516D1*
X1853231Y2134652D1*
X1860551Y2131446D1*
X1867714Y2127903D1*
X1874706Y2124031D1*
X1881510Y2119841D1*
X1888113Y2115339D1*
X1894500Y2110535D1*
X1900656Y2105441D1*
X1906571Y2100067D1*
X1912230Y2094424D1*
X1917621Y2088525D1*
X1922732Y2082382D1*
X1927554Y2076009D1*
X1932075Y2069420D1*
X1936285Y2062627D1*
X1940176Y2055647D1*
X1943739Y2048493D1*
X1946967Y2041184D1*
X1949852Y2033731D1*
X1950688Y2031328D1*
X2024848Y2031323D1*
X2027975Y2039738D1*
X2031136Y2047077D1*
X2034634Y2054262D1*
X2038462Y2061277D1*
X2042610Y2068108D1*
X2047071Y2074738D1*
X2051835Y2081155D1*
X2056891Y2087344D1*
X2062228Y2093291D1*
X2067836Y2098984D1*
X2073701Y2104412D1*
X2079811Y2109563D1*
X2086155Y2114424D1*
X2092717Y2118986D1*
X2099482Y2123238D1*
X2106438Y2127172D1*
X2113568Y2130780D1*
X2120860Y2134052D1*
X2128294Y2136984D1*
X2135856Y2139567D1*
X2143530Y2141798D1*
X2151299Y2143669D1*
X2159146Y2145180D1*
X2167055Y2146324D1*
X2175009Y2147100D1*
X2182990Y2147507D1*
X2190982Y2147543D1*
X2198966Y2147209D1*
X2206927Y2146504D1*
X2214845Y2145432D1*
X2222706Y2143993D1*
X2230492Y2142192D1*
X2238185Y2140031D1*
X2245770Y2137516D1*
X2253231Y2134652D1*
X2260551Y2131446D1*
X2267714Y2127903D1*
X2274706Y2124031D1*
X2281510Y2119841D1*
X2288113Y2115339D1*
X2294500Y2110535D1*
X2300656Y2105441D1*
X2306571Y2100067D1*
X2312230Y2094424D1*
X2317621Y2088525D1*
X2322732Y2082382D1*
X2327554Y2076009D1*
X2332075Y2069420D1*
X2336285Y2062627D1*
X2340176Y2055647D1*
X2343739Y2048493D1*
X2346967Y2041184D1*
X2349852Y2033731D1*
X2352388Y2026152D1*
X2354571Y2018465D1*
X2356395Y2010685D1*
X2357856Y2002828D1*
X2358950Y1994912D1*
X2359677Y1986954D1*
X2360034Y1978970D1*
X2360028Y1971269D1*
X2359657Y1963286D1*
X2358917Y1955329D1*
X2357808Y1947416D1*
X2356335Y1939562D1*
X2354497Y1931783D1*
X2352302Y1924100D1*
X2349753Y1916526D1*
X2346856Y1909079D1*
X2343615Y1901773D1*
X2340041Y1894626D1*
X2336138Y1887652D1*
X2331916Y1880867D1*
X2327385Y1874285D1*
X2322551Y1867920D1*
X2317429Y1861786D1*
X2312029Y1855896D1*
X2306360Y1850262D1*
X2300437Y1844899D1*
X2294270Y1839815D1*
X2287877Y1835022D1*
X2281266Y1830531D1*
X2274454Y1826352D1*
X2267457Y1822492D1*
X2260287Y1818962D1*
X2252962Y1815768D1*
X2245497Y1812916D1*
X2237907Y1810413D1*
X2230210Y1808266D1*
X2222421Y1806478D1*
X2214558Y1805052D1*
X2206636Y1803993D1*
X2198676Y1803303D1*
X2190690Y1802982D1*
X2182699Y1803031D1*
X2174719Y1803451D1*
X2166766Y1804241D1*
X2158860Y1805399D1*
X2151014Y1806923D1*
X2143249Y1808807D1*
X2135579Y1811050D1*
X2128021Y1813647D1*
X2120592Y1816591D1*
X2113307Y1819877D1*
X2106182Y1823496D1*
X2099232Y1827442D1*
X2092474Y1831706D1*
X2085920Y1836278D1*
X2079585Y1841150D1*
X2073483Y1846310D1*
X2067627Y1851748D1*
X2062029Y1857451D1*
X2056702Y1863408D1*
X2051656Y1869605D1*
X2046904Y1876030D1*
X2042454Y1882668D1*
X2038316Y1889505D1*
X2034501Y1896526D1*
X2031016Y1903718D1*
X2027866Y1911062D1*
X2025062Y1918546D1*
X2022606Y1926151D1*
X2020507Y1933861D1*
X2018768Y1941660D1*
X2018294Y1944193D1*
X1990470Y1944207D1*
X1953169Y1926992D1*
X1951072Y1920298D1*
X1948348Y1912785D1*
X1945278Y1905407D1*
X1941869Y1898178D1*
X1938130Y1891117D1*
X1934066Y1884235D1*
X1929688Y1877550D1*
X1925005Y1871075D1*
X1920026Y1864823D1*
X1914764Y1858810D1*
X1909227Y1853047D1*
X1903429Y1847546D1*
X1897383Y1842322D1*
X1891101Y1837382D1*
X1884597Y1832739D1*
X1877885Y1828402D1*
X1870978Y1824382D1*
X1863892Y1820685D1*
X1856643Y1817323D1*
X1849247Y1814298D1*
X1841717Y1811621D1*
X1834071Y1809295D1*
X1826325Y1807327D1*
X1818497Y1805720D1*
X1810604Y1804478D1*
X1802660Y1803602D1*
X1794685Y1803096D1*
X1786694Y1802961D1*
X1778707Y1803196D1*
X1770739Y1803801D1*
X1762807Y1804774D1*
X1756325Y1805861D1*
X1756287Y1755549D1*
X1755984Y1753642D1*
X1755388Y1751804D1*
X1754512Y1750084D1*
X1753375Y1748521D1*
X1727719Y1722812D1*
X1726251Y1721558D1*
X1724604Y1720549D1*
X1722819Y1719810D1*
X1720941Y1719358D1*
X1719016Y1719207D1*
X1455157Y1719282D1*
X1453261Y1719646D1*
X1451444Y1720301D1*
X1449752Y1721232D1*
X1448227Y1722417D1*
X1446906Y1723827D1*
X1421022Y1756335D1*
X1420146Y1758055D1*
X1419549Y1759892D1*
X1419247Y1761801D1*
X1419209Y1802727D1*
Y1805864D1*
X1410604Y1804478D1*
X1402660Y1803602D1*
X1394685Y1803096D1*
X1386694Y1802961D1*
X1378707Y1803196D1*
X1370739Y1803801D1*
X1362807Y1804774D1*
X1354928Y1806115D1*
X1347121Y1807820D1*
X1339400Y1809885D1*
X1331785Y1812304D1*
X1324289Y1815076D1*
X1316930Y1818192D1*
X1309723Y1821644D1*
X1302684Y1825428D1*
X1295828Y1829534D1*
X1289171Y1833954D1*
X1282724Y1838677D1*
X1276504Y1843694D1*
X1270524Y1848995D1*
X1264795Y1854567D1*
X1259331Y1860399D1*
X1254143Y1866478D1*
X1249243Y1872790D1*
X1244640Y1879323D1*
X1240345Y1886062D1*
X1236369Y1892993D1*
X1232717Y1900101D1*
X1229398Y1907371D1*
X1226420Y1914787D1*
X1223790Y1922333D1*
X1223194Y1924257D1*
X1178881Y1944205D1*
X1157244Y1944207D1*
Y2419202D2*
X1155462Y2410661D1*
X1153445Y2402929D1*
X1151072Y2395298D1*
X1148348Y2387785D1*
X1145278Y2380407D1*
X1141869Y2373178D1*
X1138130Y2366117D1*
X1134066Y2359235D1*
X1129688Y2352550D1*
X1125005Y2346075D1*
X1120026Y2339823D1*
X1114764Y2333810D1*
X1109227Y2328047D1*
X1103429Y2322546D1*
X1097383Y2317322D1*
X1091101Y2312382D1*
X1084597Y2307739D1*
X1077885Y2303402D1*
X1070978Y2299382D1*
X1063892Y2295685D1*
X1056643Y2292323D1*
X1049247Y2289298D1*
X1041717Y2286621D1*
X1034071Y2284295D1*
X1026325Y2282327D1*
X1018497Y2280720D1*
X1010604Y2279478D1*
X1002660Y2278602D1*
X994685Y2278096D1*
X986694Y2277961D1*
X978707Y2278196D1*
X970739Y2278801D1*
X962807Y2279774D1*
X954928Y2281115D1*
X947121Y2282820D1*
X939400Y2284885D1*
X931785Y2287304D1*
X924289Y2290076D1*
X916930Y2293192D1*
X909723Y2296644D1*
X902684Y2300428D1*
X895828Y2304534D1*
X889171Y2308954D1*
X882724Y2313677D1*
X876504Y2318694D1*
X870524Y2323995D1*
X864795Y2329567D1*
X859331Y2335399D1*
X854143Y2341478D1*
X849243Y2347790D1*
X844640Y2354323D1*
X840345Y2361062D1*
X836369Y2367993D1*
X832717Y2375101D1*
X829398Y2382371D1*
X826420Y2389787D1*
X823790Y2397333D1*
X821512Y2404993D1*
X819592Y2412751D1*
X818033Y2420589D1*
X816840Y2428491D1*
X816014Y2436440D1*
X815558Y2444417D1*
X815472Y2452408D1*
X815756Y2460395D1*
X816411Y2468360D1*
X817434Y2476285D1*
X818824Y2484155D1*
X820577Y2491951D1*
X822690Y2499659D1*
X825157Y2507260D1*
X827975Y2514738D1*
X831136Y2522077D1*
X834634Y2529262D1*
X838462Y2536277D1*
X842610Y2543108D1*
X847071Y2549738D1*
X851835Y2556155D1*
X856891Y2562344D1*
X862228Y2568291D1*
X867836Y2573984D1*
X873701Y2579412D1*
X879811Y2584563D1*
X886155Y2589424D1*
X892717Y2593986D1*
X899482Y2598238D1*
X906438Y2602172D1*
X913568Y2605780D1*
X920860Y2609052D1*
X928294Y2611984D1*
X935856Y2614567D1*
X943530Y2616798D1*
X951299Y2618669D1*
X959146Y2620180D1*
X967055Y2621324D1*
X975009Y2622100D1*
X982990Y2622507D1*
X990982Y2622543D1*
X998966Y2622209D1*
X1006927Y2621504D1*
X1014845Y2620432D1*
X1022706Y2618993D1*
X1030492Y2617192D1*
X1038185Y2615031D1*
X1045770Y2612516D1*
X1053231Y2609652D1*
X1060551Y2606446D1*
X1067714Y2602903D1*
X1074706Y2599031D1*
X1081510Y2594841D1*
X1088113Y2590339D1*
X1094500Y2585535D1*
X1100656Y2580441D1*
X1106571Y2575067D1*
X1112230Y2569424D1*
X1117621Y2563525D1*
X1122732Y2557382D1*
X1127554Y2551009D1*
X1132075Y2544420D1*
X1136285Y2537627D1*
X1140176Y2530647D1*
X1143739Y2523493D1*
X1146967Y2516184D1*
X1149852Y2508731D1*
X1150688Y2506328D1*
X1224823Y2506323D1*
X1227975Y2514738D1*
X1231136Y2522077D1*
X1234634Y2529262D1*
X1238462Y2536277D1*
X1242610Y2543108D1*
X1247071Y2549738D1*
X1251835Y2556155D1*
X1256891Y2562344D1*
X1262228Y2568291D1*
X1267836Y2573984D1*
X1273701Y2579412D1*
X1279811Y2584563D1*
X1286155Y2589424D1*
X1292717Y2593986D1*
X1299482Y2598238D1*
X1306438Y2602172D1*
X1313568Y2605780D1*
X1320860Y2609052D1*
X1328294Y2611984D1*
X1335856Y2614567D1*
X1343530Y2616798D1*
X1351299Y2618669D1*
X1359146Y2620180D1*
X1367055Y2621324D1*
X1375009Y2622100D1*
X1382990Y2622507D1*
X1390982Y2622543D1*
X1398966Y2622209D1*
X1406927Y2621504D1*
X1414845Y2620432D1*
X1422706Y2618993D1*
X1430492Y2617192D1*
X1438185Y2615031D1*
X1445770Y2612516D1*
X1453231Y2609652D1*
X1460551Y2606446D1*
X1467714Y2602903D1*
X1474706Y2599031D1*
X1481510Y2594841D1*
X1488113Y2590339D1*
X1494500Y2585535D1*
X1500656Y2580441D1*
X1506571Y2575067D1*
X1512230Y2569424D1*
X1517621Y2563525D1*
X1522732Y2557382D1*
X1527554Y2551009D1*
X1532075Y2544420D1*
X1536285Y2537627D1*
X1540176Y2530647D1*
X1543739Y2523493D1*
X1546967Y2516184D1*
X1549852Y2508731D1*
X1550688Y2506328D1*
X1624835Y2506323D1*
X1627975Y2514738D1*
X1631136Y2522077D1*
X1634634Y2529262D1*
X1638462Y2536277D1*
X1642610Y2543108D1*
X1647071Y2549738D1*
X1651835Y2556155D1*
X1656891Y2562344D1*
X1662228Y2568291D1*
X1667836Y2573984D1*
X1673701Y2579412D1*
X1679811Y2584563D1*
X1686155Y2589424D1*
X1692717Y2593986D1*
X1699482Y2598238D1*
X1706438Y2602172D1*
X1713568Y2605780D1*
X1720860Y2609052D1*
X1728294Y2611984D1*
X1735856Y2614567D1*
X1743530Y2616798D1*
X1751299Y2618669D1*
X1759146Y2620180D1*
X1767055Y2621324D1*
X1775009Y2622100D1*
X1782990Y2622507D1*
X1790982Y2622543D1*
X1798966Y2622209D1*
X1806927Y2621504D1*
X1814845Y2620432D1*
X1822706Y2618993D1*
X1830492Y2617192D1*
X1838185Y2615031D1*
X1845770Y2612516D1*
X1853231Y2609652D1*
X1860551Y2606446D1*
X1867714Y2602903D1*
X1874706Y2599031D1*
X1881510Y2594841D1*
X1888113Y2590339D1*
X1894500Y2585535D1*
X1900656Y2580441D1*
X1906571Y2575067D1*
X1912230Y2569424D1*
X1917621Y2563525D1*
X1922732Y2557382D1*
X1927554Y2551009D1*
X1932075Y2544420D1*
X1936285Y2537627D1*
X1940176Y2530647D1*
X1943739Y2523493D1*
X1946967Y2516184D1*
X1949852Y2508731D1*
X1950688Y2506328D1*
X2024848Y2506323D1*
X2027975Y2514738D1*
X2031136Y2522077D1*
X2034634Y2529262D1*
X2038462Y2536277D1*
X2042610Y2543108D1*
X2047071Y2549738D1*
X2051835Y2556155D1*
X2056891Y2562344D1*
X2062228Y2568291D1*
X2067836Y2573984D1*
X2073701Y2579412D1*
X2079811Y2584563D1*
X2086155Y2589424D1*
X2092717Y2593986D1*
X2099482Y2598238D1*
X2106438Y2602172D1*
X2113568Y2605780D1*
X2120860Y2609052D1*
X2128294Y2611984D1*
X2135856Y2614567D1*
X2143530Y2616798D1*
X2151299Y2618669D1*
X2159146Y2620180D1*
X2167055Y2621324D1*
X2175009Y2622100D1*
X2182990Y2622507D1*
X2190982Y2622543D1*
X2198966Y2622209D1*
X2206927Y2621504D1*
X2214845Y2620432D1*
X2222706Y2618993D1*
X2230492Y2617192D1*
X2238185Y2615031D1*
X2245770Y2612516D1*
X2253231Y2609652D1*
X2260551Y2606446D1*
X2267714Y2602903D1*
X2274706Y2599031D1*
X2281510Y2594841D1*
X2288113Y2590339D1*
X2294500Y2585535D1*
X2300656Y2580441D1*
X2306571Y2575067D1*
X2312230Y2569424D1*
X2317621Y2563525D1*
X2322732Y2557382D1*
X2327554Y2551009D1*
X2332075Y2544420D1*
X2336285Y2537627D1*
X2340176Y2530647D1*
X2343739Y2523493D1*
X2346967Y2516184D1*
X2349852Y2508731D1*
X2352388Y2501152D1*
X2354571Y2493465D1*
X2356395Y2485685D1*
X2357856Y2477828D1*
X2358950Y2469912D1*
X2359677Y2461954D1*
X2360034Y2453970D1*
X2360028Y2446269D1*
X2359657Y2438286D1*
X2358917Y2430329D1*
X2357808Y2422416D1*
X2356335Y2414562D1*
X2354497Y2406783D1*
X2352302Y2399100D1*
X2349753Y2391526D1*
X2346856Y2384079D1*
X2343615Y2376773D1*
X2340041Y2369626D1*
X2336138Y2362652D1*
X2331916Y2355867D1*
X2327385Y2349285D1*
X2322551Y2342920D1*
X2317429Y2336786D1*
X2312029Y2330896D1*
X2306360Y2325262D1*
X2300437Y2319899D1*
X2294270Y2314815D1*
X2287877Y2310022D1*
X2281266Y2305531D1*
X2274454Y2301352D1*
X2267457Y2297492D1*
X2260287Y2293962D1*
X2252962Y2290768D1*
X2245497Y2287916D1*
X2237907Y2285413D1*
X2230210Y2283266D1*
X2222421Y2281478D1*
X2214558Y2280052D1*
X2206636Y2278993D1*
X2198676Y2278303D1*
X2190690Y2277982D1*
X2182699Y2278031D1*
X2174719Y2278451D1*
X2166766Y2279241D1*
X2158860Y2280399D1*
X2151014Y2281923D1*
X2143249Y2283807D1*
X2135579Y2286050D1*
X2128021Y2288647D1*
X2120592Y2291591D1*
X2113307Y2294877D1*
X2106182Y2298496D1*
X2099232Y2302442D1*
X2092474Y2306706D1*
X2085920Y2311278D1*
X2079585Y2316150D1*
X2073483Y2321310D1*
X2067627Y2326748D1*
X2062029Y2332451D1*
X2056702Y2338408D1*
X2051656Y2344605D1*
X2046904Y2351030D1*
X2042454Y2357668D1*
X2038316Y2364505D1*
X2034501Y2371526D1*
X2031016Y2378718D1*
X2027866Y2386062D1*
X2025062Y2393546D1*
X2022606Y2401151D1*
X2020507Y2408861D1*
X2018768Y2416660D1*
X2018294Y2419193D1*
X1990470Y2419207D1*
X1953169Y2401992D1*
X1951072Y2395298D1*
X1948348Y2387785D1*
X1945278Y2380407D1*
X1941869Y2373178D1*
X1938130Y2366117D1*
X1934066Y2359235D1*
X1929688Y2352550D1*
X1925005Y2346075D1*
X1920026Y2339823D1*
X1914764Y2333810D1*
X1909227Y2328047D1*
X1903429Y2322546D1*
X1897383Y2317322D1*
X1891101Y2312382D1*
X1884597Y2307739D1*
X1877885Y2303402D1*
X1870978Y2299382D1*
X1863892Y2295685D1*
X1856643Y2292323D1*
X1849247Y2289298D1*
X1841717Y2286621D1*
X1834071Y2284295D1*
X1826325Y2282327D1*
X1818497Y2280720D1*
X1810604Y2279478D1*
X1802660Y2278602D1*
X1794685Y2278096D1*
X1786694Y2277961D1*
X1778707Y2278196D1*
X1770739Y2278801D1*
X1762807Y2279774D1*
X1756325Y2280861D1*
X1756287Y2230549D1*
X1755984Y2228642D1*
X1755388Y2226804D1*
X1754510Y2225084D1*
X1753375Y2223521D1*
X1727719Y2197812D1*
X1726251Y2196558D1*
X1724604Y2195549D1*
X1722819Y2194810D1*
X1720941Y2194358D1*
X1719016Y2194207D1*
X1455157Y2194282D1*
X1453261Y2194646D1*
X1451444Y2195302D1*
X1449752Y2196232D1*
X1448227Y2197417D1*
X1446906Y2198827D1*
X1421022Y2231335D1*
X1420146Y2233055D1*
X1419549Y2234892D1*
X1419247Y2236801D1*
X1419209Y2277727D1*
Y2280864D1*
X1410604Y2279478D1*
X1402660Y2278602D1*
X1394685Y2278096D1*
X1386694Y2277961D1*
X1378707Y2278196D1*
X1370739Y2278801D1*
X1362807Y2279774D1*
X1354928Y2281115D1*
X1347121Y2282820D1*
X1339400Y2284885D1*
X1331785Y2287304D1*
X1324289Y2290076D1*
X1316930Y2293192D1*
X1309723Y2296644D1*
X1302684Y2300428D1*
X1295828Y2304534D1*
X1289171Y2308954D1*
X1282724Y2313677D1*
X1276504Y2318694D1*
X1270524Y2323995D1*
X1264795Y2329567D1*
X1259331Y2335399D1*
X1254143Y2341478D1*
X1249243Y2347790D1*
X1244640Y2354323D1*
X1240345Y2361062D1*
X1236369Y2367993D1*
X1232717Y2375101D1*
X1229398Y2382371D1*
X1226420Y2389787D1*
X1223790Y2397333D1*
X1223194Y2399257D1*
X1178881Y2419205D1*
X1157244Y2419207D1*
X804189Y3449406D2*
X802302Y3442850D1*
X799753Y3435277D1*
X796856Y3427829D1*
X793615Y3420524D1*
X790041Y3413377D1*
X786138Y3406403D1*
X781916Y3399618D1*
X777385Y3393035D1*
X772551Y3386671D1*
X767429Y3380537D1*
X762029Y3374647D1*
X756360Y3369013D1*
X750437Y3363650D1*
X744270Y3358566D1*
X737877Y3353773D1*
X731266Y3349282D1*
X724454Y3345102D1*
X717457Y3341243D1*
X710287Y3337713D1*
X702962Y3334518D1*
X695497Y3331667D1*
X687907Y3329164D1*
X680210Y3327017D1*
X672421Y3325228D1*
X664558Y3323803D1*
X656636Y3322744D1*
X648676Y3322054D1*
X640690Y3321732D1*
X632699Y3321782D1*
X624719Y3322202D1*
X616766Y3322992D1*
X608860Y3324150D1*
X601014Y3325673D1*
X593249Y3327558D1*
X585579Y3329801D1*
X578021Y3332398D1*
X570592Y3335341D1*
X563307Y3338627D1*
X556182Y3342247D1*
X549232Y3346193D1*
X542474Y3350457D1*
X535920Y3355029D1*
X529585Y3359900D1*
X523483Y3365060D1*
X517627Y3370499D1*
X512029Y3376202D1*
X506702Y3382159D1*
X501656Y3388356D1*
X496904Y3394781D1*
X492454Y3401419D1*
X488316Y3408256D1*
X484501Y3415277D1*
X481016Y3422469D1*
X477866Y3429812D1*
X475062Y3437297D1*
X472606Y3444902D1*
X470507Y3452612D1*
X468768Y3460411D1*
X467391Y3468283D1*
X466381Y3476211D1*
X465740Y3484176D1*
X465469Y3492163D1*
X465568Y3500154D1*
X466038Y3508131D1*
X466877Y3516079D1*
X468084Y3523979D1*
X469655Y3531814D1*
X471589Y3539568D1*
X473879Y3547224D1*
X476522Y3554765D1*
X479513Y3562176D1*
X482844Y3569441D1*
X486508Y3576543D1*
X490496Y3583467D1*
X494802Y3590199D1*
X499416Y3596724D1*
X504327Y3603029D1*
X509525Y3609098D1*
X514999Y3614921D1*
X520736Y3620483D1*
X526727Y3625773D1*
X532955Y3630781D1*
X539409Y3635493D1*
X546075Y3639902D1*
X552937Y3643996D1*
X559983Y3647768D1*
X567196Y3651209D1*
X574559Y3654312D1*
X582059Y3657071D1*
X589680Y3659478D1*
X597403Y3661529D1*
X605214Y3663220D1*
X613094Y3664549D1*
X621028Y3665509D1*
X628997Y3666100D1*
X636986Y3666322D1*
X644975Y3666173D1*
X652950Y3665654D1*
X660892Y3664765D1*
X668783Y3663509D1*
X676609Y3661888D1*
X684352Y3659907D1*
X691993Y3657568D1*
X699518Y3654878D1*
X706909Y3651843D1*
X714154Y3648466D1*
X721232Y3644759D1*
X728133Y3640727D1*
X734837Y3636379D1*
X741333Y3631724D1*
X747608Y3626774D1*
X753644Y3621539D1*
X759433Y3616029D1*
X764959Y3610256D1*
X770213Y3604234D1*
X775180Y3597975D1*
X779853Y3591491D1*
X784219Y3584798D1*
X788272Y3577911D1*
X791999Y3570841D1*
X795395Y3563608D1*
X798453Y3556224D1*
X801164Y3548707D1*
X803525Y3541072D1*
X804739Y3536534D1*
X970785Y3536531D1*
X972690Y3543409D1*
X975157Y3551010D1*
X977975Y3558488D1*
X981136Y3565828D1*
X984634Y3573013D1*
X988462Y3580028D1*
X992610Y3586858D1*
X997071Y3593488D1*
X1001835Y3599906D1*
X1006891Y3606094D1*
X1012228Y3612042D1*
X1017836Y3617735D1*
X1023701Y3623163D1*
X1029811Y3628314D1*
X1036155Y3633175D1*
X1042717Y3637736D1*
X1049482Y3641988D1*
X1056438Y3645923D1*
X1063568Y3649530D1*
X1070860Y3652803D1*
X1078294Y3655735D1*
X1085856Y3658318D1*
X1093530Y3660549D1*
X1101299Y3662420D1*
X1109146Y3663930D1*
X1117055Y3665075D1*
X1125009Y3665850D1*
X1132990Y3666257D1*
X1140982Y3666294D1*
X1148966Y3665959D1*
X1156927Y3665255D1*
X1164845Y3664182D1*
X1172706Y3662744D1*
X1180492Y3660942D1*
X1188185Y3658782D1*
X1195770Y3656266D1*
X1203231Y3653403D1*
X1210551Y3650197D1*
X1218168Y3646409D1*
X1218205Y3725190D1*
X1218507Y3727097D1*
X1219104Y3728934D1*
X1219980Y3730655D1*
X1221115Y3732218D1*
X1246772Y3757927D1*
X1248240Y3759181D1*
X1249887Y3760190D1*
X1251671Y3760929D1*
X1253549Y3761381D1*
X1255475Y3761531D1*
X1519333Y3761457D1*
X1521231Y3761093D1*
X1523047Y3760438D1*
X1524739Y3759507D1*
X1526264Y3758322D1*
X1527585Y3756912D1*
X1553469Y3724404D1*
X1554345Y3722684D1*
X1554942Y3720846D1*
X1555244Y3718940D1*
X1555282Y3678013D1*
Y3645311D1*
X1563568Y3649530D1*
X1570860Y3652803D1*
X1578294Y3655735D1*
X1585856Y3658318D1*
X1593530Y3660549D1*
X1601299Y3662420D1*
X1609146Y3663930D1*
X1617055Y3665075D1*
X1625009Y3665850D1*
X1632990Y3666257D1*
X1640982Y3666294D1*
X1648966Y3665959D1*
X1656927Y3665255D1*
X1664845Y3664182D1*
X1672706Y3662744D1*
X1680492Y3660942D1*
X1688185Y3658782D1*
X1695770Y3656266D1*
X1703231Y3653403D1*
X1710551Y3650197D1*
X1717714Y3646654D1*
X1724706Y3642782D1*
X1731510Y3638592D1*
X1738113Y3634089D1*
X1744500Y3629286D1*
X1750656Y3624192D1*
X1756571Y3618818D1*
X1762230Y3613175D1*
X1767621Y3607276D1*
X1772732Y3601133D1*
X1777554Y3594760D1*
X1782075Y3588171D1*
X1786285Y3581378D1*
X1790176Y3574398D1*
X1793739Y3567244D1*
X1796967Y3559934D1*
X1799852Y3552482D1*
X1802388Y3544903D1*
X1804739Y3536534D1*
X1970783Y3536531D1*
X1972690Y3543409D1*
X1975157Y3551010D1*
X1977975Y3558488D1*
X1981136Y3565828D1*
X1984634Y3573013D1*
X1988462Y3580028D1*
X1992610Y3586858D1*
X1997071Y3593488D1*
X2001835Y3599906D1*
X2006891Y3606094D1*
X2012228Y3612042D1*
X2017836Y3617735D1*
X2023701Y3623163D1*
X2029811Y3628314D1*
X2036155Y3633175D1*
X2042717Y3637736D1*
X2049482Y3641988D1*
X2056438Y3645923D1*
X2063568Y3649530D1*
X2070860Y3652803D1*
X2078294Y3655735D1*
X2085856Y3658318D1*
X2093530Y3660549D1*
X2101299Y3662420D1*
X2109146Y3663930D1*
X2117055Y3665075D1*
X2125009Y3665850D1*
X2132990Y3666257D1*
X2140982Y3666294D1*
X2148966Y3665959D1*
X2156927Y3665255D1*
X2164845Y3664182D1*
X2172706Y3662744D1*
X2180492Y3660942D1*
X2188185Y3658782D1*
X2195770Y3656266D1*
X2203231Y3653403D1*
X2210551Y3650197D1*
X2217714Y3646654D1*
X2224706Y3642782D1*
X2231510Y3638592D1*
X2238113Y3634089D1*
X2244500Y3629286D1*
X2250656Y3624192D1*
X2256571Y3618818D1*
X2262230Y3613175D1*
X2267621Y3607276D1*
X2272732Y3601133D1*
X2277554Y3594760D1*
X2282075Y3588171D1*
X2286285Y3581378D1*
X2290176Y3574398D1*
X2293739Y3567244D1*
X2296967Y3559934D1*
X2299852Y3552482D1*
X2302388Y3544903D1*
X2304571Y3537215D1*
X2306395Y3529436D1*
X2307856Y3521579D1*
X2308950Y3513663D1*
X2309677Y3505705D1*
X2310034Y3497720D1*
X2310028Y3490020D1*
X2309657Y3482037D1*
X2308917Y3474080D1*
X2307808Y3466167D1*
X2306335Y3458312D1*
X2304497Y3450534D1*
X2302302Y3442850D1*
X2299753Y3435277D1*
X2296856Y3427829D1*
X2293615Y3420524D1*
X2290041Y3413377D1*
X2286138Y3406403D1*
X2281916Y3399618D1*
X2277385Y3393035D1*
X2272551Y3386671D1*
X2267429Y3380537D1*
X2262029Y3374647D1*
X2256360Y3369013D1*
X2250437Y3363650D1*
X2244270Y3358566D1*
X2237877Y3353773D1*
X2231266Y3349282D1*
X2224454Y3345102D1*
X2217457Y3341243D1*
X2210287Y3337713D1*
X2202962Y3334518D1*
X2195497Y3331667D1*
X2187907Y3329164D1*
X2180210Y3327017D1*
X2172421Y3325228D1*
X2164558Y3323803D1*
X2156636Y3322744D1*
X2148676Y3322054D1*
X2140690Y3321732D1*
X2132699Y3321782D1*
X2124719Y3322202D1*
X2116766Y3322992D1*
X2108860Y3324150D1*
X2101014Y3325673D1*
X2093249Y3327558D1*
X2085579Y3329801D1*
X2078021Y3332398D1*
X2070592Y3335341D1*
X2063307Y3338627D1*
X2056182Y3342247D1*
X2049232Y3346193D1*
X2042474Y3350457D1*
X2035920Y3355029D1*
X2029585Y3359900D1*
X2023483Y3365060D1*
X2017627Y3370499D1*
X2012029Y3376202D1*
X2006702Y3382159D1*
X2001656Y3388356D1*
X1996904Y3394781D1*
X1992454Y3401419D1*
X1988316Y3408256D1*
X1984501Y3415277D1*
X1981016Y3422469D1*
X1977866Y3429812D1*
X1975062Y3437297D1*
X1972606Y3444902D1*
X1971336Y3449424D1*
X1804207Y3449416D1*
X1802302Y3442850D1*
X1799753Y3435277D1*
X1796856Y3427829D1*
X1793615Y3420524D1*
X1790041Y3413377D1*
X1786138Y3406403D1*
X1781916Y3399618D1*
X1777385Y3393035D1*
X1772551Y3386671D1*
X1767429Y3380537D1*
X1762029Y3374647D1*
X1756360Y3369013D1*
X1750437Y3363650D1*
X1744270Y3358566D1*
X1737877Y3353773D1*
X1731266Y3349282D1*
X1724454Y3345102D1*
X1717457Y3341243D1*
X1710287Y3337713D1*
X1702962Y3334518D1*
X1695497Y3331667D1*
X1687907Y3329164D1*
X1680210Y3327017D1*
X1672421Y3325228D1*
X1664558Y3323803D1*
X1656636Y3322744D1*
X1648676Y3322054D1*
X1640690Y3321732D1*
X1632699Y3321782D1*
X1624719Y3322202D1*
X1616766Y3322992D1*
X1608860Y3324150D1*
X1601014Y3325673D1*
X1593249Y3327558D1*
X1585579Y3329801D1*
X1578021Y3332398D1*
X1570592Y3335341D1*
X1563307Y3338627D1*
X1556182Y3342247D1*
X1549232Y3346193D1*
X1542474Y3350457D1*
X1535920Y3355029D1*
X1529585Y3359900D1*
X1523483Y3365060D1*
X1517627Y3370499D1*
X1512029Y3376202D1*
X1506702Y3382159D1*
X1501656Y3388356D1*
X1496904Y3394781D1*
X1492454Y3401419D1*
X1488316Y3408256D1*
X1484501Y3415277D1*
X1481016Y3422469D1*
X1477866Y3429812D1*
X1475062Y3437297D1*
X1472606Y3444902D1*
X1471336Y3449424D1*
X1304199Y3449416D1*
X1302302Y3442850D1*
X1299753Y3435277D1*
X1296856Y3427829D1*
X1293615Y3420524D1*
X1290041Y3413377D1*
X1286138Y3406403D1*
X1281916Y3399618D1*
X1277385Y3393035D1*
X1272551Y3386671D1*
X1267429Y3380537D1*
X1262029Y3374647D1*
X1256360Y3369013D1*
X1250437Y3363650D1*
X1244270Y3358566D1*
X1237877Y3353773D1*
X1231266Y3349282D1*
X1224454Y3345102D1*
X1217457Y3341243D1*
X1210287Y3337713D1*
X1202962Y3334518D1*
X1195497Y3331667D1*
X1187907Y3329164D1*
X1180210Y3327017D1*
X1172421Y3325228D1*
X1164558Y3323803D1*
X1156636Y3322744D1*
X1148676Y3322054D1*
X1140690Y3321732D1*
X1132699Y3321782D1*
X1124719Y3322202D1*
X1116766Y3322992D1*
X1108860Y3324150D1*
X1101014Y3325673D1*
X1093249Y3327558D1*
X1085579Y3329801D1*
X1078021Y3332398D1*
X1070592Y3335341D1*
X1063307Y3338627D1*
X1056182Y3342247D1*
X1049232Y3346193D1*
X1042474Y3350457D1*
X1035920Y3355029D1*
X1029585Y3359900D1*
X1023483Y3365060D1*
X1017627Y3370499D1*
X1012029Y3376202D1*
X1006702Y3382159D1*
X1001656Y3388356D1*
X996904Y3394781D1*
X992454Y3401419D1*
X988316Y3408256D1*
X984501Y3415277D1*
X981016Y3422469D1*
X977866Y3429812D1*
X975062Y3437297D1*
X972606Y3444902D1*
X971336Y3449424D1*
X804193Y3449416D1*
X812226Y4487962D2*
X810747Y4481783D1*
X808551Y4474100D1*
X806003Y4466526D1*
X803105Y4459079D1*
X799865Y4451773D1*
X796290Y4444626D1*
X792387Y4437652D1*
X788165Y4430867D1*
X783634Y4424285D1*
X778801Y4417920D1*
X773678Y4411786D1*
X768278Y4405896D1*
X762609Y4400262D1*
X756686Y4394899D1*
X750520Y4389815D1*
X744126Y4385022D1*
X737516Y4380531D1*
X730703Y4376352D1*
X723706Y4372492D1*
X716537Y4368962D1*
X709211Y4365768D1*
X701747Y4362916D1*
X694156Y4360413D1*
X686459Y4358266D1*
X678671Y4356478D1*
X670807Y4355052D1*
X662886Y4353993D1*
X654925Y4353303D1*
X646940Y4352982D1*
X638949Y4353031D1*
X630969Y4353451D1*
X623016Y4354241D1*
X615109Y4355399D1*
X607264Y4356923D1*
X599499Y4358807D1*
X591828Y4361050D1*
X584270Y4363647D1*
X576841Y4366591D1*
X569556Y4369877D1*
X562432Y4373496D1*
X555482Y4377442D1*
X548723Y4381706D1*
X542169Y4386278D1*
X535835Y4391150D1*
X529732Y4396310D1*
X523877Y4401748D1*
X518278Y4407451D1*
X512951Y4413408D1*
X507906Y4419605D1*
X503154Y4426030D1*
X498703Y4432668D1*
X494566Y4439505D1*
X490751Y4446526D1*
X487265Y4453718D1*
X484115Y4461062D1*
X481311Y4468546D1*
X478856Y4476151D1*
X476756Y4483861D1*
X475017Y4491660D1*
X473640Y4499533D1*
X472630Y4507461D1*
X471990Y4515425D1*
X471718Y4523412D1*
X471818Y4531403D1*
X472287Y4539381D1*
X473126Y4547328D1*
X474333Y4555228D1*
X475904Y4563063D1*
X477839Y4570818D1*
X480129Y4578474D1*
X482772Y4586014D1*
X485762Y4593425D1*
X489093Y4600690D1*
X492757Y4607793D1*
X496745Y4614717D1*
X501051Y4621449D1*
X505665Y4627974D1*
X510576Y4634278D1*
X515774Y4640348D1*
X521248Y4646171D1*
X526986Y4651732D1*
X532976Y4657022D1*
X539205Y4662030D1*
X545659Y4666743D1*
X552324Y4671151D1*
X559186Y4675245D1*
X566232Y4679017D1*
X573445Y4682458D1*
X580808Y4685562D1*
X588308Y4688320D1*
X595929Y4690727D1*
X603652Y4692778D1*
X611463Y4694470D1*
X619344Y4695798D1*
X627277Y4696759D1*
X635247Y4697349D1*
X643235Y4697571D1*
X651224Y4697423D1*
X659199Y4696903D1*
X667142Y4696014D1*
X675033Y4694759D1*
X682858Y4693138D1*
X690601Y4691156D1*
X698243Y4688818D1*
X705768Y4686127D1*
X713159Y4683092D1*
X720403Y4679715D1*
X727482Y4676008D1*
X734382Y4671976D1*
X741087Y4667629D1*
X747583Y4662974D1*
X753857Y4658024D1*
X759894Y4652789D1*
X765682Y4647278D1*
X771209Y4641505D1*
X776462Y4635483D1*
X781429Y4629224D1*
X786102Y4622740D1*
X790469Y4616047D1*
X794521Y4609160D1*
X798248Y4602091D1*
X801644Y4594857D1*
X804702Y4587474D1*
X807413Y4579957D1*
X808962Y4575060D1*
X979062Y4575073D1*
X981407Y4582260D1*
X984224Y4589738D1*
X987386Y4597077D1*
X990883Y4604262D1*
X994711Y4611277D1*
X998860Y4618108D1*
X1003320Y4624738D1*
X1008084Y4631155D1*
X1013140Y4637344D1*
X1018478Y4643291D1*
X1024085Y4648984D1*
X1029950Y4654412D1*
X1036060Y4659563D1*
X1042404Y4664424D1*
X1048966Y4668986D1*
X1055731Y4673238D1*
X1062688Y4677172D1*
X1069818Y4680780D1*
X1077109Y4684052D1*
X1084543Y4686984D1*
X1092105Y4689567D1*
X1099780Y4691798D1*
X1107549Y4693669D1*
X1115395Y4695180D1*
X1123304Y4696324D1*
X1131259Y4697100D1*
X1139239Y4697507D1*
X1147231Y4697543D1*
X1155215Y4697209D1*
X1163176Y4696504D1*
X1171094Y4695432D1*
X1178955Y4693993D1*
X1186741Y4692192D1*
X1194434Y4690031D1*
X1202020Y4687516D1*
X1209480Y4684652D1*
X1216801Y4681446D1*
X1223963Y4677903D1*
X1230955Y4674031D1*
X1237760Y4669841D1*
X1244362Y4665339D1*
X1250749Y4660535D1*
X1256906Y4655441D1*
X1262820Y4650067D1*
X1268479Y4644424D1*
X1273870Y4638525D1*
X1278982Y4632382D1*
X1283803Y4626009D1*
X1288324Y4619420D1*
X1292534Y4612627D1*
X1296425Y4605647D1*
X1299988Y4598493D1*
X1303217Y4591184D1*
X1306101Y4583731D1*
X1308962Y4575060D1*
X1479070Y4575073D1*
X1481407Y4582260D1*
X1484224Y4589738D1*
X1487386Y4597077D1*
X1490883Y4604262D1*
X1494711Y4611277D1*
X1498860Y4618108D1*
X1503320Y4624738D1*
X1508084Y4631155D1*
X1513140Y4637344D1*
X1518478Y4643291D1*
X1524085Y4648984D1*
X1529950Y4654412D1*
X1536060Y4659563D1*
X1542404Y4664424D1*
X1548966Y4668986D1*
X1555731Y4673238D1*
X1562688Y4677172D1*
X1569818Y4680780D1*
X1577109Y4684052D1*
X1584543Y4686984D1*
X1592105Y4689567D1*
X1599780Y4691798D1*
X1607549Y4693669D1*
X1615395Y4695180D1*
X1623304Y4696324D1*
X1631259Y4697100D1*
X1639239Y4697507D1*
X1647231Y4697543D1*
X1655215Y4697209D1*
X1663176Y4696504D1*
X1671094Y4695432D1*
X1678955Y4693993D1*
X1686741Y4692192D1*
X1694434Y4690031D1*
X1702020Y4687516D1*
X1709480Y4684652D1*
X1716801Y4681446D1*
X1723963Y4677903D1*
X1730955Y4674031D1*
X1737760Y4669841D1*
X1744362Y4665339D1*
X1750749Y4660535D1*
X1756906Y4655441D1*
X1762820Y4650067D1*
X1768479Y4644424D1*
X1773870Y4638525D1*
X1778982Y4632382D1*
X1783803Y4626009D1*
X1788324Y4619420D1*
X1792534Y4612627D1*
X1796425Y4605647D1*
X1799988Y4598493D1*
X1803217Y4591184D1*
X1806101Y4583731D1*
X1808962Y4575060D1*
X1979077Y4575073D1*
X1981407Y4582260D1*
X1984224Y4589738D1*
X1987386Y4597077D1*
X1990883Y4604262D1*
X1994711Y4611277D1*
X1998860Y4618108D1*
X2003320Y4624738D1*
X2008084Y4631155D1*
X2013140Y4637344D1*
X2018478Y4643291D1*
X2024085Y4648984D1*
X2029950Y4654412D1*
X2036060Y4659563D1*
X2042404Y4664424D1*
X2048966Y4668986D1*
X2055731Y4673238D1*
X2062688Y4677172D1*
X2069818Y4680780D1*
X2077109Y4684052D1*
X2084543Y4686984D1*
X2092105Y4689567D1*
X2099780Y4691798D1*
X2107549Y4693669D1*
X2115395Y4695180D1*
X2123304Y4696324D1*
X2131259Y4697100D1*
X2139239Y4697507D1*
X2147231Y4697543D1*
X2155215Y4697209D1*
X2163176Y4696504D1*
X2171094Y4695432D1*
X2178955Y4693993D1*
X2186741Y4692192D1*
X2194434Y4690031D1*
X2202020Y4687516D1*
X2209480Y4684652D1*
X2216801Y4681446D1*
X2223963Y4677903D1*
X2230955Y4674031D1*
X2237760Y4669841D1*
X2244362Y4665339D1*
X2250749Y4660535D1*
X2256906Y4655441D1*
X2262820Y4650067D1*
X2268479Y4644424D1*
X2273870Y4638525D1*
X2278982Y4632382D1*
X2283803Y4626009D1*
X2288324Y4619420D1*
X2292534Y4612627D1*
X2296425Y4605647D1*
X2299988Y4598493D1*
X2303217Y4591184D1*
X2306101Y4583731D1*
X2308638Y4576152D1*
X2310820Y4568465D1*
X2312644Y4560685D1*
X2314105Y4552828D1*
X2315199Y4544912D1*
X2315927Y4536954D1*
X2316283Y4528970D1*
X2316277Y4521269D1*
X2315907Y4513286D1*
X2315167Y4505329D1*
X2314058Y4497416D1*
X2312584Y4489562D1*
X2310747Y4481783D1*
X2308551Y4474100D1*
X2306003Y4466526D1*
X2303105Y4459079D1*
X2299865Y4451773D1*
X2296290Y4444626D1*
X2292387Y4437652D1*
X2288165Y4430867D1*
X2283634Y4424285D1*
X2278801Y4417920D1*
X2273678Y4411786D1*
X2268278Y4405896D1*
X2262609Y4400262D1*
X2256686Y4394899D1*
X2250520Y4389815D1*
X2244126Y4385022D1*
X2237516Y4380531D1*
X2230703Y4376352D1*
X2223706Y4372492D1*
X2216537Y4368962D1*
X2209211Y4365768D1*
X2201747Y4362916D1*
X2194156Y4360413D1*
X2186459Y4358266D1*
X2178671Y4356478D1*
X2170807Y4355052D1*
X2162886Y4353993D1*
X2154925Y4353303D1*
X2146940Y4352982D1*
X2138949Y4353031D1*
X2130969Y4353451D1*
X2123016Y4354241D1*
X2115109Y4355399D1*
X2107264Y4356923D1*
X2099499Y4358807D1*
X2091828Y4361050D1*
X2084270Y4363647D1*
X2076841Y4366591D1*
X2069556Y4369877D1*
X2062432Y4373496D1*
X2055482Y4377442D1*
X2048723Y4381706D1*
X2042169Y4386278D1*
X2035835Y4391150D1*
X2029732Y4396310D1*
X2023877Y4401748D1*
X2018278Y4407451D1*
X2012951Y4413408D1*
X2007906Y4419605D1*
X2003154Y4426030D1*
X1998703Y4432668D1*
X1994566Y4439505D1*
X1990751Y4446526D1*
X1987265Y4453718D1*
X1984115Y4461062D1*
X1981311Y4468546D1*
X1978856Y4476151D1*
X1976756Y4483861D1*
X1975799Y4487949D1*
X1812236Y4487958D1*
X1810747Y4481783D1*
X1808551Y4474100D1*
X1806003Y4466526D1*
X1803105Y4459079D1*
X1799865Y4451773D1*
X1796290Y4444626D1*
X1792387Y4437652D1*
X1788165Y4430867D1*
X1783634Y4424285D1*
X1778801Y4417920D1*
X1773678Y4411786D1*
X1768278Y4405896D1*
X1762609Y4400262D1*
X1756686Y4394899D1*
X1750520Y4389815D1*
X1744126Y4385022D1*
X1737516Y4380531D1*
X1730703Y4376352D1*
X1723706Y4372492D1*
X1716537Y4368962D1*
X1709211Y4365768D1*
X1701747Y4362916D1*
X1694156Y4360413D1*
X1686459Y4358266D1*
X1678671Y4356478D1*
X1670807Y4355052D1*
X1662886Y4353993D1*
X1654925Y4353303D1*
X1646940Y4352982D1*
X1638949Y4353031D1*
X1630969Y4353451D1*
X1623016Y4354241D1*
X1615109Y4355399D1*
X1607264Y4356923D1*
X1599499Y4358807D1*
X1591828Y4361050D1*
X1584270Y4363647D1*
X1576841Y4366591D1*
X1569556Y4369877D1*
X1562583Y4373416D1*
X1562537Y4299301D1*
X1562235Y4297392D1*
X1561638Y4295555D1*
X1560761Y4293835D1*
X1559626Y4292273D1*
X1533970Y4266563D1*
X1532501Y4265308D1*
X1530854Y4264299D1*
X1529070Y4263560D1*
X1527192Y4263109D1*
X1525266Y4262958D1*
X1261407Y4263033D1*
X1259510Y4263396D1*
X1257694Y4264051D1*
X1256001Y4264983D1*
X1254476Y4266168D1*
X1253155Y4267577D1*
X1227272Y4300085D1*
X1226395Y4301806D1*
X1225798Y4303643D1*
X1225496Y4305550D1*
X1225458Y4346476D1*
Y4373434D1*
X1220142Y4370685D1*
X1212892Y4367323D1*
X1205496Y4364298D1*
X1197966Y4361621D1*
X1190320Y4359295D1*
X1182575Y4357327D1*
X1174747Y4355720D1*
X1166853Y4354478D1*
X1158909Y4353602D1*
X1150934Y4353096D1*
X1142944Y4352961D1*
X1134957Y4353196D1*
X1126988Y4353801D1*
X1119056Y4354774D1*
X1111177Y4356115D1*
X1103370Y4357820D1*
X1095650Y4359885D1*
X1088034Y4362304D1*
X1080538Y4365076D1*
X1073180Y4368192D1*
X1065972Y4371644D1*
X1058933Y4375428D1*
X1052077Y4379534D1*
X1045420Y4383954D1*
X1038974Y4388677D1*
X1032753Y4393694D1*
X1026773Y4398995D1*
X1021045Y4404567D1*
X1015580Y4410399D1*
X1010392Y4416478D1*
X1005492Y4422790D1*
X1000890Y4429323D1*
X996594Y4436062D1*
X992618Y4442993D1*
X988966Y4450101D1*
X985647Y4457371D1*
X982669Y4464787D1*
X980039Y4472333D1*
X977761Y4479993D1*
X975778Y4487958D1*
X812236D1*
X2311102Y2958770D2*
X2310747Y2950787D1*
X2310037Y2942827D1*
X2308972Y2934907D1*
X2307558Y2927042D1*
X2305795Y2919247D1*
X2303686Y2911538D1*
X2301238Y2903932D1*
X2298453Y2896441D1*
X2295339Y2889081D1*
X2291899Y2881869D1*
X2288142Y2874815D1*
X2284075Y2867936D1*
X2279706Y2861244D1*
X2275045Y2854753D1*
X2270098Y2848476D1*
X2264878Y2842427D1*
X2259394Y2836613D1*
X2253656Y2831051D1*
X2247676Y2825748D1*
X2241467Y2820718D1*
X2235041Y2815969D1*
X2228409Y2811509D1*
X2221585Y2807349D1*
X2214584Y2803496D1*
X2207417Y2799959D1*
X2200101Y2796744D1*
X2192650Y2793858D1*
X2185076Y2791307D1*
X2177398Y2789094D1*
X2169627Y2787226D1*
X2161782Y2785703D1*
X2153877Y2784533D1*
X2145928Y2783715D1*
X2137949Y2783251D1*
X2129958Y2783143D1*
X2121971Y2783390D1*
X2114003Y2783992D1*
X2106068Y2784948D1*
X2098184Y2786255D1*
X2090366Y2787912D1*
X2082630Y2789916D1*
X2074991Y2792261D1*
X2067463Y2794944D1*
X2060062Y2797959D1*
X2052803Y2801301D1*
X2045699Y2804961D1*
X2038765Y2808933D1*
X2032014Y2813211D1*
X2025462Y2817785D1*
X2019118Y2822646D1*
X2012997Y2827783D1*
X2007110Y2833188D1*
X2001470Y2838849D1*
X1996088Y2844756D1*
X1990972Y2850896D1*
X1986136Y2857259D1*
X1981588Y2863828D1*
X1977336Y2870594D1*
X1973388Y2877543D1*
X1969755Y2884661D1*
X1966441Y2891933D1*
X1963453Y2899345D1*
X1960799Y2906883D1*
X1958483Y2914531D1*
X1956508Y2922276D1*
X1954881Y2930098D1*
X1953602Y2937988D1*
X1952676Y2945925D1*
X1952104Y2953896D1*
X1951887Y2961885D1*
X1952026Y2969875D1*
X1952520Y2977852D1*
X1953367Y2985798D1*
X1954568Y2993698D1*
X1956119Y3001538D1*
X1958017Y3009301D1*
X1960259Y3016971D1*
X1962839Y3024535D1*
X1965753Y3031976D1*
X1968996Y3039280D1*
X1972559Y3046433D1*
X1976438Y3053420D1*
X1978404Y3056699D1*
X1790882Y3056707D1*
X1795474Y3048764D1*
X1799143Y3041665D1*
X1802492Y3034409D1*
X1805516Y3027012D1*
X1808207Y3019487D1*
X1810560Y3011850D1*
X1812573Y3004115D1*
X1814239Y2996301D1*
X1815556Y2988419D1*
X1816521Y2980486D1*
X1817133Y2972517D1*
X1817398Y2962766D1*
X1817219Y2954777D1*
X1816686Y2946803D1*
X1815799Y2938861D1*
X1814560Y2930966D1*
X1812971Y2923135D1*
X1811034Y2915381D1*
X1808756Y2907722D1*
X1806138Y2900171D1*
X1803188Y2892744D1*
X1799909Y2885455D1*
X1796310Y2878320D1*
X1792398Y2871353D1*
X1788178Y2864566D1*
X1783661Y2857972D1*
X1778857Y2851588D1*
X1773772Y2845423D1*
X1768419Y2839490D1*
X1762806Y2833801D1*
X1756946Y2828366D1*
X1750850Y2823198D1*
X1744531Y2818307D1*
X1738000Y2813701D1*
X1731270Y2809391D1*
X1724357Y2805383D1*
X1717272Y2801688D1*
X1710028Y2798311D1*
X1702642Y2795260D1*
X1695127Y2792541D1*
X1687500Y2790157D1*
X1679773Y2788117D1*
X1671963Y2786421D1*
X1664087Y2785075D1*
X1656157Y2784080D1*
X1648192Y2783438D1*
X1640205Y2783152D1*
X1632214Y2783222D1*
X1624234Y2783646D1*
X1616281Y2784425D1*
X1608370Y2785558D1*
X1600517Y2787041D1*
X1592738Y2788871D1*
X1585049Y2791046D1*
X1577462Y2793560D1*
X1569996Y2796409D1*
X1562664Y2799589D1*
X1555482Y2803091D1*
X1548461Y2806908D1*
X1541617Y2811035D1*
X1534963Y2815462D1*
X1528513Y2820180D1*
X1522280Y2825180D1*
X1516274Y2830453D1*
X1510509Y2835987D1*
X1504997Y2841773D1*
X1499747Y2847798D1*
X1494770Y2854050D1*
X1490076Y2860518D1*
X1485675Y2867188D1*
X1481573Y2874047D1*
X1477782Y2881083D1*
X1474307Y2888278D1*
X1471156Y2895622D1*
X1468335Y2903100D1*
X1465849Y2910694D1*
X1463703Y2918392D1*
X1461902Y2926178D1*
X1460448Y2934037D1*
X1459345Y2941951D1*
X1458597Y2949908D1*
X1458202Y2957890D1*
X1458163Y2965881D1*
X1458479Y2973866D1*
X1459150Y2981829D1*
X1460175Y2989755D1*
X1461551Y2997627D1*
X1463276Y3005430D1*
X1465346Y3013148D1*
X1467757Y3020768D1*
X1470505Y3028272D1*
X1473584Y3035646D1*
X1476988Y3042877D1*
X1480710Y3049948D1*
X1484655Y3056699D1*
X1303362Y3056707D1*
X1307974Y3048764D1*
X1311643Y3041665D1*
X1314992Y3034409D1*
X1318016Y3027012D1*
X1320707Y3019487D1*
X1323060Y3011850D1*
X1325073Y3004115D1*
X1326739Y2996301D1*
X1328056Y2988419D1*
X1329021Y2980486D1*
X1329633Y2972517D1*
X1329898Y2962766D1*
X1329719Y2954777D1*
X1329186Y2946803D1*
X1328299Y2938861D1*
X1327060Y2930966D1*
X1325471Y2923135D1*
X1323534Y2915381D1*
X1321256Y2907722D1*
X1318638Y2900171D1*
X1315688Y2892744D1*
X1312409Y2885455D1*
X1308810Y2878320D1*
X1304898Y2871353D1*
X1300678Y2864566D1*
X1296161Y2857972D1*
X1291357Y2851588D1*
X1286272Y2845423D1*
X1280919Y2839490D1*
X1275306Y2833801D1*
X1269446Y2828366D1*
X1263350Y2823198D1*
X1257031Y2818307D1*
X1250500Y2813701D1*
X1243770Y2809391D1*
X1236857Y2805383D1*
X1229772Y2801688D1*
X1222528Y2798311D1*
X1215142Y2795260D1*
X1207627Y2792541D1*
X1200000Y2790157D1*
X1192273Y2788117D1*
X1184463Y2786421D1*
X1176587Y2785075D1*
X1168657Y2784080D1*
X1160692Y2783438D1*
X1152705Y2783152D1*
X1144714Y2783222D1*
X1136734Y2783646D1*
X1128781Y2784425D1*
X1120870Y2785558D1*
X1113017Y2787041D1*
X1105238Y2788871D1*
X1097549Y2791046D1*
X1089962Y2793560D1*
X1082496Y2796409D1*
X1075164Y2799589D1*
X1067982Y2803091D1*
X1060961Y2806908D1*
X1054117Y2811035D1*
X1047463Y2815462D1*
X1041013Y2820180D1*
X1034780Y2825180D1*
X1028774Y2830453D1*
X1023009Y2835987D1*
X1017497Y2841773D1*
X1012247Y2847798D1*
X1007270Y2854050D1*
X1002576Y2860518D1*
X998175Y2867188D1*
X994073Y2874047D1*
X990282Y2881083D1*
X986807Y2888278D1*
X983656Y2895622D1*
X980835Y2903100D1*
X978349Y2910694D1*
X976203Y2918392D1*
X974402Y2926178D1*
X972948Y2934037D1*
X971845Y2941951D1*
X971097Y2949908D1*
X970702Y2957890D1*
X970663Y2965881D1*
X970979Y2973866D1*
X971650Y2981829D1*
X972675Y2989755D1*
X974051Y2997627D1*
X975776Y3005430D1*
X977846Y3013148D1*
X980257Y3020768D1*
X983005Y3028272D1*
X986084Y3035646D1*
X989488Y3042877D1*
X993210Y3049948D1*
X997244Y3056848D1*
X1001580Y3063560D1*
X1006210Y3070073D1*
X1011125Y3076374D1*
X1016315Y3082451D1*
X1021772Y3088290D1*
X1027482Y3093881D1*
X1033434Y3099213D1*
X1039619Y3104274D1*
X1046022Y3109055D1*
X1052633Y3113547D1*
X1059434Y3117740D1*
X1066417Y3121627D1*
X1073567Y3125198D1*
X1080866Y3128450D1*
X1088304Y3131373D1*
X1095865Y3133961D1*
X1103533Y3136211D1*
X1111294Y3138118D1*
X1119131Y3139678D1*
X1127031Y3140888D1*
X1134976Y3141745D1*
X1137265Y3141915D1*
X1174282Y3172723D1*
X1175929Y3173732D1*
X1177713Y3174471D1*
X1179591Y3174923D1*
X1181517Y3175073D1*
X1487949D1*
X1487971Y3225837D1*
X1488213Y3227753D1*
X1488749Y3229608D1*
X1489571Y3231357D1*
X1490655Y3232954D1*
X1516289Y3264934D1*
X1517717Y3266236D1*
X1519329Y3267297D1*
X1521089Y3268093D1*
X1522951Y3268604D1*
X1524875Y3268818D1*
X1739126Y3268748D1*
X1741022Y3268386D1*
X1742839Y3267730D1*
X1744531Y3266798D1*
X1746056Y3265613D1*
X1747377Y3264205D1*
X1773261Y3231697D1*
X1774138Y3229976D1*
X1774735Y3228139D1*
X1775037Y3226231D1*
X1775075Y3185304D1*
Y3168837D1*
X2088583Y3168797D1*
X2090495Y3168517D1*
X2092339Y3167944D1*
X2094070Y3167087D1*
X2095646Y3165971D1*
X2124201Y3142248D1*
X2132192Y3142396D1*
X2140180Y3142188D1*
X2148152Y3141625D1*
X2156091Y3140709D1*
X2163980Y3139440D1*
X2171806Y3137820D1*
X2179552Y3135856D1*
X2187203Y3133547D1*
X2194744Y3130902D1*
X2202160Y3127923D1*
X2209436Y3124617D1*
X2216556Y3120991D1*
X2223510Y3117052D1*
X2230282Y3112808D1*
X2236857Y3108266D1*
X2243224Y3103437D1*
X2249370Y3098329D1*
X2255283Y3092954D1*
X2260951Y3087320D1*
X2266364Y3081440D1*
X2271508Y3075325D1*
X2276375Y3068987D1*
X2280957Y3062438D1*
X2285241Y3055693D1*
X2289223Y3048764D1*
X2292892Y3041665D1*
X2296241Y3034409D1*
X2299265Y3027012D1*
X2301957Y3019487D1*
X2304310Y3011850D1*
X2306323Y3004115D1*
X2307988Y2996301D1*
X2309306Y2988419D1*
X2310270Y2980486D1*
X2310882Y2972517D1*
X2311147Y2962766D1*
X2311102Y2958770D1*
X423205Y4243823D2*
X2356324D1*
Y3781707D1*
X419209D1*
Y4243823D1*
X423205D1*
X412999Y5131323D2*
X2362516D1*
X2362521Y5212954D1*
X413022Y5212789D1*
X413012Y5131331D1*
X2362509Y4806707D2*
X413024D1*
X413012Y2799160D1*
X479773Y2865875D1*
X481336Y2867010D1*
X483056Y2867887D1*
X484894Y2868484D1*
X486801Y2868786D1*
X527727Y2868824D1*
X701232Y2868786D1*
X703139Y2868484D1*
X704976Y2867887D1*
X706697Y2867010D1*
X711215Y2863413D1*
X783864Y2802824D1*
X785135Y2801370D1*
X786164Y2799736D1*
X786925Y2797961D1*
X787399Y2796088D1*
X787573Y2794161D1*
X787537Y1905550D1*
X787235Y1903643D1*
X786638Y1901806D1*
X785761Y1900085D1*
X784626Y1898522D1*
X755713Y1869556D1*
X720760Y1834656D1*
X719197Y1833521D1*
X717476Y1832644D1*
X715639Y1832047D1*
X713732Y1831745D1*
X672806Y1831707D1*
X474301Y1831745D1*
X472394Y1832047D1*
X470556Y1832644D1*
X468836Y1833521D1*
X467273Y1834656D1*
X438307Y1863570D1*
X413020Y1888857D1*
X413012Y1774169D1*
X467273Y1828375D1*
X468836Y1829510D1*
X470556Y1830387D1*
X472394Y1830984D1*
X474301Y1831286D1*
X515227Y1831324D1*
X713732Y1831286D1*
X715639Y1830983D1*
X717476Y1830387D1*
X719197Y1829510D1*
X720760Y1828375D1*
X749726Y1799462D1*
X784626Y1764509D1*
X785761Y1762946D1*
X786638Y1761226D1*
X787234Y1759388D1*
X787537Y1757482D1*
X787575Y1716555D1*
X787537Y1355550D1*
X787234Y1353643D1*
X786638Y1351806D1*
X785761Y1350085D1*
X784626Y1348522D1*
X755713Y1319556D1*
X737579Y1301421D1*
X737537Y768050D1*
X737235Y766143D1*
X736638Y764306D1*
X735761Y762585D1*
X734626Y761022D1*
X705713Y732056D1*
X695760Y722156D1*
X694197Y721021D1*
X692476Y720144D1*
X690639Y719547D1*
X688732Y719245D1*
X647806Y719207D1*
X449301Y719245D1*
X447394Y719547D1*
X445556Y720144D1*
X443836Y721021D1*
X442273Y722156D1*
X413009Y751367D1*
X413012Y656146D1*
X2362531Y656323D1*
X2362521Y4806698D1*
X418385Y629147D2*
D16*
X2363007D1*
X418385Y619278D2*
X2363007D1*
X418385Y609409D2*
X590272D1*
X785260D2*
X1990272D1*
X2185260D2*
X2363007D1*
X418385Y599541D2*
X570155D1*
X805377D2*
X1970155D1*
X2205377D2*
X2363007D1*
X418385Y589672D2*
X556991D1*
X818542D2*
X1956991D1*
X2218542D2*
X2363007D1*
X418385Y579803D2*
X547206D1*
X828346D2*
X1947206D1*
X2228346D2*
X2363007D1*
X418385Y569934D2*
X539627D1*
X835904D2*
X1939627D1*
X2235904D2*
X2363007D1*
X418385Y560066D2*
X533709D1*
X841823D2*
X1933709D1*
X2241823D2*
X2363007D1*
X418385Y550197D2*
X529159D1*
X846374D2*
X1929159D1*
X2246374D2*
X2363007D1*
X418385Y540328D2*
X525780D1*
X849752D2*
X1925780D1*
X2249752D2*
X2363007D1*
X418385Y530459D2*
X523475D1*
X852056D2*
X1923475D1*
X2252056D2*
X2363007D1*
X418385Y520591D2*
X522147D1*
X853385D2*
X1922147D1*
X2253385D2*
X2363007D1*
X418385Y510722D2*
X521756D1*
X853776D2*
X1921756D1*
X2253776D2*
X2363007D1*
X418385Y500853D2*
X522323D1*
X853209D2*
X1922323D1*
X2253209D2*
X2363007D1*
X418385Y490984D2*
X523846D1*
X851686D2*
X1923846D1*
X2251686D2*
X2363007D1*
X418385Y481115D2*
X526346D1*
X849186D2*
X1926346D1*
X2249186D2*
X2363007D1*
X418385Y471247D2*
X529940D1*
X845592D2*
X1929940D1*
X2245592D2*
X2363007D1*
X418385Y461378D2*
X534724D1*
X840807D2*
X1934724D1*
X2240807D2*
X2363007D1*
X418385Y451509D2*
X540936D1*
X834596D2*
X1940936D1*
X2234596D2*
X2363007D1*
X418385Y441640D2*
X548866D1*
X826667D2*
X1948866D1*
X2226667D2*
X2363007D1*
X418385Y431772D2*
X559198D1*
X816335D2*
X1959198D1*
X2216335D2*
X2363007D1*
X418385Y421903D2*
X573260D1*
X802272D2*
X1973260D1*
X2202272D2*
X2363007D1*
X418385Y412034D2*
X595975D1*
X779556D2*
X1995975D1*
X2179556D2*
X2363007D1*
X1998962Y411488D2*
X1990833Y414080D1*
X1981629Y417979D1*
X1972841Y422744D1*
X1964552Y428331D1*
X1956837Y434688D1*
X1949769Y441755D1*
X1943412Y449470D1*
X1937824Y457759D1*
X1933059Y466546D1*
X1929160Y475749D1*
X1926161Y485286D1*
X1924093Y495066D1*
X1922974Y504999D1*
X1922814Y514993D1*
X1923613Y524958D1*
X1925366Y534799D1*
X1928056Y544427D1*
X1931657Y553751D1*
X1936138Y562686D1*
X1941455Y571151D1*
X1947562Y579066D1*
X1954400Y586357D1*
X1961906Y592958D1*
X1970012Y598808D1*
X1978642Y603853D1*
X1987715Y608046D1*
X1997151Y611348D1*
X2006860Y613730D1*
X2016752Y615167D1*
X2026756Y615647D1*
X2153781Y615528D1*
X2163731Y614570D1*
X2173543Y612659D1*
X2183126Y609815D1*
X2192392Y606064D1*
X2201255Y601442D1*
X2209634Y595990D1*
X2217449Y589757D1*
X2224630Y582803D1*
X2231110Y575193D1*
X2236831Y566995D1*
X2241736Y558285D1*
X2245783Y549144D1*
X2248934Y539659D1*
X2251159Y529913D1*
X2252438Y519999D1*
X2252773Y511665D1*
X2252293Y501681D1*
X2250856Y491789D1*
X2248475Y482080D1*
X2245173Y472644D1*
X2240982Y463570D1*
X2235937Y454940D1*
X2230088Y446833D1*
X2223487Y439327D1*
X2216196Y432490D1*
X2208281Y426382D1*
X2199818Y421064D1*
X2190882Y416583D1*
X2181558Y412980D1*
X2176681Y411496D1*
X2364016Y411516D1*
Y638996D1*
X417375Y638846D1*
Y411366D1*
X599308Y411362D1*
X590833Y414080D1*
X581629Y417979D1*
X572841Y422744D1*
X564552Y428331D1*
X556837Y434688D1*
X549769Y441755D1*
X543412Y449470D1*
X537824Y457759D1*
X533059Y466546D1*
X529160Y475749D1*
X526161Y485286D1*
X524093Y495066D1*
X522974Y504999D1*
X522814Y514993D1*
X523613Y524958D1*
X525366Y534799D1*
X528056Y544427D1*
X531657Y553751D1*
X536138Y562686D1*
X541455Y571151D1*
X547562Y579066D1*
X554400Y586357D1*
X561906Y592958D1*
X570012Y598808D1*
X578642Y603853D1*
X587715Y608046D1*
X597151Y611348D1*
X606860Y613730D1*
X616752Y615167D1*
X626756Y615647D1*
X753781Y615528D1*
X763731Y614570D1*
X773543Y612659D1*
X783126Y609815D1*
X792392Y606064D1*
X801255Y601442D1*
X809634Y595990D1*
X817449Y589757D1*
X824630Y582803D1*
X831110Y575193D1*
X836831Y566995D1*
X841736Y558285D1*
X845783Y549144D1*
X848934Y539659D1*
X851159Y529913D1*
X852438Y519999D1*
X852773Y511665D1*
X852293Y501681D1*
X850856Y491789D1*
X848475Y482080D1*
X845173Y472644D1*
X840982Y463570D1*
X835937Y454940D1*
X830088Y446833D1*
X823487Y439327D1*
X816196Y432490D1*
X808281Y426382D1*
X799818Y421064D1*
X790882Y416583D1*
X781558Y412980D1*
X776227Y411381D1*
X1998879Y411484D1*
X412135Y5422898D2*
X570117D1*
X805417D2*
X1970117D1*
X2205417D2*
X2363007D1*
X412135Y5413029D2*
X556463D1*
X819070D2*
X1956463D1*
X2219070D2*
X2363007D1*
X412135Y5403160D2*
X546289D1*
X829245D2*
X1946289D1*
X2229245D2*
X2363007D1*
X412135Y5393291D2*
X538398D1*
X837135D2*
X1938398D1*
X2237135D2*
X2363007D1*
X412135Y5383423D2*
X532186D1*
X843327D2*
X1932186D1*
X2243327D2*
X2363007D1*
X412135Y5373554D2*
X527362D1*
X848171D2*
X1927362D1*
X2248171D2*
X2363007D1*
X412135Y5363685D2*
X523710D1*
X851823D2*
X1923710D1*
X2251823D2*
X2363007D1*
X412135Y5353816D2*
X521113D1*
X854421D2*
X1921113D1*
X2254421D2*
X2363007D1*
X412135Y5343948D2*
X519491D1*
X856042D2*
X1919491D1*
X2256042D2*
X2363007D1*
X412135Y5334079D2*
X518789D1*
X856745D2*
X1918789D1*
X2256745D2*
X2363007D1*
X412135Y5324210D2*
X519003D1*
X856530D2*
X1919003D1*
X2256530D2*
X2363007D1*
X412135Y5314341D2*
X520155D1*
X855378D2*
X1920155D1*
X2255378D2*
X2363007D1*
X412135Y5304472D2*
X522226D1*
X853307D2*
X1922226D1*
X2253307D2*
X2363007D1*
X412135Y5294604D2*
X525331D1*
X850202D2*
X1925331D1*
X2250202D2*
X2363007D1*
X412135Y5284735D2*
X529530D1*
X846003D2*
X1929530D1*
X2246003D2*
X2363007D1*
X412135Y5274866D2*
X534999D1*
X840534D2*
X1934999D1*
X2240534D2*
X2363007D1*
X412135Y5264997D2*
X541953D1*
X833581D2*
X1941953D1*
X2233581D2*
X2363007D1*
X412135Y5255129D2*
X550839D1*
X824694D2*
X1950839D1*
X2224694D2*
X2363007D1*
X412135Y5245260D2*
X562459D1*
X813073D2*
X1962459D1*
X2213073D2*
X2363007D1*
X412135Y5235391D2*
X578789D1*
X796745D2*
X1978789D1*
X2196745D2*
X2363007D1*
X592726Y5230115D2*
X585858Y5232654D1*
X576808Y5236902D1*
X568196Y5241975D1*
X560093Y5247831D1*
X552573Y5254417D1*
X545701Y5261676D1*
X539537Y5269545D1*
X534133Y5277955D1*
X529538Y5286833D1*
X525791Y5296101D1*
X522927Y5305677D1*
X520969Y5315480D1*
X519934Y5325423D1*
X519831Y5335419D1*
X520663Y5345381D1*
X522420Y5355222D1*
X525088Y5364856D1*
X528643Y5374198D1*
X533055Y5383168D1*
X538285Y5391686D1*
X544287Y5399681D1*
X551009Y5407079D1*
X558394Y5413818D1*
X566374Y5419839D1*
X574881Y5425087D1*
X583841Y5429520D1*
X591832Y5432617D1*
X411126Y5432596D1*
Y5230115D1*
X592630Y5230112D1*
X855656Y5326517D2*
X854723Y5316564D1*
X852865Y5306743D1*
X850098Y5297136D1*
X846448Y5287831D1*
X841944Y5278907D1*
X836626Y5270442D1*
X830542Y5262510D1*
X823745Y5255181D1*
X816293Y5248518D1*
X808252Y5242580D1*
X799690Y5237417D1*
X790686Y5233077D1*
X782848Y5230126D1*
X1992278Y5230232D1*
X1985858Y5232654D1*
X1976808Y5236902D1*
X1968196Y5241975D1*
X1960093Y5247831D1*
X1952573Y5254417D1*
X1945701Y5261676D1*
X1939537Y5269545D1*
X1934133Y5277955D1*
X1929538Y5286833D1*
X1925791Y5296101D1*
X1922927Y5305677D1*
X1920969Y5315480D1*
X1919934Y5325423D1*
X1919831Y5335419D1*
X1920663Y5345381D1*
X1922420Y5355222D1*
X1925088Y5364856D1*
X1928643Y5374198D1*
X1933055Y5383168D1*
X1938285Y5391686D1*
X1944287Y5399681D1*
X1951009Y5407079D1*
X1958394Y5413818D1*
X1966374Y5419839D1*
X1974881Y5425087D1*
X1983841Y5429520D1*
X1992164Y5432735D1*
X783979Y5432546D1*
X793255Y5428820D1*
X802143Y5424245D1*
X810564Y5418861D1*
X818448Y5412714D1*
X825723Y5405857D1*
X832325Y5398352D1*
X838199Y5390264D1*
X843293Y5381661D1*
X847560Y5372622D1*
X850966Y5363224D1*
X853479Y5353549D1*
X855079Y5343681D1*
X855751Y5333707D1*
X855656Y5326517D1*
X2255656D2*
X2254723Y5316564D1*
X2252865Y5306743D1*
X2250098Y5297136D1*
X2246448Y5287831D1*
X2241944Y5278907D1*
X2236626Y5270442D1*
X2230542Y5262510D1*
X2223745Y5255181D1*
X2216293Y5248518D1*
X2208252Y5242580D1*
X2199690Y5237417D1*
X2190686Y5233077D1*
X2183217Y5230253D1*
X2364016Y5230265D1*
Y5432785D1*
X2183371Y5432751D1*
X2188660Y5430791D1*
X2197752Y5426636D1*
X2206417Y5421651D1*
X2214579Y5415879D1*
X2222165Y5409370D1*
X2229112Y5402182D1*
X2235357Y5394377D1*
X2240846Y5386022D1*
X2245531Y5377192D1*
X2249373Y5367963D1*
X2252336Y5358416D1*
X2254394Y5348634D1*
X2255531Y5338702D1*
X2255773Y5331516D1*
X2255656Y5326517D1*
X468463Y1804147D2*
X719570D1*
X458600Y1794278D2*
X729433D1*
X448738Y1784409D2*
X739295D1*
X438854Y1774541D2*
X749178D1*
X428991Y1764672D2*
X759042D1*
X419127Y1754803D2*
X768906D1*
X418776Y1744934D2*
X769257D1*
X418776Y1735066D2*
X769257D1*
X418776Y1725197D2*
X538690D1*
X636843D2*
X769257D1*
X418776Y1715328D2*
X512303D1*
X663230D2*
X769257D1*
X418776Y1705459D2*
X494139D1*
X681394D2*
X769257D1*
X418776Y1695591D2*
X479882D1*
X695651D2*
X769257D1*
X418776Y1685722D2*
X468143D1*
X707390D2*
X769257D1*
X418776Y1675853D2*
X458222D1*
X717311D2*
X769257D1*
X418776Y1665984D2*
X449726D1*
X725807D2*
X769257D1*
X418776Y1656115D2*
X442382D1*
X733151D2*
X769257D1*
X418776Y1646247D2*
X436054D1*
X739479D2*
X769257D1*
X418776Y1636378D2*
X430604D1*
X744929D2*
X769257D1*
X418776Y1626509D2*
X425928D1*
X749597D2*
X769257D1*
X418776Y1616640D2*
X421986D1*
X753542D2*
X769257D1*
X756803Y1606772D2*
X769257D1*
X759459Y1596903D2*
X769257D1*
X761491Y1587034D2*
X769257D1*
X762955Y1577165D2*
X769257D1*
X763835Y1567297D2*
X769264D1*
X764167Y1557428D2*
X769273D1*
X763933Y1547559D2*
X769251D1*
X763151Y1537690D2*
X769257D1*
X761803Y1527822D2*
X769257D1*
X759870Y1517953D2*
X769257D1*
X757350Y1508084D2*
X769257D1*
X754186Y1498215D2*
X769257D1*
X418776Y1488346D2*
X425147D1*
X750378D2*
X769257D1*
X418776Y1478478D2*
X429686D1*
X745846D2*
X769257D1*
X418776Y1468609D2*
X434979D1*
X740554D2*
X769257D1*
X418776Y1458740D2*
X441151D1*
X734382D2*
X769257D1*
X418776Y1448871D2*
X448280D1*
X727253D2*
X769257D1*
X418776Y1439003D2*
X456562D1*
X718971D2*
X769257D1*
X418776Y1429134D2*
X466190D1*
X709343D2*
X769257D1*
X418776Y1419265D2*
X477558D1*
X697975D2*
X769257D1*
X418776Y1409396D2*
X491268D1*
X684265D2*
X769257D1*
X418776Y1399528D2*
X508534D1*
X666999D2*
X769257D1*
X418776Y1389659D2*
X532694D1*
X642839D2*
X769257D1*
X418776Y1379790D2*
X769257D1*
X418776Y1369921D2*
X769257D1*
X418776Y1360052D2*
X769257D1*
X418776Y1350184D2*
X760858D1*
X418776Y1340315D2*
X750995D1*
X418776Y1330446D2*
X741131D1*
X418776Y1320577D2*
X731249D1*
X418776Y1310709D2*
X538749D1*
X617390D2*
X721386D1*
X418776Y1300840D2*
X516698D1*
X639440D2*
X719257D1*
X418776Y1290971D2*
X502050D1*
X654070D2*
X719257D1*
X418776Y1281102D2*
X490975D1*
X665163D2*
X719257D1*
X418776Y1271234D2*
X482167D1*
X673951D2*
X719257D1*
X418776Y1261365D2*
X475077D1*
X681062D2*
X719257D1*
X418776Y1251496D2*
X469335D1*
X686783D2*
X719257D1*
X418776Y1241627D2*
X464765D1*
X691374D2*
X719257D1*
X418776Y1231759D2*
X461210D1*
X694929D2*
X719257D1*
X418776Y1221890D2*
X458573D1*
X697566D2*
X719257D1*
X418776Y1212021D2*
X456795D1*
X699343D2*
X719257D1*
X418776Y1202152D2*
X455858D1*
X700280D2*
X719257D1*
X418776Y1192283D2*
X455702D1*
X700417D2*
X719257D1*
X418776Y1182415D2*
X456386D1*
X699753D2*
X719257D1*
X418776Y1172546D2*
X457850D1*
X698268D2*
X719257D1*
X418776Y1162677D2*
X460194D1*
X695944D2*
X719257D1*
X418776Y1152808D2*
X463436D1*
X692702D2*
X719257D1*
X418776Y1142940D2*
X467635D1*
X688483D2*
X719257D1*
X418776Y1133071D2*
X472967D1*
X683171D2*
X719257D1*
X418776Y1123202D2*
X479550D1*
X676589D2*
X719257D1*
X418776Y1113333D2*
X487714D1*
X668425D2*
X719257D1*
X418776Y1103465D2*
X497909D1*
X658210D2*
X719257D1*
X418776Y1093596D2*
X511112D1*
X645026D2*
X719257D1*
X418776Y1083727D2*
X529726D1*
X626413D2*
X719257D1*
X418776Y1073858D2*
X719257D1*
X418776Y1063990D2*
X719257D1*
X418776Y1054121D2*
X547734D1*
X608386D2*
X719257D1*
X418776Y1044252D2*
X521503D1*
X634635D2*
X719257D1*
X418776Y1034383D2*
X505507D1*
X650631D2*
X719257D1*
X418776Y1024514D2*
X493651D1*
X662487D2*
X719257D1*
X418776Y1014646D2*
X484315D1*
X671823D2*
X719257D1*
X418776Y1004777D2*
X476815D1*
X679323D2*
X719257D1*
X418776Y994908D2*
X470741D1*
X685398D2*
X719257D1*
X418776Y985039D2*
X465878D1*
X690261D2*
X719257D1*
X418776Y975171D2*
X462050D1*
X694089D2*
X719257D1*
X418776Y965302D2*
X459178D1*
X696959D2*
X719257D1*
X418776Y955433D2*
X457186D1*
X698951D2*
X719257D1*
X418776Y945564D2*
X456014D1*
X700123D2*
X719257D1*
X418776Y935696D2*
X455663D1*
X700455D2*
X719257D1*
X418776Y925827D2*
X456112D1*
X700007D2*
X719257D1*
X418776Y915958D2*
X457382D1*
X698757D2*
X719257D1*
X418776Y906089D2*
X459491D1*
X696647D2*
X719257D1*
X418776Y896220D2*
X462479D1*
X693659D2*
X719257D1*
X418776Y886352D2*
X466425D1*
X689714D2*
X719257D1*
X418776Y876483D2*
X471444D1*
X684694D2*
X719257D1*
X418776Y866614D2*
X477675D1*
X678463D2*
X719257D1*
X418776Y856745D2*
X485390D1*
X670749D2*
X719257D1*
X418776Y846877D2*
X494979D1*
X661159D2*
X719257D1*
X418776Y837008D2*
X507245D1*
X648894D2*
X719257D1*
X418776Y827139D2*
X523983D1*
X632155D2*
X719257D1*
X418776Y817270D2*
X553280D1*
X602858D2*
X719257D1*
X418776Y807402D2*
X719257D1*
X418776Y797533D2*
X719257D1*
X418776Y787664D2*
X719257D1*
X418776Y777795D2*
X719257D1*
X421921Y767927D2*
X716112D1*
X431803Y758058D2*
X706230D1*
X441667Y748189D2*
X696366D1*
X451530Y738320D2*
X686503D1*
X699364Y931318D2*
X698542Y921354D1*
X696902Y911492D1*
X694457Y901799D1*
X691222Y892340D1*
X687219Y883178D1*
X682478Y874378D1*
X677028Y865997D1*
X670906Y858093D1*
X664155Y850719D1*
X656820Y843927D1*
X648951Y837760D1*
X640602Y832261D1*
X631828Y827470D1*
X622690Y823415D1*
X613249Y820126D1*
X603570Y817625D1*
X593718Y815929D1*
X583760Y815050D1*
X573762Y814992D1*
X563795Y815759D1*
X553924Y817341D1*
X544217Y819731D1*
X534739Y822912D1*
X525555Y826861D1*
X516727Y831552D1*
X508315Y836955D1*
X500377Y843031D1*
X492965Y849740D1*
X486129Y857035D1*
X479917Y864869D1*
X474371Y873186D1*
X469529Y881933D1*
X465423Y891047D1*
X462080Y900470D1*
X459524Y910134D1*
X457772Y919976D1*
X456835Y929930D1*
X456720Y939927D1*
X457429Y949899D1*
X458955Y959778D1*
X461290Y969499D1*
X464416Y978995D1*
X468314Y988201D1*
X472954Y997056D1*
X478308Y1005499D1*
X484339Y1013472D1*
X491005Y1020923D1*
X498261Y1027799D1*
X506059Y1034055D1*
X514345Y1039648D1*
X523063Y1044541D1*
X532155Y1048699D1*
X541556Y1052096D1*
X551207Y1054707D1*
X561039Y1056516D1*
X570987Y1057509D1*
X580983Y1057681D1*
X590958Y1057030D1*
X600846Y1055560D1*
X610581Y1053281D1*
X620094Y1050210D1*
X629323Y1046365D1*
X638205Y1041774D1*
X646677Y1036469D1*
X654685Y1030484D1*
X662173Y1023861D1*
X669092Y1016644D1*
X675392Y1008882D1*
X681033Y1000629D1*
X685975Y991938D1*
X690185Y982871D1*
X693636Y973488D1*
X696303Y963853D1*
X698168Y954031D1*
X699218Y944089D1*
X699467Y936316D1*
X699364Y931318D1*
Y1190517D2*
X698542Y1180554D1*
X696902Y1170692D1*
X694457Y1160999D1*
X691222Y1151539D1*
X687219Y1142378D1*
X682478Y1133577D1*
X677028Y1125197D1*
X670906Y1117293D1*
X664155Y1109919D1*
X656820Y1103126D1*
X648951Y1096959D1*
X640602Y1091461D1*
X631828Y1086669D1*
X622690Y1082614D1*
X613249Y1079325D1*
X603570Y1076824D1*
X593718Y1075129D1*
X583760Y1074249D1*
X573762Y1074192D1*
X563795Y1074958D1*
X553924Y1076541D1*
X544217Y1078930D1*
X534739Y1082112D1*
X525555Y1086060D1*
X516727Y1090752D1*
X508315Y1096155D1*
X500377Y1102231D1*
X492965Y1108940D1*
X486129Y1116235D1*
X479917Y1124068D1*
X474371Y1132386D1*
X469529Y1141133D1*
X465423Y1150247D1*
X462080Y1159669D1*
X459524Y1169333D1*
X457772Y1179176D1*
X456835Y1189130D1*
X456720Y1199126D1*
X457429Y1209098D1*
X458955Y1218978D1*
X461290Y1228698D1*
X464416Y1238194D1*
X468314Y1247400D1*
X472954Y1256256D1*
X478308Y1264698D1*
X484339Y1272672D1*
X491005Y1280122D1*
X498261Y1286999D1*
X506059Y1293255D1*
X514345Y1298848D1*
X523063Y1303740D1*
X532155Y1307899D1*
X541556Y1311295D1*
X551207Y1313907D1*
X561039Y1315715D1*
X570987Y1316709D1*
X580983Y1316881D1*
X590958Y1316230D1*
X600846Y1314760D1*
X610581Y1312480D1*
X620094Y1309409D1*
X629323Y1305564D1*
X638205Y1300974D1*
X646677Y1295668D1*
X654685Y1289684D1*
X662173Y1283060D1*
X669092Y1275844D1*
X675392Y1268081D1*
X681033Y1259828D1*
X685975Y1251138D1*
X690185Y1242071D1*
X693636Y1232688D1*
X696303Y1223052D1*
X698168Y1213231D1*
X699218Y1203289D1*
X699467Y1195516D1*
X699364Y1190517D1*
X763094Y1551517D2*
X762525Y1541534D1*
X761387Y1531600D1*
X759686Y1521748D1*
X757425Y1512008D1*
X754614Y1502412D1*
X751260Y1492993D1*
X747374Y1483781D1*
X742971Y1474804D1*
X738062Y1466093D1*
X732665Y1457676D1*
X726798Y1449580D1*
X720479Y1441831D1*
X713728Y1434455D1*
X706568Y1427476D1*
X699022Y1420916D1*
X691115Y1414797D1*
X682871Y1409138D1*
X674319Y1403958D1*
X665486Y1399274D1*
X656400Y1395101D1*
X647091Y1391453D1*
X637588Y1388340D1*
X627925Y1385774D1*
X618130Y1383764D1*
X608238Y1382315D1*
X598278Y1381430D1*
X588283Y1381117D1*
X578289Y1381371D1*
X568324Y1382197D1*
X558423Y1383588D1*
X548617Y1385541D1*
X538938Y1388050D1*
X529417Y1391105D1*
X520087Y1394699D1*
X510976Y1398819D1*
X502115Y1403450D1*
X493533Y1408580D1*
X485256Y1414189D1*
X477312Y1420262D1*
X469728Y1426777D1*
X462528Y1433714D1*
X455734Y1441050D1*
X449369Y1448761D1*
X443453Y1456822D1*
X438007Y1465207D1*
X433047Y1473890D1*
X428591Y1482840D1*
X424651Y1492029D1*
X421241Y1501429D1*
X418373Y1511007D1*
X417764Y1513412D1*
X417766Y771096D1*
X452336Y736517D1*
X685686Y736516D1*
X720265Y771085D1*
X720328Y1307298D1*
X720811Y1308786D1*
X721732Y1310052D1*
X770276Y1358596D1*
X770266Y1754427D1*
X710701Y1814010D1*
X477346Y1814016D1*
X417772Y1754450D1*
X417848Y1600021D1*
X420602Y1609633D1*
X423902Y1619072D1*
X427732Y1628307D1*
X432083Y1637310D1*
X436940Y1646050D1*
X442286Y1654499D1*
X448106Y1662630D1*
X454379Y1670415D1*
X461087Y1677831D1*
X468205Y1684852D1*
X475711Y1691457D1*
X483583Y1697622D1*
X491793Y1703329D1*
X500315Y1708559D1*
X509121Y1713295D1*
X518181Y1717522D1*
X527469Y1721226D1*
X536953Y1724394D1*
X546601Y1727017D1*
X556383Y1729085D1*
X566268Y1730593D1*
X576222Y1731535D1*
X586214Y1731909D1*
X596210Y1731713D1*
X606180Y1730946D1*
X616089Y1729614D1*
X625907Y1727719D1*
X635600Y1725268D1*
X645138Y1722268D1*
X654490Y1718730D1*
X663625Y1714664D1*
X672512Y1710084D1*
X681125Y1705005D1*
X689434Y1699445D1*
X697413Y1693419D1*
X705037Y1686949D1*
X712278Y1680055D1*
X719115Y1672759D1*
X725526Y1665085D1*
X731488Y1657059D1*
X736984Y1648706D1*
X741995Y1640054D1*
X746505Y1631130D1*
X750499Y1621963D1*
X753963Y1612585D1*
X756888Y1603024D1*
X759264Y1593311D1*
X761081Y1583479D1*
X762336Y1573559D1*
X763024Y1563584D1*
X763167Y1556516D1*
X763094Y1551517D1*
X480963Y2841647D2*
X709295D1*
X471100Y2831778D2*
X721131D1*
X461238Y2821909D2*
X732987D1*
X451354Y2812041D2*
X744823D1*
X441491Y2802172D2*
X756659D1*
X431627Y2792303D2*
X768514D1*
X421765Y2782434D2*
X769257D1*
X418776Y2772566D2*
X769257D1*
X418776Y2762697D2*
X769257D1*
X418776Y2752828D2*
X769257D1*
X418776Y2742959D2*
X769257D1*
X418776Y2733091D2*
X769257D1*
X418776Y2723222D2*
X769257D1*
X418776Y2713353D2*
X769257D1*
X418776Y2703484D2*
X769257D1*
X418776Y2693615D2*
X769257D1*
X418776Y2683747D2*
X769257D1*
X418776Y2673878D2*
X534276D1*
X641257D2*
X769257D1*
X418776Y2664009D2*
X509550D1*
X665983D2*
X769257D1*
X418776Y2654140D2*
X492050D1*
X683483D2*
X769257D1*
X418776Y2644272D2*
X478182D1*
X697350D2*
X769257D1*
X418776Y2634403D2*
X466718D1*
X708815D2*
X769257D1*
X418776Y2624534D2*
X457010D1*
X718522D2*
X769257D1*
X418776Y2614665D2*
X448671D1*
X726862D2*
X769257D1*
X418776Y2604797D2*
X441483D1*
X734050D2*
X769257D1*
X418776Y2594928D2*
X435272D1*
X740261D2*
X769257D1*
X418776Y2585059D2*
X429940D1*
X745593D2*
X769257D1*
X418776Y2575190D2*
X425381D1*
X750163D2*
X769257D1*
X754010Y2565322D2*
X769257D1*
X757194Y2555453D2*
X769257D1*
X759753Y2545584D2*
X769257D1*
X761726Y2535715D2*
X769257D1*
X763093Y2525846D2*
X769257D1*
X763913Y2515978D2*
X769283D1*
X764167Y2506109D2*
X769273D1*
X763874Y2496240D2*
X769274D1*
X763014Y2486371D2*
X769257D1*
X761589Y2476503D2*
X769257D1*
X759577Y2466634D2*
X769257D1*
X756959Y2456765D2*
X769257D1*
X418776Y2446896D2*
X421791D1*
X753718D2*
X769257D1*
X418776Y2437028D2*
X425732D1*
X749811D2*
X769257D1*
X418776Y2427159D2*
X430350D1*
X745182D2*
X769257D1*
X418776Y2417290D2*
X435761D1*
X739772D2*
X769257D1*
X418776Y2407421D2*
X442050D1*
X733483D2*
X769257D1*
X418776Y2397552D2*
X449315D1*
X726218D2*
X769257D1*
X418776Y2387684D2*
X457753D1*
X717780D2*
X769257D1*
X418776Y2377815D2*
X467597D1*
X707936D2*
X769257D1*
X418776Y2367946D2*
X479238D1*
X696295D2*
X769257D1*
X418776Y2358077D2*
X493319D1*
X682214D2*
X769257D1*
X418776Y2348209D2*
X511249D1*
X664283D2*
X769257D1*
X418776Y2338340D2*
X536951D1*
X638581D2*
X769257D1*
X418776Y2328471D2*
X769257D1*
X418776Y2318602D2*
X769257D1*
X418776Y2308734D2*
X769257D1*
X418776Y2298865D2*
X769257D1*
X418776Y2288996D2*
X769257D1*
X418776Y2279127D2*
X769257D1*
X418776Y2269259D2*
X769257D1*
X418776Y2259390D2*
X769257D1*
X418776Y2249521D2*
X769257D1*
X418776Y2239652D2*
X769257D1*
X418776Y2229783D2*
X769257D1*
X418776Y2219915D2*
X769257D1*
X418776Y2210046D2*
X769257D1*
X418776Y2200177D2*
X538612D1*
X636921D2*
X769257D1*
X418776Y2190308D2*
X512265D1*
X663268D2*
X769257D1*
X418776Y2180440D2*
X494100D1*
X681433D2*
X769257D1*
X418776Y2170571D2*
X479862D1*
X695671D2*
X769257D1*
X418776Y2160702D2*
X468123D1*
X707409D2*
X769257D1*
X418776Y2150833D2*
X458202D1*
X717331D2*
X769257D1*
X418776Y2140965D2*
X449706D1*
X725827D2*
X769257D1*
X418776Y2131096D2*
X442382D1*
X733151D2*
X769257D1*
X418776Y2121227D2*
X436054D1*
X739479D2*
X769257D1*
X418776Y2111358D2*
X430585D1*
X744948D2*
X769257D1*
X418776Y2101490D2*
X425928D1*
X749597D2*
X769257D1*
X418776Y2091621D2*
X421986D1*
X753542D2*
X769257D1*
X756823Y2081752D2*
X769257D1*
X759459Y2071883D2*
X769257D1*
X761491Y2062014D2*
X769257D1*
X762955Y2052146D2*
X769257D1*
X763835Y2042277D2*
X769264D1*
X764167Y2032408D2*
X769273D1*
X763933Y2022539D2*
X769251D1*
X763151Y2012671D2*
X769257D1*
X761803Y2002802D2*
X769257D1*
X759870Y1992933D2*
X769257D1*
X757350Y1983064D2*
X769257D1*
X754186Y1973196D2*
X769257D1*
X418776Y1963327D2*
X425147D1*
X750378D2*
X769257D1*
X418776Y1953458D2*
X429686D1*
X745846D2*
X769257D1*
X418776Y1943589D2*
X434999D1*
X740534D2*
X769257D1*
X418776Y1933720D2*
X441151D1*
X734382D2*
X769257D1*
X418776Y1923852D2*
X448299D1*
X727234D2*
X769257D1*
X418776Y1913983D2*
X456562D1*
X718971D2*
X769257D1*
X423249Y1904114D2*
X466210D1*
X709323D2*
X764783D1*
X433112Y1894245D2*
X477577D1*
X697955D2*
X754921D1*
X442975Y1884377D2*
X491287D1*
X684245D2*
X745058D1*
X452839Y1874508D2*
X508573D1*
X666959D2*
X735194D1*
X462722Y1864639D2*
X532753D1*
X642780D2*
X725311D1*
X472585Y1854770D2*
X715448D1*
X763094Y2026517D2*
X762525Y2016534D1*
X761387Y2006600D1*
X759686Y1996748D1*
X757425Y1987008D1*
X754614Y1977412D1*
X751260Y1967993D1*
X747374Y1958781D1*
X742971Y1949804D1*
X738062Y1941093D1*
X732665Y1932676D1*
X726798Y1924580D1*
X720479Y1916831D1*
X713728Y1909455D1*
X706568Y1902476D1*
X699022Y1895916D1*
X691115Y1889797D1*
X682871Y1884138D1*
X674319Y1878958D1*
X665486Y1874274D1*
X656400Y1870101D1*
X647091Y1866453D1*
X637588Y1863340D1*
X627925Y1860774D1*
X618130Y1858764D1*
X608238Y1857315D1*
X598278Y1856430D1*
X588283Y1856117D1*
X578289Y1856371D1*
X568324Y1857197D1*
X558423Y1858588D1*
X548617Y1860541D1*
X538938Y1863050D1*
X529417Y1866105D1*
X520087Y1869699D1*
X510976Y1873819D1*
X502115Y1878450D1*
X493533Y1883580D1*
X485256Y1889189D1*
X477312Y1895262D1*
X469728Y1901777D1*
X462528Y1908714D1*
X455734Y1916050D1*
X449369Y1923761D1*
X443453Y1931822D1*
X438007Y1940207D1*
X433047Y1948890D1*
X428591Y1957840D1*
X424651Y1967029D1*
X421241Y1976429D1*
X418373Y1986007D1*
X417764Y1988412D1*
X417766Y1908605D1*
X477332Y1849021D1*
X710686Y1849016D1*
X770261Y1908581D1*
X770266Y2791682D1*
X698462Y2851512D1*
X489846Y2851516D1*
X417760Y2779438D1*
X417848Y2550021D1*
X420602Y2559633D1*
X423902Y2569072D1*
X427732Y2578307D1*
X432083Y2587310D1*
X436940Y2596050D1*
X442286Y2604499D1*
X448106Y2612630D1*
X454379Y2620415D1*
X461087Y2627831D1*
X468205Y2634852D1*
X475711Y2641457D1*
X483583Y2647622D1*
X491793Y2653329D1*
X500315Y2658559D1*
X509121Y2663295D1*
X518181Y2667522D1*
X527469Y2671226D1*
X536953Y2674394D1*
X546601Y2677017D1*
X556383Y2679085D1*
X566268Y2680593D1*
X576222Y2681535D1*
X586214Y2681909D1*
X596210Y2681713D1*
X606180Y2680946D1*
X616089Y2679614D1*
X625907Y2677719D1*
X635600Y2675268D1*
X645138Y2672268D1*
X654490Y2668730D1*
X663625Y2664664D1*
X672512Y2660084D1*
X681125Y2655005D1*
X689434Y2649445D1*
X697413Y2643419D1*
X705037Y2636949D1*
X712278Y2630055D1*
X719115Y2622759D1*
X725526Y2615085D1*
X731488Y2607059D1*
X736984Y2598706D1*
X741995Y2590054D1*
X746505Y2581130D1*
X750499Y2571963D1*
X753963Y2562585D1*
X756888Y2553024D1*
X759264Y2543311D1*
X761081Y2533479D1*
X762336Y2523559D1*
X763024Y2513584D1*
X763167Y2506516D1*
X762882Y2496521D1*
X762028Y2486559D1*
X760608Y2476661D1*
X758625Y2466862D1*
X756088Y2457190D1*
X753004Y2447678D1*
X749383Y2438360D1*
X745236Y2429261D1*
X740579Y2420413D1*
X735424Y2411845D1*
X729790Y2403585D1*
X723694Y2395660D1*
X717156Y2388094D1*
X710198Y2380915D1*
X702843Y2374142D1*
X695113Y2367801D1*
X687034Y2361909D1*
X678633Y2356487D1*
X669936Y2351554D1*
X660972Y2347123D1*
X651772Y2343211D1*
X642362Y2339829D1*
X632774Y2336988D1*
X623042Y2334699D1*
X613194Y2332969D1*
X603264Y2331802D1*
X593283Y2331202D1*
X583285Y2331173D1*
X573301Y2331714D1*
X563364Y2332822D1*
X553505Y2334495D1*
X543760Y2336726D1*
X534156Y2339509D1*
X524727Y2342836D1*
X515503Y2346694D1*
X506513Y2351071D1*
X497787Y2355954D1*
X489354Y2361325D1*
X481241Y2367169D1*
X473474Y2373466D1*
X466079Y2380194D1*
X459077Y2387333D1*
X452496Y2394860D1*
X446353Y2402749D1*
X440671Y2410976D1*
X435465Y2419513D1*
X430755Y2428332D1*
X426555Y2437407D1*
X422879Y2446705D1*
X419739Y2456197D1*
X417764Y2463412D1*
X417848Y2075021D1*
X420602Y2084633D1*
X423902Y2094072D1*
X427732Y2103307D1*
X432083Y2112310D1*
X436940Y2121050D1*
X442286Y2129499D1*
X448106Y2137630D1*
X454379Y2145415D1*
X461087Y2152831D1*
X468205Y2159852D1*
X475711Y2166457D1*
X483583Y2172622D1*
X491793Y2178329D1*
X500315Y2183559D1*
X509121Y2188295D1*
X518181Y2192522D1*
X527469Y2196226D1*
X536953Y2199394D1*
X546601Y2202017D1*
X556383Y2204085D1*
X566268Y2205593D1*
X576222Y2206535D1*
X586214Y2206909D1*
X596210Y2206713D1*
X606180Y2205946D1*
X616089Y2204614D1*
X625907Y2202719D1*
X635600Y2200268D1*
X645138Y2197268D1*
X654490Y2193730D1*
X663625Y2189664D1*
X672512Y2185084D1*
X681125Y2180005D1*
X689434Y2174445D1*
X697413Y2168419D1*
X705037Y2161949D1*
X712278Y2155055D1*
X719115Y2147759D1*
X725526Y2140085D1*
X731488Y2132059D1*
X736984Y2123706D1*
X741995Y2115054D1*
X746505Y2106130D1*
X750499Y2096963D1*
X753963Y2087585D1*
X756888Y2078024D1*
X759264Y2068311D1*
X761081Y2058479D1*
X762336Y2048559D1*
X763024Y2038584D1*
X763167Y2031516D1*
X763094Y2026517D1*
X1161765Y1535396D2*
X1213768D1*
X1561765D2*
X1613768D1*
X1961765D2*
X2013768D1*
X1163131Y1525528D2*
X1212402D1*
X1563131D2*
X1612402D1*
X1963131D2*
X2012402D1*
X1163933Y1515659D2*
X1211600D1*
X1563933D2*
X1611600D1*
X1963933D2*
X2011600D1*
X1164167Y1505790D2*
X1211366D1*
X1564167D2*
X1611366D1*
X1964167D2*
X2011366D1*
X1163854Y1495921D2*
X1211678D1*
X1563854D2*
X1611678D1*
X1963854D2*
X2011678D1*
X1198503Y1486052D2*
X1212558D1*
X1562975D2*
X1612558D1*
X1962975D2*
X1971131D1*
X1561530Y1476184D2*
X1614003D1*
X1559499Y1466315D2*
X1616034D1*
X1556862Y1456446D2*
X1618671D1*
X1553600Y1446577D2*
X1621933D1*
X1549675Y1436709D2*
X1625858D1*
X1545026Y1426840D2*
X1630507D1*
X1539597Y1416971D2*
X1635936D1*
X1533268Y1407102D2*
X1642265D1*
X1525963Y1397234D2*
X1649570D1*
X1517487Y1387365D2*
X1658046D1*
X1507585Y1377496D2*
X1667948D1*
X1495886Y1367627D2*
X1679647D1*
X1481706Y1357759D2*
X1693827D1*
X1463619Y1347890D2*
X1711913D1*
X1437526Y1338021D2*
X1738007D1*
X1437526Y1328152D2*
X1738007D1*
X1437526Y1318283D2*
X1738007D1*
X1437526Y1308415D2*
X1738007D1*
X1437526Y1298546D2*
X1738007D1*
X1443190Y1288677D2*
X1736854D1*
X1451081Y1278808D2*
X1726991D1*
X1458971Y1268940D2*
X1717127D1*
X1163094Y1501517D2*
X1162613Y1492761D1*
X1182299Y1492703D1*
X1183432Y1492385D1*
X1214648Y1478339D1*
X1213626Y1485530D1*
X1212714Y1495488D1*
X1212370Y1505480D1*
X1212596Y1515476D1*
X1213391Y1525444D1*
X1214752Y1535349D1*
X1216699Y1545256D1*
X1158840Y1545265D1*
X1161081Y1533479D1*
X1162336Y1523559D1*
X1163024Y1513584D1*
X1163167Y1506516D1*
X1163094Y1501517D1*
X1563094D2*
X1562525Y1491534D1*
X1561387Y1481600D1*
X1559686Y1471748D1*
X1557425Y1462008D1*
X1554614Y1452412D1*
X1551260Y1442993D1*
X1547374Y1433781D1*
X1542971Y1424804D1*
X1538062Y1416093D1*
X1532665Y1407676D1*
X1526798Y1399580D1*
X1520479Y1391831D1*
X1513728Y1384455D1*
X1506568Y1377476D1*
X1499022Y1370916D1*
X1491115Y1364797D1*
X1482871Y1359138D1*
X1474319Y1353958D1*
X1465486Y1349274D1*
X1456400Y1345101D1*
X1447091Y1341453D1*
X1436517Y1338039D1*
Y1295755D1*
X1458908Y1267780D1*
X1716936Y1267765D1*
X1739028Y1289848D1*
X1738938Y1338050D1*
X1729417Y1341105D1*
X1720087Y1344699D1*
X1710976Y1348819D1*
X1702115Y1353450D1*
X1693533Y1358580D1*
X1685256Y1364189D1*
X1677312Y1370262D1*
X1669728Y1376777D1*
X1662528Y1383714D1*
X1655734Y1391050D1*
X1649369Y1398761D1*
X1643453Y1406822D1*
X1638007Y1415207D1*
X1633047Y1423890D1*
X1628591Y1432840D1*
X1624651Y1442029D1*
X1621241Y1451429D1*
X1618373Y1461007D1*
X1616055Y1470734D1*
X1614295Y1480576D1*
X1613098Y1490503D1*
X1612470Y1500482D1*
X1612411Y1510480D1*
X1612923Y1520466D1*
X1614001Y1530406D1*
X1615644Y1540269D1*
X1616699Y1545256D1*
X1558840Y1545265D1*
X1561081Y1533479D1*
X1562336Y1523559D1*
X1563024Y1513584D1*
X1563167Y1506516D1*
X1563094Y1501517D1*
X1963094D2*
X1962525Y1491534D1*
X1961299Y1481041D1*
X1986407Y1492577D1*
X1987568Y1492761D1*
X2012903Y1492765D1*
X2012470Y1500482D1*
X2012411Y1510480D1*
X2012923Y1520466D1*
X2014001Y1530406D1*
X2015644Y1540269D1*
X2016699Y1545256D1*
X1958840Y1545265D1*
X1961081Y1533479D1*
X1962336Y1523559D1*
X1963024Y1513584D1*
X1963167Y1506516D1*
X1963094Y1501517D1*
X1161764Y2004146D2*
X1213768D1*
X1561764D2*
X1613768D1*
X1961764D2*
X2013768D1*
X1163131Y1994277D2*
X1212400D1*
X1563131D2*
X1612400D1*
X1963131D2*
X2012400D1*
X1163932Y1984408D2*
X1211600D1*
X1563932D2*
X1611600D1*
X1963932D2*
X2011600D1*
X1164167Y1974539D2*
X1211365D1*
X1564167D2*
X1611365D1*
X1964167D2*
X2011365D1*
X1163853Y1964671D2*
X1211678D1*
X1563853D2*
X1611678D1*
X1963853D2*
X2011678D1*
X1198503Y1954802D2*
X1212556D1*
X1562975D2*
X1612556D1*
X1962975D2*
X1971131D1*
X1561529Y1944933D2*
X1614003D1*
X1559499Y1935064D2*
X1616033D1*
X1556861Y1925196D2*
X1618671D1*
X1553600Y1915327D2*
X1621932D1*
X1549675Y1905458D2*
X1625857D1*
X1545025Y1895589D2*
X1630507D1*
X1539596Y1885720D2*
X1635936D1*
X1533268Y1875852D2*
X1642264D1*
X1525963Y1865983D2*
X1649568D1*
X1517487Y1856114D2*
X1658045D1*
X1507584Y1846245D2*
X1667948D1*
X1495885Y1836377D2*
X1679647D1*
X1481705Y1826508D2*
X1693827D1*
X1463619Y1816639D2*
X1711912D1*
X1437525Y1806770D2*
X1738025D1*
X1437525Y1796902D2*
X1738025D1*
X1437525Y1787033D2*
X1738025D1*
X1437525Y1777164D2*
X1738025D1*
X1437525Y1767295D2*
X1738025D1*
X1443189Y1757427D2*
X1736853D1*
X1451080Y1747558D2*
X1726991D1*
X1458991Y1737689D2*
X1717127D1*
X1163094Y1970266D2*
X1162613Y1961510D1*
X1182299Y1961454D1*
X1183432Y1961134D1*
X1214650Y1947089D1*
X1213626Y1954280D1*
X1212714Y1964238D1*
X1212370Y1974230D1*
X1212596Y1984226D1*
X1213391Y1994193D1*
X1214752Y2004098D1*
X1216699Y2014005D1*
X1158841Y2014014D1*
X1161081Y2002228D1*
X1162336Y1992308D1*
X1163024Y1982333D1*
X1163167Y1975265D1*
X1163094Y1970266D1*
X1563094D2*
X1562525Y1960283D1*
X1561387Y1950349D1*
X1559686Y1940497D1*
X1557425Y1930757D1*
X1554614Y1921161D1*
X1551260Y1911743D1*
X1547374Y1902530D1*
X1542971Y1893554D1*
X1538062Y1884843D1*
X1532665Y1876425D1*
X1526798Y1868329D1*
X1520479Y1860580D1*
X1513728Y1853205D1*
X1506568Y1846226D1*
X1499022Y1839665D1*
X1491115Y1833546D1*
X1482871Y1827887D1*
X1474319Y1822707D1*
X1465486Y1818024D1*
X1456400Y1813850D1*
X1447091Y1810202D1*
X1436517Y1806789D1*
Y1764505D1*
X1458908Y1736530D1*
X1716937Y1736516D1*
X1739028Y1758597D1*
X1738938Y1806799D1*
X1729417Y1809854D1*
X1720087Y1813449D1*
X1710976Y1817568D1*
X1702115Y1822199D1*
X1693533Y1827329D1*
X1685256Y1832938D1*
X1677312Y1839012D1*
X1669728Y1845526D1*
X1662528Y1852463D1*
X1655734Y1859799D1*
X1649369Y1867510D1*
X1643453Y1875571D1*
X1638007Y1883957D1*
X1633047Y1892639D1*
X1628591Y1901589D1*
X1624651Y1910778D1*
X1621241Y1920178D1*
X1618373Y1929756D1*
X1616055Y1939483D1*
X1614295Y1949325D1*
X1613098Y1959252D1*
X1612470Y1969231D1*
X1612411Y1979230D1*
X1612923Y1989215D1*
X1614001Y1999155D1*
X1615644Y2009018D1*
X1616699Y2014005D1*
X1558841Y2014014D1*
X1561081Y2002228D1*
X1562336Y1992308D1*
X1563024Y1982333D1*
X1563167Y1975265D1*
X1563094Y1970266D1*
X1963094D2*
X1962525Y1960283D1*
X1961299Y1949790D1*
X1986407Y1961327D1*
X1987570Y1961512D1*
X2012903Y1961516D1*
X2012470Y1969231D1*
X2012411Y1979230D1*
X2012923Y1989215D1*
X2014001Y1999155D1*
X2015644Y2009018D1*
X2016699Y2014005D1*
X1958841Y2014014D1*
X1961081Y2002228D1*
X1962336Y1992308D1*
X1963024Y1982333D1*
X1963167Y1975265D1*
X1963094Y1970266D1*
X1161764Y2479146D2*
X1213768D1*
X1561764D2*
X1613768D1*
X1961764D2*
X2013768D1*
X1163131Y2469277D2*
X1212400D1*
X1563131D2*
X1612400D1*
X1963131D2*
X2012400D1*
X1163932Y2459408D2*
X1211600D1*
X1563932D2*
X1611600D1*
X1963932D2*
X2011600D1*
X1164167Y2449539D2*
X1211365D1*
X1564167D2*
X1611365D1*
X1964167D2*
X2011365D1*
X1163853Y2439671D2*
X1211678D1*
X1563853D2*
X1611678D1*
X1963853D2*
X2011678D1*
X1198503Y2429802D2*
X1212556D1*
X1562975D2*
X1612556D1*
X1962975D2*
X1971131D1*
X1561529Y2419933D2*
X1614003D1*
X1559499Y2410064D2*
X1616033D1*
X1556861Y2400196D2*
X1618671D1*
X1553600Y2390327D2*
X1621932D1*
X1549675Y2380458D2*
X1625857D1*
X1545025Y2370589D2*
X1630507D1*
X1539596Y2360720D2*
X1635936D1*
X1533268Y2350852D2*
X1642264D1*
X1525963Y2340983D2*
X1649568D1*
X1517487Y2331114D2*
X1658045D1*
X1507584Y2321245D2*
X1667948D1*
X1495885Y2311377D2*
X1679647D1*
X1481705Y2301508D2*
X1693827D1*
X1463619Y2291639D2*
X1711912D1*
X1437525Y2281770D2*
X1738025D1*
X1437525Y2271902D2*
X1738025D1*
X1437525Y2262033D2*
X1738025D1*
X1437525Y2252164D2*
X1738025D1*
X1437525Y2242295D2*
X1738025D1*
X1443189Y2232427D2*
X1736853D1*
X1451080Y2222558D2*
X1726991D1*
X1458991Y2212689D2*
X1717127D1*
X1163094Y2445266D2*
X1162613Y2436510D1*
X1182299Y2436454D1*
X1183432Y2436134D1*
X1214650Y2422089D1*
X1213626Y2429280D1*
X1212714Y2439238D1*
X1212370Y2449230D1*
X1212596Y2459226D1*
X1213391Y2469193D1*
X1214752Y2479098D1*
X1216699Y2489005D1*
X1158841Y2489014D1*
X1161081Y2477228D1*
X1162336Y2467308D1*
X1163024Y2457333D1*
X1163167Y2450265D1*
X1163094Y2445266D1*
X1563094D2*
X1562525Y2435283D1*
X1561387Y2425349D1*
X1559686Y2415497D1*
X1557425Y2405757D1*
X1554614Y2396161D1*
X1551260Y2386743D1*
X1547374Y2377530D1*
X1542971Y2368554D1*
X1538062Y2359843D1*
X1532665Y2351425D1*
X1526798Y2343329D1*
X1520479Y2335580D1*
X1513728Y2328205D1*
X1506568Y2321226D1*
X1499022Y2314665D1*
X1491115Y2308546D1*
X1482871Y2302887D1*
X1474319Y2297707D1*
X1465486Y2293024D1*
X1456400Y2288850D1*
X1447091Y2285202D1*
X1436517Y2281789D1*
Y2239505D1*
X1458908Y2211530D1*
X1716937Y2211516D1*
X1739028Y2233597D1*
X1738938Y2281799D1*
X1729417Y2284854D1*
X1720087Y2288449D1*
X1710976Y2292568D1*
X1702115Y2297199D1*
X1693533Y2302329D1*
X1685256Y2307938D1*
X1677312Y2314012D1*
X1669728Y2320526D1*
X1662528Y2327463D1*
X1655734Y2334799D1*
X1649369Y2342510D1*
X1643453Y2350571D1*
X1638007Y2358957D1*
X1633047Y2367639D1*
X1628591Y2376589D1*
X1624651Y2385778D1*
X1621241Y2395178D1*
X1618373Y2404756D1*
X1616055Y2414483D1*
X1614295Y2424325D1*
X1613098Y2434252D1*
X1612470Y2444231D1*
X1612411Y2454230D1*
X1612923Y2464215D1*
X1614001Y2474155D1*
X1615644Y2484018D1*
X1616699Y2489005D1*
X1558841Y2489014D1*
X1561081Y2477228D1*
X1562336Y2467308D1*
X1563024Y2457333D1*
X1563167Y2450265D1*
X1563094Y2445266D1*
X1963094D2*
X1962525Y2435283D1*
X1961299Y2424790D1*
X1986407Y2436327D1*
X1987570Y2436512D1*
X2012903Y2436516D1*
X2012470Y2444231D1*
X2012411Y2454230D1*
X2012923Y2464215D1*
X2014001Y2474155D1*
X2015644Y2484018D1*
X2016699Y2489005D1*
X1958841Y2489014D1*
X1961081Y2477228D1*
X1962336Y2467308D1*
X1963024Y2457333D1*
X1963167Y2450265D1*
X1963094Y2445266D1*
X1162702Y1060396D2*
X1212831D1*
X1562702D2*
X1612831D1*
X1962702D2*
X2012831D1*
X1163698Y1050528D2*
X1211835D1*
X1563698D2*
X1611835D1*
X1963698D2*
X2011835D1*
X1164147Y1040659D2*
X1211386D1*
X1564147D2*
X1611386D1*
X1964147D2*
X2011386D1*
X1164030Y1030790D2*
X1211503D1*
X1564030D2*
X1611503D1*
X1964030D2*
X2011503D1*
X1163346Y1020921D2*
X1212186D1*
X1563346D2*
X1612186D1*
X1963346D2*
X2012186D1*
X1198503Y1011052D2*
X1213417D1*
X1562115D2*
X1613417D1*
X1962115D2*
X1971131D1*
X1560299Y1001184D2*
X1615234D1*
X1557898Y991315D2*
X1617635D1*
X1554870Y981446D2*
X1620663D1*
X1551198Y971577D2*
X1624335D1*
X1546823Y961709D2*
X1628710D1*
X1541686Y951840D2*
X1633846D1*
X1535690Y941971D2*
X1639843D1*
X1528776Y932102D2*
X1646757D1*
X1520749Y922234D2*
X1654783D1*
X1511394Y912365D2*
X1664139D1*
X1500417Y902496D2*
X1675115D1*
X1487253Y892627D2*
X1688280D1*
X1470846Y882759D2*
X1704686D1*
X1448600Y872890D2*
X1726933D1*
X1437526Y863021D2*
X1738007D1*
X1437526Y853152D2*
X1738007D1*
X1437526Y843283D2*
X1738007D1*
X1437526Y833415D2*
X1738007D1*
X1437526Y823546D2*
X1738007D1*
X1443190Y813677D2*
X1736854D1*
X1451081Y803808D2*
X1726991D1*
X1458971Y793940D2*
X1717127D1*
X1163094Y1032768D2*
X1162525Y1022785D1*
X1162020Y1017752D1*
X1182299Y1017703D1*
X1183432Y1017385D1*
X1215895Y1002778D1*
X1214295Y1011827D1*
X1213098Y1021753D1*
X1212470Y1031732D1*
X1212411Y1041731D1*
X1212923Y1051717D1*
X1214001Y1061656D1*
X1215419Y1070270D1*
X1160129Y1070265D1*
X1161780Y1059780D1*
X1162751Y1049828D1*
X1163154Y1039837D1*
X1163094Y1032768D1*
X1563094D2*
X1562525Y1022785D1*
X1561387Y1012850D1*
X1559686Y1002999D1*
X1557425Y993259D1*
X1554614Y983663D1*
X1551260Y974244D1*
X1547374Y965031D1*
X1542971Y956055D1*
X1538062Y947344D1*
X1532665Y938927D1*
X1526798Y930831D1*
X1520479Y923081D1*
X1513728Y915706D1*
X1506568Y908727D1*
X1499022Y902167D1*
X1491115Y896047D1*
X1482871Y890388D1*
X1474319Y885209D1*
X1465486Y880525D1*
X1456400Y876352D1*
X1447091Y872703D1*
X1436517Y869290D1*
Y820755D1*
X1458908Y792780D1*
X1716936Y792765D1*
X1739028Y814848D1*
X1738938Y869301D1*
X1729417Y872356D1*
X1720087Y875950D1*
X1710976Y880070D1*
X1702115Y884701D1*
X1693533Y889831D1*
X1685256Y895440D1*
X1677312Y901513D1*
X1669728Y908028D1*
X1662528Y914965D1*
X1655734Y922301D1*
X1649369Y930012D1*
X1643453Y938072D1*
X1638007Y946458D1*
X1633047Y955140D1*
X1628591Y964091D1*
X1624651Y973280D1*
X1621241Y982680D1*
X1618373Y992257D1*
X1616055Y1001984D1*
X1614295Y1011827D1*
X1613098Y1021753D1*
X1612470Y1031732D1*
X1612411Y1041731D1*
X1612923Y1051717D1*
X1614001Y1061656D1*
X1615419Y1070270D1*
X1560129Y1070265D1*
X1561780Y1059780D1*
X1562751Y1049828D1*
X1563154Y1039837D1*
X1563094Y1032768D1*
X1963094D2*
X1962525Y1022785D1*
X1961387Y1012850D1*
X1960157Y1005513D1*
X1986407Y1017577D1*
X1987568Y1017761D1*
X2013528Y1017765D1*
X2012714Y1026739D1*
X2012370Y1036731D1*
X2012596Y1046727D1*
X2013391Y1056694D1*
X2014752Y1066600D1*
X2015419Y1070270D1*
X1960129Y1070265D1*
X1961780Y1059780D1*
X1962751Y1049828D1*
X1963154Y1039837D1*
X1963094Y1032768D1*
X818951Y4547896D2*
X969081D1*
X1318951D2*
X1469081D1*
X1818951D2*
X1969081D1*
X819948Y4538028D2*
X968085D1*
X1319948D2*
X1468085D1*
X1819948D2*
X1968085D1*
X820398Y4528160D2*
X967635D1*
X1320398D2*
X1467635D1*
X1820398D2*
X1967635D1*
X820280Y4518290D2*
X967753D1*
X1320280D2*
X1467753D1*
X1820280D2*
X1967753D1*
X819597Y4508421D2*
X968417D1*
X1319597D2*
X1468417D1*
X1819597D2*
X1968417D1*
X1318366Y4498552D2*
X1469667D1*
X1316550Y4488684D2*
X1471463D1*
X1314147Y4478815D2*
X1473886D1*
X1311119Y4468948D2*
X1476894D1*
X1307448Y4459077D2*
X1480585D1*
X1303073Y4449209D2*
X1484959D1*
X1297936Y4439340D2*
X1490097D1*
X1291940Y4429471D2*
X1496093D1*
X1285026Y4419602D2*
X1503007D1*
X1276999Y4409735D2*
X1511034D1*
X1267663Y4399865D2*
X1520370D1*
X1256667Y4389996D2*
X1531366D1*
X1243776Y4380127D2*
X1544257D1*
X1243776Y4370259D2*
X1544257D1*
X1243776Y4360390D2*
X1544257D1*
X1243776Y4350521D2*
X1544257D1*
X1243776Y4340652D2*
X1544257D1*
X1243776Y4330783D2*
X1544257D1*
X1243776Y4320915D2*
X1544257D1*
X1243776Y4311046D2*
X1544257D1*
X1249440Y4301177D2*
X1543104D1*
X1257331Y4291310D2*
X1533241D1*
X1265222Y4281440D2*
X1523378D1*
X819344Y4520266D2*
X818774Y4510283D1*
X818269Y4505251D1*
X969778Y4505266D1*
X968963Y4514238D1*
X968619Y4524230D1*
X968845Y4534226D1*
X969640Y4544193D1*
X971001Y4554098D1*
X971668Y4557769D1*
X816379Y4557765D1*
X818029Y4547278D1*
X819000Y4537327D1*
X819403Y4527336D1*
X819344Y4520266D1*
X1819344D2*
X1818774Y4510283D1*
X1818269Y4505251D1*
X1969778Y4505266D1*
X1968963Y4514238D1*
X1968619Y4524230D1*
X1968845Y4534226D1*
X1969640Y4544193D1*
X1971001Y4554098D1*
X1971668Y4557769D1*
X1816379Y4557765D1*
X1818029Y4547278D1*
X1819000Y4537327D1*
X1819403Y4527336D1*
X1819344Y4520266D1*
X1545268Y4380310D2*
X1537491Y4385919D1*
X1529723Y4392215D1*
X1522328Y4398944D1*
X1515327Y4406083D1*
X1508745Y4413609D1*
X1502602Y4421499D1*
X1496920Y4429726D1*
X1491714Y4438262D1*
X1487004Y4447081D1*
X1482804Y4456156D1*
X1479129Y4465454D1*
X1475988Y4474946D1*
X1473394Y4484604D1*
X1471354Y4494391D1*
X1469875Y4504280D1*
X1468963Y4514238D1*
X1468619Y4524230D1*
X1468845Y4534226D1*
X1469640Y4544193D1*
X1471001Y4554098D1*
X1471668Y4557769D1*
X1316379Y4557765D1*
X1318029Y4547278D1*
X1319000Y4537327D1*
X1319403Y4527336D1*
X1319344Y4520266D1*
X1318774Y4510283D1*
X1317636Y4500349D1*
X1315936Y4490497D1*
X1313675Y4480757D1*
X1310864Y4471161D1*
X1307509Y4461743D1*
X1303623Y4452530D1*
X1299220Y4443554D1*
X1294311Y4434843D1*
X1288915Y4426425D1*
X1283047Y4418329D1*
X1276728Y4410580D1*
X1269978Y4403205D1*
X1262818Y4396226D1*
X1255272Y4389665D1*
X1247365Y4383546D1*
X1242780Y4380323D1*
X1242766Y4308255D1*
X1265157Y4280281D1*
X1523186Y4280266D1*
X1545278Y4302349D1*
X1545266Y4380285D1*
X1248672Y3734356D2*
X1522474D1*
X1238808Y3724487D2*
X1530364D1*
X1236466Y3714618D2*
X1536966D1*
X1236466Y3704749D2*
X1536966D1*
X1236466Y3694881D2*
X1536966D1*
X1236466Y3685012D2*
X1536966D1*
X1236466Y3675143D2*
X1536966D1*
X1236466Y3665274D2*
X1536966D1*
X1236466Y3655406D2*
X1536966D1*
X1236466Y3645537D2*
X1536966D1*
X1242207Y3635668D2*
X1533332D1*
X1254512Y3625799D2*
X1521008D1*
X1264864Y3615930D2*
X1510656D1*
X1273711Y3606062D2*
X1501808D1*
X1281328Y3596193D2*
X1494192D1*
X1287911Y3586324D2*
X1487630D1*
X1293594Y3576455D2*
X1481946D1*
X1298458Y3566587D2*
X1477083D1*
X1302579Y3556718D2*
X1472962D1*
X1306016Y3546849D2*
X1469504D1*
X1308828Y3536980D2*
X1466711D1*
X1311016Y3527112D2*
X1464524D1*
X812618Y3517243D2*
X962903D1*
X1312618D2*
X1462903D1*
X1812618D2*
X1962903D1*
X813652Y3507374D2*
X961867D1*
X1313652D2*
X1461867D1*
X1813652D2*
X1961867D1*
X814142Y3497505D2*
X961399D1*
X1314142D2*
X1461399D1*
X1814142D2*
X1961399D1*
X814043Y3487636D2*
X961476D1*
X1314043D2*
X1461476D1*
X1814043D2*
X1961476D1*
X813419Y3477768D2*
X962122D1*
X1313419D2*
X1462122D1*
X1813419D2*
X1962122D1*
X812207Y3467899D2*
X963312D1*
X1312207D2*
X1463312D1*
X1812207D2*
X1963312D1*
X813094Y3489017D2*
X812525Y3479034D1*
X811387Y3469100D1*
X811013Y3466727D1*
X964518Y3466724D1*
X963626Y3473030D1*
X962714Y3482988D1*
X962370Y3492980D1*
X962596Y3502976D1*
X963391Y3512944D1*
X964203Y3519239D1*
X811354Y3519224D1*
X812336Y3511059D1*
X813024Y3501084D1*
X813167Y3494016D1*
X813094Y3489017D1*
X1813094D2*
X1812525Y3479034D1*
X1811387Y3469100D1*
X1811013Y3466727D1*
X1964518Y3466724D1*
X1963626Y3473030D1*
X1962714Y3482988D1*
X1962370Y3492980D1*
X1962596Y3502976D1*
X1963391Y3512944D1*
X1964203Y3519239D1*
X1811353Y3519224D1*
X1812336Y3511059D1*
X1813024Y3501084D1*
X1813167Y3494016D1*
X1813094Y3489017D1*
X1464520Y3466707D2*
X1463626Y3473030D1*
X1462714Y3482988D1*
X1462370Y3492980D1*
X1462596Y3502976D1*
X1463391Y3512944D1*
X1464752Y3522849D1*
X1466677Y3532660D1*
X1469156Y3542346D1*
X1472185Y3551877D1*
X1475751Y3561217D1*
X1479843Y3570340D1*
X1484449Y3579215D1*
X1489552Y3587812D1*
X1495138Y3596105D1*
X1501188Y3604067D1*
X1507680Y3611671D1*
X1514596Y3618892D1*
X1521911Y3625707D1*
X1529604Y3632096D1*
X1537987Y3638264D1*
X1537974Y3716235D1*
X1515583Y3744209D1*
X1257555Y3744224D1*
X1235463Y3722142D1*
X1235475Y3639673D1*
X1243467Y3633990D1*
X1251272Y3627739D1*
X1258707Y3621054D1*
X1265749Y3613955D1*
X1272375Y3606469D1*
X1278564Y3598615D1*
X1284297Y3590423D1*
X1289551Y3581916D1*
X1294314Y3573125D1*
X1298567Y3564076D1*
X1302298Y3554799D1*
X1305493Y3545325D1*
X1308146Y3535684D1*
X1310243Y3525908D1*
X1311780Y3516029D1*
X1312751Y3506077D1*
X1313154Y3496087D1*
X1313094Y3489017D1*
X1312525Y3479034D1*
X1311387Y3469100D1*
X1311013Y3466727D1*
X1464518Y3466724D1*
X1520768Y3241647D2*
X1742265D1*
X1512878Y3231778D2*
X1750155D1*
X1506276Y3221909D2*
X1756757D1*
X1506276Y3212041D2*
X1756757D1*
X1506276Y3202172D2*
X1756757D1*
X1506276Y3192303D2*
X1756757D1*
X1506276Y3182434D2*
X1756757D1*
X1506276Y3172566D2*
X1756757D1*
X1506257Y3162697D2*
X1756757D1*
X1178406Y3152828D2*
X1758398D1*
X1181570Y3142959D2*
X1606463D1*
X1669070D2*
X2095234D1*
X1217429Y3133091D2*
X1570604D1*
X1704929D2*
X2064354D1*
X1238678Y3123222D2*
X1549354D1*
X1726178D2*
X2043104D1*
X1254753Y3113353D2*
X1533280D1*
X1742253D2*
X2027030D1*
X1267819Y3103484D2*
X1520214D1*
X1755319D2*
X2013963D1*
X1278795Y3093615D2*
X1509238D1*
X1766295D2*
X2002967D1*
X1288210Y3083747D2*
X1499823D1*
X1775710D2*
X1993573D1*
X1986575Y3074009D2*
X1993748Y3082798D1*
X2000520Y3090155D1*
X2007685Y3097130D1*
X2015219Y3103702D1*
X2023102Y3109852D1*
X2031311Y3115563D1*
X2039819Y3120815D1*
X2048601Y3125594D1*
X2057633Y3129886D1*
X2066885Y3133677D1*
X2076331Y3136957D1*
X2085941Y3139714D1*
X2097129Y3142210D1*
X2085950Y3151521D1*
X1761984Y3151577D1*
X1760496Y3152060D1*
X1759231Y3152980D1*
X1758311Y3154245D1*
X1757828Y3155734D1*
X1757766Y3171516D1*
Y3223522D1*
X1735375Y3251501D1*
X1527678Y3251516D1*
X1505269Y3223514D1*
X1505205Y3161983D1*
X1504722Y3160496D1*
X1503802Y3159230D1*
X1502537Y3158311D1*
X1501049Y3157827D1*
X1485266Y3157765D1*
X1183318D1*
X1167597Y3144657D1*
X1179084Y3143202D1*
X1188911Y3141356D1*
X1198622Y3138975D1*
X1208189Y3136066D1*
X1217581Y3132638D1*
X1226773Y3128701D1*
X1235735Y3124268D1*
X1244441Y3119352D1*
X1252865Y3113966D1*
X1260983Y3108127D1*
X1268768Y3101853D1*
X1276198Y3095163D1*
X1283252Y3088076D1*
X1289907Y3080614D1*
X1295198Y3074018D1*
X1492825Y3074016D1*
X1499999Y3082798D1*
X1506770Y3090155D1*
X1513936Y3097130D1*
X1521470Y3103702D1*
X1529353Y3109852D1*
X1537562Y3115563D1*
X1546070Y3120815D1*
X1554852Y3125594D1*
X1563883Y3129886D1*
X1573135Y3133677D1*
X1582581Y3136957D1*
X1592192Y3139714D1*
X1601938Y3141942D1*
X1611794Y3143634D1*
X1621726Y3144783D1*
X1631706Y3145388D1*
X1641705Y3145446D1*
X1651692Y3144958D1*
X1661636Y3143924D1*
X1671510Y3142346D1*
X1681283Y3140232D1*
X1690925Y3137585D1*
X1700408Y3134416D1*
X1709703Y3130732D1*
X1718783Y3126546D1*
X1727622Y3121869D1*
X1736190Y3116715D1*
X1744463Y3111101D1*
X1752419Y3105043D1*
X1760029Y3098559D1*
X1767274Y3091668D1*
X1774131Y3084390D1*
X1780580Y3076749D1*
X1782766Y3074016D1*
X1986575D1*
D18*
X987766Y1037766D3*
X1387766D3*
X1787766D3*
X587766Y1556516D3*
X2187766Y1037766D3*
X987766Y1506516D3*
X1387766D3*
X1787766D3*
X2187766D3*
D19*
X2087766Y511665D3*
X687766D3*
D18*
X987766Y1975265D3*
D19*
X687766Y5331516D3*
X2087766D3*
D18*
X1387766Y1975265D3*
X1787766D3*
X2187766D3*
X987766Y2450265D3*
X1387766D3*
X1787766D3*
X637766Y3494016D3*
X2187766Y2450265D3*
X587766Y2031516D3*
Y2506516D3*
X1637766Y3494016D3*
X2137766D3*
X1137766D3*
X644016Y4525265D3*
X1644016D3*
X2144016D3*
X1144016D3*
D20*
X2131516Y2962766D3*
X1637766D3*
X1150266D3*
G36*
X431516Y4231516D2*
X2344017D1*
Y3794016D1*
X431516D1*
Y4231516D1*
G37*
G36*
X419016Y5119016D2*
X2362766D1*
Y4819016D1*
X419016D1*
Y5119016D1*
G37*
M02*
