M48
INCH
T01C0.015
T02C0.03
T03C0.032
T04C0.0394
T05C0.04
T06C0.05
T07C0.052
T08C0.085
%
T01
X+020127Y+020022
X+019730Y+020484
X+019424Y+019970
X+018254Y+020936
X+016991Y+019662
X+017202Y+019235
X+016609Y+018724
X+016197Y+018954
X+016961Y+017870
X+016917Y+016753
X+017059Y+015826
X+016824Y+014765
X+016885Y+014040
X+017036Y+012552
X+017071Y+011523
X+016757Y+010699
X+015858Y+009972
X+015070Y+010373
X+015074Y+011515
X+015074Y+012546
X+014115Y+012314
X+013303Y+011565
X+013512Y+010249
X+012870Y+009535
X+011881Y+009470
X+011343Y+008847
X+010648Y+008811
X+011321Y+007765
X+010729Y+007158
X+011321Y+006554
X+011321Y+005505
X+010430Y+005834
X+010399Y+004834
X+011753Y+004480
X+012958Y+004490
X+013067Y+005529
X+012585Y+006882
X+014760Y+006242
X+014771Y+005740
X+014846Y+004839
X+016281Y+004776
X+017556Y+005270
X+017917Y+005216
X+018139Y+005713
X+017523Y+006080
X+017523Y+006774
X+017170Y+007506
X+017118Y+007982
X+016249Y+008522
X+015670Y+008521
X+015079Y+008155
X+014491Y+009025
X+015109Y+007076
X+015809Y+007094
X+016460Y+007013
X+015745Y+006046
X+017301Y+009235
X+018599Y+009048
X+019032Y+009742
X+019519Y+009345
X+020017Y+008442
X+019519Y+007493
X+019948Y+006757
X+020201Y+006235
X+019756Y+005485
X+020201Y+005031
X+021230Y+004705
X+021400Y+005768
X+022177Y+005505
X+022684Y+005586
X+023102Y+004363
X+023331Y+006786
X+022684Y+007456
X+022619Y+007943
X+023181Y+007901
X+021548Y+007099
X+021081Y+007769
X+021063Y+009798
X+020730Y+010175
X+020828Y+011103
X+020901Y+012191
X+020808Y+013260
X+020699Y+014644
X+020676Y+015319
X+020360Y+015787
X+020792Y+016622
X+022078Y+016342
X+022111Y+015446
X+023199Y+014644
X+022821Y+012180
X+023074Y+011630
X+022921Y+010957
X+019316Y+012097
X+019032Y+011513
X+018755Y+010845
X+018884Y+012802
X+018468Y+014721
X+018452Y+015275
X+018884Y+016247
X+018884Y+017018
X+018718Y+018079
X+020720Y+019072
X+021724Y+019702
X+022318Y+019941
X+022268Y+020560
X+023411Y+020351
X+023411Y+021239
X+021174Y+023069
X+021293Y+023593
X+020663Y+024176
X+019921Y+023167
X+019754Y+022253
X+019008Y+023359
X+018153Y+023672
X+017296Y+024002
X+017194Y+023335
X+017602Y+025019
X+017312Y+026165
X+017370Y+027050
X+017212Y+027556
X+016419Y+026704
X+015699Y+027629
X+015437Y+027387
X+015896Y+028417
X+015785Y+029298
X+016164Y+029287
X+016547Y+029267
X+016357Y+029722
X+017158Y+029177
X+018235Y+029036
X+018946Y+028072
X+018661Y+027473
X+020584Y+027601
X+020726Y+026819
X+021070Y+026800
X+020799Y+025724
X+021938Y+027547
X+022619Y+027526
X+022963Y+029164
X+021512Y+030129
X+021842Y+031505
X+020111Y+031601
X+020120Y+032044
X+019352Y+032112
X+018660Y+033148
X+019620Y+033885
X+019072Y+035201
X+018941Y+036283
X+020016Y+036308
X+020154Y+035481
X+018920Y+037876
X+017288Y+039569
X+016377Y+039220
X+015733Y+041403
X+015459Y+041717
X+015298Y+041298
X+014148Y+039914
X+013636Y+039999
X+013290Y+038903
X+012265Y+039331
X+011365Y+039694
X+010097Y+039766
X+009878Y+037735
X+010191Y+036353
X+011042Y+036097
X+011318Y+035804
X+010349Y+035374
X+010643Y+034302
X+011142Y+033791
X+011449Y+033332
X+011660Y+032781
X+012275Y+032401
X+012270Y+031925
X+011898Y+031374
X+011179Y+031856
X+009774Y+033046
X+009459Y+033380
X+009144Y+033082
X+008809Y+032935
X+008532Y+033159
X+008198Y+032799
X+007686Y+032494
X+006950Y+033449
X+006840Y+033779
X+007055Y+034094
X+007873Y+034409
X+008362Y+034949
X+008196Y+033628
X+010089Y+033418
X+011390Y+034559
X+012537Y+033464
X+013300Y+034093
X+014109Y+033106
X+014217Y+032604
X+014717Y+032607
X+015206Y+032606
X+015724Y+032606
X+016206Y+032618
X+017200Y+032607
X+017231Y+033888
X+016717Y+033898
X+016217Y+033881
X+015736Y+033885
X+015217Y+033871
X+014709Y+033870
X+013717Y+032615
X+014413Y+030185
X+015276Y+029199
X+014343Y+028511
X+014354Y+028036
X+014076Y+027629
X+013747Y+027387
X+012957Y+027539
X+012547Y+027164
X+011800Y+027182
X+010964Y+027313
X+010877Y+028730
X+011258Y+029014
X+010234Y+028926
X+009079Y+030090
X+007488Y+029996
X+007371Y+029254
X+007804Y+028532
X+008039Y+027738
X+007444Y+026858
X+008039Y+026614
X+008039Y+025670
X+007444Y+025614
X+007444Y+025005
X+007839Y+024158
X+008382Y+024707
X+009025Y+024140
X+009648Y+023449
X+010316Y+023721
X+010870Y+024426
X+011881Y+023543
X+012919Y+023247
X+013131Y+023710
X+013653Y+024100
X+014731Y+023642
X+014718Y+022925
X+014255Y+021675
X+014567Y+020529
X+014574Y+019265
X+014530Y+018914
X+014569Y+017972
X+015889Y+017098
X+015934Y+016122
X+014874Y+014891
X+014350Y+015271
X+013229Y+016712
X+012223Y+016815
X+011432Y+016629
X+010995Y+016638
X+010398Y+016648
X+011238Y+017324
X+010828Y+018424
X+010453Y+018739
X+011277Y+019009
X+011120Y+019501
X+011858Y+019728
X+012946Y+019663
X+012891Y+019018
X+012934Y+018116
X+011607Y+016098
X+011196Y+015537
X+011775Y+014959
X+010663Y+014841
X+009850Y+015075
X+009829Y+014650
X+009195Y+014282
X+008927Y+013052
X+008169Y+011974
X+008454Y+011732
X+007832Y+011344
X+007586Y+011004
X+007365Y+011272
X+007969Y+010232
X+008335Y+009732
X+007893Y+009177
X+007420Y+009742
X+006526Y+009374
X+006237Y+010749
X+006237Y+012232
X+006147Y+012717
X+005207Y+012284
X+004409Y+013552
X+005002Y+015719
X+006233Y+015931
X+006252Y+015436
X+007613Y+015480
X+008392Y+016489
X+007933Y+016992
X+007568Y+017976
X+007692Y+018723
X+008322Y+019245
X+007856Y+019668
X+006644Y+019960
X+007397Y+020881
X+007809Y+021381
X+007437Y+022349
X+007809Y+022578
X+007464Y+023359
X+006524Y+024031
X+005572Y+023682
X+004386Y+023003
X+005410Y+021766
X+005955Y+021907
X+005471Y+020689
X+005437Y+020347
X+004386Y+021316
X+004418Y+026284
X+005541Y+026197
X+006378Y+026217
X+006307Y+029833
X+006494Y+030988
X+006748Y+031303
X+005987Y+031583
X+005531Y+031833
X+008823Y+031802
X+006711Y+034969
X+006726Y+036418
X+008033Y+037809
X+007037Y+039315
X+006365Y+039571
X+006751Y+040344
X+005740Y+040459
X+006149Y+041816
X+005713Y+041930
X+005175Y+042422
X+006673Y+042681
X+006841Y+044298
X+007306Y+044299
X+007541Y+045257
X+007869Y+045623
X+010299Y+045523
X+011319Y+045817
X+011943Y+043847
X+012179Y+043045
X+012518Y+042215
X+013317Y+042909
X+013857Y+043368
X+014404Y+042885
X+015845Y+045413
X+019356Y+045940
X+019545Y+043784
X+020692Y+042738
X+021376Y+044000
X+022214Y+042726
X+022360Y+039569
X+021881Y+039128
X+020863Y+039276
X+016764Y+035829
X+016390Y+036122
X+015205Y+036459
X+014964Y+036825
X+014590Y+037125
X+014254Y+037367
X+014297Y+035952
X+012872Y+035704
X+012626Y+037868
X+012202Y+037842
X+010823Y+042502
X+010752Y+043498
X+009140Y+043339
X+004661Y+039030
X+013445Y+029199
X+013212Y+028875
X+012939Y+028433
X+012559Y+025867
X+011356Y+022044
X+011177Y+020970
X+009614Y+020952
X+009655Y+021563
X+008870Y+018290
X+013207Y+020548
X+016295Y+020749
X+016295Y+021512
X+022707Y+024153
X+020296Y+029126
X+019666Y+029609
X+019055Y+030085
X+016390Y+030691
X+016380Y+031063
X+015990Y+031304
X+015759Y+030863
X+012396Y+013117
X+012236Y+012563
X+011757Y+012896
X+010571Y+013419
X+011930Y+011270
X+011870Y+010669
X+008876Y+008195
X+005254Y+008532
X+005169Y+008109
T02
X+019324Y+024563G85X+019324Y+024693
X+018386Y+024713G85X+018386Y+024543
X+018386Y+025713G85X+018386Y+025543
X+019324Y+025563G85X+019324Y+025693
X+019324Y+026543G85X+019324Y+026713
X+018386Y+026713G85X+018386Y+026543
X+014386Y+026713G85X+014386Y+026543
X+013511Y+026713G85X+013511Y+026543
X+013511Y+025713G85X+013511Y+025543
X+014386Y+025713G85X+014386Y+025543
X+014386Y+024713G85X+014386Y+024543
X+013511Y+024713G85X+013511Y+024543
X+009511Y+024713G85X+009511Y+024543
X+009511Y+025713G85X+009511Y+025543
X+009511Y+026713G85X+009511Y+026543
X+023324Y+026563G85X+023324Y+026693
X+023324Y+025563G85X+023324Y+025693
X+023324Y+024563G85X+023324Y+024693
T03
X+019946Y+045003
X+019946Y+046003
X+014946Y+046003
X+014946Y+045003
X+009884Y+045003
X+009884Y+046003
X+004884Y+046003
X+004884Y+045003
T04
X+020393Y+038497
X+021377Y+038497
X+022361Y+038497
X+017361Y+038497
X+016377Y+038497
X+015393Y+038497
X+012361Y+038497
X+011377Y+038497
X+010393Y+038497
X+007361Y+038497
X+006377Y+038497
X+005393Y+038497
X+005403Y+028176
X+006387Y+028176
X+007371Y+028176
X+010403Y+028176
X+011387Y+028176
X+012371Y+028176
X+015403Y+028176
X+016387Y+028176
X+017371Y+028176
X+020403Y+028176
X+021387Y+028176
X+022371Y+028176
T05
X+021886Y+008696
X+021886Y+008725
X+017886Y+008725
X+017886Y+008696
X+013886Y+008696
X+013886Y+008725
X+009886Y+008725
X+009886Y+008696
X+007070Y+008846
X+005886Y+009191
X+004510Y+008846
X+004510Y+007066
X+004503Y+006253
X+004503Y+004473
X+007063Y+004473
X+007063Y+006253
X+007070Y+007066
X+009886Y+018123
X+009886Y+018133
X+013886Y+018133
X+013886Y+018123
X+017886Y+018123
X+017886Y+018133
X+021886Y+018133
X+021886Y+018123
X+022255Y+033467
X+023255Y+033467
X+023255Y+034467
X+022255Y+034467
X+022255Y+035467
X+022255Y+036467
X+023255Y+036467
X+023255Y+035467
X+023255Y+037467
X+022255Y+037467
X+017917Y+037668
X+016917Y+037668
X+015917Y+037668
X+015917Y+036668
X+016917Y+036668
X+017917Y+036668
X+018354Y+044613
X+018354Y+046393
X+020794Y+046393
X+020794Y+044613
X+023354Y+044613
X+023354Y+046393
X+015794Y+046393
X+015794Y+044613
X+013354Y+044613
X+013354Y+046393
X+010794Y+046393
X+010794Y+044613
X+008354Y+044613
X+008354Y+046393
X+005794Y+046393
X+005794Y+044613
X+005886Y+018681
X+005886Y+018679
T06
X+019527Y+041403G85X+019527Y+041103
X+018227Y+041403G85X+018227Y+041103
X+014527Y+041403G85X+014527Y+041103
X+013227Y+041403G85X+013227Y+041103
X+009527Y+041403G85X+009527Y+041103
X+008227Y+041403G85X+008227Y+041103
X+004527Y+041403G85X+004527Y+041103
X+004537Y+031082G85X+004537Y+030782
X+008238Y+031082G85X+008238Y+030782
X+009537Y+031082G85X+009537Y+030782
X+013238Y+031082G85X+013238Y+030782
X+014537Y+031082G85X+014537Y+030782
X+018238Y+031082G85X+018238Y+030782
X+019537Y+031082G85X+019537Y+030782
X+023238Y+031082G85X+023238Y+030782
X+023227Y+041403G85X+023227Y+041103
T07
X+021886Y+009696
X+021886Y+007725
X+021886Y+004475
X+017886Y+004475
X+017886Y+007725
X+017886Y+009696
X+017886Y+012946
X+017886Y+013873
X+017886Y+017123
X+017886Y+019133
X+017886Y+022383
X+013886Y+022383
X+013886Y+019133
X+013886Y+017123
X+013886Y+013873
X+013886Y+012946
X+013886Y+009696
X+013886Y+007725
X+013886Y+004475
X+009886Y+004475
X+009886Y+007725
X+009886Y+009696
X+009886Y+012946
X+009886Y+013873
X+009886Y+017123
X+009886Y+019133
X+009886Y+022383
X+005886Y+022929
X+005886Y+019679
X+005886Y+017681
X+005886Y+014431
X+005886Y+013441
X+005886Y+010191
X+021886Y+012946
X+021886Y+013873
X+021886Y+017123
X+021886Y+019133
X+021886Y+022383
T08
X+021324Y+025238
X+016386Y+025238
X+011511Y+025238
T00
M30
