G04 DipTrace 3.3.0.0*
G04 threshold_02a.GBS*
%MOIN*%
G04 #@! TF.FileFunction,Soldermask,Bot*
G04 #@! TF.Part,Single*
%AMOUTLINE58*
4,1,16,
0.005453,-0.041516,
0.023058,-0.037497,
0.037539,-0.025949,
0.045576,-0.009262,
0.045576,0.009262,
0.037539,0.025949,
0.023058,0.037497,
0.005453,0.041516,
-0.005453,0.041516,
-0.023058,0.037497,
-0.037539,0.025949,
-0.045576,0.009262,
-0.045576,-0.009262,
-0.037539,-0.025949,
-0.023058,-0.037497,
-0.005453,-0.041516,
0.005453,-0.041516,
0*%
%AMOUTLINE61*
4,1,16,
-0.005453,0.041516,
-0.023058,0.037497,
-0.037539,0.025949,
-0.045576,0.009262,
-0.045576,-0.009262,
-0.037539,-0.025949,
-0.023058,-0.037497,
-0.005453,-0.041516,
0.005453,-0.041516,
0.023058,-0.037497,
0.037539,-0.025949,
0.045576,-0.009262,
0.045576,0.009262,
0.037539,0.025949,
0.023058,0.037497,
0.005453,0.041516,
-0.005453,0.041516,
0*%
%AMOUTLINE67*
4,1,8,
-0.011614,0.028037,
-0.028037,0.011614,
-0.028037,-0.011614,
-0.011614,-0.028037,
0.011614,-0.028037,
0.028037,-0.011614,
0.028037,0.011614,
0.011614,0.028037,
-0.011614,0.028037,
0*%
%AMOUTLINE70*
4,1,20,
0.036053,0.0,
0.034336,-0.012537,
0.02932,-0.023919,
0.021415,-0.033059,
0.011313,-0.039011,
0.0,-0.041083,
-0.011313,-0.039011,
-0.021415,-0.033059,
-0.02932,-0.023919,
-0.034336,-0.012537,
-0.036053,0.0,
-0.034336,0.012537,
-0.02932,0.023919,
-0.021415,0.033059,
-0.011313,0.039011,
0.0,0.041083,
0.011313,0.039011,
0.021415,0.033059,
0.02932,0.023919,
0.034336,0.012537,
0.036053,0.0,
0*%
%ADD58C,0.074*%
%ADD72O,0.072031X0.082031*%
%ADD74O,0.068031X0.078031*%
%ADD76C,0.108031*%
%ADD78O,0.078031X0.108031*%
%ADD86C,0.076031*%
%ADD88C,0.073031*%
%ADD90O,0.093031X0.083031*%
%ADD171OUTLINE58*%
%ADD174OUTLINE61*%
%ADD180OUTLINE67*%
%ADD183OUTLINE70*%
%FSLAX26Y26*%
G04*
G70*
G90*
G75*
G01*
G04 BotMask*
%LPD*%
D90*
X2188634Y969584D3*
Y1294584D3*
D88*
Y869584D3*
D171*
Y772469D3*
Y447469D3*
D88*
Y872469D3*
D90*
Y1712335D3*
Y1387335D3*
D88*
Y1812335D3*
D90*
Y1913335D3*
Y2238335D3*
D88*
Y1813335D3*
D90*
X1788634Y969584D3*
Y1294584D3*
D88*
Y869584D3*
D171*
Y772469D3*
Y447469D3*
D88*
Y872469D3*
D90*
Y1712335D3*
Y1387335D3*
D88*
Y1812335D3*
D90*
Y1913335D3*
Y2238335D3*
D88*
Y1813335D3*
D90*
X1388634Y969584D3*
Y1294584D3*
D88*
Y869584D3*
D171*
Y772469D3*
Y447469D3*
D88*
Y872469D3*
D90*
Y1712335D3*
Y1387335D3*
D88*
Y1812335D3*
D90*
Y1913335D3*
Y2238335D3*
D88*
Y1813335D3*
D90*
X988634Y969584D3*
Y1294584D3*
D88*
Y869584D3*
D171*
Y772469D3*
Y447469D3*
D88*
Y872469D3*
D90*
Y1712335D3*
Y1387335D3*
D88*
Y1812335D3*
D90*
Y1913335D3*
Y2238335D3*
D88*
Y1813335D3*
D174*
X588634Y1967875D3*
Y2292875D3*
D88*
Y1867875D3*
D90*
Y1768084D3*
Y1443084D3*
D88*
Y1868084D3*
D86*
X2225534Y3746722D3*
X2325534D3*
X2225534Y3646722D3*
X2325534D3*
X2225534Y3546722D3*
X2325534D3*
X2225534Y3446722D3*
X2325534D3*
X2225534Y3346722D3*
X2325534D3*
X1591703Y3666808D3*
Y3766808D3*
X1691703Y3666808D3*
Y3766808D3*
X1791703Y3666808D3*
Y3766808D3*
D90*
X588634Y1019084D3*
Y1344084D3*
D88*
Y919084D3*
D180*
X1994613Y4500335D3*
Y4600335D3*
X1494613Y4500335D3*
Y4600335D3*
X988363Y4500335D3*
Y4600335D3*
X488363Y4500335D3*
Y4600335D3*
D183*
X2039279Y3849748D3*
X2137705D3*
X2236130D3*
D78*
X1952665Y4125339D3*
X2322744D3*
D183*
X2040291Y2817564D3*
X2138716D3*
X2237142D3*
D78*
X1953677Y3093155D3*
X2323756D3*
D183*
X1539279Y3849748D3*
X1637705D3*
X1736130D3*
D78*
X1452665Y4125339D3*
X1822744D3*
D183*
X1540291Y2817564D3*
X1638716D3*
X1737142D3*
D78*
X1453677Y3093155D3*
X1823756D3*
D183*
X1039279Y3849748D3*
X1137705D3*
X1236130D3*
D78*
X952665Y4125339D3*
X1322744D3*
D183*
X1040291Y2817564D3*
X1138716D3*
X1237142D3*
D78*
X953677Y3093155D3*
X1323756D3*
D183*
X539279Y3849748D3*
X637705D3*
X736130D3*
D78*
X452665Y4125339D3*
X822744D3*
D183*
X540291Y2817564D3*
X638716D3*
X737142D3*
D78*
X453677Y3093155D3*
X823756D3*
D76*
X2132383Y2523833D3*
D74*
X1932383Y2462833D3*
X2332383D3*
X1932383Y2562833D3*
X2332383D3*
X1932383Y2662833D3*
X2332383D3*
D76*
X1638634Y2523833D3*
D74*
X1438634Y2462833D3*
X1838634D3*
X1438634Y2562833D3*
X1838634D3*
X1438634Y2662833D3*
X1838634D3*
D76*
X1151134Y2523833D3*
D74*
X951134Y2462833D3*
X1351134D3*
X951134Y2562833D3*
X1351134D3*
X951134Y2662833D3*
X1351134D3*
D72*
X2079384Y4461333D3*
X2335384D3*
X2079384Y4639333D3*
X2335384D3*
X1579384Y4461335D3*
X1835384D3*
X1579384Y4639335D3*
X1835384D3*
X1079384Y4461335D3*
X1335384D3*
X1079384Y4639335D3*
X1335384D3*
X579384Y4461335D3*
X835384D3*
X579384Y4639335D3*
X835384D3*
D58*
X706332Y625335D3*
X450332D3*
X706332Y447335D3*
X450332D3*
X450983Y706584D3*
X706983D3*
X450983Y884584D3*
X706983D3*
M02*
