G04 DipTrace 3.3.0.0*
G04 threshold_02a.GBO*
%MOIN*%
G04 #@! TF.FileFunction,Legend,Bot*
G04 #@! TF.Part,Single*
%ADD10C,0.009843*%
%ADD15C,0.008*%
%ADD18C,0.006*%
%ADD31C,0.01*%
%ADD40C,0.000013*%
%ADD44C,0.005984*%
%ADD48C,0.005*%
%ADD110C,0.004632*%
%FSLAX26Y26*%
G04*
G70*
G90*
G75*
G01*
G04 BotSilk*
%LPD*%
X2153599Y1106463D2*
D18*
X2223634D1*
X2188634Y1141410D2*
Y1071467D1*
X2238649Y931580D2*
X2363634D1*
X2138619D2*
X2013634D1*
X2138619Y1331589D2*
X2013634D1*
X2238649D2*
X2363634D1*
Y931580D1*
X2013634D2*
Y1331589D1*
X2138619Y931580D2*
D44*
Y919106D1*
X2238649D1*
Y931580D1*
X2223669Y635590D2*
D18*
X2153634D1*
X2188634Y600643D2*
Y670586D1*
X2138619Y810473D2*
X2013634D1*
X2238649D2*
X2363634D1*
X2238649Y410464D2*
X2363634D1*
X2138619D2*
X2013634D1*
Y810473D1*
X2363634D2*
Y410464D1*
X2238649Y810473D2*
D44*
Y822947D1*
X2138619D1*
Y810473D1*
X2223669Y1575456D2*
D18*
X2153634D1*
X2188634Y1540509D2*
Y1610452D1*
X2138619Y1750339D2*
X2013634D1*
X2238649D2*
X2363634D1*
X2238649Y1350330D2*
X2363634D1*
X2138619D2*
X2013634D1*
Y1750339D1*
X2363634D2*
Y1350330D1*
X2238649Y1750339D2*
D44*
Y1762813D1*
X2138619D1*
Y1750339D1*
X2153599Y2050214D2*
D18*
X2223634D1*
X2188634Y2085161D2*
Y2015217D1*
X2238649Y1875330D2*
X2363634D1*
X2138619D2*
X2013634D1*
X2138619Y2275340D2*
X2013634D1*
X2238649D2*
X2363634D1*
Y1875330D1*
X2013634D2*
Y2275340D1*
X2138619Y1875330D2*
D44*
Y1862856D1*
X2238649D1*
Y1875330D1*
X1753599Y1106463D2*
D18*
X1823634D1*
X1788634Y1141410D2*
Y1071467D1*
X1838649Y931580D2*
X1963634D1*
X1738619D2*
X1613634D1*
X1738619Y1331589D2*
X1613634D1*
X1838649D2*
X1963634D1*
Y931580D1*
X1613634D2*
Y1331589D1*
X1738619Y931580D2*
D44*
Y919106D1*
X1838649D1*
Y931580D1*
X1823669Y635590D2*
D18*
X1753634D1*
X1788634Y600643D2*
Y670586D1*
X1738619Y810473D2*
X1613634D1*
X1838649D2*
X1963634D1*
X1838649Y410464D2*
X1963634D1*
X1738619D2*
X1613634D1*
Y810473D1*
X1963634D2*
Y410464D1*
X1838649Y810473D2*
D44*
Y822947D1*
X1738619D1*
Y810473D1*
X1823669Y1575456D2*
D18*
X1753634D1*
X1788634Y1540509D2*
Y1610452D1*
X1738619Y1750339D2*
X1613634D1*
X1838649D2*
X1963634D1*
X1838649Y1350330D2*
X1963634D1*
X1738619D2*
X1613634D1*
Y1750339D1*
X1963634D2*
Y1350330D1*
X1838649Y1750339D2*
D44*
Y1762813D1*
X1738619D1*
Y1750339D1*
X1753599Y2050214D2*
D18*
X1823634D1*
X1788634Y2085161D2*
Y2015217D1*
X1838649Y1875330D2*
X1963634D1*
X1738619D2*
X1613634D1*
X1738619Y2275340D2*
X1613634D1*
X1838649D2*
X1963634D1*
Y1875330D1*
X1613634D2*
Y2275340D1*
X1738619Y1875330D2*
D44*
Y1862856D1*
X1838649D1*
Y1875330D1*
X1353599Y1106463D2*
D18*
X1423634D1*
X1388634Y1141410D2*
Y1071467D1*
X1438649Y931580D2*
X1563634D1*
X1338619D2*
X1213634D1*
X1338619Y1331589D2*
X1213634D1*
X1438649D2*
X1563634D1*
Y931580D1*
X1213634D2*
Y1331589D1*
X1338619Y931580D2*
D44*
Y919106D1*
X1438649D1*
Y931580D1*
X1423669Y635590D2*
D18*
X1353634D1*
X1388634Y600643D2*
Y670586D1*
X1338619Y810473D2*
X1213634D1*
X1438649D2*
X1563634D1*
X1438649Y410464D2*
X1563634D1*
X1338619D2*
X1213634D1*
Y810473D1*
X1563634D2*
Y410464D1*
X1438649Y810473D2*
D44*
Y822947D1*
X1338619D1*
Y810473D1*
X1423669Y1575456D2*
D18*
X1353634D1*
X1388634Y1540509D2*
Y1610452D1*
X1338619Y1750339D2*
X1213634D1*
X1438649D2*
X1563634D1*
X1438649Y1350330D2*
X1563634D1*
X1338619D2*
X1213634D1*
Y1750339D1*
X1563634D2*
Y1350330D1*
X1438649Y1750339D2*
D44*
Y1762813D1*
X1338619D1*
Y1750339D1*
X1353599Y2050214D2*
D18*
X1423634D1*
X1388634Y2085161D2*
Y2015217D1*
X1438649Y1875330D2*
X1563634D1*
X1338619D2*
X1213634D1*
X1338619Y2275340D2*
X1213634D1*
X1438649D2*
X1563634D1*
Y1875330D1*
X1213634D2*
Y2275340D1*
X1338619Y1875330D2*
D44*
Y1862856D1*
X1438649D1*
Y1875330D1*
X953599Y1106463D2*
D18*
X1023634D1*
X988634Y1141410D2*
Y1071467D1*
X1038649Y931580D2*
X1163634D1*
X938619D2*
X813634D1*
X938619Y1331589D2*
X813634D1*
X1038649D2*
X1163634D1*
Y931580D1*
X813634D2*
Y1331589D1*
X938619Y931580D2*
D44*
Y919106D1*
X1038649D1*
Y931580D1*
X1023669Y635590D2*
D18*
X953634D1*
X988634Y600643D2*
Y670586D1*
X938619Y810473D2*
X813634D1*
X1038649D2*
X1163634D1*
X1038649Y410464D2*
X1163634D1*
X938619D2*
X813634D1*
Y810473D1*
X1163634D2*
Y410464D1*
X1038649Y810473D2*
D44*
Y822947D1*
X938619D1*
Y810473D1*
X1023669Y1575456D2*
D18*
X953634D1*
X988634Y1540509D2*
Y1610452D1*
X938619Y1750339D2*
X813634D1*
X1038649D2*
X1163634D1*
X1038649Y1350330D2*
X1163634D1*
X938619D2*
X813634D1*
Y1750339D1*
X1163634D2*
Y1350330D1*
X1038649Y1750339D2*
D44*
Y1762813D1*
X938619D1*
Y1750339D1*
X953599Y2050214D2*
D18*
X1023634D1*
X988634Y2085161D2*
Y2015217D1*
X1038649Y1875330D2*
X1163634D1*
X938619D2*
X813634D1*
X938619Y2275340D2*
X813634D1*
X1038649D2*
X1163634D1*
Y1875330D1*
X813634D2*
Y2275340D1*
X938619Y1875330D2*
D44*
Y1862856D1*
X1038649D1*
Y1875330D1*
X553599Y2104754D2*
D18*
X623634D1*
X588634Y2139701D2*
Y2069758D1*
X638649Y1929871D2*
X763634D1*
X538619D2*
X413634D1*
X538619Y2329880D2*
X413634D1*
X638649D2*
X763634D1*
Y1929871D1*
X413634D2*
Y2329880D1*
X538619Y1929871D2*
D44*
Y1917397D1*
X638649D1*
Y1929871D1*
X623669Y1631205D2*
D18*
X553634D1*
X588634Y1596258D2*
Y1666202D1*
X538619Y1806089D2*
X413634D1*
X638649D2*
X763634D1*
X638649Y1406079D2*
X763634D1*
X538619D2*
X413634D1*
Y1806089D1*
X763634D2*
Y1406079D1*
X638649Y1806089D2*
D44*
Y1818563D1*
X538619D1*
Y1806089D1*
X553599Y1155963D2*
D18*
X623634D1*
X588634Y1190910D2*
Y1120967D1*
X638649Y981080D2*
X763634D1*
X538619D2*
X413634D1*
X538619Y1381089D2*
X413634D1*
X638649D2*
X763634D1*
Y981080D1*
X413634D2*
Y1381089D1*
X538619Y981080D2*
D44*
Y968606D1*
X638649D1*
Y981080D1*
X2054613Y4550333D2*
D18*
G03X2029493Y4599158I-60036J-14D01*
G01*
X2030613Y4502340D2*
G03X2054613Y4550333I-35985J47993D01*
G01*
X1934613D2*
G02X1957781Y4597695I60007J-7D01*
G01*
Y4502972D2*
G02X1934613Y4550333I36839J47368D01*
G01*
X2074613D2*
D31*
G03X2045829Y4611788I-79941J25D01*
G01*
X2032261Y4479745D2*
G03X2074613Y4550333I-37693J70615D01*
G01*
X1914613D2*
G02X1942933Y4611403I80067J-29D01*
G01*
X1954917Y4480870D2*
G02X1914613Y4550333I39716J69468D01*
G01*
X1554613D2*
D18*
G03X1529493Y4599158I-60036J-14D01*
G01*
X1530613Y4502340D2*
G03X1554613Y4550333I-35985J47993D01*
G01*
X1434613D2*
G02X1457781Y4597695I60007J-7D01*
G01*
Y4502972D2*
G02X1434613Y4550333I36839J47368D01*
G01*
X1574613D2*
D31*
G03X1545829Y4611788I-79941J25D01*
G01*
X1532261Y4479745D2*
G03X1574613Y4550333I-37693J70615D01*
G01*
X1414613D2*
G02X1442933Y4611403I80067J-29D01*
G01*
X1454917Y4480870D2*
G02X1414613Y4550333I39716J69468D01*
G01*
X1048363D2*
D18*
G03X1023243Y4599158I-60036J-14D01*
G01*
X1024363Y4502340D2*
G03X1048363Y4550333I-35985J47993D01*
G01*
X928363D2*
G02X951531Y4597695I60007J-7D01*
G01*
Y4502972D2*
G02X928363Y4550333I36839J47368D01*
G01*
X1068363D2*
D31*
G03X1039579Y4611788I-79941J25D01*
G01*
X1026011Y4479745D2*
G03X1068363Y4550333I-37693J70615D01*
G01*
X908363D2*
G02X936683Y4611403I80067J-29D01*
G01*
X948667Y4480870D2*
G02X908363Y4550333I39716J69468D01*
G01*
X548363D2*
D18*
G03X523243Y4599158I-60036J-14D01*
G01*
X524363Y4502340D2*
G03X548363Y4550333I-35985J47993D01*
G01*
X428363D2*
G02X451531Y4597695I60007J-7D01*
G01*
Y4502972D2*
G02X428363Y4550333I36839J47368D01*
G01*
X568363D2*
D31*
G03X539579Y4611788I-79941J25D01*
G01*
X526011Y4479745D2*
G03X568363Y4550333I-37693J70615D01*
G01*
X408363D2*
G02X436683Y4611403I80067J-29D01*
G01*
X448667Y4480870D2*
G02X408363Y4550333I39716J69468D01*
G01*
X2037719Y4125349D2*
D40*
G02X2037719Y4125349I99986J0D01*
G01*
X2306783Y4340299D2*
D48*
X1968626D1*
Y3954870D1*
X2306783D1*
Y4340299D1*
X2094401Y4100738D2*
D15*
G02X2181008Y4100738I43304J24588D01*
G01*
X2094401D2*
X2181008D1*
X2041239D2*
X2233158D1*
X2038730Y3093165D2*
D40*
G02X2038730Y3093165I99986J0D01*
G01*
X2307795Y3308116D2*
D48*
X1969638D1*
Y2922687D1*
X2307795D1*
Y3308116D1*
X2095413Y3068555D2*
D15*
G02X2182020Y3068555I43304J24588D01*
G01*
X2095413D2*
X2182020D1*
X2042251D2*
X2234169D1*
X1537719Y4125349D2*
D40*
G02X1537719Y4125349I99986J0D01*
G01*
X1806783Y4340299D2*
D48*
X1468626D1*
Y3954870D1*
X1806783D1*
Y4340299D1*
X1594401Y4100738D2*
D15*
G02X1681008Y4100738I43304J24588D01*
G01*
X1594401D2*
X1681008D1*
X1541239D2*
X1733158D1*
X1538730Y3093165D2*
D40*
G02X1538730Y3093165I99986J0D01*
G01*
X1807795Y3308116D2*
D48*
X1469638D1*
Y2922687D1*
X1807795D1*
Y3308116D1*
X1595413Y3068555D2*
D15*
G02X1682020Y3068555I43304J24588D01*
G01*
X1595413D2*
X1682020D1*
X1542251D2*
X1734169D1*
X1037719Y4125349D2*
D40*
G02X1037719Y4125349I99986J0D01*
G01*
X1306783Y4340299D2*
D48*
X968626D1*
Y3954870D1*
X1306783D1*
Y4340299D1*
X1094401Y4100738D2*
D15*
G02X1181008Y4100738I43304J24588D01*
G01*
X1094401D2*
X1181008D1*
X1041239D2*
X1233158D1*
X1038730Y3093165D2*
D40*
G02X1038730Y3093165I99986J0D01*
G01*
X1307795Y3308116D2*
D48*
X969638D1*
Y2922687D1*
X1307795D1*
Y3308116D1*
X1095413Y3068555D2*
D15*
G02X1182020Y3068555I43304J24588D01*
G01*
X1095413D2*
X1182020D1*
X1042251D2*
X1234169D1*
X537719Y4125349D2*
D40*
G02X537719Y4125349I99986J0D01*
G01*
X806783Y4340299D2*
D48*
X468626D1*
Y3954870D1*
X806783D1*
Y4340299D1*
X594401Y4100738D2*
D15*
G02X681008Y4100738I43304J24588D01*
G01*
X594401D2*
X681008D1*
X541239D2*
X733158D1*
X538730Y3093165D2*
D40*
G02X538730Y3093165I99986J0D01*
G01*
X807795Y3308116D2*
D48*
X469638D1*
Y2922687D1*
X807795D1*
Y3308116D1*
X595413Y3068555D2*
D15*
G02X682020Y3068555I43304J24588D01*
G01*
X595413D2*
X682020D1*
X542251D2*
X734169D1*
X2132383Y2712833D2*
D10*
X1982377D1*
Y2412833D1*
X2132383D1*
X2282389D1*
Y2712833D1*
X2132383D1*
X1638634D2*
X1488628D1*
Y2412833D1*
X1638634D1*
X1788640D1*
Y2712833D1*
X1638634D1*
X1151134D2*
X1001128D1*
Y2412833D1*
X1151134D1*
X1301140D1*
Y2712833D1*
X1151134D1*
X2137368Y4550333D2*
D40*
G02X2137368Y4550333I70016J0D01*
G01*
X2292376Y4430331D2*
D15*
X2122392D1*
Y4670336D2*
X2292376D1*
X2327384Y4511047D2*
Y4590326D1*
X2087384Y4509862D2*
Y4590326D1*
X1637368Y4550335D2*
D40*
G02X1637368Y4550335I70016J0D01*
G01*
X1792376Y4430332D2*
D15*
X1622392D1*
Y4670337D2*
X1792376D1*
X1827384Y4511048D2*
Y4590327D1*
X1587384Y4509864D2*
Y4590327D1*
X1137368Y4550335D2*
D40*
G02X1137368Y4550335I70016J0D01*
G01*
X1292376Y4430332D2*
D15*
X1122392D1*
Y4670337D2*
X1292376D1*
X1327384Y4511048D2*
Y4590327D1*
X1087384Y4509864D2*
Y4590327D1*
X637368Y4550335D2*
D40*
G02X637368Y4550335I70016J0D01*
G01*
X792376Y4430332D2*
D15*
X622392D1*
Y4670337D2*
X792376D1*
X827384Y4511048D2*
Y4590327D1*
X587384Y4509864D2*
Y4590327D1*
X508339Y536335D2*
D40*
G02X508339Y536335I69993J0D01*
G01*
X493324Y656337D2*
D15*
X663340D1*
Y416332D2*
X493324D1*
X458344Y575622D2*
Y496342D1*
X698320Y576806D2*
Y496342D1*
X508990Y795584D2*
D40*
G02X508990Y795584I69993J0D01*
G01*
X663991Y675582D2*
D15*
X493975D1*
Y915586D2*
X663991D1*
X698971Y756297D2*
Y835576D1*
X458995Y755113D2*
Y835576D1*
X2338782Y924822D2*
D110*
Y901874D1*
X2340208Y897563D1*
X2341667Y896137D1*
X2344519Y894678D1*
X2347404D1*
X2350256Y896137D1*
X2351682Y897563D1*
X2353141Y901874D1*
Y904726D1*
X2329519Y919052D2*
X2326634Y920511D1*
X2322323Y924789D1*
Y894678D1*
X2043137Y856325D2*
Y833377D1*
X2044563Y829066D1*
X2046022Y827640D1*
X2048874Y826181D1*
X2051759D1*
X2054611Y827640D1*
X2056036Y829066D1*
X2057496Y833377D1*
Y836229D1*
X2032414Y849129D2*
Y850555D1*
X2030988Y853440D1*
X2029562Y854866D1*
X2026677Y856292D1*
X2020940D1*
X2018088Y854866D1*
X2016662Y853440D1*
X2015203Y850555D1*
Y847703D1*
X2016662Y844818D1*
X2019514Y840540D1*
X2033873Y826181D1*
X2013777D1*
X2044896Y1794602D2*
Y1771654D1*
X2046322Y1767343D1*
X2047781Y1765917D1*
X2050633Y1764458D1*
X2053518D1*
X2056370Y1765917D1*
X2057796Y1767343D1*
X2059255Y1771654D1*
Y1774506D1*
X2032748Y1794569D2*
X2016996D1*
X2025585Y1783095D1*
X2021274D1*
X2018422Y1781669D1*
X2016996Y1780243D1*
X2015537Y1775932D1*
Y1773080D1*
X2016996Y1768769D1*
X2019848Y1765884D1*
X2024159Y1764458D1*
X2028470D1*
X2032748Y1765884D1*
X2034174Y1767343D1*
X2035633Y1770195D1*
X2340983Y1864380D2*
Y1841432D1*
X2342409Y1837121D1*
X2343868Y1835695D1*
X2346720Y1834236D1*
X2349605D1*
X2352457Y1835695D1*
X2353883Y1837121D1*
X2355342Y1841432D1*
Y1844284D1*
X2317361Y1834236D2*
Y1864347D1*
X2331720Y1844284D1*
X2310198D1*
X1920480Y921510D2*
Y898562D1*
X1921906Y894251D1*
X1923365Y892825D1*
X1926217Y891366D1*
X1929102D1*
X1931954Y892825D1*
X1933380Y894251D1*
X1934839Y898562D1*
Y901414D1*
X1894006Y921477D2*
X1908332D1*
X1909758Y908577D1*
X1908332Y910003D1*
X1904021Y911462D1*
X1899743D1*
X1895432Y910003D1*
X1892547Y907151D1*
X1891121Y902840D1*
Y899988D1*
X1892547Y895677D1*
X1895432Y892792D1*
X1899743Y891366D1*
X1904021D1*
X1908332Y892792D1*
X1909758Y894251D1*
X1911217Y897103D1*
X1649618Y848139D2*
Y825191D1*
X1651044Y820880D1*
X1652503Y819454D1*
X1655355Y817995D1*
X1658240D1*
X1661092Y819454D1*
X1662518Y820880D1*
X1663977Y825191D1*
Y828043D1*
X1623144Y843828D2*
X1624570Y846680D1*
X1628881Y848105D1*
X1631733D1*
X1636044Y846680D1*
X1638929Y842369D1*
X1640355Y835206D1*
Y828043D1*
X1638929Y822306D1*
X1636044Y819421D1*
X1631733Y817995D1*
X1630307D1*
X1626029Y819421D1*
X1623144Y822306D1*
X1621718Y826617D1*
Y828043D1*
X1623144Y832354D1*
X1626029Y835206D1*
X1630307Y836632D1*
X1631733D1*
X1636044Y835206D1*
X1638929Y832354D1*
X1640355Y828043D1*
X1640616Y1790321D2*
Y1767373D1*
X1642042Y1763062D1*
X1643501Y1761636D1*
X1646353Y1760177D1*
X1649238D1*
X1652090Y1761636D1*
X1653515Y1763062D1*
X1654975Y1767373D1*
Y1770225D1*
X1625615Y1760177D2*
X1611256Y1790288D1*
X1631352D1*
X1944432Y1860203D2*
Y1837255D1*
X1945858Y1832944D1*
X1947317Y1831518D1*
X1950169Y1830059D1*
X1953054D1*
X1955906Y1831518D1*
X1957332Y1832944D1*
X1958791Y1837255D1*
Y1840107D1*
X1928006Y1860170D2*
X1932284Y1858744D1*
X1933743Y1855892D1*
Y1853007D1*
X1932284Y1850155D1*
X1929432Y1848696D1*
X1923695Y1847270D1*
X1919384Y1845844D1*
X1916532Y1842959D1*
X1915106Y1840107D1*
Y1835796D1*
X1916532Y1832944D1*
X1917958Y1831485D1*
X1922269Y1830059D1*
X1928006D1*
X1932284Y1831485D1*
X1933743Y1832944D1*
X1935169Y1835796D1*
Y1840107D1*
X1933743Y1842959D1*
X1930858Y1845844D1*
X1926580Y1847270D1*
X1920843Y1848696D1*
X1917958Y1850155D1*
X1916532Y1853007D1*
Y1855892D1*
X1917958Y1858744D1*
X1922269Y1860170D1*
X1928006D1*
X1532631Y923653D2*
Y900705D1*
X1534057Y896394D1*
X1535516Y894968D1*
X1538368Y893509D1*
X1541253D1*
X1544105Y894968D1*
X1545531Y896394D1*
X1546990Y900705D1*
Y903557D1*
X1504697Y913605D2*
X1506156Y909294D1*
X1509008Y906409D1*
X1513319Y904983D1*
X1514745D1*
X1519056Y906409D1*
X1521908Y909294D1*
X1523367Y913605D1*
Y915031D1*
X1521908Y919342D1*
X1519056Y922194D1*
X1514745Y923620D1*
X1513319D1*
X1509008Y922194D1*
X1506156Y919342D1*
X1504697Y913605D1*
Y906409D1*
X1506156Y899246D1*
X1509008Y894935D1*
X1513319Y893509D1*
X1516171D1*
X1520482Y894935D1*
X1521908Y897820D1*
X1273586Y854570D2*
Y831622D1*
X1275012Y827311D1*
X1276471Y825886D1*
X1279323Y824426D1*
X1282208D1*
X1285060Y825886D1*
X1286485Y827311D1*
X1287945Y831622D1*
Y834474D1*
X1264322Y848800D2*
X1261437Y850259D1*
X1257126Y854537D1*
Y824426D1*
X1239240Y854537D2*
X1243551Y853111D1*
X1246436Y848800D1*
X1247862Y841637D1*
Y837326D1*
X1246436Y830163D1*
X1243551Y825852D1*
X1239240Y824426D1*
X1236388D1*
X1232077Y825852D1*
X1229225Y830163D1*
X1227766Y837326D1*
Y841637D1*
X1229225Y848800D1*
X1232077Y853111D1*
X1236388Y854537D1*
X1239240D1*
X1229225Y848800D2*
X1246436Y830163D1*
X1245250Y1790321D2*
Y1767373D1*
X1246676Y1763062D1*
X1248135Y1761636D1*
X1250987Y1760177D1*
X1253872D1*
X1256724Y1761636D1*
X1258150Y1763062D1*
X1259609Y1767373D1*
Y1770225D1*
X1235986Y1784551D2*
X1233101Y1786010D1*
X1228790Y1790288D1*
Y1760177D1*
X1219527Y1784551D2*
X1216642Y1786010D1*
X1212330Y1790288D1*
Y1760177D1*
X1535966Y1860203D2*
Y1837255D1*
X1537392Y1832944D1*
X1538851Y1831518D1*
X1541703Y1830059D1*
X1544588D1*
X1547440Y1831518D1*
X1548866Y1832944D1*
X1550325Y1837255D1*
Y1840107D1*
X1526703Y1854433D2*
X1523818Y1855892D1*
X1519506Y1860170D1*
Y1830059D1*
X1508784Y1853007D2*
Y1854433D1*
X1507358Y1857318D1*
X1505932Y1858744D1*
X1503047Y1860170D1*
X1497310D1*
X1494458Y1858744D1*
X1493032Y1857318D1*
X1491573Y1854433D1*
Y1851581D1*
X1493032Y1848696D1*
X1495884Y1844418D1*
X1510243Y1830059D1*
X1490147D1*
X1122278Y914006D2*
Y891058D1*
X1123704Y886747D1*
X1125164Y885321D1*
X1128015Y883862D1*
X1130901D1*
X1133752Y885321D1*
X1135178Y886747D1*
X1136637Y891058D1*
Y893910D1*
X1113015Y908236D2*
X1110130Y909695D1*
X1105819Y913973D1*
Y883862D1*
X1093670Y913973D2*
X1077918D1*
X1086507Y902499D1*
X1082196D1*
X1079344Y901073D1*
X1077918Y899647D1*
X1076459Y895336D1*
Y892484D1*
X1077918Y888173D1*
X1080770Y885288D1*
X1085081Y883862D1*
X1089392D1*
X1093670Y885288D1*
X1095096Y886747D1*
X1096555Y889599D1*
X873226Y856715D2*
Y833767D1*
X874652Y829456D1*
X876111Y828030D1*
X878963Y826571D1*
X881848D1*
X884700Y828030D1*
X886126Y829456D1*
X887585Y833767D1*
Y836619D1*
X863963Y850945D2*
X861078Y852404D1*
X856767Y856682D1*
Y826571D1*
X833144D2*
Y856682D1*
X847503Y836619D1*
X825981D1*
X863113Y1791748D2*
Y1768800D1*
X864539Y1764489D1*
X865998Y1763063D1*
X868850Y1761604D1*
X871735D1*
X874587Y1763063D1*
X876013Y1764489D1*
X877472Y1768800D1*
Y1771652D1*
X853850Y1785977D2*
X850964Y1787437D1*
X846653Y1791714D1*
Y1761604D1*
X820179Y1791714D2*
X834505D1*
X835931Y1778814D1*
X834505Y1780240D1*
X830194Y1781700D1*
X825916D1*
X821605Y1780240D1*
X818720Y1777389D1*
X817294Y1773078D1*
Y1770226D1*
X818720Y1765915D1*
X821605Y1763030D1*
X825916Y1761604D1*
X830194D1*
X834505Y1763030D1*
X835931Y1764489D1*
X837390Y1767341D1*
X1139415Y1856024D2*
Y1833077D1*
X1140841Y1828766D1*
X1142300Y1827340D1*
X1145152Y1825880D1*
X1148037D1*
X1150889Y1827340D1*
X1152315Y1828766D1*
X1153774Y1833077D1*
Y1835928D1*
X1130151Y1850254D2*
X1127266Y1851713D1*
X1122955Y1855991D1*
Y1825880D1*
X1096481Y1851713D2*
X1097907Y1854565D1*
X1102218Y1855991D1*
X1105070D1*
X1109381Y1854565D1*
X1112266Y1850254D1*
X1113692Y1843091D1*
Y1835928D1*
X1112266Y1830191D1*
X1109381Y1827306D1*
X1105070Y1825880D1*
X1103644D1*
X1099366Y1827306D1*
X1096481Y1830191D1*
X1095055Y1834503D1*
Y1835928D1*
X1096481Y1840239D1*
X1099366Y1843091D1*
X1103644Y1844517D1*
X1105070D1*
X1109381Y1843091D1*
X1112266Y1840239D1*
X1113692Y1835928D1*
X604364Y2374309D2*
Y2351361D1*
X605790Y2347050D1*
X607249Y2345624D1*
X610101Y2344165D1*
X612986D1*
X615838Y2345624D1*
X617264Y2347050D1*
X618723Y2351361D1*
Y2354213D1*
X595100Y2368539D2*
X592215Y2369998D1*
X587904Y2374276D1*
Y2344165D1*
X572904D2*
X558545Y2374276D1*
X578641D1*
X604347Y1944518D2*
Y1921570D1*
X605773Y1917259D1*
X607232Y1915833D1*
X610084Y1914374D1*
X612969D1*
X615821Y1915833D1*
X617247Y1917259D1*
X618706Y1921570D1*
Y1924422D1*
X595084Y1938748D2*
X592199Y1940207D1*
X587888Y1944485D1*
Y1914374D1*
X571461Y1944485D2*
X575739Y1943059D1*
X577198Y1940207D1*
Y1937322D1*
X575739Y1934470D1*
X572887Y1933011D1*
X567150Y1931585D1*
X562839Y1930159D1*
X559987Y1927274D1*
X558561Y1924422D1*
Y1920111D1*
X559987Y1917259D1*
X561413Y1915800D1*
X565724Y1914374D1*
X571461D1*
X575739Y1915800D1*
X577198Y1917259D1*
X578624Y1920111D1*
Y1924422D1*
X577198Y1927274D1*
X574313Y1930159D1*
X570035Y1931585D1*
X564298Y1933011D1*
X561413Y1934470D1*
X559987Y1937322D1*
Y1940207D1*
X561413Y1943059D1*
X565724Y1944485D1*
X571461D1*
X604364Y1425518D2*
Y1402570D1*
X605790Y1398259D1*
X607249Y1396833D1*
X610101Y1395374D1*
X612986D1*
X615838Y1396833D1*
X617264Y1398259D1*
X618723Y1402570D1*
Y1405422D1*
X593641Y1418322D2*
Y1419748D1*
X592215Y1422633D1*
X590789Y1424059D1*
X587904Y1425485D1*
X582167D1*
X579315Y1424059D1*
X577889Y1422633D1*
X576430Y1419748D1*
Y1416896D1*
X577889Y1414011D1*
X580741Y1409733D1*
X595100Y1395374D1*
X575004D1*
X565741Y1419748D2*
X562856Y1421207D1*
X558545Y1425485D1*
Y1395374D1*
X2040078Y4668290D2*
Y4638146D1*
X2022867D1*
X1994967Y4668290D2*
X2013603D1*
Y4638146D1*
X1994967D1*
X2013603Y4653931D2*
X2002130D1*
X1985703Y4668290D2*
Y4638146D1*
X1975655D1*
X1971344Y4639605D1*
X1968459Y4642457D1*
X1967033Y4645342D1*
X1965607Y4649620D1*
Y4656816D1*
X1967033Y4661127D1*
X1968459Y4663979D1*
X1971344Y4666864D1*
X1975655Y4668290D1*
X1985703D1*
X1956343Y4662519D2*
X1953458Y4663979D1*
X1949147Y4668256D1*
Y4638146D1*
X1546528Y4668290D2*
Y4638146D1*
X1529317D1*
X1501417Y4668290D2*
X1520053D1*
Y4638146D1*
X1501417D1*
X1520053Y4653931D2*
X1508579D1*
X1492153Y4668290D2*
Y4638146D1*
X1482105D1*
X1477794Y4639605D1*
X1474909Y4642457D1*
X1473483Y4645342D1*
X1472057Y4649620D1*
Y4656816D1*
X1473483Y4661127D1*
X1474909Y4663979D1*
X1477794Y4666864D1*
X1482105Y4668290D1*
X1492153D1*
X1461334Y4661093D2*
Y4662519D1*
X1459908Y4665405D1*
X1458482Y4666830D1*
X1455597Y4668256D1*
X1449860D1*
X1447008Y4666830D1*
X1445583Y4665405D1*
X1444123Y4662519D1*
Y4659668D1*
X1445583Y4656782D1*
X1448434Y4652505D1*
X1462793Y4638146D1*
X1442697D1*
X1040279Y4668290D2*
Y4638146D1*
X1023068D1*
X995167Y4668290D2*
X1013804D1*
Y4638146D1*
X995167D1*
X1013804Y4653931D2*
X1002330D1*
X985904Y4668290D2*
Y4638146D1*
X975856D1*
X971545Y4639605D1*
X968660Y4642457D1*
X967234Y4645342D1*
X965808Y4649620D1*
Y4656816D1*
X967234Y4661127D1*
X968660Y4663979D1*
X971545Y4666864D1*
X975856Y4668290D1*
X985904D1*
X953659Y4668256D2*
X937907D1*
X946496Y4656782D1*
X942185D1*
X939333Y4655357D1*
X937907Y4653931D1*
X936448Y4649620D1*
Y4646768D1*
X937907Y4642457D1*
X940759Y4639572D1*
X945070Y4638146D1*
X949381D1*
X953659Y4639572D1*
X955085Y4641031D1*
X956544Y4643883D1*
X540992Y4668290D2*
Y4638146D1*
X523781D1*
X495880Y4668290D2*
X514517D1*
Y4638146D1*
X495880D1*
X514517Y4653931D2*
X503043D1*
X486617Y4668290D2*
Y4638146D1*
X476569D1*
X472258Y4639605D1*
X469373Y4642457D1*
X467947Y4645342D1*
X466521Y4649620D1*
Y4656816D1*
X467947Y4661127D1*
X469373Y4663979D1*
X472258Y4666864D1*
X476569Y4668290D1*
X486617D1*
X442898Y4638146D2*
Y4668256D1*
X457257Y4648194D1*
X435735D1*
X2163145Y4369874D2*
X2150245D1*
X2145934Y4371333D1*
X2144475Y4372759D1*
X2143049Y4375611D1*
Y4378496D1*
X2144475Y4381348D1*
X2145934Y4382807D1*
X2150245Y4384233D1*
X2163145D1*
Y4354089D1*
X2153097Y4369874D2*
X2143049Y4354089D1*
X2119427D2*
Y4384200D1*
X2133786Y4364137D1*
X2112264D1*
X2163444Y3337690D2*
X2150544D1*
X2146233Y3339149D1*
X2144774Y3340575D1*
X2143348Y3343427D1*
Y3346312D1*
X2144774Y3349164D1*
X2146233Y3350623D1*
X2150544Y3352049D1*
X2163444D1*
Y3321905D1*
X2153396Y3337690D2*
X2143348Y3321905D1*
X2116874Y3352016D2*
X2131200D1*
X2132625Y3339116D1*
X2131200Y3340542D1*
X2126888Y3342001D1*
X2122611D1*
X2118300Y3340542D1*
X2115415Y3337690D1*
X2113989Y3333379D1*
Y3330527D1*
X2115415Y3326216D1*
X2118300Y3323331D1*
X2122611Y3321905D1*
X2126888D1*
X2131200Y3323331D1*
X2132625Y3324790D1*
X2134085Y3327642D1*
X1670662Y4369874D2*
X1657762D1*
X1653451Y4371333D1*
X1651992Y4372759D1*
X1650566Y4375611D1*
Y4378496D1*
X1651992Y4381348D1*
X1653451Y4382807D1*
X1657762Y4384233D1*
X1670662D1*
Y4354089D1*
X1660614Y4369874D2*
X1650566Y4354089D1*
X1638418Y4384200D2*
X1622666D1*
X1631255Y4372726D1*
X1626944D1*
X1624092Y4371300D1*
X1622666Y4369874D1*
X1621207Y4365563D1*
Y4362711D1*
X1622666Y4358400D1*
X1625518Y4355515D1*
X1629829Y4354089D1*
X1634140D1*
X1638418Y4355515D1*
X1639843Y4356974D1*
X1641303Y4359826D1*
X1611943Y4378463D2*
X1609058Y4379922D1*
X1604747Y4384200D1*
Y4354089D1*
X1678124Y3337690D2*
X1665224D1*
X1660913Y3339149D1*
X1659454Y3340575D1*
X1658028Y3343427D1*
Y3346312D1*
X1659454Y3349164D1*
X1660913Y3350623D1*
X1665224Y3352049D1*
X1678124D1*
Y3321905D1*
X1668076Y3337690D2*
X1658028Y3321905D1*
X1645879Y3352016D2*
X1630127D1*
X1638716Y3340542D1*
X1634405D1*
X1631553Y3339116D1*
X1630127Y3337690D1*
X1628668Y3333379D1*
Y3330527D1*
X1630127Y3326216D1*
X1632979Y3323331D1*
X1637290Y3321905D1*
X1641601D1*
X1645879Y3323331D1*
X1647305Y3324790D1*
X1648764Y3327642D1*
X1617946Y3344853D2*
Y3346279D1*
X1616520Y3349164D1*
X1615094Y3350590D1*
X1612209Y3352016D1*
X1606472D1*
X1603620Y3350590D1*
X1602194Y3349164D1*
X1600735Y3346279D1*
Y3343427D1*
X1602194Y3340542D1*
X1605046Y3336264D1*
X1619405Y3321905D1*
X1599309D1*
X1171375Y4369874D2*
X1158475D1*
X1154164Y4371333D1*
X1152705Y4372759D1*
X1151279Y4375611D1*
Y4378496D1*
X1152705Y4381348D1*
X1154164Y4382807D1*
X1158475Y4384233D1*
X1171375D1*
Y4354089D1*
X1161327Y4369874D2*
X1151279Y4354089D1*
X1127657D2*
Y4384200D1*
X1142016Y4364137D1*
X1120494D1*
X1111230Y4378463D2*
X1108345Y4379922D1*
X1104034Y4384200D1*
Y4354089D1*
X1178837Y3337690D2*
X1165937D1*
X1161626Y3339149D1*
X1160167Y3340575D1*
X1158741Y3343427D1*
Y3346312D1*
X1160167Y3349164D1*
X1161626Y3350623D1*
X1165937Y3352049D1*
X1178837D1*
Y3321905D1*
X1168789Y3337690D2*
X1158741Y3321905D1*
X1135118D2*
Y3352016D1*
X1149477Y3331953D1*
X1127955D1*
X1117233Y3344853D2*
Y3346279D1*
X1115807Y3349164D1*
X1114381Y3350590D1*
X1111496Y3352016D1*
X1105759D1*
X1102907Y3350590D1*
X1101481Y3349164D1*
X1100022Y3346279D1*
Y3343427D1*
X1101481Y3340542D1*
X1104333Y3336264D1*
X1118692Y3321905D1*
X1098596D1*
X676366Y4369874D2*
X663466D1*
X659155Y4371333D1*
X657696Y4372759D1*
X656270Y4375611D1*
Y4378496D1*
X657696Y4381348D1*
X659155Y4382807D1*
X663466Y4384233D1*
X676366D1*
Y4354089D1*
X666318Y4369874D2*
X656270Y4354089D1*
X629795Y4379922D2*
X631221Y4382774D1*
X635532Y4384200D1*
X638384D1*
X642695Y4382774D1*
X645580Y4378463D1*
X647006Y4371300D1*
Y4364137D1*
X645580Y4358400D1*
X642695Y4355515D1*
X638384Y4354089D1*
X636958D1*
X632681Y4355515D1*
X629795Y4358400D1*
X628370Y4362711D1*
Y4364137D1*
X629795Y4368448D1*
X632681Y4371300D1*
X636958Y4372726D1*
X638384D1*
X642695Y4371300D1*
X645580Y4368448D1*
X647006Y4364137D1*
X611943Y4384200D2*
X616221Y4382774D1*
X617680Y4379922D1*
Y4377037D1*
X616221Y4374185D1*
X613369Y4372726D1*
X607632Y4371300D1*
X603321Y4369874D1*
X600469Y4366989D1*
X599043Y4364137D1*
Y4359826D1*
X600469Y4356974D1*
X601895Y4355515D1*
X606206Y4354089D1*
X611943D1*
X616221Y4355515D1*
X617680Y4356974D1*
X619106Y4359826D1*
Y4364137D1*
X617680Y4366989D1*
X614795Y4369874D1*
X610517Y4371300D1*
X604780Y4372726D1*
X601895Y4374185D1*
X600469Y4377037D1*
Y4379922D1*
X601895Y4382774D1*
X606206Y4384200D1*
X611943D1*
X676681Y3337690D2*
X663781D1*
X659470Y3339149D1*
X658011Y3340575D1*
X656585Y3343427D1*
Y3346312D1*
X658011Y3349164D1*
X659470Y3350623D1*
X663781Y3352049D1*
X676681D1*
Y3321905D1*
X666633Y3337690D2*
X656585Y3321905D1*
X630111Y3347738D2*
X631537Y3350590D1*
X635848Y3352016D1*
X638700D1*
X643011Y3350590D1*
X645896Y3346279D1*
X647322Y3339116D1*
Y3331953D1*
X645896Y3326216D1*
X643011Y3323331D1*
X638700Y3321905D1*
X637274D1*
X632996Y3323331D1*
X630111Y3326216D1*
X628685Y3330527D1*
Y3331953D1*
X630111Y3336264D1*
X632996Y3339116D1*
X637274Y3340542D1*
X638700D1*
X643011Y3339116D1*
X645896Y3336264D1*
X647322Y3331953D1*
X600751Y3342001D2*
X602210Y3337690D1*
X605062Y3334805D1*
X609373Y3333379D1*
X610799D1*
X615110Y3334805D1*
X617962Y3337690D1*
X619421Y3342001D1*
Y3343427D1*
X617962Y3347738D1*
X615110Y3350590D1*
X610799Y3352016D1*
X609373D1*
X605062Y3350590D1*
X602210Y3347738D1*
X600751Y3342001D1*
Y3334805D1*
X602210Y3327642D1*
X605062Y3323331D1*
X609373Y3321905D1*
X612225D1*
X616536Y3323331D1*
X617962Y3326216D1*
X2149556Y2752456D2*
X2152408Y2755341D1*
X2156719Y2756767D1*
X2162456D1*
X2166767Y2755341D1*
X2169652Y2752456D1*
Y2749604D1*
X2168193Y2746719D1*
X2166767Y2745293D1*
X2163915Y2743867D1*
X2155293Y2740982D1*
X2152408Y2739556D1*
X2150982Y2738097D1*
X2149556Y2735245D1*
Y2730934D1*
X2152408Y2728082D1*
X2156719Y2726623D1*
X2162456D1*
X2166767Y2728082D1*
X2169652Y2730934D1*
X2140292Y2756767D2*
X2133096Y2726623D1*
X2125933Y2756767D1*
X2118770Y2726623D1*
X2111574Y2756767D1*
X2102310Y2750997D2*
X2099425Y2752456D1*
X2095114Y2756734D1*
Y2726623D1*
X1662256Y2752456D2*
X1665108Y2755341D1*
X1669419Y2756767D1*
X1675156D1*
X1679467Y2755341D1*
X1682352Y2752456D1*
Y2749604D1*
X1680893Y2746719D1*
X1679467Y2745293D1*
X1676615Y2743867D1*
X1667993Y2740982D1*
X1665108Y2739556D1*
X1663682Y2738097D1*
X1662256Y2735245D1*
Y2730934D1*
X1665108Y2728082D1*
X1669419Y2726623D1*
X1675156D1*
X1679467Y2728082D1*
X1682352Y2730934D1*
X1652993Y2756767D2*
X1645797Y2726623D1*
X1638634Y2756767D1*
X1631471Y2726623D1*
X1624275Y2756767D1*
X1613552Y2749571D2*
Y2750997D1*
X1612126Y2753882D1*
X1610700Y2755308D1*
X1607815Y2756734D1*
X1602078D1*
X1599226Y2755308D1*
X1597800Y2753882D1*
X1596341Y2750997D1*
Y2748145D1*
X1597800Y2745260D1*
X1600652Y2740982D1*
X1615011Y2726623D1*
X1594915D1*
X1174756Y2752456D2*
X1177608Y2755341D1*
X1181919Y2756767D1*
X1187656D1*
X1191967Y2755341D1*
X1194852Y2752456D1*
Y2749604D1*
X1193393Y2746719D1*
X1191967Y2745293D1*
X1189115Y2743867D1*
X1180493Y2740982D1*
X1177608Y2739556D1*
X1176182Y2738097D1*
X1174756Y2735245D1*
Y2730934D1*
X1177608Y2728082D1*
X1181919Y2726623D1*
X1187656D1*
X1191967Y2728082D1*
X1194852Y2730934D1*
X1165493Y2756767D2*
X1158297Y2726623D1*
X1151134Y2756767D1*
X1143971Y2726623D1*
X1136775Y2756767D1*
X1124626Y2756734D2*
X1108874D1*
X1117463Y2745260D1*
X1113152D1*
X1110300Y2743834D1*
X1108874Y2742408D1*
X1107415Y2738097D1*
Y2735245D1*
X1108874Y2730934D1*
X1111726Y2728049D1*
X1116037Y2726623D1*
X1120348D1*
X1124626Y2728049D1*
X1126052Y2729508D1*
X1127511Y2732360D1*
X2330469Y4402616D2*
X2333321Y4405501D1*
X2337632Y4406927D1*
X2343369D1*
X2347680Y4405501D1*
X2350565Y4402616D1*
Y4399764D1*
X2349106Y4396879D1*
X2347680Y4395453D1*
X2344828Y4394027D1*
X2336206Y4391142D1*
X2333321Y4389716D1*
X2331895Y4388257D1*
X2330469Y4385405D1*
Y4381094D1*
X2333321Y4378242D1*
X2337632Y4376783D1*
X2343369D1*
X2347680Y4378242D1*
X2350565Y4381094D1*
X2321206Y4406927D2*
X2314010Y4376783D1*
X2306847Y4406927D1*
X2299684Y4376783D1*
X2292488Y4406927D1*
X2268865Y4376783D2*
Y4406894D1*
X2283224Y4386831D1*
X2261702D1*
X1825693Y4405959D2*
X1828545Y4408844D1*
X1832856Y4410270D1*
X1838593D1*
X1842904Y4408844D1*
X1845789Y4405959D1*
Y4403107D1*
X1844330Y4400222D1*
X1842904Y4398796D1*
X1840052Y4397370D1*
X1831430Y4394485D1*
X1828545Y4393059D1*
X1827119Y4391600D1*
X1825693Y4388748D1*
Y4384437D1*
X1828545Y4381585D1*
X1832856Y4380126D1*
X1838593D1*
X1842904Y4381585D1*
X1845789Y4384437D1*
X1816430Y4410270D2*
X1809234Y4380126D1*
X1802071Y4410270D1*
X1794908Y4380126D1*
X1787712Y4410270D1*
X1761237Y4410237D2*
X1775563D1*
X1776989Y4397337D1*
X1775563Y4398763D1*
X1771252Y4400222D1*
X1766974D1*
X1762663Y4398763D1*
X1759778Y4395911D1*
X1758352Y4391600D1*
Y4388748D1*
X1759778Y4384437D1*
X1762663Y4381552D1*
X1766974Y4380126D1*
X1771252D1*
X1775563Y4381552D1*
X1776989Y4383011D1*
X1778448Y4385863D1*
X1315884Y4403364D2*
X1318736Y4406249D1*
X1323047Y4407675D1*
X1328784D1*
X1333095Y4406249D1*
X1335980Y4403364D1*
Y4400512D1*
X1334521Y4397627D1*
X1333095Y4396201D1*
X1330243Y4394775D1*
X1321621Y4391890D1*
X1318736Y4390464D1*
X1317310Y4389005D1*
X1315884Y4386153D1*
Y4381842D1*
X1318736Y4378990D1*
X1323047Y4377531D1*
X1328784D1*
X1333095Y4378990D1*
X1335980Y4381842D1*
X1306620Y4407675D2*
X1299424Y4377531D1*
X1292261Y4407675D1*
X1285098Y4377531D1*
X1277902Y4407675D1*
X1251428Y4403364D2*
X1252854Y4406216D1*
X1257165Y4407642D1*
X1260016D1*
X1264327Y4406216D1*
X1267213Y4401905D1*
X1268639Y4394742D1*
Y4387579D1*
X1267213Y4381842D1*
X1264327Y4378957D1*
X1260016Y4377531D1*
X1258591D1*
X1254313Y4378957D1*
X1251428Y4381842D1*
X1250002Y4386153D1*
Y4387579D1*
X1251428Y4391890D1*
X1254313Y4394742D1*
X1258591Y4396168D1*
X1260016D1*
X1264327Y4394742D1*
X1267213Y4391890D1*
X1268639Y4387579D1*
X815317Y4403364D2*
X818169Y4406249D1*
X822480Y4407675D1*
X828217D1*
X832528Y4406249D1*
X835413Y4403364D1*
Y4400512D1*
X833954Y4397627D1*
X832528Y4396201D1*
X829676Y4394775D1*
X821054Y4391890D1*
X818169Y4390464D1*
X816743Y4389005D1*
X815317Y4386153D1*
Y4381842D1*
X818169Y4378990D1*
X822480Y4377531D1*
X828217D1*
X832528Y4378990D1*
X835413Y4381842D1*
X806053Y4407675D2*
X798857Y4377531D1*
X791694Y4407675D1*
X784531Y4377531D1*
X777335Y4407675D1*
X762334Y4377531D2*
X747975Y4407642D1*
X768071D1*
X601938Y701958D2*
X604790Y704843D1*
X609101Y706269D1*
X614838D1*
X619149Y704843D1*
X622034Y701958D1*
Y699106D1*
X620575Y696221D1*
X619149Y694795D1*
X616297Y693369D1*
X607675Y690484D1*
X604790Y689058D1*
X603364Y687599D1*
X601938Y684747D1*
Y680436D1*
X604790Y677584D1*
X609101Y676125D1*
X614838D1*
X619149Y677584D1*
X622034Y680436D1*
X592674Y706269D2*
X585478Y676125D1*
X578315Y706269D1*
X571152Y676125D1*
X563956Y706269D1*
X547530Y706235D2*
X551808Y704809D1*
X553267Y701958D1*
Y699072D1*
X551808Y696221D1*
X548956Y694761D1*
X543219Y693335D1*
X538908Y691910D1*
X536056Y689024D1*
X534630Y686173D1*
Y681862D1*
X536056Y679010D1*
X537482Y677551D1*
X541793Y676125D1*
X547530D1*
X551808Y677551D1*
X553267Y679010D1*
X554693Y681862D1*
Y686173D1*
X553267Y689024D1*
X550382Y691910D1*
X546104Y693335D1*
X540367Y694761D1*
X537482Y696221D1*
X536056Y699072D1*
Y701958D1*
X537482Y704809D1*
X541793Y706235D1*
X547530D1*
X601892Y961207D2*
X604744Y964092D1*
X609055Y965518D1*
X614792D1*
X619103Y964092D1*
X621988Y961207D1*
Y958355D1*
X620529Y955470D1*
X619103Y954044D1*
X616251Y952618D1*
X607629Y949733D1*
X604744Y948307D1*
X603318Y946848D1*
X601892Y943996D1*
Y939685D1*
X604744Y936833D1*
X609055Y935374D1*
X614792D1*
X619103Y936833D1*
X621988Y939685D1*
X592629Y965518D2*
X585433Y935374D1*
X578270Y965518D1*
X571107Y935374D1*
X563911Y965518D1*
X535977Y955470D2*
X537436Y951159D1*
X540288Y948274D1*
X544599Y946848D1*
X546025D1*
X550336Y948274D1*
X553188Y951159D1*
X554647Y955470D1*
Y956896D1*
X553188Y961207D1*
X550336Y964059D1*
X546025Y965485D1*
X544599D1*
X540288Y964059D1*
X537436Y961207D1*
X535977Y955470D1*
Y948274D1*
X537436Y941111D1*
X540288Y936800D1*
X544599Y935374D1*
X547451D1*
X551762Y936800D1*
X553188Y939685D1*
M02*
